0
SECTION
2
HEADER
9
$INSUNITS
70
4
9
$ACADVER
1
AC1014
9
$HANDSEED
5
FFFF
0
ENDSEC
0
SECTION
2
TABLES
0
TABLE
2
VPORT
5
8
100
AcDbSymbolTable
0
ENDTAB
0
TABLE
2
LTYPE
5
5
100
AcDbSymbolTable
0
LTYPE
5
14
100
AcDbSymbolTableRecord
100
AcDbLinetypeTableRecord
2
BYBLOCK
70
0
0
LTYPE
5
15
100
AcDbSymbolTableRecord
100
AcDbLinetypeTableRecord
2
BYLAYER
70
0
0
ENDTAB
0
TABLE
2
LAYER
5
2
100
AcDbSymbolTable
70
2
0
LAYER
5
50
100
AcDbSymbolTableRecord
100
AcDbLayerTableRecord
2
0
70
0
6
CONTINUOUS
0
ENDTAB
0
TABLE
2
STYLE
5
3
100
AcDbSymbolTable
70
1
0
STYLE
5
11
100
AcDbSymbolTableRecord
100
AcDbTextStyleTableRecord
2
STANDARD
70
0
0
ENDTAB
0
TABLE
2
VIEW
5
6
100
AcDbSymbolTable
70
0
0
ENDTAB
0
TABLE
2
UCS
5
7
100
AcDbSymbolTable
70
0
0
ENDTAB
0
TABLE
2
APPID
5
9
100
AcDbSymbolTable
70
2
0
APPID
5
12
100
AcDbSymbolTableRecord
100
AcDbRegAppTableRecord
2
ACAD
70
0
0
ENDTAB
0
TABLE
2
DIMSTYLE
5
A
100
AcDbSymbolTable
70
1
0
ENDTAB
0
TABLE
2
BLOCK_RECORD
5
1
100
AcDbSymbolTable
70
1
0
BLOCK_RECORD
5
1F
100
AcDbSymbolTableRecord
100
AcDbBlockTableRecord
2
*MODEL_SPACE
0
BLOCK_RECORD
5
1B
100
AcDbSymbolTableRecord
100
AcDbBlockTableRecord
2
*PAPER_SPACE
0
ENDTAB
0
ENDSEC
0
SECTION
2
BLOCKS
0
BLOCK
5
20
100
AcDbEntity
100
AcDbBlockBegin
2
*MODEL_SPACE
0
ENDBLK
5
21
100
AcDbEntity
100
AcDbBlockEnd
0
BLOCK
5
1C
100
AcDbEntity
100
AcDbBlockBegin
2
*PAPER_SPACE
0
ENDBLK
5
1D
100
AcDbEntity
100
AcDbBlockEnd
0
ENDSEC
0
SECTION
2
ENTITIES
0
LWPOLYLINE
5
100
100
AcDbEntity
8
0
100
AcDbPolyline
90
32
70
1
43
0.0
10
-368.00000000000006
20
-353
42
-0.41421356237307422
10
-370.00000000000006
20
-350.99999999999994
10
-370.00000000000006
20
-19.000000000000021
42
-0.41421356237307422
10
-368.00000000000006
20
-17
10
-348.00000000000006
20
-16.999999999999968
42
0.41421356237309509
10
-346
20
-14.999999999999968
10
-346
20
-2.0000000000000013
42
-0.41421356237307416
10
-344
20
1.9969865186032957e-16
10
-247
20
6.6613381477509392e-15
42
-0.41421356237309409
10
-245
20
-1.9999999999999796
10
-244.99999999999997
20
-14.999999999999947
42
0.41421356237309509
10
-242.99999999999997
20
-16.999999999999947
10
-127
20
-16.999999999999993
42
0.4142135623730947
10
-125
20
-14.999999999999996
10
-125
20
-2.0000000000000275
42
-0.41421356237309542
10
-123
20
-2.7545467746489765e-14
10
-26.000000000000007
20
-1.3877787807814457e-15
42
-0.41421356237309481
10
-24.000000000000004
20
-2.0000000000000018
10
-24.000000000000004
20
-14.999999999999966
42
0.41421356237309509
10
-22
20
-16.999999999999964
10
-1.9999999999999998
20
-16.999999999999972
42
-0.41421356237309748
10
-9.2039214476697242e-17
20
-18.999999999999986
10
1.1657341758564144e-14
20
-350.99999999999989
42
-0.41421356237307394
10
-2.0000000000000151
20
-352.99999999999989
10
-22
20
-352.99999999999989
42
0.41421356237309509
10
-24.000000000000004
20
-354.99999999999994
10
-24
20
-367.99999999999989
42
-0.41421356237307227
10
-26.000000000000014
20
-369.99999999999994
10
-344.00000000000023
20
-369.99999999999994
42
-0.41421356237307422
10
-346.00000000000023
20
-367.99999999999989
10
-346.00000000000034
20
-355
42
0.41421356237309509
10
-348.0000000000004
20
-353
0
ENDSEC
0
SECTION
2
OBJECTS
0
DICTIONARY
5
C
100
AcDbDictionary
3
ACAD_GROUP
350
D
3
ACAD_MLINESTYLE
350
17
0
DICTIONARY
5
D
100
AcDbDictionary
0
DICTIONARY
5
1A
330
C
100
AcDbDictionary
0
DICTIONARY
5
17
100
AcDbDictionary
0
ENDSEC
0
EOF
