0
SECTION
2
HEADER
9
$INSUNITS
70
4
9
$ACADVER
1
AC1014
9
$HANDSEED
5
FFFF
0
ENDSEC
0
SECTION
2
TABLES
0
TABLE
2
VPORT
5
8
100
AcDbSymbolTable
0
ENDTAB
0
TABLE
2
LTYPE
5
5
100
AcDbSymbolTable
0
LTYPE
5
14
100
AcDbSymbolTableRecord
100
AcDbLinetypeTableRecord
2
BYBLOCK
70
0
0
LTYPE
5
15
100
AcDbSymbolTableRecord
100
AcDbLinetypeTableRecord
2
BYLAYER
70
0
0
ENDTAB
0
TABLE
2
LAYER
5
2
100
AcDbSymbolTable
70
2
0
LAYER
5
50
100
AcDbSymbolTableRecord
100
AcDbLayerTableRecord
2
0
70
0
6
CONTINUOUS
0
ENDTAB
0
TABLE
2
STYLE
5
3
100
AcDbSymbolTable
70
1
0
STYLE
5
11
100
AcDbSymbolTableRecord
100
AcDbTextStyleTableRecord
2
STANDARD
70
0
0
ENDTAB
0
TABLE
2
VIEW
5
6
100
AcDbSymbolTable
70
0
0
ENDTAB
0
TABLE
2
UCS
5
7
100
AcDbSymbolTable
70
0
0
ENDTAB
0
TABLE
2
APPID
5
9
100
AcDbSymbolTable
70
2
0
APPID
5
12
100
AcDbSymbolTableRecord
100
AcDbRegAppTableRecord
2
ACAD
70
0
0
ENDTAB
0
TABLE
2
DIMSTYLE
5
A
100
AcDbSymbolTable
70
1
0
ENDTAB
0
TABLE
2
BLOCK_RECORD
5
1
100
AcDbSymbolTable
70
1
0
BLOCK_RECORD
5
1F
100
AcDbSymbolTableRecord
100
AcDbBlockTableRecord
2
*MODEL_SPACE
0
BLOCK_RECORD
5
1B
100
AcDbSymbolTableRecord
100
AcDbBlockTableRecord
2
*PAPER_SPACE
0
ENDTAB
0
ENDSEC
0
SECTION
2
BLOCKS
0
BLOCK
5
20
100
AcDbEntity
100
AcDbBlockBegin
2
*MODEL_SPACE
0
ENDBLK
5
21
100
AcDbEntity
100
AcDbBlockEnd
0
BLOCK
5
1C
100
AcDbEntity
100
AcDbBlockBegin
2
*PAPER_SPACE
0
ENDBLK
5
1D
100
AcDbEntity
100
AcDbBlockEnd
0
ENDSEC
0
SECTION
2
ENTITIES
0
LWPOLYLINE
5
100
100
AcDbEntity
8
0
100
AcDbPolyline
90
32
70
1
43
0.0
10
-418.00000000000006
20
-403.00000000000006
42
-0.4142135623730534
10
-420.00000000000006
20
-400.99999999999994
10
-420.00000000000006
20
-19.000000000000092
42
-0.41421356237307422
10
-418.00000000000006
20
-17.000000000000075
10
-398
20
-16.999999999999979
42
0.41421356237309509
10
-395.99999999999994
20
-14.999999999999979
10
-396
20
-2
42
-0.41421356237310536
10
-393.99999999999989
20
1.1995240265059657e-15
10
-272
20
8.3266726846886741e-15
42
-0.41421356237309431
10
-270
20
-1.9999999999999796
10
-269.99999999999994
20
-14.999999999999947
42
0.41421356237309509
10
-268
20
-16.999999999999947
10
-152
20
-16.999999999999993
42
0.41421356237309509
10
-150
20
-14.999999999999993
10
-150
20
-2.0000000000000284
42
-0.41421356237309542
10
-148
20
-2.7655879273451801e-14
10
-26.000000000000007
20
-1.3877787807814457e-15
42
-0.41421356237309481
10
-24.000000000000004
20
-2.0000000000000018
10
-24.000000000000004
20
-14.999999999999966
42
0.41421356237309509
10
-22
20
-16.999999999999964
10
-1.9999999999999998
20
-16.999999999999972
42
-0.41421356237309748
10
-9.2039214476697242e-17
20
-18.999999999999986
10
9.1593399531575415e-15
20
-400.99999999999989
42
-0.41421356237307433
10
-2.0000000000000195
20
-402.99999999999989
10
-22.000000000000028
20
-402.99999999999989
42
0.41421356237309509
10
-24.000000000000028
20
-404.99999999999994
10
-24.000000000000039
20
-417.99999999999989
42
-0.41421356237307683
10
-26.000000000000085
20
-419.99999999999994
10
-393.99999999999949
20
-419.99999999999994
42
-0.41421356237307422
10
-395.99999999999955
20
-417.99999999999989
10
-395.99999999999966
20
-405.00000000000006
42
0.41421356237309509
10
-397.99999999999966
20
-403.00000000000006
0
ENDSEC
0
SECTION
2
OBJECTS
0
DICTIONARY
5
C
100
AcDbDictionary
3
ACAD_GROUP
350
D
3
ACAD_MLINESTYLE
350
17
0
DICTIONARY
5
D
100
AcDbDictionary
0
DICTIONARY
5
1A
330
C
100
AcDbDictionary
0
DICTIONARY
5
17
100
AcDbDictionary
0
ENDSEC
0
EOF
