0
SECTION
2
HEADER
9
$INSUNITS
70
4
9
$ACADVER
1
AC1014
9
$HANDSEED
5
FFFF
0
ENDSEC
0
SECTION
2
TABLES
0
TABLE
2
VPORT
5
8
100
AcDbSymbolTable
0
ENDTAB
0
TABLE
2
LTYPE
5
5
100
AcDbSymbolTable
0
LTYPE
5
14
100
AcDbSymbolTableRecord
100
AcDbLinetypeTableRecord
2
BYBLOCK
70
0
0
LTYPE
5
15
100
AcDbSymbolTableRecord
100
AcDbLinetypeTableRecord
2
BYLAYER
70
0
0
ENDTAB
0
TABLE
2
LAYER
5
2
100
AcDbSymbolTable
70
2
0
LAYER
5
50
100
AcDbSymbolTableRecord
100
AcDbLayerTableRecord
2
0
70
0
6
CONTINUOUS
0
ENDTAB
0
TABLE
2
STYLE
5
3
100
AcDbSymbolTable
70
1
0
STYLE
5
11
100
AcDbSymbolTableRecord
100
AcDbTextStyleTableRecord
2
STANDARD
70
0
0
ENDTAB
0
TABLE
2
VIEW
5
6
100
AcDbSymbolTable
70
0
0
ENDTAB
0
TABLE
2
UCS
5
7
100
AcDbSymbolTable
70
0
0
ENDTAB
0
TABLE
2
APPID
5
9
100
AcDbSymbolTable
70
2
0
APPID
5
12
100
AcDbSymbolTableRecord
100
AcDbRegAppTableRecord
2
ACAD
70
0
0
ENDTAB
0
TABLE
2
DIMSTYLE
5
A
100
AcDbSymbolTable
70
1
0
ENDTAB
0
TABLE
2
BLOCK_RECORD
5
1
100
AcDbSymbolTable
70
1
0
BLOCK_RECORD
5
1F
100
AcDbSymbolTableRecord
100
AcDbBlockTableRecord
2
*MODEL_SPACE
0
BLOCK_RECORD
5
1B
100
AcDbSymbolTableRecord
100
AcDbBlockTableRecord
2
*PAPER_SPACE
0
ENDTAB
0
ENDSEC
0
SECTION
2
BLOCKS
0
BLOCK
5
20
100
AcDbEntity
100
AcDbBlockBegin
2
*MODEL_SPACE
0
ENDBLK
5
21
100
AcDbEntity
100
AcDbBlockEnd
0
BLOCK
5
1C
100
AcDbEntity
100
AcDbBlockBegin
2
*PAPER_SPACE
0
ENDBLK
5
1D
100
AcDbEntity
100
AcDbBlockEnd
0
ENDSEC
0
SECTION
2
ENTITIES
0
LWPOLYLINE
5
100
100
AcDbEntity
8
0
100
AcDbPolyline
90
32
70
1
43
0.0
10
-22
20
4.163336342344337e-15
42
-0.41421356237309431
10
-20
20
-2.0000000000000018
10
-20
20
-33
42
0.41421356237309509
10
-18
20
-35
10
-2.0000000000000004
20
-34.999999999999993
42
-0.41421356237309337
10
0
20
-36.999999999999993
10
-4.3021142204224816e-14
20
-333
42
-0.41421356237310536
10
-1.9999999999999996
20
-335
10
-18
20
-335
42
0.41421356237309509
10
-20
20
-337
10
-20.000000000000071
20
-368
42
-0.41421356237310542
10
-22.000000000000028
20
-370
10
-172.99999999999997
20
-370.00000000000006
42
-0.41421356237310542
10
-175
20
-368
10
-175
20
-352
42
0.41421356237309509
10
-177
20
-350
10
-192.99999999999997
20
-350
42
0.41421356237309509
10
-195
20
-352
10
-195
20
-368
42
-0.41421356237308982
10
-197
20
-370
10
-348
20
-370
42
-0.41421356237309509
10
-350
20
-368
10
-350
20
-337
42
0.41421356237309509
10
-352
20
-335
10
-368
20
-335
42
-0.41421356237309509
10
-370
20
-333
10
-370.00000000000006
20
-37
42
-0.41421356237310542
10
-368
20
-35
10
-352
20
-35
42
0.41421356237309509
10
-350
20
-33
10
-350.00000000000006
20
-2
42
-0.41421356237310525
10
-348
20
0
0
LWPOLYLINE
5
101
100
AcDbEntity
8
0
100
AcDbPolyline
90
8
70
1
43
0.0
10
-113
20
-132.99999999999994
10
-107.00000000000001
20
-132.99999999999994
42
0.41421356237309509
10
-105.00000000000001
20
-130.99999999999994
10
-105.00000000000001
20
-118.99999999999999
42
0.41421356237309509
10
-107.00000000000001
20
-117
10
-113
20
-117
42
0.41421356237309509
10
-115
20
-118.99999999999999
10
-115
20
-130.99999999999994
42
0.41421356237309509
0
LWPOLYLINE
5
102
100
AcDbEntity
8
0
100
AcDbPolyline
90
8
70
1
43
0.0
10
-256.99999999999994
20
-237.00000000000003
10
-263
20
-237.00000000000003
42
0.41421356237309509
10
-265
20
-239.00000000000003
10
-265
20
-251
42
0.41421356237309509
10
-263
20
-253.00000000000006
10
-256.99999999999994
20
-253.00000000000006
42
0.41421356237309509
10
-254.99999999999997
20
-251.00000000000006
10
-254.99999999999997
20
-239.00000000000006
42
0.41421356237309509
0
CIRCLE
5
103
100
AcDbEntity
8
0
100
AcDbCircle
10
-185
20
-290.00000000000028
30
0
40
7.5
210
0
220
-0
230
1
0
LWPOLYLINE
5
104
100
AcDbEntity
8
0
100
AcDbPolyline
90
8
70
1
43
0.0
10
-113.00000000000004
20
-253.00000000000006
10
-107.00000000000001
20
-253.00000000000006
42
0.41421356237309509
10
-105.00000000000001
20
-251.00000000000006
10
-105.00000000000001
20
-239.00000000000006
42
0.41421356237309509
10
-107.00000000000001
20
-237.00000000000003
10
-113.00000000000004
20
-237.00000000000003
42
0.41421356237309509
10
-115.00000000000003
20
-239.00000000000003
10
-115.00000000000003
20
-251
42
0.41421356237309509
0
LWPOLYLINE
5
105
100
AcDbEntity
8
0
100
AcDbPolyline
90
8
70
1
43
0.0
10
-255
20
-130.99999999999994
10
-255
20
-118.99999999999999
42
0.41421356237309509
10
-257
20
-117
10
-263
20
-117
42
0.41421356237309509
10
-265
20
-118.99999999999999
10
-265
20
-130.99999999999994
42
0.41421356237309509
10
-263
20
-132.99999999999994
10
-257
20
-132.99999999999994
42
0.41421356237309509
0
ENDSEC
0
SECTION
2
OBJECTS
0
DICTIONARY
5
C
100
AcDbDictionary
3
ACAD_GROUP
350
D
3
ACAD_MLINESTYLE
350
17
0
DICTIONARY
5
D
100
AcDbDictionary
0
DICTIONARY
5
1A
330
C
100
AcDbDictionary
0
DICTIONARY
5
17
100
AcDbDictionary
0
ENDSEC
0
EOF
