0
SECTION
2
HEADER
9
$INSUNITS
70
4
9
$ACADVER
1
AC1014
9
$HANDSEED
5
FFFF
0
ENDSEC
0
SECTION
2
TABLES
0
TABLE
2
VPORT
5
8
100
AcDbSymbolTable
0
ENDTAB
0
TABLE
2
LTYPE
5
5
100
AcDbSymbolTable
0
LTYPE
5
14
100
AcDbSymbolTableRecord
100
AcDbLinetypeTableRecord
2
BYBLOCK
70
0
0
LTYPE
5
15
100
AcDbSymbolTableRecord
100
AcDbLinetypeTableRecord
2
BYLAYER
70
0
0
ENDTAB
0
TABLE
2
LAYER
5
2
100
AcDbSymbolTable
70
2
0
LAYER
5
50
100
AcDbSymbolTableRecord
100
AcDbLayerTableRecord
2
0
70
0
6
CONTINUOUS
0
ENDTAB
0
TABLE
2
STYLE
5
3
100
AcDbSymbolTable
70
1
0
STYLE
5
11
100
AcDbSymbolTableRecord
100
AcDbTextStyleTableRecord
2
STANDARD
70
0
0
ENDTAB
0
TABLE
2
VIEW
5
6
100
AcDbSymbolTable
70
0
0
ENDTAB
0
TABLE
2
UCS
5
7
100
AcDbSymbolTable
70
0
0
ENDTAB
0
TABLE
2
APPID
5
9
100
AcDbSymbolTable
70
2
0
APPID
5
12
100
AcDbSymbolTableRecord
100
AcDbRegAppTableRecord
2
ACAD
70
0
0
ENDTAB
0
TABLE
2
DIMSTYLE
5
A
100
AcDbSymbolTable
70
1
0
ENDTAB
0
TABLE
2
BLOCK_RECORD
5
1
100
AcDbSymbolTable
70
1
0
BLOCK_RECORD
5
1F
100
AcDbSymbolTableRecord
100
AcDbBlockTableRecord
2
*MODEL_SPACE
0
BLOCK_RECORD
5
1B
100
AcDbSymbolTableRecord
100
AcDbBlockTableRecord
2
*PAPER_SPACE
0
ENDTAB
0
ENDSEC
0
SECTION
2
BLOCKS
0
BLOCK
5
20
100
AcDbEntity
100
AcDbBlockBegin
2
*MODEL_SPACE
0
ENDBLK
5
21
100
AcDbEntity
100
AcDbBlockEnd
0
BLOCK
5
1C
100
AcDbEntity
100
AcDbBlockBegin
2
*PAPER_SPACE
0
ENDBLK
5
1D
100
AcDbEntity
100
AcDbBlockEnd
0
ENDSEC
0
SECTION
2
ENTITIES
0
LWPOLYLINE
5
100
100
AcDbEntity
8
0
100
AcDbPolyline
90
32
70
1
43
0.0
10
-22
20
4.163336342344337e-15
42
-0.41421356237309431
10
-20
20
-2.0000000000000018
10
-20
20
-33
42
0.41421356237309509
10
-18
20
-35
10
-2.0000000000000004
20
-34.999999999999993
42
-0.41421356237309337
10
0
20
-37.000000000000028
10
-4.3021142204224816e-14
20
-433
42
-0.41421356237310536
10
-1.9999999999999996
20
-435
10
-18.000000000000007
20
-435
42
0.41421356237309509
10
-20.000000000000007
20
-437
10
-20.000000000000142
20
-468
42
-0.41421356237309509
10
-22.000000000000171
20
-470
10
-222.99999999999997
20
-470.00000000000006
42
-0.41421356237310542
10
-225
20
-468
10
-225
20
-452
42
0.41421356237309509
10
-227
20
-450
10
-242.99999999999997
20
-450
42
0.41421356237309509
10
-245
20
-452
10
-245
20
-468
42
-0.41421356237308982
10
-247
20
-470
10
-448
20
-470
42
-0.41421356237309509
10
-450
20
-468
10
-450
20
-437
42
0.41421356237309509
10
-452
20
-435
10
-468
20
-435
42
-0.41421356237309509
10
-470
20
-433
10
-470.00000000000006
20
-37
42
-0.41421356237310542
10
-468
20
-35
10
-452
20
-35
42
0.41421356237309509
10
-450
20
-33
10
-450.00000000000006
20
-2
42
-0.41421356237310525
10
-448
20
0
0
LWPOLYLINE
5
101
100
AcDbEntity
8
0
100
AcDbPolyline
90
8
70
1
43
0.0
10
-162.99999999999997
20
-183
10
-157
20
-183
42
0.41421356237309509
10
-155.00000000000003
20
-181
10
-155.00000000000003
20
-169
42
0.41421356237309509
10
-157
20
-167
10
-162.99999999999997
20
-167
42
0.41421356237309509
10
-164.99999999999997
20
-169
10
-164.99999999999997
20
-181
42
0.41421356237309509
0
LWPOLYLINE
5
102
100
AcDbEntity
8
0
100
AcDbPolyline
90
8
70
1
43
0.0
10
-307
20
-287
10
-313
20
-287
42
0.41421356237309509
10
-314.99999999999994
20
-289
10
-314.99999999999994
20
-301
42
0.41421356237309509
10
-313
20
-303
10
-307
20
-303
42
0.41421356237309509
10
-305.00000000000006
20
-301
10
-305.00000000000006
20
-289
42
0.41421356237309509
0
CIRCLE
5
103
100
AcDbEntity
8
0
100
AcDbCircle
10
-235
20
-390.00000000000028
30
0
40
7.5
210
0
220
-0
230
1
0
LWPOLYLINE
5
104
100
AcDbEntity
8
0
100
AcDbPolyline
90
8
70
1
43
0.0
10
-162.99999999999997
20
-303
10
-157
20
-303
42
0.41421356237309509
10
-155.00000000000003
20
-301
10
-155.00000000000003
20
-289
42
0.41421356237309509
10
-157
20
-287
10
-162.99999999999997
20
-287
42
0.41421356237309509
10
-164.99999999999997
20
-289
10
-164.99999999999997
20
-301
42
0.41421356237309509
0
LWPOLYLINE
5
105
100
AcDbEntity
8
0
100
AcDbPolyline
90
8
70
1
43
0.0
10
-305.00000000000006
20
-181
10
-305.00000000000006
20
-169
42
0.41421356237309509
10
-307
20
-167
10
-313
20
-167
42
0.41421356237309509
10
-315
20
-169
10
-315
20
-181
42
0.41421356237309509
10
-313
20
-183
10
-307
20
-183
42
0.41421356237309509
0
ENDSEC
0
SECTION
2
OBJECTS
0
DICTIONARY
5
C
100
AcDbDictionary
3
ACAD_GROUP
350
D
3
ACAD_MLINESTYLE
350
17
0
DICTIONARY
5
D
100
AcDbDictionary
0
DICTIONARY
5
1A
330
C
100
AcDbDictionary
0
DICTIONARY
5
17
100
AcDbDictionary
0
ENDSEC
0
EOF
