M48
;DRILL file {KiCad (5.0.0-3-g5ebb6b6)} date Wednesday, August 08, 2018 at 09:58:02 PM
;FORMAT={-:-/ absolute / inch / decimal}
FMAT,2
INCH,TZ
T1C0.0157
T2C0.0268
T3C0.0300
T4C0.0460
%
G90
G05
M72
T1
X5.1363Y-4.169
X5.1417Y-4.2559
X5.1988Y-4.1024
X5.2323Y-4.185
X5.2402Y-3.8701
X5.2402Y-3.9488
X5.4764Y-3.8071
X5.5984Y-3.7874
X5.5984Y-4.0236
X5.748Y-4.0906
X5.9921Y-3.9843
X5.9961Y-4.2638
X6.8346Y-3.9843
X6.915Y-3.985
T2
X6.8201Y-3.7205
X6.8701Y-3.7205
X6.9201Y-3.7205
X4.8622Y-4.1618
X4.8622Y-4.2118
X4.8622Y-4.2618
T3
X6.0197Y-4.187
X6.1181Y-4.2854
X6.2165Y-4.187
X6.0197Y-3.8681
X6.1181Y-3.9665
X6.2165Y-3.8681
T4
X5.4642Y-4.248
X5.5642Y-4.248
X5.6642Y-4.248
X5.7642Y-4.248
T0
M30
