G04 #@! TF.GenerationSoftware,KiCad,Pcbnew,(5.0.0-3-g5ebb6b6)*
G04 #@! TF.CreationDate,2018-08-08T21:58:00-07:00*
G04 #@! TF.ProjectId,MZBOT_XY-Endstop,4D5A424F545F58592D456E6473746F70,A*
G04 #@! TF.SameCoordinates,Original*
G04 #@! TF.FileFunction,Legend,Top*
G04 #@! TF.FilePolarity,Positive*
%FSLAX46Y46*%
G04 Gerber Fmt 4.6, Leading zero omitted, Abs format (unit mm)*
G04 Created by KiCad (PCBNEW (5.0.0-3-g5ebb6b6)) date Wednesday, August 08, 2018 at 09:58:00 PM*
%MOMM*%
%LPD*%
G01*
G04 APERTURE LIST*
%ADD10C,0.150000*%
%ADD11C,0.300000*%
%ADD12C,0.120000*%
G04 APERTURE END LIST*
D10*
X139336428Y-103968571D02*
X139336428Y-104311428D01*
X139336428Y-104140000D02*
X138736428Y-104140000D01*
X138822142Y-104197142D01*
X138879285Y-104254285D01*
X138907857Y-104311428D01*
X171985000Y-97426428D02*
X171985000Y-96826428D01*
X172042142Y-97197857D02*
X172213571Y-97426428D01*
X172213571Y-97026428D02*
X171985000Y-97255000D01*
X126001428Y-109955000D02*
X125401428Y-109955000D01*
X125772857Y-109897857D02*
X126001428Y-109726428D01*
X125601428Y-109726428D02*
X125830000Y-109955000D01*
D11*
X162357142Y-101778571D02*
X163357142Y-103278571D01*
X163357142Y-101778571D02*
X162357142Y-103278571D01*
X164214285Y-102564285D02*
X164214285Y-103278571D01*
X163714285Y-101778571D02*
X164214285Y-102564285D01*
X164714285Y-101778571D01*
X166357142Y-102492857D02*
X166857142Y-102492857D01*
X167071428Y-103278571D02*
X166357142Y-103278571D01*
X166357142Y-101778571D01*
X167071428Y-101778571D01*
X167714285Y-102278571D02*
X167714285Y-103278571D01*
X167714285Y-102421428D02*
X167785714Y-102350000D01*
X167928571Y-102278571D01*
X168142857Y-102278571D01*
X168285714Y-102350000D01*
X168357142Y-102492857D01*
X168357142Y-103278571D01*
X169714285Y-103278571D02*
X169714285Y-101778571D01*
X169714285Y-103207142D02*
X169571428Y-103278571D01*
X169285714Y-103278571D01*
X169142857Y-103207142D01*
X169071428Y-103135714D01*
X169000000Y-102992857D01*
X169000000Y-102564285D01*
X169071428Y-102421428D01*
X169142857Y-102350000D01*
X169285714Y-102278571D01*
X169571428Y-102278571D01*
X169714285Y-102350000D01*
X170357142Y-103207142D02*
X170500000Y-103278571D01*
X170785714Y-103278571D01*
X170928571Y-103207142D01*
X171000000Y-103064285D01*
X171000000Y-102992857D01*
X170928571Y-102850000D01*
X170785714Y-102778571D01*
X170571428Y-102778571D01*
X170428571Y-102707142D01*
X170357142Y-102564285D01*
X170357142Y-102492857D01*
X170428571Y-102350000D01*
X170571428Y-102278571D01*
X170785714Y-102278571D01*
X170928571Y-102350000D01*
X171428571Y-102278571D02*
X172000000Y-102278571D01*
X171642857Y-101778571D02*
X171642857Y-103064285D01*
X171714285Y-103207142D01*
X171857142Y-103278571D01*
X172000000Y-103278571D01*
X172714285Y-103278571D02*
X172571428Y-103207142D01*
X172500000Y-103135714D01*
X172428571Y-102992857D01*
X172428571Y-102564285D01*
X172500000Y-102421428D01*
X172571428Y-102350000D01*
X172714285Y-102278571D01*
X172928571Y-102278571D01*
X173071428Y-102350000D01*
X173142857Y-102421428D01*
X173214285Y-102564285D01*
X173214285Y-102992857D01*
X173142857Y-103135714D01*
X173071428Y-103207142D01*
X172928571Y-103278571D01*
X172714285Y-103278571D01*
X173857142Y-102278571D02*
X173857142Y-103778571D01*
X173857142Y-102350000D02*
X174000000Y-102278571D01*
X174285714Y-102278571D01*
X174428571Y-102350000D01*
X174500000Y-102421428D01*
X174571428Y-102564285D01*
X174571428Y-102992857D01*
X174500000Y-103135714D01*
X174428571Y-103207142D01*
X174285714Y-103278571D01*
X174000000Y-103278571D01*
X173857142Y-103207142D01*
D10*
G04 #@! TO.C,U1*
X122500000Y-105680000D02*
X122500000Y-108280000D01*
X124300000Y-108980000D02*
X123200000Y-108980000D01*
X122500000Y-108280000D02*
X123200000Y-108980000D01*
X124300000Y-104980000D02*
X123200000Y-104980000D01*
X123200000Y-104980000D02*
X122500000Y-105680000D01*
X124300000Y-106980000D02*
X124300000Y-108980000D01*
X124300000Y-106980000D02*
X124300000Y-104980000D01*
D12*
G04 #@! TO.C,C5*
X128922200Y-106505800D02*
X128222200Y-106505800D01*
X128222200Y-105305800D02*
X128922200Y-105305800D01*
G04 #@! TO.C,R9*
X129008000Y-108770200D02*
X128008000Y-108770200D01*
X128008000Y-107410200D02*
X129008000Y-107410200D01*
G04 #@! TO.C,C1*
X148600000Y-107850000D02*
X148600000Y-107150000D01*
X149800000Y-107150000D02*
X149800000Y-107850000D01*
G04 #@! TO.C,C2*
X148500000Y-100850000D02*
X148500000Y-100150000D01*
X149700000Y-100150000D02*
X149700000Y-100850000D01*
G04 #@! TO.C,C3*
X134950000Y-105700000D02*
X135650000Y-105700000D01*
X135650000Y-106900000D02*
X134950000Y-106900000D01*
G04 #@! TO.C,C4*
X134950000Y-97800000D02*
X135650000Y-97800000D01*
X135650000Y-99000000D02*
X134950000Y-99000000D01*
G04 #@! TO.C,R1*
X149880000Y-104300000D02*
X149880000Y-105300000D01*
X148520000Y-105300000D02*
X148520000Y-104300000D01*
G04 #@! TO.C,R2*
X150020000Y-108000000D02*
X150020000Y-107000000D01*
X151380000Y-107000000D02*
X151380000Y-108000000D01*
G04 #@! TO.C,R3*
X149780000Y-97200000D02*
X149780000Y-98200000D01*
X148420000Y-98200000D02*
X148420000Y-97200000D01*
G04 #@! TO.C,R4*
X150020000Y-101000000D02*
X150020000Y-100000000D01*
X151380000Y-100000000D02*
X151380000Y-101000000D01*
G04 #@! TO.C,R10*
X172938400Y-99522400D02*
X172938400Y-98522400D01*
X174298400Y-98522400D02*
X174298400Y-99522400D01*
D10*
G04 #@! TO.C,U2*
X175800000Y-93500000D02*
X173200000Y-93500000D01*
X172500000Y-95300000D02*
X172500000Y-94200000D01*
X173200000Y-93500000D02*
X172500000Y-94200000D01*
X176500000Y-95300000D02*
X176500000Y-94200000D01*
X176500000Y-94200000D02*
X175800000Y-93500000D01*
X174500000Y-95300000D02*
X172500000Y-95300000D01*
X174500000Y-95300000D02*
X176500000Y-95300000D01*
G04 #@! TO.C,U3*
X140225000Y-103275000D02*
X140275000Y-103275000D01*
X140225000Y-99125000D02*
X140370000Y-99125000D01*
X145375000Y-99125000D02*
X145230000Y-99125000D01*
X145375000Y-103275000D02*
X145230000Y-103275000D01*
X140225000Y-103275000D02*
X140225000Y-99125000D01*
X145375000Y-103275000D02*
X145375000Y-99125000D01*
X140275000Y-103275000D02*
X140275000Y-104675000D01*
D12*
G04 #@! TO.C,U4*
X136260000Y-102780000D02*
X136260000Y-101850000D01*
X136260000Y-99620000D02*
X136260000Y-100550000D01*
X136260000Y-99620000D02*
X134100000Y-99620000D01*
X136260000Y-102780000D02*
X134800000Y-102780000D01*
G04 #@! TO.C,C6*
X175050400Y-99474000D02*
X175050400Y-98774000D01*
X176250400Y-98774000D02*
X176250400Y-99474000D01*
G04 #@! TO.C,C7*
X138500000Y-99250000D02*
X138500000Y-98550000D01*
X139700000Y-98550000D02*
X139700000Y-99250000D01*
G04 #@! TO.C,C8*
X134900000Y-105050000D02*
X135900000Y-105050000D01*
X135900000Y-103350000D02*
X134900000Y-103350000D01*
G04 #@! TO.C,D1*
X125050000Y-108800000D02*
X126450000Y-108800000D01*
X126450000Y-108800000D02*
X126450000Y-106000000D01*
X125050000Y-108800000D02*
X125050000Y-106000000D01*
G04 #@! TO.C,D2*
X172758200Y-95731600D02*
X172758200Y-97131600D01*
X172758200Y-97131600D02*
X175558200Y-97131600D01*
X172758200Y-95731600D02*
X175558200Y-95731600D01*
G04 #@! TO.C,U1*
X123471428Y-104557142D02*
X123957142Y-104557142D01*
X124014285Y-104528571D01*
X124042857Y-104500000D01*
X124071428Y-104442857D01*
X124071428Y-104328571D01*
X124042857Y-104271428D01*
X124014285Y-104242857D01*
X123957142Y-104214285D01*
X123471428Y-104214285D01*
X124071428Y-103614285D02*
X124071428Y-103957142D01*
X124071428Y-103785714D02*
X123471428Y-103785714D01*
X123557142Y-103842857D01*
X123614285Y-103900000D01*
X123642857Y-103957142D01*
G04 #@! TO.C,C5*
X128400000Y-104914285D02*
X128371428Y-104942857D01*
X128285714Y-104971428D01*
X128228571Y-104971428D01*
X128142857Y-104942857D01*
X128085714Y-104885714D01*
X128057142Y-104828571D01*
X128028571Y-104714285D01*
X128028571Y-104628571D01*
X128057142Y-104514285D01*
X128085714Y-104457142D01*
X128142857Y-104400000D01*
X128228571Y-104371428D01*
X128285714Y-104371428D01*
X128371428Y-104400000D01*
X128400000Y-104428571D01*
X128942857Y-104371428D02*
X128657142Y-104371428D01*
X128628571Y-104657142D01*
X128657142Y-104628571D01*
X128714285Y-104600000D01*
X128857142Y-104600000D01*
X128914285Y-104628571D01*
X128942857Y-104657142D01*
X128971428Y-104714285D01*
X128971428Y-104857142D01*
X128942857Y-104914285D01*
X128914285Y-104942857D01*
X128857142Y-104971428D01*
X128714285Y-104971428D01*
X128657142Y-104942857D01*
X128628571Y-104914285D01*
G04 #@! TO.C,R9*
X128400000Y-109671428D02*
X128200000Y-109385714D01*
X128057142Y-109671428D02*
X128057142Y-109071428D01*
X128285714Y-109071428D01*
X128342857Y-109100000D01*
X128371428Y-109128571D01*
X128400000Y-109185714D01*
X128400000Y-109271428D01*
X128371428Y-109328571D01*
X128342857Y-109357142D01*
X128285714Y-109385714D01*
X128057142Y-109385714D01*
X128685714Y-109671428D02*
X128800000Y-109671428D01*
X128857142Y-109642857D01*
X128885714Y-109614285D01*
X128942857Y-109528571D01*
X128971428Y-109414285D01*
X128971428Y-109185714D01*
X128942857Y-109128571D01*
X128914285Y-109100000D01*
X128857142Y-109071428D01*
X128742857Y-109071428D01*
X128685714Y-109100000D01*
X128657142Y-109128571D01*
X128628571Y-109185714D01*
X128628571Y-109328571D01*
X128657142Y-109385714D01*
X128685714Y-109414285D01*
X128742857Y-109442857D01*
X128857142Y-109442857D01*
X128914285Y-109414285D01*
X128942857Y-109385714D01*
X128971428Y-109328571D01*
G04 #@! TO.C,C1*
X149364285Y-109600000D02*
X149392857Y-109628571D01*
X149421428Y-109714285D01*
X149421428Y-109771428D01*
X149392857Y-109857142D01*
X149335714Y-109914285D01*
X149278571Y-109942857D01*
X149164285Y-109971428D01*
X149078571Y-109971428D01*
X148964285Y-109942857D01*
X148907142Y-109914285D01*
X148850000Y-109857142D01*
X148821428Y-109771428D01*
X148821428Y-109714285D01*
X148850000Y-109628571D01*
X148878571Y-109600000D01*
X149421428Y-109028571D02*
X149421428Y-109371428D01*
X149421428Y-109200000D02*
X148821428Y-109200000D01*
X148907142Y-109257142D01*
X148964285Y-109314285D01*
X148992857Y-109371428D01*
G04 #@! TO.C,C2*
X148114285Y-100600000D02*
X148142857Y-100628571D01*
X148171428Y-100714285D01*
X148171428Y-100771428D01*
X148142857Y-100857142D01*
X148085714Y-100914285D01*
X148028571Y-100942857D01*
X147914285Y-100971428D01*
X147828571Y-100971428D01*
X147714285Y-100942857D01*
X147657142Y-100914285D01*
X147600000Y-100857142D01*
X147571428Y-100771428D01*
X147571428Y-100714285D01*
X147600000Y-100628571D01*
X147628571Y-100600000D01*
X147628571Y-100371428D02*
X147600000Y-100342857D01*
X147571428Y-100285714D01*
X147571428Y-100142857D01*
X147600000Y-100085714D01*
X147628571Y-100057142D01*
X147685714Y-100028571D01*
X147742857Y-100028571D01*
X147828571Y-100057142D01*
X148171428Y-100400000D01*
X148171428Y-100028571D01*
G04 #@! TO.C,C3*
X133050000Y-106564285D02*
X133021428Y-106592857D01*
X132935714Y-106621428D01*
X132878571Y-106621428D01*
X132792857Y-106592857D01*
X132735714Y-106535714D01*
X132707142Y-106478571D01*
X132678571Y-106364285D01*
X132678571Y-106278571D01*
X132707142Y-106164285D01*
X132735714Y-106107142D01*
X132792857Y-106050000D01*
X132878571Y-106021428D01*
X132935714Y-106021428D01*
X133021428Y-106050000D01*
X133050000Y-106078571D01*
X133250000Y-106021428D02*
X133621428Y-106021428D01*
X133421428Y-106250000D01*
X133507142Y-106250000D01*
X133564285Y-106278571D01*
X133592857Y-106307142D01*
X133621428Y-106364285D01*
X133621428Y-106507142D01*
X133592857Y-106564285D01*
X133564285Y-106592857D01*
X133507142Y-106621428D01*
X133335714Y-106621428D01*
X133278571Y-106592857D01*
X133250000Y-106564285D01*
G04 #@! TO.C,C4*
X133100000Y-98614285D02*
X133071428Y-98642857D01*
X132985714Y-98671428D01*
X132928571Y-98671428D01*
X132842857Y-98642857D01*
X132785714Y-98585714D01*
X132757142Y-98528571D01*
X132728571Y-98414285D01*
X132728571Y-98328571D01*
X132757142Y-98214285D01*
X132785714Y-98157142D01*
X132842857Y-98100000D01*
X132928571Y-98071428D01*
X132985714Y-98071428D01*
X133071428Y-98100000D01*
X133100000Y-98128571D01*
X133614285Y-98271428D02*
X133614285Y-98671428D01*
X133471428Y-98042857D02*
X133328571Y-98471428D01*
X133700000Y-98471428D01*
G04 #@! TO.C,R1*
X148221428Y-104900000D02*
X147935714Y-105100000D01*
X148221428Y-105242857D02*
X147621428Y-105242857D01*
X147621428Y-105014285D01*
X147650000Y-104957142D01*
X147678571Y-104928571D01*
X147735714Y-104900000D01*
X147821428Y-104900000D01*
X147878571Y-104928571D01*
X147907142Y-104957142D01*
X147935714Y-105014285D01*
X147935714Y-105242857D01*
X148221428Y-104328571D02*
X148221428Y-104671428D01*
X148221428Y-104500000D02*
X147621428Y-104500000D01*
X147707142Y-104557142D01*
X147764285Y-104614285D01*
X147792857Y-104671428D01*
G04 #@! TO.C,R2*
X150971428Y-109650000D02*
X150685714Y-109850000D01*
X150971428Y-109992857D02*
X150371428Y-109992857D01*
X150371428Y-109764285D01*
X150400000Y-109707142D01*
X150428571Y-109678571D01*
X150485714Y-109650000D01*
X150571428Y-109650000D01*
X150628571Y-109678571D01*
X150657142Y-109707142D01*
X150685714Y-109764285D01*
X150685714Y-109992857D01*
X150428571Y-109421428D02*
X150400000Y-109392857D01*
X150371428Y-109335714D01*
X150371428Y-109192857D01*
X150400000Y-109135714D01*
X150428571Y-109107142D01*
X150485714Y-109078571D01*
X150542857Y-109078571D01*
X150628571Y-109107142D01*
X150971428Y-109450000D01*
X150971428Y-109078571D01*
G04 #@! TO.C,R3*
X148201428Y-97770000D02*
X147915714Y-97970000D01*
X148201428Y-98112857D02*
X147601428Y-98112857D01*
X147601428Y-97884285D01*
X147630000Y-97827142D01*
X147658571Y-97798571D01*
X147715714Y-97770000D01*
X147801428Y-97770000D01*
X147858571Y-97798571D01*
X147887142Y-97827142D01*
X147915714Y-97884285D01*
X147915714Y-98112857D01*
X147601428Y-97570000D02*
X147601428Y-97198571D01*
X147830000Y-97398571D01*
X147830000Y-97312857D01*
X147858571Y-97255714D01*
X147887142Y-97227142D01*
X147944285Y-97198571D01*
X148087142Y-97198571D01*
X148144285Y-97227142D01*
X148172857Y-97255714D01*
X148201428Y-97312857D01*
X148201428Y-97484285D01*
X148172857Y-97541428D01*
X148144285Y-97570000D01*
G04 #@! TO.C,R4*
X150971428Y-98750000D02*
X150685714Y-98950000D01*
X150971428Y-99092857D02*
X150371428Y-99092857D01*
X150371428Y-98864285D01*
X150400000Y-98807142D01*
X150428571Y-98778571D01*
X150485714Y-98750000D01*
X150571428Y-98750000D01*
X150628571Y-98778571D01*
X150657142Y-98807142D01*
X150685714Y-98864285D01*
X150685714Y-99092857D01*
X150571428Y-98235714D02*
X150971428Y-98235714D01*
X150342857Y-98378571D02*
X150771428Y-98521428D01*
X150771428Y-98150000D01*
G04 #@! TO.C,R10*
X172521428Y-99385714D02*
X172235714Y-99585714D01*
X172521428Y-99728571D02*
X171921428Y-99728571D01*
X171921428Y-99500000D01*
X171950000Y-99442857D01*
X171978571Y-99414285D01*
X172035714Y-99385714D01*
X172121428Y-99385714D01*
X172178571Y-99414285D01*
X172207142Y-99442857D01*
X172235714Y-99500000D01*
X172235714Y-99728571D01*
X172521428Y-98814285D02*
X172521428Y-99157142D01*
X172521428Y-98985714D02*
X171921428Y-98985714D01*
X172007142Y-99042857D01*
X172064285Y-99100000D01*
X172092857Y-99157142D01*
X171921428Y-98442857D02*
X171921428Y-98385714D01*
X171950000Y-98328571D01*
X171978571Y-98300000D01*
X172035714Y-98271428D01*
X172150000Y-98242857D01*
X172292857Y-98242857D01*
X172407142Y-98271428D01*
X172464285Y-98300000D01*
X172492857Y-98328571D01*
X172521428Y-98385714D01*
X172521428Y-98442857D01*
X172492857Y-98500000D01*
X172464285Y-98528571D01*
X172407142Y-98557142D01*
X172292857Y-98585714D01*
X172150000Y-98585714D01*
X172035714Y-98557142D01*
X171978571Y-98528571D01*
X171950000Y-98500000D01*
X171921428Y-98442857D01*
G04 #@! TO.C,U2*
X171142857Y-94471428D02*
X171142857Y-94957142D01*
X171171428Y-95014285D01*
X171200000Y-95042857D01*
X171257142Y-95071428D01*
X171371428Y-95071428D01*
X171428571Y-95042857D01*
X171457142Y-95014285D01*
X171485714Y-94957142D01*
X171485714Y-94471428D01*
X171742857Y-94528571D02*
X171771428Y-94500000D01*
X171828571Y-94471428D01*
X171971428Y-94471428D01*
X172028571Y-94500000D01*
X172057142Y-94528571D01*
X172085714Y-94585714D01*
X172085714Y-94642857D01*
X172057142Y-94728571D01*
X171714285Y-95071428D01*
X172085714Y-95071428D01*
G04 #@! TO.C,U3*
X146092857Y-98821428D02*
X146092857Y-99307142D01*
X146121428Y-99364285D01*
X146150000Y-99392857D01*
X146207142Y-99421428D01*
X146321428Y-99421428D01*
X146378571Y-99392857D01*
X146407142Y-99364285D01*
X146435714Y-99307142D01*
X146435714Y-98821428D01*
X146664285Y-98821428D02*
X147035714Y-98821428D01*
X146835714Y-99050000D01*
X146921428Y-99050000D01*
X146978571Y-99078571D01*
X147007142Y-99107142D01*
X147035714Y-99164285D01*
X147035714Y-99307142D01*
X147007142Y-99364285D01*
X146978571Y-99392857D01*
X146921428Y-99421428D01*
X146750000Y-99421428D01*
X146692857Y-99392857D01*
X146664285Y-99364285D01*
G04 #@! TO.C,U4*
X132642857Y-100871428D02*
X132642857Y-101357142D01*
X132671428Y-101414285D01*
X132700000Y-101442857D01*
X132757142Y-101471428D01*
X132871428Y-101471428D01*
X132928571Y-101442857D01*
X132957142Y-101414285D01*
X132985714Y-101357142D01*
X132985714Y-100871428D01*
X133528571Y-101071428D02*
X133528571Y-101471428D01*
X133385714Y-100842857D02*
X133242857Y-101271428D01*
X133614285Y-101271428D01*
G04 #@! TO.C,C6*
X177114285Y-99200000D02*
X177142857Y-99228571D01*
X177171428Y-99314285D01*
X177171428Y-99371428D01*
X177142857Y-99457142D01*
X177085714Y-99514285D01*
X177028571Y-99542857D01*
X176914285Y-99571428D01*
X176828571Y-99571428D01*
X176714285Y-99542857D01*
X176657142Y-99514285D01*
X176600000Y-99457142D01*
X176571428Y-99371428D01*
X176571428Y-99314285D01*
X176600000Y-99228571D01*
X176628571Y-99200000D01*
X176571428Y-98685714D02*
X176571428Y-98800000D01*
X176600000Y-98857142D01*
X176628571Y-98885714D01*
X176714285Y-98942857D01*
X176828571Y-98971428D01*
X177057142Y-98971428D01*
X177114285Y-98942857D01*
X177142857Y-98914285D01*
X177171428Y-98857142D01*
X177171428Y-98742857D01*
X177142857Y-98685714D01*
X177114285Y-98657142D01*
X177057142Y-98628571D01*
X176914285Y-98628571D01*
X176857142Y-98657142D01*
X176828571Y-98685714D01*
X176800000Y-98742857D01*
X176800000Y-98857142D01*
X176828571Y-98914285D01*
X176857142Y-98942857D01*
X176914285Y-98971428D01*
G04 #@! TO.C,C7*
X138064285Y-99000000D02*
X138092857Y-99028571D01*
X138121428Y-99114285D01*
X138121428Y-99171428D01*
X138092857Y-99257142D01*
X138035714Y-99314285D01*
X137978571Y-99342857D01*
X137864285Y-99371428D01*
X137778571Y-99371428D01*
X137664285Y-99342857D01*
X137607142Y-99314285D01*
X137550000Y-99257142D01*
X137521428Y-99171428D01*
X137521428Y-99114285D01*
X137550000Y-99028571D01*
X137578571Y-99000000D01*
X137521428Y-98800000D02*
X137521428Y-98400000D01*
X138121428Y-98657142D01*
G04 #@! TO.C,C8*
X132900000Y-104414285D02*
X132871428Y-104442857D01*
X132785714Y-104471428D01*
X132728571Y-104471428D01*
X132642857Y-104442857D01*
X132585714Y-104385714D01*
X132557142Y-104328571D01*
X132528571Y-104214285D01*
X132528571Y-104128571D01*
X132557142Y-104014285D01*
X132585714Y-103957142D01*
X132642857Y-103900000D01*
X132728571Y-103871428D01*
X132785714Y-103871428D01*
X132871428Y-103900000D01*
X132900000Y-103928571D01*
X133242857Y-104128571D02*
X133185714Y-104100000D01*
X133157142Y-104071428D01*
X133128571Y-104014285D01*
X133128571Y-103985714D01*
X133157142Y-103928571D01*
X133185714Y-103900000D01*
X133242857Y-103871428D01*
X133357142Y-103871428D01*
X133414285Y-103900000D01*
X133442857Y-103928571D01*
X133471428Y-103985714D01*
X133471428Y-104014285D01*
X133442857Y-104071428D01*
X133414285Y-104100000D01*
X133357142Y-104128571D01*
X133242857Y-104128571D01*
X133185714Y-104157142D01*
X133157142Y-104185714D01*
X133128571Y-104242857D01*
X133128571Y-104357142D01*
X133157142Y-104414285D01*
X133185714Y-104442857D01*
X133242857Y-104471428D01*
X133357142Y-104471428D01*
X133414285Y-104442857D01*
X133442857Y-104414285D01*
X133471428Y-104357142D01*
X133471428Y-104242857D01*
X133442857Y-104185714D01*
X133414285Y-104157142D01*
X133357142Y-104128571D01*
G04 #@! TO.C,D1*
X126071428Y-104742857D02*
X125471428Y-104742857D01*
X125471428Y-104600000D01*
X125500000Y-104514285D01*
X125557142Y-104457142D01*
X125614285Y-104428571D01*
X125728571Y-104400000D01*
X125814285Y-104400000D01*
X125928571Y-104428571D01*
X125985714Y-104457142D01*
X126042857Y-104514285D01*
X126071428Y-104600000D01*
X126071428Y-104742857D01*
X126071428Y-103828571D02*
X126071428Y-104171428D01*
X126071428Y-104000000D02*
X125471428Y-104000000D01*
X125557142Y-104057142D01*
X125614285Y-104114285D01*
X125642857Y-104171428D01*
G04 #@! TO.C,D2*
X171257142Y-96771428D02*
X171257142Y-96171428D01*
X171400000Y-96171428D01*
X171485714Y-96200000D01*
X171542857Y-96257142D01*
X171571428Y-96314285D01*
X171600000Y-96428571D01*
X171600000Y-96514285D01*
X171571428Y-96628571D01*
X171542857Y-96685714D01*
X171485714Y-96742857D01*
X171400000Y-96771428D01*
X171257142Y-96771428D01*
X171828571Y-96228571D02*
X171857142Y-96200000D01*
X171914285Y-96171428D01*
X172057142Y-96171428D01*
X172114285Y-96200000D01*
X172142857Y-96228571D01*
X172171428Y-96285714D01*
X172171428Y-96342857D01*
X172142857Y-96428571D01*
X171800000Y-96771428D01*
X172171428Y-96771428D01*
G04 #@! TD*
M02*
