G04 #@! TF.GenerationSoftware,KiCad,Pcbnew,(5.0.0-3-g5ebb6b6)*
G04 #@! TF.CreationDate,2018-08-08T21:58:00-07:00*
G04 #@! TF.ProjectId,MZBOT_XY-Endstop,4D5A424F545F58592D456E6473746F70,A*
G04 #@! TF.SameCoordinates,Original*
G04 #@! TF.FileFunction,Legend,Bot*
G04 #@! TF.FilePolarity,Positive*
%FSLAX46Y46*%
G04 Gerber Fmt 4.6, Leading zero omitted, Abs format (unit mm)*
G04 Created by KiCad (PCBNEW (5.0.0-3-g5ebb6b6)) date Wednesday, August 08, 2018 at 09:58:00 PM*
%MOMM*%
%LPD*%
G01*
G04 APERTURE LIST*
%ADD10C,0.150000*%
%ADD11C,0.140000*%
%ADD12C,0.250000*%
%ADD13C,0.300000*%
%ADD14C,0.010000*%
G04 APERTURE END LIST*
D10*
X124428571Y-100707142D02*
X123828571Y-100507142D01*
X124428571Y-100307142D01*
X124371428Y-100135714D02*
X124400000Y-100107142D01*
X124428571Y-100050000D01*
X124428571Y-99907142D01*
X124400000Y-99850000D01*
X124371428Y-99821428D01*
X124314285Y-99792857D01*
X124257142Y-99792857D01*
X124171428Y-99821428D01*
X123828571Y-100164285D01*
X123828571Y-99792857D01*
X124228571Y-99278571D02*
X123828571Y-99278571D01*
X124457142Y-99421428D02*
X124028571Y-99564285D01*
X124028571Y-99192857D01*
X124057142Y-98964285D02*
X124057142Y-98507142D01*
X123828571Y-98221428D02*
X124428571Y-98221428D01*
X124428571Y-97992857D01*
X124400000Y-97935714D01*
X124371428Y-97907142D01*
X124314285Y-97878571D01*
X124228571Y-97878571D01*
X124171428Y-97907142D01*
X124142857Y-97935714D01*
X124114285Y-97992857D01*
X124114285Y-98221428D01*
X123885714Y-97278571D02*
X123857142Y-97307142D01*
X123828571Y-97392857D01*
X123828571Y-97450000D01*
X123857142Y-97535714D01*
X123914285Y-97592857D01*
X123971428Y-97621428D01*
X124085714Y-97650000D01*
X124171428Y-97650000D01*
X124285714Y-97621428D01*
X124342857Y-97592857D01*
X124400000Y-97535714D01*
X124428571Y-97450000D01*
X124428571Y-97392857D01*
X124400000Y-97307142D01*
X124371428Y-97278571D01*
X124142857Y-96821428D02*
X124114285Y-96735714D01*
X124085714Y-96707142D01*
X124028571Y-96678571D01*
X123942857Y-96678571D01*
X123885714Y-96707142D01*
X123857142Y-96735714D01*
X123828571Y-96792857D01*
X123828571Y-97021428D01*
X124428571Y-97021428D01*
X124428571Y-96821428D01*
X124400000Y-96764285D01*
X124371428Y-96735714D01*
X124314285Y-96707142D01*
X124257142Y-96707142D01*
X124200000Y-96735714D01*
X124171428Y-96764285D01*
X124142857Y-96821428D01*
X124142857Y-97021428D01*
X124057142Y-96421428D02*
X124057142Y-95964285D01*
X124142857Y-95678571D02*
X124142857Y-95478571D01*
X123828571Y-95392857D02*
X123828571Y-95678571D01*
X124428571Y-95678571D01*
X124428571Y-95392857D01*
X123857142Y-95164285D02*
X123828571Y-95078571D01*
X123828571Y-94935714D01*
X123857142Y-94878571D01*
X123885714Y-94850000D01*
X123942857Y-94821428D01*
X124000000Y-94821428D01*
X124057142Y-94850000D01*
X124085714Y-94878571D01*
X124114285Y-94935714D01*
X124142857Y-95050000D01*
X124171428Y-95107142D01*
X124200000Y-95135714D01*
X124257142Y-95164285D01*
X124314285Y-95164285D01*
X124371428Y-95135714D01*
X124400000Y-95107142D01*
X124428571Y-95050000D01*
X124428571Y-94907142D01*
X124400000Y-94821428D01*
X123828571Y-94250000D02*
X123828571Y-94592857D01*
X123828571Y-94421428D02*
X124428571Y-94421428D01*
X124342857Y-94478571D01*
X124285714Y-94535714D01*
X124257142Y-94592857D01*
X122918571Y-98291428D02*
X123204285Y-98491428D01*
X122918571Y-98634285D02*
X123518571Y-98634285D01*
X123518571Y-98405714D01*
X123490000Y-98348571D01*
X123461428Y-98320000D01*
X123404285Y-98291428D01*
X123318571Y-98291428D01*
X123261428Y-98320000D01*
X123232857Y-98348571D01*
X123204285Y-98405714D01*
X123204285Y-98634285D01*
X123232857Y-98034285D02*
X123232857Y-97834285D01*
X122918571Y-97748571D02*
X122918571Y-98034285D01*
X123518571Y-98034285D01*
X123518571Y-97748571D01*
X123518571Y-97577142D02*
X122918571Y-97377142D01*
X123518571Y-97177142D01*
X123232857Y-96320000D02*
X123204285Y-96234285D01*
X123175714Y-96205714D01*
X123118571Y-96177142D01*
X123032857Y-96177142D01*
X122975714Y-96205714D01*
X122947142Y-96234285D01*
X122918571Y-96291428D01*
X122918571Y-96520000D01*
X123518571Y-96520000D01*
X123518571Y-96320000D01*
X123490000Y-96262857D01*
X123461428Y-96234285D01*
X123404285Y-96205714D01*
X123347142Y-96205714D01*
X123290000Y-96234285D01*
X123261428Y-96262857D01*
X123232857Y-96320000D01*
X123232857Y-96520000D01*
X122975714Y-95920000D02*
X122947142Y-95891428D01*
X122918571Y-95920000D01*
X122947142Y-95948571D01*
X122975714Y-95920000D01*
X122918571Y-95920000D01*
X123518571Y-95520000D02*
X123518571Y-95405714D01*
X123490000Y-95348571D01*
X123432857Y-95291428D01*
X123318571Y-95262857D01*
X123118571Y-95262857D01*
X123004285Y-95291428D01*
X122947142Y-95348571D01*
X122918571Y-95405714D01*
X122918571Y-95520000D01*
X122947142Y-95577142D01*
X123004285Y-95634285D01*
X123118571Y-95662857D01*
X123318571Y-95662857D01*
X123432857Y-95634285D01*
X123490000Y-95577142D01*
X123518571Y-95520000D01*
X122918571Y-95005714D02*
X123518571Y-95005714D01*
X122918571Y-94377142D02*
X123204285Y-94577142D01*
X122918571Y-94720000D02*
X123518571Y-94720000D01*
X123518571Y-94491428D01*
X123490000Y-94434285D01*
X123461428Y-94405714D01*
X123404285Y-94377142D01*
X123318571Y-94377142D01*
X123261428Y-94405714D01*
X123232857Y-94434285D01*
X123204285Y-94491428D01*
X123204285Y-94720000D01*
D11*
X134435714Y-99816666D02*
X134378571Y-99659523D01*
X134321428Y-99607142D01*
X134207142Y-99554761D01*
X134035714Y-99554761D01*
X133921428Y-99607142D01*
X133864285Y-99659523D01*
X133807142Y-99764285D01*
X133807142Y-100183333D01*
X135007142Y-100183333D01*
X135007142Y-99816666D01*
X134950000Y-99711904D01*
X134892857Y-99659523D01*
X134778571Y-99607142D01*
X134664285Y-99607142D01*
X134550000Y-99659523D01*
X134492857Y-99711904D01*
X134435714Y-99816666D01*
X134435714Y-100183333D01*
X135007142Y-98873809D02*
X135007142Y-98664285D01*
X134950000Y-98559523D01*
X134835714Y-98454761D01*
X134607142Y-98402380D01*
X134207142Y-98402380D01*
X133978571Y-98454761D01*
X133864285Y-98559523D01*
X133807142Y-98664285D01*
X133807142Y-98873809D01*
X133864285Y-98978571D01*
X133978571Y-99083333D01*
X134207142Y-99135714D01*
X134607142Y-99135714D01*
X134835714Y-99083333D01*
X134950000Y-98978571D01*
X135007142Y-98873809D01*
X135007142Y-98088095D02*
X135007142Y-97459523D01*
X133807142Y-97773809D02*
X135007142Y-97773809D01*
D12*
X133852380Y-102440476D02*
X134952380Y-102440476D01*
X134166666Y-102073809D01*
X134952380Y-101707142D01*
X133852380Y-101707142D01*
X134952380Y-101288095D02*
X134952380Y-100554761D01*
X133852380Y-101288095D01*
X133852380Y-100554761D01*
D13*
X161021428Y-102900000D02*
X159521428Y-103900000D01*
X161021428Y-103900000D02*
X159521428Y-102900000D01*
X160235714Y-95100000D02*
X159521428Y-95100000D01*
X161021428Y-94600000D02*
X160235714Y-95100000D01*
X161021428Y-95600000D01*
D10*
G04 #@! TO.C,VR1*
X151590000Y-110140000D02*
X159210000Y-110140000D01*
X159210000Y-110140000D02*
X159210000Y-102520000D01*
X159210000Y-102520000D02*
X151590000Y-102520000D01*
X151590000Y-102520000D02*
X151590000Y-110140000D01*
G04 #@! TO.C,J1*
X137520000Y-108408000D02*
X137774000Y-108408000D01*
X137266000Y-108408000D02*
X137266000Y-106376000D01*
X147934000Y-108408000D02*
X147934000Y-106376000D01*
X147934000Y-108408000D02*
X147426000Y-108408000D01*
X137520000Y-108408000D02*
X137266000Y-108408000D01*
X136250000Y-106376000D02*
X136250000Y-94692000D01*
X148950000Y-106376000D02*
X148950000Y-94692000D01*
X147934000Y-106376000D02*
X148950000Y-106376000D01*
X137266000Y-106376000D02*
X136250000Y-106376000D01*
X141076000Y-98502000D02*
X139044000Y-98502000D01*
X146156000Y-98502000D02*
X144124000Y-98502000D01*
X144124000Y-103836000D02*
X141076000Y-103836000D01*
X141076000Y-98502000D02*
X141076000Y-103836000D01*
X144124000Y-98502000D02*
X144124000Y-103836000D01*
X147680000Y-98248000D02*
X148442000Y-94692000D01*
X147680000Y-98248000D02*
X146664000Y-94692000D01*
X139044000Y-98502000D02*
X139044000Y-94692000D01*
X146156000Y-98502000D02*
X146156000Y-94692000D01*
X142600000Y-94692000D02*
X136250000Y-94692000D01*
X148696000Y-94692000D02*
X148950000Y-94692000D01*
X142600000Y-94692000D02*
X148696000Y-94692000D01*
G04 #@! TO.C,VR2*
X151590000Y-102040000D02*
X159210000Y-102040000D01*
X159210000Y-102040000D02*
X159210000Y-94420000D01*
X159210000Y-94420000D02*
X151590000Y-94420000D01*
X151590000Y-94420000D02*
X151590000Y-102040000D01*
D14*
G04 #@! TO.C,G\002A\002A\002A*
G36*
X132889351Y-104011887D02*
X132905572Y-104042034D01*
X132931418Y-104088721D01*
X132965913Y-104150224D01*
X133008085Y-104224822D01*
X133056958Y-104310795D01*
X133111559Y-104406420D01*
X133170915Y-104509975D01*
X133234050Y-104619739D01*
X133249697Y-104646885D01*
X133615668Y-105281545D01*
X135084553Y-105281545D01*
X135450413Y-104646875D01*
X135514303Y-104535799D01*
X135574628Y-104430448D01*
X135630414Y-104332553D01*
X135680690Y-104243843D01*
X135724481Y-104166049D01*
X135760815Y-104100901D01*
X135788719Y-104050128D01*
X135807219Y-104015461D01*
X135815344Y-103998631D01*
X135815642Y-103997443D01*
X135809896Y-103985106D01*
X135793536Y-103954532D01*
X135767542Y-103907454D01*
X135732894Y-103845606D01*
X135690572Y-103770719D01*
X135641557Y-103684526D01*
X135586827Y-103588761D01*
X135527364Y-103485155D01*
X135464147Y-103375442D01*
X135449781Y-103350568D01*
X135158740Y-102846858D01*
X135158740Y-103269615D01*
X135155574Y-103469705D01*
X135152409Y-103669796D01*
X135148381Y-103672448D01*
X135148381Y-103990378D01*
X135151594Y-103999990D01*
X135154364Y-104029036D01*
X135156506Y-104073862D01*
X135157833Y-104130813D01*
X135158182Y-104182387D01*
X135158182Y-104378243D01*
X134761829Y-104639394D01*
X134676215Y-104695684D01*
X134596584Y-104747809D01*
X134524996Y-104794437D01*
X134463513Y-104834237D01*
X134414197Y-104865875D01*
X134379110Y-104888020D01*
X134360314Y-104899338D01*
X134357738Y-104900545D01*
X134355187Y-104889630D01*
X134353005Y-104859401D01*
X134351340Y-104813635D01*
X134350341Y-104756109D01*
X134350118Y-104707159D01*
X134350236Y-104513772D01*
X134744408Y-104254000D01*
X134829901Y-104197719D01*
X134909487Y-104145446D01*
X134981082Y-104098540D01*
X135042602Y-104058363D01*
X135091963Y-104026273D01*
X135127082Y-104003629D01*
X135145875Y-103991793D01*
X135148381Y-103990378D01*
X135148381Y-103672448D01*
X134350000Y-104198125D01*
X133547591Y-104726455D01*
X133544415Y-104534224D01*
X133543640Y-104457219D01*
X133544322Y-104400652D01*
X133546607Y-104361907D01*
X133550643Y-104338368D01*
X133555961Y-104327955D01*
X133567714Y-104319545D01*
X133597286Y-104299449D01*
X133643190Y-104268655D01*
X133703939Y-104228148D01*
X133778048Y-104178913D01*
X133864031Y-104121936D01*
X133960401Y-104058202D01*
X134065673Y-103988697D01*
X134178359Y-103914407D01*
X134296974Y-103836317D01*
X134338454Y-103809034D01*
X134459055Y-103729727D01*
X134574486Y-103653820D01*
X134683233Y-103582308D01*
X134783782Y-103516188D01*
X134874617Y-103456455D01*
X134954225Y-103404105D01*
X135021092Y-103360134D01*
X135073702Y-103325537D01*
X135110542Y-103301311D01*
X135130097Y-103288451D01*
X135132483Y-103286882D01*
X135158740Y-103269615D01*
X135158740Y-102846858D01*
X135084549Y-102718454D01*
X134350000Y-102718454D01*
X134350000Y-103088914D01*
X134349881Y-103287571D01*
X134349763Y-103486227D01*
X133955591Y-103746000D01*
X133870098Y-103802281D01*
X133790512Y-103854554D01*
X133718918Y-103901459D01*
X133657398Y-103941637D01*
X133608036Y-103973727D01*
X133572917Y-103996370D01*
X133554124Y-104008206D01*
X133551619Y-104009621D01*
X133548405Y-104000010D01*
X133545634Y-103970965D01*
X133543492Y-103926141D01*
X133542166Y-103869195D01*
X133541818Y-103817697D01*
X133541818Y-103621924D01*
X134350000Y-103088914D01*
X134350000Y-102718454D01*
X133615668Y-102718454D01*
X133249697Y-103353114D01*
X133185798Y-103464115D01*
X133125444Y-103569321D01*
X133069610Y-103667011D01*
X133019269Y-103755464D01*
X132975396Y-103832957D01*
X132938965Y-103897768D01*
X132910949Y-103948177D01*
X132892322Y-103982462D01*
X132884060Y-103998900D01*
X132883727Y-104000000D01*
X132889351Y-104011887D01*
X132889351Y-104011887D01*
G37*
X132889351Y-104011887D02*
X132905572Y-104042034D01*
X132931418Y-104088721D01*
X132965913Y-104150224D01*
X133008085Y-104224822D01*
X133056958Y-104310795D01*
X133111559Y-104406420D01*
X133170915Y-104509975D01*
X133234050Y-104619739D01*
X133249697Y-104646885D01*
X133615668Y-105281545D01*
X135084553Y-105281545D01*
X135450413Y-104646875D01*
X135514303Y-104535799D01*
X135574628Y-104430448D01*
X135630414Y-104332553D01*
X135680690Y-104243843D01*
X135724481Y-104166049D01*
X135760815Y-104100901D01*
X135788719Y-104050128D01*
X135807219Y-104015461D01*
X135815344Y-103998631D01*
X135815642Y-103997443D01*
X135809896Y-103985106D01*
X135793536Y-103954532D01*
X135767542Y-103907454D01*
X135732894Y-103845606D01*
X135690572Y-103770719D01*
X135641557Y-103684526D01*
X135586827Y-103588761D01*
X135527364Y-103485155D01*
X135464147Y-103375442D01*
X135449781Y-103350568D01*
X135158740Y-102846858D01*
X135158740Y-103269615D01*
X135155574Y-103469705D01*
X135152409Y-103669796D01*
X135148381Y-103672448D01*
X135148381Y-103990378D01*
X135151594Y-103999990D01*
X135154364Y-104029036D01*
X135156506Y-104073862D01*
X135157833Y-104130813D01*
X135158182Y-104182387D01*
X135158182Y-104378243D01*
X134761829Y-104639394D01*
X134676215Y-104695684D01*
X134596584Y-104747809D01*
X134524996Y-104794437D01*
X134463513Y-104834237D01*
X134414197Y-104865875D01*
X134379110Y-104888020D01*
X134360314Y-104899338D01*
X134357738Y-104900545D01*
X134355187Y-104889630D01*
X134353005Y-104859401D01*
X134351340Y-104813635D01*
X134350341Y-104756109D01*
X134350118Y-104707159D01*
X134350236Y-104513772D01*
X134744408Y-104254000D01*
X134829901Y-104197719D01*
X134909487Y-104145446D01*
X134981082Y-104098540D01*
X135042602Y-104058363D01*
X135091963Y-104026273D01*
X135127082Y-104003629D01*
X135145875Y-103991793D01*
X135148381Y-103990378D01*
X135148381Y-103672448D01*
X134350000Y-104198125D01*
X133547591Y-104726455D01*
X133544415Y-104534224D01*
X133543640Y-104457219D01*
X133544322Y-104400652D01*
X133546607Y-104361907D01*
X133550643Y-104338368D01*
X133555961Y-104327955D01*
X133567714Y-104319545D01*
X133597286Y-104299449D01*
X133643190Y-104268655D01*
X133703939Y-104228148D01*
X133778048Y-104178913D01*
X133864031Y-104121936D01*
X133960401Y-104058202D01*
X134065673Y-103988697D01*
X134178359Y-103914407D01*
X134296974Y-103836317D01*
X134338454Y-103809034D01*
X134459055Y-103729727D01*
X134574486Y-103653820D01*
X134683233Y-103582308D01*
X134783782Y-103516188D01*
X134874617Y-103456455D01*
X134954225Y-103404105D01*
X135021092Y-103360134D01*
X135073702Y-103325537D01*
X135110542Y-103301311D01*
X135130097Y-103288451D01*
X135132483Y-103286882D01*
X135158740Y-103269615D01*
X135158740Y-102846858D01*
X135084549Y-102718454D01*
X134350000Y-102718454D01*
X134350000Y-103088914D01*
X134349881Y-103287571D01*
X134349763Y-103486227D01*
X133955591Y-103746000D01*
X133870098Y-103802281D01*
X133790512Y-103854554D01*
X133718918Y-103901459D01*
X133657398Y-103941637D01*
X133608036Y-103973727D01*
X133572917Y-103996370D01*
X133554124Y-104008206D01*
X133551619Y-104009621D01*
X133548405Y-104000010D01*
X133545634Y-103970965D01*
X133543492Y-103926141D01*
X133542166Y-103869195D01*
X133541818Y-103817697D01*
X133541818Y-103621924D01*
X134350000Y-103088914D01*
X134350000Y-102718454D01*
X133615668Y-102718454D01*
X133249697Y-103353114D01*
X133185798Y-103464115D01*
X133125444Y-103569321D01*
X133069610Y-103667011D01*
X133019269Y-103755464D01*
X132975396Y-103832957D01*
X132938965Y-103897768D01*
X132910949Y-103948177D01*
X132892322Y-103982462D01*
X132884060Y-103998900D01*
X132883727Y-104000000D01*
X132889351Y-104011887D01*
G04 #@! TO.C,VR1*
D10*
X156709523Y-104512380D02*
X156376190Y-105512380D01*
X156042857Y-104512380D01*
X155138095Y-105512380D02*
X155471428Y-105036190D01*
X155709523Y-105512380D02*
X155709523Y-104512380D01*
X155328571Y-104512380D01*
X155233333Y-104560000D01*
X155185714Y-104607619D01*
X155138095Y-104702857D01*
X155138095Y-104845714D01*
X155185714Y-104940952D01*
X155233333Y-104988571D01*
X155328571Y-105036190D01*
X155709523Y-105036190D01*
X154185714Y-105512380D02*
X154757142Y-105512380D01*
X154471428Y-105512380D02*
X154471428Y-104512380D01*
X154566666Y-104655238D01*
X154661904Y-104750476D01*
X154757142Y-104798095D01*
G04 #@! TO.C,J1*
X149283333Y-107652380D02*
X149283333Y-108366666D01*
X149330952Y-108509523D01*
X149426190Y-108604761D01*
X149569047Y-108652380D01*
X149664285Y-108652380D01*
X148283333Y-108652380D02*
X148854761Y-108652380D01*
X148569047Y-108652380D02*
X148569047Y-107652380D01*
X148664285Y-107795238D01*
X148759523Y-107890476D01*
X148854761Y-107938095D01*
G04 #@! TO.C,VR2*
X156709523Y-96412380D02*
X156376190Y-97412380D01*
X156042857Y-96412380D01*
X155138095Y-97412380D02*
X155471428Y-96936190D01*
X155709523Y-97412380D02*
X155709523Y-96412380D01*
X155328571Y-96412380D01*
X155233333Y-96460000D01*
X155185714Y-96507619D01*
X155138095Y-96602857D01*
X155138095Y-96745714D01*
X155185714Y-96840952D01*
X155233333Y-96888571D01*
X155328571Y-96936190D01*
X155709523Y-96936190D01*
X154757142Y-96507619D02*
X154709523Y-96460000D01*
X154614285Y-96412380D01*
X154376190Y-96412380D01*
X154280952Y-96460000D01*
X154233333Y-96507619D01*
X154185714Y-96602857D01*
X154185714Y-96698095D01*
X154233333Y-96840952D01*
X154804761Y-97412380D01*
X154185714Y-97412380D01*
G04 #@! TD*
M02*
