G04 #@! TF.FileFunction,Copper,L2,Bot,Signal*
%FSLAX46Y46*%
G04 Gerber Fmt 4.6, Leading zero omitted, Abs format (unit mm)*
G04 Created by KiCad (PCBNEW 4.0.2-stable) date 12/31/2017 6:21:13 PM*
%MOMM*%
G01*
G04 APERTURE LIST*
%ADD10C,0.100000*%
%ADD11C,1.778000*%
%ADD12C,0.762000*%
%ADD13C,0.254000*%
%ADD14C,0.508000*%
%ADD15C,0.304800*%
%ADD16C,0.203200*%
G04 APERTURE END LIST*
D10*
D11*
X143880000Y-123280000D03*
X143880000Y-125820000D03*
X141340000Y-123280000D03*
X141340000Y-125820000D03*
X138800000Y-123280000D03*
X138800000Y-125820000D03*
X136260000Y-123280000D03*
X136260000Y-125820000D03*
X133720000Y-123280000D03*
X133720000Y-125820000D03*
X159660000Y-125920000D03*
X159660000Y-123380000D03*
X157120000Y-125920000D03*
X157120000Y-123380000D03*
X154580000Y-123380000D03*
X154580000Y-125920000D03*
X152040000Y-123380000D03*
X152040000Y-125920000D03*
X170030000Y-127700000D03*
X167490000Y-127700000D03*
X172570000Y-127700000D03*
X175110000Y-127700000D03*
X140030000Y-117770000D03*
X140030000Y-115230000D03*
X142570000Y-117770000D03*
X142570000Y-115230000D03*
X145110000Y-117770000D03*
X145110000Y-115230000D03*
X147650000Y-117770000D03*
X147650000Y-115230000D03*
X150190000Y-117770000D03*
X150190000Y-115230000D03*
X152730000Y-117770000D03*
X152730000Y-115230000D03*
X155270000Y-117770000D03*
X155270000Y-115230000D03*
X157810000Y-117770000D03*
X157810000Y-115230000D03*
X160350000Y-117770000D03*
X160350000Y-115230000D03*
X162890000Y-117770000D03*
X162890000Y-115230000D03*
X165430000Y-117770000D03*
X165430000Y-115230000D03*
X167970000Y-117770000D03*
X167970000Y-115230000D03*
D12*
X145110000Y-117770000D02*
X142570000Y-117770000D01*
X142570000Y-117770000D02*
X142570000Y-115230000D01*
X143880000Y-125820000D02*
X144721000Y-125820000D01*
X144721000Y-125820000D02*
X145748000Y-124793000D01*
X145748000Y-124793000D02*
X145748000Y-122634000D01*
X145748000Y-122634000D02*
X142570000Y-119456000D01*
X142570000Y-119456000D02*
X142570000Y-117770000D01*
D13*
X142573000Y-117773000D02*
X142570000Y-117770000D01*
D12*
X140030000Y-117770000D02*
X140030000Y-115230000D01*
X143880000Y-123280000D02*
X143880000Y-123179000D01*
X143880000Y-123179000D02*
X140030000Y-119329000D01*
X140030000Y-119329000D02*
X140030000Y-117770000D01*
D14*
X143880000Y-123280000D02*
X143727000Y-123280000D01*
D13*
X143880000Y-123280000D02*
X143854000Y-123280000D01*
X143880000Y-123280000D02*
X143880000Y-122798000D01*
D15*
X154580000Y-123380000D02*
X154480000Y-123380000D01*
X154480000Y-123380000D02*
X153100000Y-122000000D01*
X153100000Y-122000000D02*
X150350000Y-122000000D01*
X150350000Y-122000000D02*
X148900000Y-120550000D01*
X148900000Y-120550000D02*
X148900000Y-116480000D01*
X148900000Y-116480000D02*
X147650000Y-115230000D01*
D16*
X154559000Y-123317000D02*
X154559000Y-122865400D01*
X154559000Y-123317000D02*
X154559000Y-122509800D01*
D15*
X152040000Y-123380000D02*
X149230000Y-123380000D01*
X146400000Y-116520000D02*
X145110000Y-115230000D01*
X146400000Y-120550000D02*
X146400000Y-116520000D01*
X149230000Y-123380000D02*
X146400000Y-120550000D01*
D16*
X152019000Y-123317000D02*
X152019000Y-122814600D01*
D15*
X141340000Y-123280000D02*
X141340000Y-122671000D01*
X141340000Y-122671000D02*
X140287000Y-121618000D01*
X164163000Y-116497000D02*
X165430000Y-115230000D01*
X164163000Y-124666000D02*
X164163000Y-116497000D01*
X160734000Y-128095000D02*
X164163000Y-124666000D01*
X138382000Y-128095000D02*
X160734000Y-128095000D01*
X137493000Y-127206000D02*
X138382000Y-128095000D01*
X137493000Y-122634000D02*
X137493000Y-127206000D01*
X138509000Y-121618000D02*
X137493000Y-122634000D01*
X140287000Y-121618000D02*
X138509000Y-121618000D01*
X165430000Y-115230000D02*
X165430000Y-115270000D01*
X141340000Y-125820000D02*
X141340000Y-126590000D01*
X141340000Y-125820000D02*
X141340000Y-125760000D01*
X138800000Y-123280000D02*
X138800000Y-123306000D01*
X138800000Y-123306000D02*
X140033000Y-124539000D01*
X161623000Y-116497000D02*
X162890000Y-115230000D01*
X161623000Y-126063000D02*
X161623000Y-116497000D01*
X160353000Y-127333000D02*
X161623000Y-126063000D01*
X140414000Y-127333000D02*
X160353000Y-127333000D01*
X140033000Y-126952000D02*
X140414000Y-127333000D01*
X140033000Y-124539000D02*
X140033000Y-126952000D01*
X138800000Y-123280000D02*
X139155000Y-123280000D01*
X138800000Y-123280000D02*
X138570000Y-123280000D01*
X138811000Y-123317000D02*
X138811000Y-122589000D01*
X138800000Y-125820000D02*
X138980000Y-125820000D01*
D16*
X138811000Y-125857000D02*
X138816600Y-125857000D01*
X138300000Y-125857000D02*
X138300000Y-125850000D01*
X136271000Y-125857000D02*
X136378200Y-125857000D01*
X136271000Y-125857000D02*
X136556000Y-125857000D01*
X135760000Y-125857000D02*
X135943000Y-125857000D01*
D15*
X152730000Y-115230000D02*
X152420000Y-115230000D01*
X167970000Y-115230000D02*
X167970000Y-115280000D01*
X167970000Y-115280000D02*
X166700000Y-116550000D01*
X133720000Y-127304000D02*
X133720000Y-125820000D01*
X135281000Y-128865000D02*
X133720000Y-127304000D01*
X161107000Y-128865000D02*
X135281000Y-128865000D01*
X166700000Y-123272000D02*
X161107000Y-128865000D01*
X166700000Y-116550000D02*
X166700000Y-123272000D01*
D16*
X154559000Y-125857000D02*
X154559000Y-125811800D01*
X156845000Y-125857000D02*
X156850600Y-125857000D01*
D14*
X156845000Y-123317000D02*
X156845000Y-122713000D01*
M02*
