G04 #@! TF.FileFunction,Soldermask,Bot*
%FSLAX46Y46*%
G04 Gerber Fmt 4.6, Leading zero omitted, Abs format (unit mm)*
G04 Created by KiCad (PCBNEW 4.0.2-stable) date 12/31/2017 6:21:14 PM*
%MOMM*%
G01*
G04 APERTURE LIST*
%ADD10C,0.100000*%
%ADD11C,2.178000*%
G04 APERTURE END LIST*
D10*
D11*
X143880000Y-123280000D03*
X143880000Y-125820000D03*
X141340000Y-123280000D03*
X141340000Y-125820000D03*
X138800000Y-123280000D03*
X138800000Y-125820000D03*
X136260000Y-123280000D03*
X136260000Y-125820000D03*
X133720000Y-123280000D03*
X133720000Y-125820000D03*
X159660000Y-125920000D03*
X159660000Y-123380000D03*
X157120000Y-125920000D03*
X157120000Y-123380000D03*
X154580000Y-123380000D03*
X154580000Y-125920000D03*
X152040000Y-123380000D03*
X152040000Y-125920000D03*
X170030000Y-127700000D03*
X167490000Y-127700000D03*
X172570000Y-127700000D03*
X175110000Y-127700000D03*
X140030000Y-117770000D03*
X140030000Y-115230000D03*
X142570000Y-117770000D03*
X142570000Y-115230000D03*
X145110000Y-117770000D03*
X145110000Y-115230000D03*
X147650000Y-117770000D03*
X147650000Y-115230000D03*
X150190000Y-117770000D03*
X150190000Y-115230000D03*
X152730000Y-117770000D03*
X152730000Y-115230000D03*
X155270000Y-117770000D03*
X155270000Y-115230000D03*
X157810000Y-117770000D03*
X157810000Y-115230000D03*
X160350000Y-117770000D03*
X160350000Y-115230000D03*
X162890000Y-117770000D03*
X162890000Y-115230000D03*
X165430000Y-117770000D03*
X165430000Y-115230000D03*
X167970000Y-117770000D03*
X167970000Y-115230000D03*
M02*
