M48
INCH,TZ
T1C0.040
%
G90
G05
T1
X52646Y-48535
X52646Y-49535
X53646Y-48535
X53646Y-49535
X54646Y-48535
X54646Y-49535
X55130Y-45366
X55130Y-46366
X55646Y-48535
X55646Y-49535
X56130Y-45366
X56130Y-46366
X56646Y-48535
X56646Y-49535
X57130Y-45366
X57130Y-46366
X58130Y-45366
X58130Y-46366
X59130Y-45366
X59130Y-46366
X59858Y-48575
X59858Y-49575
X60130Y-45366
X60130Y-46366
X60858Y-48575
X60858Y-49575
X61130Y-45366
X61130Y-46366
X61858Y-48575
X61858Y-49575
X62130Y-45366
X62130Y-46366
X62858Y-48575
X62858Y-49575
X63130Y-45366
X63130Y-46366
X64130Y-45366
X64130Y-46366
X65130Y-45366
X65130Y-46366
X65941Y-50276
X66130Y-45366
X66130Y-46366
X66941Y-50276
X67941Y-50276
X68941Y-50276
T0
M30
