G04 #@! TF.FileFunction,Legend,Top*
%FSLAX46Y46*%
G04 Gerber Fmt 4.6, Leading zero omitted, Abs format (unit mm)*
G04 Created by KiCad (PCBNEW 4.0.7) date 04/07/18 14:14:12*
%MOMM*%
%LPD*%
G01*
G04 APERTURE LIST*
%ADD10C,0.100000*%
%ADD11C,0.080000*%
%ADD12C,0.275000*%
%ADD13C,0.150000*%
%ADD14C,0.125000*%
%ADD15R,2.100000X2.100000*%
%ADD16O,2.100000X2.100000*%
G04 APERTURE END LIST*
D10*
D11*
X2102000Y10310000D02*
X33102000Y10310000D01*
X30305000Y8811000D02*
X30241500Y8811000D01*
X30305000Y11795500D02*
X30305000Y8811000D01*
X27765000Y11795500D02*
X27765000Y8811000D01*
X25225000Y8811000D02*
X25288500Y8811000D01*
X25225000Y11795500D02*
X25225000Y8811000D01*
X22685000Y11795500D02*
X22685000Y8811000D01*
X20145000Y11795500D02*
X20145000Y8811000D01*
X17605000Y11795500D02*
X17605000Y8811000D01*
X15065000Y8811000D02*
X15001500Y8811000D01*
X15065000Y11795500D02*
X15065000Y8811000D01*
X12525000Y11795500D02*
X12525000Y8811000D01*
X10048500Y11795500D02*
X10048500Y8811000D01*
X7445000Y11795500D02*
X7445000Y8811000D01*
X4905000Y11795500D02*
X4905000Y8811000D01*
X2102000Y8810000D02*
X3102000Y8810000D01*
X2102000Y11810000D02*
X2102000Y8810000D01*
X33102000Y11810000D02*
X2102000Y11810000D01*
X33102000Y8810000D02*
X33102000Y11810000D01*
X3102000Y8810000D02*
X33102000Y8810000D01*
D12*
X7136286Y7122381D02*
X7136286Y8222381D01*
X7398191Y8222381D01*
X7555333Y8170000D01*
X7660095Y8065238D01*
X7712476Y7960476D01*
X7764857Y7750952D01*
X7764857Y7593810D01*
X7712476Y7384286D01*
X7660095Y7279524D01*
X7555333Y7174762D01*
X7398191Y7122381D01*
X7136286Y7122381D01*
X8236286Y8222381D02*
X8236286Y7331905D01*
X8288667Y7227143D01*
X8341048Y7174762D01*
X8445810Y7122381D01*
X8655333Y7122381D01*
X8760095Y7174762D01*
X8812476Y7227143D01*
X8864857Y7331905D01*
X8864857Y8222381D01*
X9388667Y7698571D02*
X9755333Y7698571D01*
X9912476Y7122381D02*
X9388667Y7122381D01*
X9388667Y8222381D01*
X9912476Y8222381D01*
X10226762Y8222381D02*
X10855333Y8222381D01*
X10541048Y7122381D02*
X10541048Y8222381D01*
X12060095Y7698571D02*
X12426761Y7698571D01*
X12583904Y7122381D02*
X12060095Y7122381D01*
X12060095Y8222381D01*
X12583904Y8222381D01*
X12950571Y8222381D02*
X13683904Y7122381D01*
X13683904Y8222381D02*
X12950571Y7122381D01*
X14102952Y7122381D02*
X14102952Y8222381D01*
X14521999Y8222381D01*
X14626761Y8170000D01*
X14679142Y8117619D01*
X14731523Y8012857D01*
X14731523Y7855714D01*
X14679142Y7750952D01*
X14626761Y7698571D01*
X14521999Y7646190D01*
X14102952Y7646190D01*
X15150571Y7436667D02*
X15674380Y7436667D01*
X15045809Y7122381D02*
X15412476Y8222381D01*
X15779142Y7122381D01*
X16145809Y7122381D02*
X16145809Y8222381D01*
X16774380Y7122381D01*
X16774380Y8222381D01*
X17245809Y7174762D02*
X17402952Y7122381D01*
X17664856Y7122381D01*
X17769618Y7174762D01*
X17821999Y7227143D01*
X17874380Y7331905D01*
X17874380Y7436667D01*
X17821999Y7541429D01*
X17769618Y7593810D01*
X17664856Y7646190D01*
X17455333Y7698571D01*
X17350571Y7750952D01*
X17298190Y7803333D01*
X17245809Y7908095D01*
X17245809Y8012857D01*
X17298190Y8117619D01*
X17350571Y8170000D01*
X17455333Y8222381D01*
X17717237Y8222381D01*
X17874380Y8170000D01*
X18345809Y7122381D02*
X18345809Y8222381D01*
X19079143Y8222381D02*
X19288666Y8222381D01*
X19393428Y8170000D01*
X19498190Y8065238D01*
X19550571Y7855714D01*
X19550571Y7489048D01*
X19498190Y7279524D01*
X19393428Y7174762D01*
X19288666Y7122381D01*
X19079143Y7122381D01*
X18974381Y7174762D01*
X18869619Y7279524D01*
X18817238Y7489048D01*
X18817238Y7855714D01*
X18869619Y8065238D01*
X18974381Y8170000D01*
X19079143Y8222381D01*
X20022000Y7122381D02*
X20022000Y8222381D01*
X20650571Y7122381D01*
X20650571Y8222381D01*
X22379142Y7698571D02*
X22536285Y7646190D01*
X22588666Y7593810D01*
X22641047Y7489048D01*
X22641047Y7331905D01*
X22588666Y7227143D01*
X22536285Y7174762D01*
X22431523Y7122381D01*
X22012476Y7122381D01*
X22012476Y8222381D01*
X22379142Y8222381D01*
X22483904Y8170000D01*
X22536285Y8117619D01*
X22588666Y8012857D01*
X22588666Y7908095D01*
X22536285Y7803333D01*
X22483904Y7750952D01*
X22379142Y7698571D01*
X22012476Y7698571D01*
X23741047Y7122381D02*
X23374381Y7646190D01*
X23112476Y7122381D02*
X23112476Y8222381D01*
X23531523Y8222381D01*
X23636285Y8170000D01*
X23688666Y8117619D01*
X23741047Y8012857D01*
X23741047Y7855714D01*
X23688666Y7750952D01*
X23636285Y7698571D01*
X23531523Y7646190D01*
X23112476Y7646190D01*
X24212476Y7122381D02*
X24212476Y8222381D01*
X24736286Y7122381D02*
X24736286Y8222381D01*
X24998191Y8222381D01*
X25155333Y8170000D01*
X25260095Y8065238D01*
X25312476Y7960476D01*
X25364857Y7750952D01*
X25364857Y7593810D01*
X25312476Y7384286D01*
X25260095Y7279524D01*
X25155333Y7174762D01*
X24998191Y7122381D01*
X24736286Y7122381D01*
X26412476Y8170000D02*
X26307714Y8222381D01*
X26150571Y8222381D01*
X25993429Y8170000D01*
X25888667Y8065238D01*
X25836286Y7960476D01*
X25783905Y7750952D01*
X25783905Y7593810D01*
X25836286Y7384286D01*
X25888667Y7279524D01*
X25993429Y7174762D01*
X26150571Y7122381D01*
X26255333Y7122381D01*
X26412476Y7174762D01*
X26464857Y7227143D01*
X26464857Y7593810D01*
X26255333Y7593810D01*
X26936286Y7698571D02*
X27302952Y7698571D01*
X27460095Y7122381D02*
X26936286Y7122381D01*
X26936286Y8222381D01*
X27460095Y8222381D01*
D13*
X13280572Y9170714D02*
X13280572Y9920714D01*
X13623429Y9170714D01*
X13623429Y9920714D01*
X14252000Y9242143D02*
X14223429Y9206429D01*
X14137715Y9170714D01*
X14080572Y9170714D01*
X13994857Y9206429D01*
X13937715Y9277857D01*
X13909143Y9349286D01*
X13880572Y9492143D01*
X13880572Y9599286D01*
X13909143Y9742143D01*
X13937715Y9813571D01*
X13994857Y9885000D01*
X14080572Y9920714D01*
X14137715Y9920714D01*
X14223429Y9885000D01*
X14252000Y9849286D01*
X20930572Y9170714D02*
X20930572Y9920714D01*
X21273429Y9170714D01*
X21273429Y9920714D01*
X21902000Y9242143D02*
X21873429Y9206429D01*
X21787715Y9170714D01*
X21730572Y9170714D01*
X21644857Y9206429D01*
X21587715Y9277857D01*
X21559143Y9349286D01*
X21530572Y9492143D01*
X21530572Y9599286D01*
X21559143Y9742143D01*
X21587715Y9813571D01*
X21644857Y9885000D01*
X21730572Y9920714D01*
X21787715Y9920714D01*
X21873429Y9885000D01*
X21902000Y9849286D01*
X18380572Y9170714D02*
X18380572Y9920714D01*
X18723429Y9170714D01*
X18723429Y9920714D01*
X19352000Y9242143D02*
X19323429Y9206429D01*
X19237715Y9170714D01*
X19180572Y9170714D01*
X19094857Y9206429D01*
X19037715Y9277857D01*
X19009143Y9349286D01*
X18980572Y9492143D01*
X18980572Y9599286D01*
X19009143Y9742143D01*
X19037715Y9813571D01*
X19094857Y9885000D01*
X19180572Y9920714D01*
X19237715Y9920714D01*
X19323429Y9885000D01*
X19352000Y9849286D01*
X15880572Y9170714D02*
X15880572Y9920714D01*
X16223429Y9170714D01*
X16223429Y9920714D01*
X16852000Y9242143D02*
X16823429Y9206429D01*
X16737715Y9170714D01*
X16680572Y9170714D01*
X16594857Y9206429D01*
X16537715Y9277857D01*
X16509143Y9349286D01*
X16480572Y9492143D01*
X16480572Y9599286D01*
X16509143Y9742143D01*
X16537715Y9813571D01*
X16594857Y9885000D01*
X16680572Y9920714D01*
X16737715Y9920714D01*
X16823429Y9885000D01*
X16852000Y9849286D01*
X13280572Y9220714D02*
X13280572Y9970714D01*
X13623429Y9220714D01*
X13623429Y9970714D01*
X14252000Y9292143D02*
X14223429Y9256429D01*
X14137715Y9220714D01*
X14080572Y9220714D01*
X13994857Y9256429D01*
X13937715Y9327857D01*
X13909143Y9399286D01*
X13880572Y9542143D01*
X13880572Y9649286D01*
X13909143Y9792143D01*
X13937715Y9863571D01*
X13994857Y9935000D01*
X14080572Y9970714D01*
X14137715Y9970714D01*
X14223429Y9935000D01*
X14252000Y9899286D01*
X10780572Y9170714D02*
X10780572Y9920714D01*
X11123429Y9170714D01*
X11123429Y9920714D01*
X11752000Y9242143D02*
X11723429Y9206429D01*
X11637715Y9170714D01*
X11580572Y9170714D01*
X11494857Y9206429D01*
X11437715Y9277857D01*
X11409143Y9349286D01*
X11380572Y9492143D01*
X11380572Y9599286D01*
X11409143Y9742143D01*
X11437715Y9813571D01*
X11494857Y9885000D01*
X11580572Y9920714D01*
X11637715Y9920714D01*
X11723429Y9885000D01*
X11752000Y9849286D01*
X30866286Y9567143D02*
X30649619Y9567143D01*
X30649619Y9148095D02*
X30649619Y9948095D01*
X30959143Y9948095D01*
X31175810Y9376667D02*
X31485333Y9376667D01*
X31113905Y9148095D02*
X31330571Y9948095D01*
X31547238Y9148095D01*
X31763905Y9148095D02*
X31763905Y9948095D01*
X32135333Y9148095D01*
X32135333Y9948095D01*
X32413905Y9871905D02*
X32444857Y9910000D01*
X32506762Y9948095D01*
X32661524Y9948095D01*
X32723428Y9910000D01*
X32754381Y9871905D01*
X32785333Y9795714D01*
X32785333Y9719524D01*
X32754381Y9605238D01*
X32382952Y9148095D01*
X32785333Y9148095D01*
X28280571Y9563571D02*
X28080571Y9563571D01*
X28080571Y9170714D02*
X28080571Y9920714D01*
X28366285Y9920714D01*
X28566286Y9385000D02*
X28852000Y9385000D01*
X28509143Y9170714D02*
X28709143Y9920714D01*
X28909143Y9170714D01*
X29109143Y9170714D02*
X29109143Y9920714D01*
X29452000Y9170714D01*
X29452000Y9920714D01*
X30052000Y9170714D02*
X29709143Y9170714D01*
X29880571Y9170714D02*
X29880571Y9920714D01*
X29823428Y9813571D01*
X29766286Y9742143D01*
X29709143Y9706429D01*
X26044857Y9170714D02*
X26044857Y9920714D01*
X26044857Y9563571D02*
X26387714Y9563571D01*
X26387714Y9170714D02*
X26387714Y9920714D01*
X26930571Y9670714D02*
X26930571Y9170714D01*
X26787714Y9956429D02*
X26644857Y9420714D01*
X27016285Y9420714D01*
X23494857Y9170714D02*
X23494857Y9920714D01*
X23494857Y9563571D02*
X23837714Y9563571D01*
X23837714Y9170714D02*
X23837714Y9920714D01*
X24066285Y9920714D02*
X24437714Y9920714D01*
X24237714Y9635000D01*
X24323428Y9635000D01*
X24380571Y9599286D01*
X24409142Y9563571D01*
X24437714Y9492143D01*
X24437714Y9313571D01*
X24409142Y9242143D01*
X24380571Y9206429D01*
X24323428Y9170714D01*
X24152000Y9170714D01*
X24094857Y9206429D01*
X24066285Y9242143D01*
D14*
X30484142Y11370714D02*
X30850809Y11370714D01*
X30484142Y10620714D01*
X30850809Y10620714D01*
X31479381Y10620714D02*
X31479381Y11370714D01*
X31688905Y11370714D01*
X31741286Y11335000D01*
X31767477Y11299286D01*
X31793667Y11227857D01*
X31793667Y11120714D01*
X31767477Y11049286D01*
X31741286Y11013571D01*
X31688905Y10977857D01*
X31479381Y10977857D01*
X32343667Y10620714D02*
X32160334Y10977857D01*
X32029381Y10620714D02*
X32029381Y11370714D01*
X32238905Y11370714D01*
X32291286Y11335000D01*
X32317477Y11299286D01*
X32343667Y11227857D01*
X32343667Y11120714D01*
X32317477Y11049286D01*
X32291286Y11013571D01*
X32238905Y10977857D01*
X32029381Y10977857D01*
X32762715Y11013571D02*
X32841286Y10977857D01*
X32867477Y10942143D01*
X32893667Y10870714D01*
X32893667Y10763571D01*
X32867477Y10692143D01*
X32841286Y10656429D01*
X32788905Y10620714D01*
X32579381Y10620714D01*
X32579381Y11370714D01*
X32762715Y11370714D01*
X32815096Y11335000D01*
X32841286Y11299286D01*
X32867477Y11227857D01*
X32867477Y11156429D01*
X32841286Y11085000D01*
X32815096Y11049286D01*
X32762715Y11013571D01*
X32579381Y11013571D01*
D13*
X28116286Y10620714D02*
X28116286Y11370714D01*
X28259143Y11370714D01*
X28344858Y11335000D01*
X28402000Y11263571D01*
X28430572Y11192143D01*
X28459143Y11049286D01*
X28459143Y10942143D01*
X28430572Y10799286D01*
X28402000Y10727857D01*
X28344858Y10656429D01*
X28259143Y10620714D01*
X28116286Y10620714D01*
X28716286Y10620714D02*
X28716286Y11370714D01*
X29344857Y10620714D02*
X29144857Y10977857D01*
X29002000Y10620714D02*
X29002000Y11370714D01*
X29230572Y11370714D01*
X29287714Y11335000D01*
X29316286Y11299286D01*
X29344857Y11227857D01*
X29344857Y11120714D01*
X29316286Y11049286D01*
X29287714Y11013571D01*
X29230572Y10977857D01*
X29002000Y10977857D01*
X29859143Y11120714D02*
X29859143Y10620714D01*
X29716286Y11406429D02*
X29573429Y10870714D01*
X29944857Y10870714D01*
X25516286Y10656429D02*
X25602000Y10620714D01*
X25744857Y10620714D01*
X25802000Y10656429D01*
X25830571Y10692143D01*
X25859143Y10763571D01*
X25859143Y10835000D01*
X25830571Y10906429D01*
X25802000Y10942143D01*
X25744857Y10977857D01*
X25630571Y11013571D01*
X25573429Y11049286D01*
X25544857Y11085000D01*
X25516286Y11156429D01*
X25516286Y11227857D01*
X25544857Y11299286D01*
X25573429Y11335000D01*
X25630571Y11370714D01*
X25773429Y11370714D01*
X25859143Y11335000D01*
X26030572Y11370714D02*
X26373429Y11370714D01*
X26202000Y10620714D02*
X26202000Y11370714D01*
X26573429Y10620714D02*
X26573429Y11370714D01*
X26802001Y11370714D01*
X26859143Y11335000D01*
X26887715Y11299286D01*
X26916286Y11227857D01*
X26916286Y11120714D01*
X26887715Y11049286D01*
X26859143Y11013571D01*
X26802001Y10977857D01*
X26573429Y10977857D01*
X27430572Y11120714D02*
X27430572Y10620714D01*
X27287715Y11406429D02*
X27144858Y10870714D01*
X27516286Y10870714D01*
X23223429Y11013571D02*
X23423429Y11013571D01*
X23509143Y10620714D02*
X23223429Y10620714D01*
X23223429Y11370714D01*
X23509143Y11370714D01*
X23766286Y10620714D02*
X23766286Y11370714D01*
X24109143Y10620714D01*
X24109143Y11370714D01*
X24652000Y11120714D02*
X24652000Y10620714D01*
X24509143Y11406429D02*
X24366286Y10870714D01*
X24737714Y10870714D01*
X20516286Y10620714D02*
X20516286Y11370714D01*
X20659143Y11370714D01*
X20744858Y11335000D01*
X20802000Y11263571D01*
X20830572Y11192143D01*
X20859143Y11049286D01*
X20859143Y10942143D01*
X20830572Y10799286D01*
X20802000Y10727857D01*
X20744858Y10656429D01*
X20659143Y10620714D01*
X20516286Y10620714D01*
X21116286Y10620714D02*
X21116286Y11370714D01*
X21744857Y10620714D02*
X21544857Y10977857D01*
X21402000Y10620714D02*
X21402000Y11370714D01*
X21630572Y11370714D01*
X21687714Y11335000D01*
X21716286Y11299286D01*
X21744857Y11227857D01*
X21744857Y11120714D01*
X21716286Y11049286D01*
X21687714Y11013571D01*
X21630572Y10977857D01*
X21402000Y10977857D01*
X21944857Y11370714D02*
X22316286Y11370714D01*
X22116286Y11085000D01*
X22202000Y11085000D01*
X22259143Y11049286D01*
X22287714Y11013571D01*
X22316286Y10942143D01*
X22316286Y10763571D01*
X22287714Y10692143D01*
X22259143Y10656429D01*
X22202000Y10620714D01*
X22030572Y10620714D01*
X21973429Y10656429D01*
X21944857Y10692143D01*
X17866286Y10656429D02*
X17952000Y10620714D01*
X18094857Y10620714D01*
X18152000Y10656429D01*
X18180571Y10692143D01*
X18209143Y10763571D01*
X18209143Y10835000D01*
X18180571Y10906429D01*
X18152000Y10942143D01*
X18094857Y10977857D01*
X17980571Y11013571D01*
X17923429Y11049286D01*
X17894857Y11085000D01*
X17866286Y11156429D01*
X17866286Y11227857D01*
X17894857Y11299286D01*
X17923429Y11335000D01*
X17980571Y11370714D01*
X18123429Y11370714D01*
X18209143Y11335000D01*
X18380572Y11370714D02*
X18723429Y11370714D01*
X18552000Y10620714D02*
X18552000Y11370714D01*
X18923429Y10620714D02*
X18923429Y11370714D01*
X19152001Y11370714D01*
X19209143Y11335000D01*
X19237715Y11299286D01*
X19266286Y11227857D01*
X19266286Y11120714D01*
X19237715Y11049286D01*
X19209143Y11013571D01*
X19152001Y10977857D01*
X18923429Y10977857D01*
X19466286Y11370714D02*
X19837715Y11370714D01*
X19637715Y11085000D01*
X19723429Y11085000D01*
X19780572Y11049286D01*
X19809143Y11013571D01*
X19837715Y10942143D01*
X19837715Y10763571D01*
X19809143Y10692143D01*
X19780572Y10656429D01*
X19723429Y10620714D01*
X19552001Y10620714D01*
X19494858Y10656429D01*
X19466286Y10692143D01*
X15623429Y11013571D02*
X15823429Y11013571D01*
X15909143Y10620714D02*
X15623429Y10620714D01*
X15623429Y11370714D01*
X15909143Y11370714D01*
X16166286Y10620714D02*
X16166286Y11370714D01*
X16509143Y10620714D01*
X16509143Y11370714D01*
X16737714Y11370714D02*
X17109143Y11370714D01*
X16909143Y11085000D01*
X16994857Y11085000D01*
X17052000Y11049286D01*
X17080571Y11013571D01*
X17109143Y10942143D01*
X17109143Y10763571D01*
X17080571Y10692143D01*
X17052000Y10656429D01*
X16994857Y10620714D01*
X16823429Y10620714D01*
X16766286Y10656429D01*
X16737714Y10692143D01*
X12916286Y10620714D02*
X12916286Y11370714D01*
X13059143Y11370714D01*
X13144858Y11335000D01*
X13202000Y11263571D01*
X13230572Y11192143D01*
X13259143Y11049286D01*
X13259143Y10942143D01*
X13230572Y10799286D01*
X13202000Y10727857D01*
X13144858Y10656429D01*
X13059143Y10620714D01*
X12916286Y10620714D01*
X13516286Y10620714D02*
X13516286Y11370714D01*
X14144857Y10620714D02*
X13944857Y10977857D01*
X13802000Y10620714D02*
X13802000Y11370714D01*
X14030572Y11370714D01*
X14087714Y11335000D01*
X14116286Y11299286D01*
X14144857Y11227857D01*
X14144857Y11120714D01*
X14116286Y11049286D01*
X14087714Y11013571D01*
X14030572Y10977857D01*
X13802000Y10977857D01*
X14373429Y11299286D02*
X14402000Y11335000D01*
X14459143Y11370714D01*
X14602000Y11370714D01*
X14659143Y11335000D01*
X14687714Y11299286D01*
X14716286Y11227857D01*
X14716286Y11156429D01*
X14687714Y11049286D01*
X14344857Y10620714D01*
X14716286Y10620714D01*
X10316286Y10656429D02*
X10402000Y10620714D01*
X10544857Y10620714D01*
X10602000Y10656429D01*
X10630571Y10692143D01*
X10659143Y10763571D01*
X10659143Y10835000D01*
X10630571Y10906429D01*
X10602000Y10942143D01*
X10544857Y10977857D01*
X10430571Y11013571D01*
X10373429Y11049286D01*
X10344857Y11085000D01*
X10316286Y11156429D01*
X10316286Y11227857D01*
X10344857Y11299286D01*
X10373429Y11335000D01*
X10430571Y11370714D01*
X10573429Y11370714D01*
X10659143Y11335000D01*
X10830572Y11370714D02*
X11173429Y11370714D01*
X11002000Y10620714D02*
X11002000Y11370714D01*
X11373429Y10620714D02*
X11373429Y11370714D01*
X11602001Y11370714D01*
X11659143Y11335000D01*
X11687715Y11299286D01*
X11716286Y11227857D01*
X11716286Y11120714D01*
X11687715Y11049286D01*
X11659143Y11013571D01*
X11602001Y10977857D01*
X11373429Y10977857D01*
X11944858Y11299286D02*
X11973429Y11335000D01*
X12030572Y11370714D01*
X12173429Y11370714D01*
X12230572Y11335000D01*
X12259143Y11299286D01*
X12287715Y11227857D01*
X12287715Y11156429D01*
X12259143Y11049286D01*
X11916286Y10620714D01*
X12287715Y10620714D01*
X8073429Y11013571D02*
X8273429Y11013571D01*
X8359143Y10620714D02*
X8073429Y10620714D01*
X8073429Y11370714D01*
X8359143Y11370714D01*
X8616286Y10620714D02*
X8616286Y11370714D01*
X8959143Y10620714D01*
X8959143Y11370714D01*
X9216286Y11299286D02*
X9244857Y11335000D01*
X9302000Y11370714D01*
X9444857Y11370714D01*
X9502000Y11335000D01*
X9530571Y11299286D01*
X9559143Y11227857D01*
X9559143Y11156429D01*
X9530571Y11049286D01*
X9187714Y10620714D01*
X9559143Y10620714D01*
X8294858Y9885000D02*
X8237715Y9920714D01*
X8152001Y9920714D01*
X8066286Y9885000D01*
X8009144Y9813571D01*
X7980572Y9742143D01*
X7952001Y9599286D01*
X7952001Y9492143D01*
X7980572Y9349286D01*
X8009144Y9277857D01*
X8066286Y9206429D01*
X8152001Y9170714D01*
X8209144Y9170714D01*
X8294858Y9206429D01*
X8323429Y9242143D01*
X8323429Y9492143D01*
X8209144Y9492143D01*
X8580572Y9170714D02*
X8580572Y9920714D01*
X8923429Y9170714D01*
X8923429Y9920714D01*
X9209143Y9170714D02*
X9209143Y9920714D01*
X9352000Y9920714D01*
X9437715Y9885000D01*
X9494857Y9813571D01*
X9523429Y9742143D01*
X9552000Y9599286D01*
X9552000Y9492143D01*
X9523429Y9349286D01*
X9494857Y9277857D01*
X9437715Y9206429D01*
X9352000Y9170714D01*
X9209143Y9170714D01*
X5744858Y9885000D02*
X5687715Y9920714D01*
X5602001Y9920714D01*
X5516286Y9885000D01*
X5459144Y9813571D01*
X5430572Y9742143D01*
X5402001Y9599286D01*
X5402001Y9492143D01*
X5430572Y9349286D01*
X5459144Y9277857D01*
X5516286Y9206429D01*
X5602001Y9170714D01*
X5659144Y9170714D01*
X5744858Y9206429D01*
X5773429Y9242143D01*
X5773429Y9492143D01*
X5659144Y9492143D01*
X6030572Y9170714D02*
X6030572Y9920714D01*
X6373429Y9170714D01*
X6373429Y9920714D01*
X6659143Y9170714D02*
X6659143Y9920714D01*
X6802000Y9920714D01*
X6887715Y9885000D01*
X6944857Y9813571D01*
X6973429Y9742143D01*
X7002000Y9599286D01*
X7002000Y9492143D01*
X6973429Y9349286D01*
X6944857Y9277857D01*
X6887715Y9206429D01*
X6802000Y9170714D01*
X6659143Y9170714D01*
X5744858Y11335000D02*
X5687715Y11370714D01*
X5602001Y11370714D01*
X5516286Y11335000D01*
X5459144Y11263571D01*
X5430572Y11192143D01*
X5402001Y11049286D01*
X5402001Y10942143D01*
X5430572Y10799286D01*
X5459144Y10727857D01*
X5516286Y10656429D01*
X5602001Y10620714D01*
X5659144Y10620714D01*
X5744858Y10656429D01*
X5773429Y10692143D01*
X5773429Y10942143D01*
X5659144Y10942143D01*
X6030572Y10620714D02*
X6030572Y11370714D01*
X6373429Y10620714D01*
X6373429Y11370714D01*
X6659143Y10620714D02*
X6659143Y11370714D01*
X6802000Y11370714D01*
X6887715Y11335000D01*
X6944857Y11263571D01*
X6973429Y11192143D01*
X7002000Y11049286D01*
X7002000Y10942143D01*
X6973429Y10799286D01*
X6944857Y10727857D01*
X6887715Y10656429D01*
X6802000Y10620714D01*
X6659143Y10620714D01*
X2752000Y9920714D02*
X2952000Y9170714D01*
X3152000Y9920714D01*
X3694857Y9242143D02*
X3666286Y9206429D01*
X3580572Y9170714D01*
X3523429Y9170714D01*
X3437714Y9206429D01*
X3380572Y9277857D01*
X3352000Y9349286D01*
X3323429Y9492143D01*
X3323429Y9599286D01*
X3352000Y9742143D01*
X3380572Y9813571D01*
X3437714Y9885000D01*
X3523429Y9920714D01*
X3580572Y9920714D01*
X3666286Y9885000D01*
X3694857Y9849286D01*
X4294857Y9242143D02*
X4266286Y9206429D01*
X4180572Y9170714D01*
X4123429Y9170714D01*
X4037714Y9206429D01*
X3980572Y9277857D01*
X3952000Y9349286D01*
X3923429Y9492143D01*
X3923429Y9599286D01*
X3952000Y9742143D01*
X3980572Y9813571D01*
X4037714Y9885000D01*
X4123429Y9920714D01*
X4180572Y9920714D01*
X4266286Y9885000D01*
X4294857Y9849286D01*
X2752000Y11370714D02*
X2952000Y10620714D01*
X3152000Y11370714D01*
X3694857Y10692143D02*
X3666286Y10656429D01*
X3580572Y10620714D01*
X3523429Y10620714D01*
X3437714Y10656429D01*
X3380572Y10727857D01*
X3352000Y10799286D01*
X3323429Y10942143D01*
X3323429Y11049286D01*
X3352000Y11192143D01*
X3380572Y11263571D01*
X3437714Y11335000D01*
X3523429Y11370714D01*
X3580572Y11370714D01*
X3666286Y11335000D01*
X3694857Y11299286D01*
X4294857Y10692143D02*
X4266286Y10656429D01*
X4180572Y10620714D01*
X4123429Y10620714D01*
X4037714Y10656429D01*
X3980572Y10727857D01*
X3952000Y10799286D01*
X3923429Y10942143D01*
X3923429Y11049286D01*
X3952000Y11192143D01*
X3980572Y11263571D01*
X4037714Y11335000D01*
X4123429Y11370714D01*
X4180572Y11370714D01*
X4266286Y11335000D01*
X4294857Y11299286D01*
X1722381Y2000428D02*
X722381Y2000428D01*
X722381Y2238523D01*
X770000Y2381381D01*
X865238Y2476619D01*
X960476Y2524238D01*
X1150952Y2571857D01*
X1293810Y2571857D01*
X1484286Y2524238D01*
X1579524Y2476619D01*
X1674762Y2381381D01*
X1722381Y2238523D01*
X1722381Y2000428D01*
X1055714Y3429000D02*
X1722381Y3429000D01*
X1055714Y3000428D02*
X1579524Y3000428D01*
X1674762Y3048047D01*
X1722381Y3143285D01*
X1722381Y3286143D01*
X1674762Y3381381D01*
X1627143Y3429000D01*
X1674762Y4286143D02*
X1722381Y4190905D01*
X1722381Y4000428D01*
X1674762Y3905190D01*
X1579524Y3857571D01*
X1198571Y3857571D01*
X1103333Y3905190D01*
X1055714Y4000428D01*
X1055714Y4190905D01*
X1103333Y4286143D01*
X1198571Y4333762D01*
X1293810Y4333762D01*
X1389048Y3857571D01*
X1055714Y4619476D02*
X1055714Y5000428D01*
X722381Y4762333D02*
X1579524Y4762333D01*
X1674762Y4809952D01*
X1722381Y4905190D01*
X1722381Y5000428D01*
X1198571Y11057333D02*
X1198571Y11390667D01*
X1722381Y11533524D02*
X1722381Y11057333D01*
X722381Y11057333D01*
X722381Y11533524D01*
X1722381Y11866857D02*
X1055714Y12390667D01*
X1055714Y11866857D02*
X1722381Y12390667D01*
X1055714Y12771619D02*
X2055714Y12771619D01*
X1103333Y12771619D02*
X1055714Y12866857D01*
X1055714Y13057334D01*
X1103333Y13152572D01*
X1150952Y13200191D01*
X1246190Y13247810D01*
X1531905Y13247810D01*
X1627143Y13200191D01*
X1674762Y13152572D01*
X1722381Y13057334D01*
X1722381Y12866857D01*
X1674762Y12771619D01*
X1722381Y14104953D02*
X1198571Y14104953D01*
X1103333Y14057334D01*
X1055714Y13962096D01*
X1055714Y13771619D01*
X1103333Y13676381D01*
X1674762Y14104953D02*
X1722381Y14009715D01*
X1722381Y13771619D01*
X1674762Y13676381D01*
X1579524Y13628762D01*
X1484286Y13628762D01*
X1389048Y13676381D01*
X1341429Y13771619D01*
X1341429Y14009715D01*
X1293810Y14104953D01*
X1055714Y14581143D02*
X1722381Y14581143D01*
X1150952Y14581143D02*
X1103333Y14628762D01*
X1055714Y14724000D01*
X1055714Y14866858D01*
X1103333Y14962096D01*
X1198571Y15009715D01*
X1722381Y15009715D01*
X1722381Y15914477D02*
X722381Y15914477D01*
X1674762Y15914477D02*
X1722381Y15819239D01*
X1722381Y15628762D01*
X1674762Y15533524D01*
X1627143Y15485905D01*
X1531905Y15438286D01*
X1246190Y15438286D01*
X1150952Y15485905D01*
X1103333Y15533524D01*
X1055714Y15628762D01*
X1055714Y15819239D01*
X1103333Y15914477D01*
X1674762Y16771620D02*
X1722381Y16676382D01*
X1722381Y16485905D01*
X1674762Y16390667D01*
X1579524Y16343048D01*
X1198571Y16343048D01*
X1103333Y16390667D01*
X1055714Y16485905D01*
X1055714Y16676382D01*
X1103333Y16771620D01*
X1198571Y16819239D01*
X1293810Y16819239D01*
X1389048Y16343048D01*
X1722381Y17247810D02*
X1055714Y17247810D01*
X1246190Y17247810D02*
X1150952Y17295429D01*
X1103333Y17343048D01*
X1055714Y17438286D01*
X1055714Y17533525D01*
%LPC*%
D15*
X3302000Y2413000D03*
D16*
X3302000Y4953000D03*
X5842000Y2413000D03*
X5842000Y4953000D03*
X8382000Y2413000D03*
X8382000Y4953000D03*
X10922000Y2413000D03*
X10922000Y4953000D03*
X13462000Y2413000D03*
X13462000Y4953000D03*
X16002000Y2413000D03*
X16002000Y4953000D03*
X18542000Y2413000D03*
X18542000Y4953000D03*
X21082000Y2413000D03*
X21082000Y4953000D03*
X23622000Y2413000D03*
X23622000Y4953000D03*
X26162000Y2413000D03*
X26162000Y4953000D03*
X28702000Y2413000D03*
X28702000Y4953000D03*
X31242000Y2413000D03*
X31242000Y4953000D03*
D15*
X3302000Y13208000D03*
D16*
X3302000Y15748000D03*
X5842000Y13208000D03*
X5842000Y15748000D03*
X8382000Y13208000D03*
X8382000Y15748000D03*
X10922000Y13208000D03*
X10922000Y15748000D03*
X13462000Y13208000D03*
X13462000Y15748000D03*
X16002000Y13208000D03*
X16002000Y15748000D03*
X18542000Y13208000D03*
X18542000Y15748000D03*
X21082000Y13208000D03*
X21082000Y15748000D03*
X23622000Y13208000D03*
X23622000Y15748000D03*
X26162000Y13208000D03*
X26162000Y15748000D03*
X28702000Y13208000D03*
X28702000Y15748000D03*
X31242000Y13208000D03*
X31242000Y15748000D03*
M02*
