G04 #@! TF.FileFunction,Legend,Bot*
%FSLAX46Y46*%
G04 Gerber Fmt 4.6, Leading zero omitted, Abs format (unit mm)*
G04 Created by KiCad (PCBNEW 4.0.7) date 04/07/18 14:14:12*
%MOMM*%
%LPD*%
G01*
G04 APERTURE LIST*
%ADD10C,0.100000*%
%ADD11C,0.275000*%
%ADD12C,0.120000*%
%ADD13R,2.100000X2.100000*%
%ADD14O,2.100000X2.100000*%
G04 APERTURE END LIST*
D10*
D11*
X32126047Y6687881D02*
X32492713Y7211690D01*
X32754618Y6687881D02*
X32754618Y7787881D01*
X32335571Y7787881D01*
X32230809Y7735500D01*
X32178428Y7683119D01*
X32126047Y7578357D01*
X32126047Y7421214D01*
X32178428Y7316452D01*
X32230809Y7264071D01*
X32335571Y7211690D01*
X32754618Y7211690D01*
X31654618Y7264071D02*
X31287952Y7264071D01*
X31130809Y6687881D02*
X31654618Y6687881D01*
X31654618Y7787881D01*
X31130809Y7787881D01*
X30816523Y7787881D02*
X30449856Y6687881D01*
X30083190Y7787881D01*
X28930809Y7002167D02*
X28407000Y7002167D01*
X29035571Y6687881D02*
X28668904Y7787881D01*
X28302238Y6687881D01*
D12*
X4572000Y1083000D02*
X32572000Y1083000D01*
X32572000Y1083000D02*
X32572000Y6283000D01*
X32572000Y6283000D02*
X1972000Y6283000D01*
X1972000Y6283000D02*
X1972000Y3683000D01*
X1972000Y3683000D02*
X4572000Y3683000D01*
X4572000Y3683000D02*
X4572000Y1083000D01*
X3302000Y1083000D02*
X1972000Y1083000D01*
X1972000Y1083000D02*
X1972000Y2353000D01*
X4572000Y11878000D02*
X32572000Y11878000D01*
X32572000Y11878000D02*
X32572000Y17078000D01*
X32572000Y17078000D02*
X1972000Y17078000D01*
X1972000Y17078000D02*
X1972000Y14478000D01*
X1972000Y14478000D02*
X4572000Y14478000D01*
X4572000Y14478000D02*
X4572000Y11878000D01*
X3302000Y11878000D02*
X1972000Y11878000D01*
X1972000Y11878000D02*
X1972000Y13148000D01*
%LPC*%
D13*
X3302000Y2413000D03*
D14*
X3302000Y4953000D03*
X5842000Y2413000D03*
X5842000Y4953000D03*
X8382000Y2413000D03*
X8382000Y4953000D03*
X10922000Y2413000D03*
X10922000Y4953000D03*
X13462000Y2413000D03*
X13462000Y4953000D03*
X16002000Y2413000D03*
X16002000Y4953000D03*
X18542000Y2413000D03*
X18542000Y4953000D03*
X21082000Y2413000D03*
X21082000Y4953000D03*
X23622000Y2413000D03*
X23622000Y4953000D03*
X26162000Y2413000D03*
X26162000Y4953000D03*
X28702000Y2413000D03*
X28702000Y4953000D03*
X31242000Y2413000D03*
X31242000Y4953000D03*
D13*
X3302000Y13208000D03*
D14*
X3302000Y15748000D03*
X5842000Y13208000D03*
X5842000Y15748000D03*
X8382000Y13208000D03*
X8382000Y15748000D03*
X10922000Y13208000D03*
X10922000Y15748000D03*
X13462000Y13208000D03*
X13462000Y15748000D03*
X16002000Y13208000D03*
X16002000Y15748000D03*
X18542000Y13208000D03*
X18542000Y15748000D03*
X21082000Y13208000D03*
X21082000Y15748000D03*
X23622000Y13208000D03*
X23622000Y15748000D03*
X26162000Y13208000D03*
X26162000Y15748000D03*
X28702000Y13208000D03*
X28702000Y15748000D03*
X31242000Y13208000D03*
X31242000Y15748000D03*
M02*
