M48
;DRILL file {KiCad 4.0.7} date 04/07/18 14:03:40
;FORMAT={-:-/ absolute / inch / decimal}
FMAT,2
INCH,TZ
T1C0.039
%
G90
G05
M72
T1
X0.13Y0.62
X0.13Y0.52
X0.13Y0.195
X0.13Y0.095
X0.23Y0.62
X0.23Y0.52
X0.23Y0.195
X0.23Y0.095
X0.33Y0.62
X0.33Y0.52
X0.33Y0.195
X0.33Y0.095
X0.43Y0.62
X0.43Y0.52
X0.43Y0.195
X0.43Y0.095
X0.53Y0.62
X0.53Y0.52
X0.53Y0.195
X0.53Y0.095
X0.63Y0.62
X0.63Y0.52
X0.63Y0.195
X0.63Y0.095
X0.73Y0.62
X0.73Y0.52
X0.73Y0.195
X0.73Y0.095
X0.83Y0.62
X0.83Y0.52
X0.83Y0.195
X0.83Y0.095
X0.93Y0.62
X0.93Y0.52
X0.93Y0.195
X0.93Y0.095
X1.03Y0.62
X1.03Y0.52
X1.03Y0.195
X1.03Y0.095
X1.13Y0.62
X1.13Y0.52
X1.13Y0.195
X1.13Y0.095
X1.23Y0.62
X1.23Y0.52
X1.23Y0.195
X1.23Y0.095
T0
M30
