M48
INCH,TZ
T1C0.016
T2C0.030
T3C0.040
T4C0.051
T5C0.157
%
G90
G05
T1
X54508Y-43681
X63366Y-45256
X71181Y-45256
X74035Y-49390
X74469Y-47657
X76989Y-49046
X78189Y-50146
T2
X53916Y-49280
X53916Y-50280
X54916Y-49280
X54916Y-50280
X55916Y-49280
X55916Y-50280
X56916Y-49280
X56916Y-50280
X57916Y-49280
X57916Y-50280
X58916Y-49280
X58916Y-50280
X59916Y-49280
X59916Y-50280
X60916Y-49280
X60916Y-50280
X61916Y-49280
X61916Y-50280
X62916Y-49280
X62916Y-50280
X63916Y-49280
X63916Y-50280
X64916Y-49280
X64916Y-50280
T3
X54866Y-39480
X54866Y-44480
X55866Y-39480
X55866Y-44480
X56866Y-38130
X56866Y-39480
X56866Y-44480
X57866Y-38130
X57866Y-39480
X57866Y-44480
X58311Y-40839
X58311Y-41839
X58866Y-38130
X58866Y-39480
X58866Y-44480
X59311Y-40839
X59311Y-41839
X59866Y-38130
X59866Y-39480
X59866Y-44480
X60311Y-40839
X60311Y-41839
X60866Y-39480
X60866Y-44480
X61866Y-39480
X61866Y-44480
X62866Y-39480
X62866Y-44480
X63866Y-39480
X63866Y-44480
X64866Y-38130
X64866Y-39480
X64866Y-44480
X65866Y-38130
X65866Y-39480
X65866Y-44480
X66343Y-40839
X66343Y-41839
X66866Y-38130
X66866Y-39480
X66866Y-44480
X67343Y-40839
X67343Y-41839
X67866Y-38130
X67866Y-39480
X67866Y-44480
X67986Y-48270
X67986Y-49270
X67986Y-50270
X68343Y-40839
X68343Y-41839
X68866Y-39480
X68866Y-44480
X69866Y-39480
X69866Y-44480
X70156Y-48280
X70156Y-49283
X70156Y-50283
X70866Y-39480
X70866Y-44480
X71156Y-48280
X71156Y-49283
X71156Y-50283
X71866Y-39480
X71866Y-44480
X72156Y-48280
X72156Y-49283
X72156Y-50283
X72866Y-38130
X72866Y-39480
X72866Y-44480
X73156Y-48280
X73156Y-49283
X73156Y-50283
X73866Y-38130
X73866Y-39480
X73866Y-44480
X74354Y-40839
X74354Y-41839
X74866Y-38130
X74866Y-39480
X74866Y-44480
X75354Y-40839
X75354Y-41839
X75866Y-38130
X75866Y-39480
X75866Y-44480
X76354Y-40839
X76354Y-41839
X76866Y-39480
X76866Y-44480
X77866Y-39480
X77866Y-44480
X78681Y-47012
X78681Y-48012
X80925Y-47012
X80925Y-48012
T4
X81417Y-41929
X81417Y-43898
T5
X53012Y-38760
X81260Y-38760
T0
M30
