G04 #@! TF.FileFunction,Soldermask,Top*
%FSLAX46Y46*%
G04 Gerber Fmt 4.6, Leading zero omitted, Abs format (unit mm)*
G04 Created by KiCad (PCBNEW 4.0.2-stable) date 12/31/2017 6:43:37 PM*
%MOMM*%
G01*
G04 APERTURE LIST*
%ADD10C,0.100000*%
%ADD11C,2.178000*%
%ADD12R,1.600000X1.600000*%
%ADD13O,1.924000X1.924000*%
%ADD14R,1.300000X1.200000*%
%ADD15R,1.200000X1.300000*%
%ADD16R,1.000000X1.950000*%
%ADD17R,3.999180X2.000200*%
%ADD18C,2.900000*%
%ADD19C,1.924000*%
%ADD20C,4.400000*%
%ADD21R,2.100000X2.900000*%
G04 APERTURE END LIST*
D10*
D11*
X172684800Y-122606600D03*
X172684800Y-125146600D03*
X172684800Y-127686600D03*
X180000000Y-112980000D03*
X182540000Y-112980000D03*
X185080000Y-112980000D03*
X187620000Y-112980000D03*
X190160000Y-112980000D03*
X192700000Y-112980000D03*
X195240000Y-112980000D03*
X197780000Y-112980000D03*
X197780000Y-100280000D03*
X195240000Y-100280000D03*
X192700000Y-100280000D03*
X190160000Y-100280000D03*
X187620000Y-100280000D03*
X185080000Y-100280000D03*
X182540000Y-100280000D03*
X180000000Y-100280000D03*
X159680000Y-112980000D03*
X162220000Y-112980000D03*
X164760000Y-112980000D03*
X167300000Y-112980000D03*
X169840000Y-112980000D03*
X172380000Y-112980000D03*
X174920000Y-112980000D03*
X177460000Y-112980000D03*
X177460000Y-100280000D03*
X174920000Y-100280000D03*
X172380000Y-100280000D03*
X169840000Y-100280000D03*
X167300000Y-100280000D03*
X164760000Y-100280000D03*
X162220000Y-100280000D03*
X159680000Y-100280000D03*
D12*
X200450000Y-127250000D03*
X200450000Y-125050000D03*
X205300000Y-127250000D03*
X205300000Y-125050000D03*
D13*
X188860000Y-106270000D03*
X188860000Y-103730000D03*
X191400000Y-106270000D03*
X191400000Y-103730000D03*
X193940000Y-106270000D03*
X193940000Y-103730000D03*
X168510000Y-106270000D03*
X168510000Y-103730000D03*
X171050000Y-106270000D03*
X171050000Y-103730000D03*
X173590000Y-106270000D03*
X173590000Y-103730000D03*
X148110000Y-106270000D03*
X148110000Y-103730000D03*
X150650000Y-106270000D03*
X150650000Y-103730000D03*
X153190000Y-106270000D03*
X153190000Y-103730000D03*
X185080000Y-96851000D03*
X187620000Y-96851000D03*
X190160000Y-96851000D03*
X192700000Y-96851000D03*
X164760000Y-96851000D03*
X167300000Y-96851000D03*
X169840000Y-96851000D03*
X172380000Y-96851000D03*
X144440000Y-96851000D03*
X146980000Y-96851000D03*
X149520000Y-96851000D03*
X152060000Y-96851000D03*
D14*
X190950000Y-125400000D03*
X190950000Y-126900000D03*
X189200000Y-125400000D03*
X189200000Y-126900000D03*
X190950000Y-122400000D03*
X190950000Y-123900000D03*
X189200000Y-122400000D03*
X189200000Y-123900000D03*
X198450000Y-124650000D03*
X198450000Y-126150000D03*
X207300000Y-124650000D03*
X207300000Y-126150000D03*
D15*
X181150000Y-110450000D03*
X182650000Y-110450000D03*
X160650000Y-110450000D03*
X162150000Y-110450000D03*
X140400000Y-110450000D03*
X141900000Y-110450000D03*
X178150000Y-115450000D03*
X179650000Y-115450000D03*
X157900000Y-115450000D03*
X159400000Y-115450000D03*
X137650000Y-115450000D03*
X139150000Y-115450000D03*
D16*
X193045000Y-126600000D03*
X194315000Y-126600000D03*
X195585000Y-126600000D03*
X196855000Y-126600000D03*
X196855000Y-121200000D03*
X195585000Y-121200000D03*
X194315000Y-121200000D03*
X193045000Y-121200000D03*
D11*
X139360000Y-112980000D03*
X141900000Y-112980000D03*
X144440000Y-112980000D03*
X146980000Y-112980000D03*
X149520000Y-112980000D03*
X152060000Y-112980000D03*
X154600000Y-112980000D03*
X157140000Y-112980000D03*
X157140000Y-100280000D03*
X154600000Y-100280000D03*
X152060000Y-100280000D03*
X149520000Y-100280000D03*
X146980000Y-100280000D03*
X144440000Y-100280000D03*
X141900000Y-100280000D03*
X139360000Y-100280000D03*
D17*
X178899180Y-105200000D03*
X184400820Y-105200000D03*
X158649180Y-105200000D03*
X164150820Y-105200000D03*
X138399180Y-105200000D03*
X143900820Y-105200000D03*
D18*
X206800000Y-111500000D03*
X206800000Y-106500000D03*
D19*
X136947000Y-125172000D03*
X136947000Y-127712000D03*
X139487000Y-127712000D03*
X139487000Y-125172000D03*
X142027000Y-127712000D03*
X142027000Y-125172000D03*
X144567000Y-127712000D03*
X144567000Y-125172000D03*
X147107000Y-127712000D03*
X147107000Y-125172000D03*
X149647000Y-127712000D03*
X149647000Y-125172000D03*
X152187000Y-127712000D03*
X152187000Y-125172000D03*
X154727000Y-127712000D03*
X154727000Y-125172000D03*
X157267000Y-127712000D03*
X157267000Y-125172000D03*
X159807000Y-127712000D03*
X159807000Y-125172000D03*
X162347000Y-127712000D03*
X162347000Y-125172000D03*
X164887000Y-127712000D03*
X164887000Y-125172000D03*
D20*
X134650000Y-98450000D03*
X206400000Y-98450000D03*
D15*
X164363060Y-122370380D03*
X165863060Y-122370380D03*
D11*
X199850000Y-119410000D03*
X199850000Y-121950000D03*
X205550000Y-119410000D03*
X205550000Y-121950000D03*
X178196600Y-122632000D03*
X180736600Y-122632000D03*
X183276600Y-122632000D03*
X185816600Y-122632000D03*
D21*
X169078000Y-127121200D03*
X169078000Y-123121200D03*
D11*
X178196600Y-127720000D03*
X178196600Y-125180000D03*
X180736600Y-127720000D03*
X180736600Y-125180000D03*
X183276600Y-127720000D03*
X183276600Y-125180000D03*
X185816600Y-127720000D03*
X185816600Y-125180000D03*
M02*
