G04 #@! TF.FileFunction,Copper,L1,Top,Signal*
%FSLAX46Y46*%
G04 Gerber Fmt 4.6, Leading zero omitted, Abs format (unit mm)*
G04 Created by KiCad (PCBNEW 4.0.2-stable) date 12/31/2017 6:43:37 PM*
%MOMM*%
G01*
G04 APERTURE LIST*
%ADD10C,0.100000*%
%ADD11C,1.778000*%
%ADD12R,1.200000X1.200000*%
%ADD13O,1.524000X1.524000*%
%ADD14R,0.900000X0.800000*%
%ADD15R,0.800000X0.900000*%
%ADD16R,0.600000X1.550000*%
%ADD17R,3.599180X1.600200*%
%ADD18C,2.500000*%
%ADD19C,1.524000*%
%ADD20R,1.700000X2.500000*%
%ADD21C,0.600000*%
%ADD22C,0.762000*%
%ADD23C,0.508000*%
%ADD24C,1.778000*%
%ADD25C,1.270000*%
%ADD26C,0.254000*%
%ADD27C,0.381000*%
%ADD28C,0.203200*%
%ADD29C,0.304800*%
G04 APERTURE END LIST*
D10*
D11*
X172684800Y-122606600D03*
X172684800Y-125146600D03*
X172684800Y-127686600D03*
X180000000Y-112980000D03*
X182540000Y-112980000D03*
X185080000Y-112980000D03*
X187620000Y-112980000D03*
X190160000Y-112980000D03*
X192700000Y-112980000D03*
X195240000Y-112980000D03*
X197780000Y-112980000D03*
X197780000Y-100280000D03*
X195240000Y-100280000D03*
X192700000Y-100280000D03*
X190160000Y-100280000D03*
X187620000Y-100280000D03*
X185080000Y-100280000D03*
X182540000Y-100280000D03*
X180000000Y-100280000D03*
X159680000Y-112980000D03*
X162220000Y-112980000D03*
X164760000Y-112980000D03*
X167300000Y-112980000D03*
X169840000Y-112980000D03*
X172380000Y-112980000D03*
X174920000Y-112980000D03*
X177460000Y-112980000D03*
X177460000Y-100280000D03*
X174920000Y-100280000D03*
X172380000Y-100280000D03*
X169840000Y-100280000D03*
X167300000Y-100280000D03*
X164760000Y-100280000D03*
X162220000Y-100280000D03*
X159680000Y-100280000D03*
D12*
X200450000Y-127250000D03*
X200450000Y-125050000D03*
X205300000Y-127250000D03*
X205300000Y-125050000D03*
D13*
X188860000Y-106270000D03*
X188860000Y-103730000D03*
X191400000Y-106270000D03*
X191400000Y-103730000D03*
X193940000Y-106270000D03*
X193940000Y-103730000D03*
X168510000Y-106270000D03*
X168510000Y-103730000D03*
X171050000Y-106270000D03*
X171050000Y-103730000D03*
X173590000Y-106270000D03*
X173590000Y-103730000D03*
X148110000Y-106270000D03*
X148110000Y-103730000D03*
X150650000Y-106270000D03*
X150650000Y-103730000D03*
X153190000Y-106270000D03*
X153190000Y-103730000D03*
X185080000Y-96851000D03*
X187620000Y-96851000D03*
X190160000Y-96851000D03*
X192700000Y-96851000D03*
X164760000Y-96851000D03*
X167300000Y-96851000D03*
X169840000Y-96851000D03*
X172380000Y-96851000D03*
X144440000Y-96851000D03*
X146980000Y-96851000D03*
X149520000Y-96851000D03*
X152060000Y-96851000D03*
D14*
X190950000Y-125400000D03*
X190950000Y-126900000D03*
X189200000Y-125400000D03*
X189200000Y-126900000D03*
X190950000Y-122400000D03*
X190950000Y-123900000D03*
X189200000Y-122400000D03*
X189200000Y-123900000D03*
X198450000Y-124650000D03*
X198450000Y-126150000D03*
X207300000Y-124650000D03*
X207300000Y-126150000D03*
D15*
X181150000Y-110450000D03*
X182650000Y-110450000D03*
X160650000Y-110450000D03*
X162150000Y-110450000D03*
X140400000Y-110450000D03*
X141900000Y-110450000D03*
X178150000Y-115450000D03*
X179650000Y-115450000D03*
X157900000Y-115450000D03*
X159400000Y-115450000D03*
X137650000Y-115450000D03*
X139150000Y-115450000D03*
D16*
X193045000Y-126600000D03*
X194315000Y-126600000D03*
X195585000Y-126600000D03*
X196855000Y-126600000D03*
X196855000Y-121200000D03*
X195585000Y-121200000D03*
X194315000Y-121200000D03*
X193045000Y-121200000D03*
D11*
X139360000Y-112980000D03*
X141900000Y-112980000D03*
X144440000Y-112980000D03*
X146980000Y-112980000D03*
X149520000Y-112980000D03*
X152060000Y-112980000D03*
X154600000Y-112980000D03*
X157140000Y-112980000D03*
X157140000Y-100280000D03*
X154600000Y-100280000D03*
X152060000Y-100280000D03*
X149520000Y-100280000D03*
X146980000Y-100280000D03*
X144440000Y-100280000D03*
X141900000Y-100280000D03*
X139360000Y-100280000D03*
D17*
X178899180Y-105200000D03*
X184400820Y-105200000D03*
X158649180Y-105200000D03*
X164150820Y-105200000D03*
X138399180Y-105200000D03*
X143900820Y-105200000D03*
D18*
X206800000Y-111500000D03*
X206800000Y-106500000D03*
D19*
X136947000Y-125172000D03*
X136947000Y-127712000D03*
X139487000Y-127712000D03*
X139487000Y-125172000D03*
X142027000Y-127712000D03*
X142027000Y-125172000D03*
X144567000Y-127712000D03*
X144567000Y-125172000D03*
X147107000Y-127712000D03*
X147107000Y-125172000D03*
X149647000Y-127712000D03*
X149647000Y-125172000D03*
X152187000Y-127712000D03*
X152187000Y-125172000D03*
X154727000Y-127712000D03*
X154727000Y-125172000D03*
X157267000Y-127712000D03*
X157267000Y-125172000D03*
X159807000Y-127712000D03*
X159807000Y-125172000D03*
X162347000Y-127712000D03*
X162347000Y-125172000D03*
X164887000Y-127712000D03*
X164887000Y-125172000D03*
D15*
X164363060Y-122370380D03*
X165863060Y-122370380D03*
D11*
X199850000Y-119410000D03*
X199850000Y-121950000D03*
X205550000Y-119410000D03*
X205550000Y-121950000D03*
X178196600Y-122632000D03*
X180736600Y-122632000D03*
X183276600Y-122632000D03*
X185816600Y-122632000D03*
D20*
X169078000Y-127121200D03*
X169078000Y-123121200D03*
D11*
X178196600Y-127720000D03*
X178196600Y-125180000D03*
X180736600Y-127720000D03*
X180736600Y-125180000D03*
X183276600Y-127720000D03*
X183276600Y-125180000D03*
X185816600Y-127720000D03*
X185816600Y-125180000D03*
D21*
X180800000Y-114950000D03*
X160950000Y-114950000D03*
X138450000Y-110950000D03*
X188050000Y-125450000D03*
X189150000Y-121050000D03*
X195552000Y-124578000D03*
X198600000Y-127372000D03*
D22*
X206800000Y-106500000D02*
X204750000Y-106500000D01*
X205550000Y-117200000D02*
X205550000Y-119410000D01*
X202950000Y-114600000D02*
X205550000Y-117200000D01*
X202950000Y-108300000D02*
X202950000Y-114600000D01*
X204750000Y-106500000D02*
X202950000Y-108300000D01*
X205550000Y-119410000D02*
X199850000Y-119410000D01*
D23*
X172684800Y-122606600D02*
X172684800Y-121865200D01*
X172684800Y-121865200D02*
X174200000Y-120350000D01*
X174200000Y-120350000D02*
X188350000Y-120350000D01*
X188350000Y-120350000D02*
X189290000Y-119410000D01*
X189290000Y-119410000D02*
X199850000Y-119410000D01*
D24*
X178899180Y-105200000D02*
X178899180Y-104700820D01*
X178899180Y-104700820D02*
X180000000Y-103600000D01*
X180000000Y-103600000D02*
X180000000Y-100280000D01*
X158649180Y-105200000D02*
X158649180Y-105150820D01*
X158649180Y-105150820D02*
X159680000Y-104120000D01*
X159680000Y-104120000D02*
X159680000Y-100280000D01*
X138399180Y-105200000D02*
X138399180Y-105150820D01*
X138399180Y-105150820D02*
X139360000Y-104190000D01*
X139360000Y-104190000D02*
X139360000Y-100280000D01*
X205550000Y-119410000D02*
X205500000Y-119360000D01*
D25*
X178899180Y-105200000D02*
X178899180Y-104950820D01*
X158649180Y-105200000D02*
X158650000Y-105200000D01*
D22*
X205550000Y-119400000D02*
X205550000Y-119150000D01*
D26*
X181150000Y-110450000D02*
X181150000Y-111550000D01*
X181250000Y-114500000D02*
X180800000Y-114950000D01*
X181250000Y-111650000D02*
X181250000Y-114500000D01*
X181150000Y-111550000D02*
X181250000Y-111650000D01*
X160650000Y-110450000D02*
X160650000Y-111500000D01*
X160950000Y-111800000D02*
X160950000Y-114950000D01*
X160650000Y-111500000D02*
X160950000Y-111800000D01*
D27*
X172684800Y-127686600D02*
X173863400Y-127686600D01*
X176370000Y-125180000D02*
X178196600Y-125180000D01*
X173863400Y-127686600D02*
X176370000Y-125180000D01*
D24*
X184400820Y-105200000D02*
X184250000Y-105200000D01*
X184250000Y-105200000D02*
X182540000Y-103490000D01*
X182540000Y-103490000D02*
X182540000Y-100280000D01*
X164150820Y-105200000D02*
X164000000Y-105200000D01*
X164000000Y-105200000D02*
X162220000Y-103420000D01*
X162220000Y-103420000D02*
X162220000Y-100280000D01*
X143900820Y-105200000D02*
X143900820Y-105150820D01*
X143900820Y-105150820D02*
X141900000Y-103150000D01*
X141900000Y-103150000D02*
X141900000Y-100280000D01*
D27*
X178196600Y-125180000D02*
X180736600Y-125180000D01*
X180736600Y-125180000D02*
X183276600Y-125180000D01*
D26*
X140300000Y-110500000D02*
X138900000Y-110500000D01*
X138900000Y-110500000D02*
X138450000Y-110950000D01*
D28*
X188100000Y-125400000D02*
X188050000Y-125450000D01*
X189200000Y-125400000D02*
X188100000Y-125400000D01*
D26*
X193045000Y-126600000D02*
X193045000Y-127659000D01*
X195585000Y-127593000D02*
X195585000Y-126600000D01*
X195298000Y-127880000D02*
X195585000Y-127593000D01*
X193266000Y-127880000D02*
X195298000Y-127880000D01*
X193045000Y-127659000D02*
X193266000Y-127880000D01*
D28*
X189200000Y-122400000D02*
X189200000Y-121100000D01*
X189200000Y-121100000D02*
X189150000Y-121050000D01*
X195585000Y-126600000D02*
X195587000Y-124613000D01*
X195587000Y-124613000D02*
X195552000Y-124578000D01*
D27*
X164363060Y-122370380D02*
X163629620Y-122370380D01*
X138225000Y-126450000D02*
X136947000Y-125172000D01*
X163050000Y-126450000D02*
X138225000Y-126450000D01*
X163650000Y-125850000D02*
X163050000Y-126450000D01*
X163650000Y-123550000D02*
X163650000Y-125850000D01*
X163450000Y-123350000D02*
X163650000Y-123550000D01*
X163450000Y-122550000D02*
X163450000Y-123350000D01*
X163629620Y-122370380D02*
X163450000Y-122550000D01*
X185816600Y-127720000D02*
X187420000Y-127720000D01*
D26*
X198722000Y-127250000D02*
X198600000Y-127372000D01*
X198722000Y-127250000D02*
X200450000Y-127250000D01*
D27*
X197822000Y-128150000D02*
X198600000Y-127372000D01*
X196350000Y-128150000D02*
X197822000Y-128150000D01*
X196050000Y-128450000D02*
X196350000Y-128150000D01*
X188150000Y-128450000D02*
X196050000Y-128450000D01*
X187420000Y-127720000D02*
X188150000Y-128450000D01*
X178196600Y-127720000D02*
X180736600Y-127720000D01*
X180736600Y-127720000D02*
X183276600Y-127720000D01*
X183276600Y-127720000D02*
X185816600Y-127720000D01*
D26*
X178150000Y-115450000D02*
X178150000Y-114650000D01*
X174530000Y-103730000D02*
X173590000Y-103730000D01*
X175450000Y-104650000D02*
X174530000Y-103730000D01*
X175450000Y-106850000D02*
X175450000Y-104650000D01*
X178750000Y-110150000D02*
X175450000Y-106850000D01*
X178750000Y-114050000D02*
X178750000Y-110150000D01*
X178150000Y-114650000D02*
X178750000Y-114050000D01*
X157900000Y-115450000D02*
X157900000Y-114800000D01*
X155450000Y-105990000D02*
X153190000Y-103730000D01*
X155450000Y-108050000D02*
X155450000Y-105990000D01*
X158450000Y-111050000D02*
X155450000Y-108050000D01*
X158450000Y-114250000D02*
X158450000Y-111050000D01*
X157900000Y-114800000D02*
X158450000Y-114250000D01*
D29*
X136821000Y-125107000D02*
X136821000Y-125079000D01*
D28*
X136821000Y-125107000D02*
X137283800Y-125107000D01*
X136821000Y-125107000D02*
X136877400Y-125107000D01*
D27*
X198600000Y-126090000D02*
X198866000Y-126090000D01*
X198866000Y-126090000D02*
X199906000Y-125050000D01*
X199906000Y-125050000D02*
X200450000Y-125050000D01*
X200450000Y-125050000D02*
X200450000Y-125150000D01*
X207296000Y-126090000D02*
X207030000Y-126090000D01*
X207030000Y-126090000D02*
X205990000Y-125050000D01*
X205990000Y-125050000D02*
X205300000Y-125050000D01*
X205300000Y-125050000D02*
X205450000Y-125050000D01*
X198450000Y-124650000D02*
X198450000Y-124050000D01*
X199050000Y-123450000D02*
X199050000Y-122750000D01*
X198450000Y-124050000D02*
X199050000Y-123450000D01*
X194315000Y-121200000D02*
X194315000Y-122265000D01*
X199050000Y-122750000D02*
X199850000Y-121950000D01*
X194800000Y-122750000D02*
X199050000Y-122750000D01*
X194315000Y-122265000D02*
X194800000Y-122750000D01*
X193045000Y-121200000D02*
X194315000Y-121200000D01*
X205550000Y-121950000D02*
X205550000Y-122850000D01*
X205550000Y-122850000D02*
X207300000Y-124600000D01*
X207300000Y-124600000D02*
X207300000Y-124650000D01*
X196855000Y-121200000D02*
X198250000Y-121200000D01*
X204300000Y-120700000D02*
X205550000Y-121950000D01*
X198750000Y-120700000D02*
X204300000Y-120700000D01*
X198250000Y-121200000D02*
X198750000Y-120700000D01*
X205550000Y-121940000D02*
X205674000Y-121940000D01*
X195585000Y-121200000D02*
X196855000Y-121200000D01*
D29*
X190950000Y-125400000D02*
X191450000Y-125400000D01*
X194315000Y-124765000D02*
X194315000Y-126600000D01*
X193950000Y-124400000D02*
X194315000Y-124765000D01*
X192450000Y-124400000D02*
X193950000Y-124400000D01*
X191450000Y-125400000D02*
X192450000Y-124400000D01*
X190950000Y-122400000D02*
X191700000Y-122400000D01*
X196855000Y-124805000D02*
X196855000Y-126600000D01*
X195612000Y-123562000D02*
X196855000Y-124805000D01*
X192862000Y-123562000D02*
X195612000Y-123562000D01*
X191700000Y-122400000D02*
X192862000Y-123562000D01*
X190160000Y-112980000D02*
X192700000Y-112980000D01*
X169840000Y-112980000D02*
X172380000Y-112980000D01*
X149520000Y-112980000D02*
X152060000Y-112980000D01*
X182650000Y-110450000D02*
X184680000Y-110450000D01*
X184680000Y-110450000D02*
X188860000Y-106270000D01*
X182540000Y-112980000D02*
X182540000Y-110560000D01*
X182540000Y-110560000D02*
X182650000Y-110450000D01*
X185080000Y-112980000D02*
X185080000Y-112590000D01*
X185080000Y-112590000D02*
X191400000Y-106270000D01*
X187620000Y-112980000D02*
X187620000Y-112590000D01*
X187620000Y-112590000D02*
X193940000Y-106270000D01*
X162150000Y-110450000D02*
X164330000Y-110450000D01*
X164330000Y-110450000D02*
X168510000Y-106270000D01*
X162220000Y-112980000D02*
X162220000Y-110520000D01*
X162220000Y-110520000D02*
X162150000Y-110450000D01*
D28*
X165240000Y-112600000D02*
X165240000Y-112080000D01*
X165240000Y-112080000D02*
X171050000Y-106270000D01*
X167780000Y-112600000D02*
X167780000Y-112080000D01*
X167780000Y-112080000D02*
X173590000Y-106270000D01*
D29*
X141900000Y-110450000D02*
X143930000Y-110450000D01*
X143930000Y-110450000D02*
X148110000Y-106270000D01*
X141900000Y-112980000D02*
X141900000Y-110450000D01*
D28*
X141700000Y-110600000D02*
X141800000Y-110500000D01*
D29*
X141900000Y-112980000D02*
X142120000Y-112980000D01*
X144440000Y-112980000D02*
X144440000Y-112480000D01*
X144440000Y-112480000D02*
X150650000Y-106270000D01*
X146980000Y-112980000D02*
X146980000Y-112480000D01*
X146980000Y-112480000D02*
X153190000Y-106270000D01*
X164887000Y-127712000D02*
X164887000Y-127613000D01*
X164887000Y-127613000D02*
X167400000Y-125100000D01*
X184548600Y-123900000D02*
X185816600Y-122632000D01*
X171900000Y-123900000D02*
X184548600Y-123900000D01*
X170700000Y-125100000D02*
X171900000Y-123900000D01*
X167400000Y-125100000D02*
X170700000Y-125100000D01*
X164887000Y-127712000D02*
X165538000Y-127712000D01*
X185816600Y-122632000D02*
X186032000Y-122632000D01*
X186032000Y-122632000D02*
X187350000Y-123950000D01*
X187900000Y-126900000D02*
X189200000Y-126900000D01*
X187350000Y-126350000D02*
X187900000Y-126900000D01*
X187350000Y-123950000D02*
X187350000Y-126350000D01*
X164887000Y-127712000D02*
X165388000Y-127712000D01*
D27*
X189085000Y-126785000D02*
X189200000Y-126900000D01*
X189200000Y-126900000D02*
X190950000Y-126900000D01*
D29*
X183276600Y-122632000D02*
X183276600Y-122323400D01*
X183276600Y-122323400D02*
X184450000Y-121150000D01*
X188300000Y-123900000D02*
X189200000Y-123900000D01*
X187850000Y-123450000D02*
X188300000Y-123900000D01*
X187850000Y-122350000D02*
X187850000Y-123450000D01*
X186650000Y-121150000D02*
X187850000Y-122350000D01*
X184450000Y-121150000D02*
X186650000Y-121150000D01*
D27*
X189200000Y-123900000D02*
X190950000Y-123900000D01*
D29*
X157267000Y-125172000D02*
X157267000Y-123147620D01*
X179650000Y-115802320D02*
X179650000Y-115450000D01*
X178973740Y-116478580D02*
X179650000Y-115802320D01*
X163936040Y-116478580D02*
X178973740Y-116478580D01*
X157267000Y-123147620D02*
X163936040Y-116478580D01*
X179650000Y-115450000D02*
X179650000Y-113330000D01*
X179650000Y-113330000D02*
X180000000Y-112980000D01*
X149647000Y-125172000D02*
X149647000Y-123063800D01*
X159400000Y-116579780D02*
X159400000Y-115450000D01*
X158181400Y-117798380D02*
X159400000Y-116579780D01*
X154912420Y-117798380D02*
X158181400Y-117798380D01*
X149647000Y-123063800D02*
X154912420Y-117798380D01*
X159400000Y-115450000D02*
X159400000Y-113260000D01*
X159400000Y-113260000D02*
X159680000Y-112980000D01*
X142027000Y-125172000D02*
X142027000Y-117527000D01*
X139950000Y-115450000D02*
X139150000Y-115450000D01*
X142027000Y-117527000D02*
X139950000Y-115450000D01*
X141901000Y-125107000D02*
X141901000Y-125099000D01*
X139300000Y-115000000D02*
X139160000Y-114860000D01*
X139160000Y-114860000D02*
X139160000Y-112600000D01*
X159807000Y-125172000D02*
X159807000Y-122014920D01*
X192948920Y-115271080D02*
X195240000Y-112980000D01*
X181679840Y-115271080D02*
X192948920Y-115271080D01*
X179696040Y-117254880D02*
X181679840Y-115271080D01*
X164567040Y-117254880D02*
X179696040Y-117254880D01*
X159807000Y-122014920D02*
X164567040Y-117254880D01*
X162347000Y-125172000D02*
X162347000Y-121057200D01*
X194475460Y-116284540D02*
X197780000Y-112980000D01*
X181908020Y-116284540D02*
X194475460Y-116284540D01*
X180181700Y-118010860D02*
X181908020Y-116284540D01*
X165393340Y-118010860D02*
X180181700Y-118010860D01*
X162347000Y-121057200D02*
X165393340Y-118010860D01*
X152187000Y-125172000D02*
X152305160Y-125172000D01*
X152305160Y-125172000D02*
X162571640Y-114905520D01*
X162571640Y-114905520D02*
X172994480Y-114905520D01*
X172994480Y-114905520D02*
X174920000Y-112980000D01*
X154727000Y-125172000D02*
X154727000Y-124181260D01*
X177460000Y-114323660D02*
X177460000Y-112980000D01*
X176113740Y-115669920D02*
X177460000Y-114323660D01*
X163238340Y-115669920D02*
X176113740Y-115669920D01*
X154727000Y-124181260D02*
X163238340Y-115669920D01*
D28*
X155109000Y-125107000D02*
X155109000Y-124941000D01*
D29*
X144567000Y-125172000D02*
X144567000Y-123013000D01*
X144567000Y-123013000D02*
X154600000Y-112980000D01*
X147107000Y-125172000D02*
X147107000Y-123013000D01*
X153624640Y-116495360D02*
X157140000Y-112980000D01*
X147107000Y-123013000D02*
X153624640Y-116495360D01*
X139361000Y-125107000D02*
X139393000Y-125107000D01*
X169078000Y-123121200D02*
X168017800Y-123121200D01*
X167266980Y-122370380D02*
X165863060Y-122370380D01*
X168017800Y-123121200D02*
X167266980Y-122370380D01*
X164887000Y-125172000D02*
X164887000Y-124648760D01*
X164887000Y-124648760D02*
X165863060Y-123672700D01*
X165863060Y-123672700D02*
X165863060Y-122370380D01*
X169078000Y-127121200D02*
X170710200Y-127121200D01*
X170710200Y-127121200D02*
X172684800Y-125146600D01*
D26*
G36*
X131573386Y-100501846D02*
X132592787Y-101523028D01*
X133925380Y-102076369D01*
X135368290Y-102077628D01*
X136701846Y-101526614D01*
X137582000Y-100647995D01*
X137582000Y-103453528D01*
X137542044Y-103493484D01*
X136599590Y-103493484D01*
X136270146Y-103555473D01*
X135967573Y-103750174D01*
X135764587Y-104047253D01*
X135693174Y-104399900D01*
X135693174Y-106000100D01*
X135755163Y-106329544D01*
X135949864Y-106632117D01*
X136246943Y-106835103D01*
X136599590Y-106906516D01*
X138039805Y-106906516D01*
X138399180Y-106978000D01*
X138758555Y-106906516D01*
X140198770Y-106906516D01*
X140528214Y-106844527D01*
X140830787Y-106649826D01*
X141033773Y-106352747D01*
X141105186Y-106000100D01*
X141105186Y-104869658D01*
X141194814Y-104959286D01*
X141194814Y-106000100D01*
X141256803Y-106329544D01*
X141451504Y-106632117D01*
X141748583Y-106835103D01*
X142101230Y-106906516D01*
X143541445Y-106906516D01*
X143900820Y-106978000D01*
X144260195Y-106906516D01*
X145700410Y-106906516D01*
X146029854Y-106844527D01*
X146122015Y-106785223D01*
X143498638Y-109408600D01*
X142975862Y-109408600D01*
X142949726Y-109367983D01*
X142652647Y-109164997D01*
X142300000Y-109093584D01*
X141500000Y-109093584D01*
X141170556Y-109155573D01*
X141154230Y-109166079D01*
X141152647Y-109164997D01*
X140800000Y-109093584D01*
X140000000Y-109093584D01*
X139670556Y-109155573D01*
X139367983Y-109350274D01*
X139276612Y-109484000D01*
X138900000Y-109484000D01*
X138575700Y-109548507D01*
X138511193Y-109561338D01*
X138209700Y-109762790D01*
X137777365Y-109941427D01*
X137442603Y-110275606D01*
X137261207Y-110712456D01*
X137260794Y-111185469D01*
X137441427Y-111622635D01*
X137775606Y-111957397D01*
X137847104Y-111987086D01*
X137582309Y-112624782D01*
X137581692Y-113332114D01*
X137851806Y-113985840D01*
X138118600Y-114253100D01*
X138118600Y-114349877D01*
X138117983Y-114350274D01*
X137934370Y-114619000D01*
X137872250Y-114619000D01*
X137777000Y-114714250D01*
X137777000Y-115323000D01*
X137797000Y-115323000D01*
X137797000Y-115577000D01*
X137777000Y-115577000D01*
X137777000Y-116185750D01*
X137872250Y-116281000D01*
X137938748Y-116281000D01*
X138100274Y-116532017D01*
X138397353Y-116735003D01*
X138750000Y-116806416D01*
X139550000Y-116806416D01*
X139788733Y-116761495D01*
X140985600Y-117958362D01*
X140985600Y-123878752D01*
X140756821Y-124107132D01*
X140423437Y-123773166D01*
X139816845Y-123521287D01*
X139160037Y-123520714D01*
X138553005Y-123771534D01*
X138088166Y-124235563D01*
X137942683Y-124585924D01*
X137788160Y-124510445D01*
X137126605Y-125172000D01*
X137788160Y-125833555D01*
X137942761Y-125758038D01*
X138086534Y-126105995D01*
X138422132Y-126442179D01*
X138088166Y-126775563D01*
X137942683Y-127125924D01*
X137788160Y-127050445D01*
X137126605Y-127712000D01*
X137140748Y-127726143D01*
X136961143Y-127905748D01*
X136947000Y-127891605D01*
X136932858Y-127905748D01*
X136753253Y-127726143D01*
X136767395Y-127712000D01*
X136105840Y-127050445D01*
X135935144Y-127133824D01*
X135790909Y-127565055D01*
X135822678Y-128018657D01*
X135933414Y-128286000D01*
X132644946Y-128286000D01*
X132160766Y-128189691D01*
X131830791Y-127969209D01*
X131610309Y-127639234D01*
X131514000Y-127155054D01*
X131514000Y-126870840D01*
X136285445Y-126870840D01*
X136947000Y-127532395D01*
X137608555Y-126870840D01*
X137525176Y-126700144D01*
X137093945Y-126555909D01*
X136640343Y-126587678D01*
X136368824Y-126700144D01*
X136285445Y-126870840D01*
X131514000Y-126870840D01*
X131514000Y-126013160D01*
X136285445Y-126013160D01*
X136368824Y-126183856D01*
X136800055Y-126328091D01*
X137253657Y-126296322D01*
X137525176Y-126183856D01*
X137608555Y-126013160D01*
X136947000Y-125351605D01*
X136285445Y-126013160D01*
X131514000Y-126013160D01*
X131514000Y-125025055D01*
X135790909Y-125025055D01*
X135822678Y-125478657D01*
X135935144Y-125750176D01*
X136105840Y-125833555D01*
X136767395Y-125172000D01*
X136105840Y-124510445D01*
X135935144Y-124593824D01*
X135790909Y-125025055D01*
X131514000Y-125025055D01*
X131514000Y-124330840D01*
X136285445Y-124330840D01*
X136947000Y-124992395D01*
X137608555Y-124330840D01*
X137525176Y-124160144D01*
X137093945Y-124015909D01*
X136640343Y-124047678D01*
X136368824Y-124160144D01*
X136285445Y-124330840D01*
X131514000Y-124330840D01*
X131514000Y-115672250D01*
X136869000Y-115672250D01*
X136869000Y-115975785D01*
X136927004Y-116115819D01*
X137034180Y-116222996D01*
X137174214Y-116281000D01*
X137427750Y-116281000D01*
X137523000Y-116185750D01*
X137523000Y-115577000D01*
X136964250Y-115577000D01*
X136869000Y-115672250D01*
X131514000Y-115672250D01*
X131514000Y-114924215D01*
X136869000Y-114924215D01*
X136869000Y-115227750D01*
X136964250Y-115323000D01*
X137523000Y-115323000D01*
X137523000Y-114714250D01*
X137427750Y-114619000D01*
X137174214Y-114619000D01*
X137034180Y-114677004D01*
X136927004Y-114784181D01*
X136869000Y-114924215D01*
X131514000Y-114924215D01*
X131514000Y-100358121D01*
X131573386Y-100501846D01*
X131573386Y-100501846D01*
G37*
X131573386Y-100501846D02*
X132592787Y-101523028D01*
X133925380Y-102076369D01*
X135368290Y-102077628D01*
X136701846Y-101526614D01*
X137582000Y-100647995D01*
X137582000Y-103453528D01*
X137542044Y-103493484D01*
X136599590Y-103493484D01*
X136270146Y-103555473D01*
X135967573Y-103750174D01*
X135764587Y-104047253D01*
X135693174Y-104399900D01*
X135693174Y-106000100D01*
X135755163Y-106329544D01*
X135949864Y-106632117D01*
X136246943Y-106835103D01*
X136599590Y-106906516D01*
X138039805Y-106906516D01*
X138399180Y-106978000D01*
X138758555Y-106906516D01*
X140198770Y-106906516D01*
X140528214Y-106844527D01*
X140830787Y-106649826D01*
X141033773Y-106352747D01*
X141105186Y-106000100D01*
X141105186Y-104869658D01*
X141194814Y-104959286D01*
X141194814Y-106000100D01*
X141256803Y-106329544D01*
X141451504Y-106632117D01*
X141748583Y-106835103D01*
X142101230Y-106906516D01*
X143541445Y-106906516D01*
X143900820Y-106978000D01*
X144260195Y-106906516D01*
X145700410Y-106906516D01*
X146029854Y-106844527D01*
X146122015Y-106785223D01*
X143498638Y-109408600D01*
X142975862Y-109408600D01*
X142949726Y-109367983D01*
X142652647Y-109164997D01*
X142300000Y-109093584D01*
X141500000Y-109093584D01*
X141170556Y-109155573D01*
X141154230Y-109166079D01*
X141152647Y-109164997D01*
X140800000Y-109093584D01*
X140000000Y-109093584D01*
X139670556Y-109155573D01*
X139367983Y-109350274D01*
X139276612Y-109484000D01*
X138900000Y-109484000D01*
X138575700Y-109548507D01*
X138511193Y-109561338D01*
X138209700Y-109762790D01*
X137777365Y-109941427D01*
X137442603Y-110275606D01*
X137261207Y-110712456D01*
X137260794Y-111185469D01*
X137441427Y-111622635D01*
X137775606Y-111957397D01*
X137847104Y-111987086D01*
X137582309Y-112624782D01*
X137581692Y-113332114D01*
X137851806Y-113985840D01*
X138118600Y-114253100D01*
X138118600Y-114349877D01*
X138117983Y-114350274D01*
X137934370Y-114619000D01*
X137872250Y-114619000D01*
X137777000Y-114714250D01*
X137777000Y-115323000D01*
X137797000Y-115323000D01*
X137797000Y-115577000D01*
X137777000Y-115577000D01*
X137777000Y-116185750D01*
X137872250Y-116281000D01*
X137938748Y-116281000D01*
X138100274Y-116532017D01*
X138397353Y-116735003D01*
X138750000Y-116806416D01*
X139550000Y-116806416D01*
X139788733Y-116761495D01*
X140985600Y-117958362D01*
X140985600Y-123878752D01*
X140756821Y-124107132D01*
X140423437Y-123773166D01*
X139816845Y-123521287D01*
X139160037Y-123520714D01*
X138553005Y-123771534D01*
X138088166Y-124235563D01*
X137942683Y-124585924D01*
X137788160Y-124510445D01*
X137126605Y-125172000D01*
X137788160Y-125833555D01*
X137942761Y-125758038D01*
X138086534Y-126105995D01*
X138422132Y-126442179D01*
X138088166Y-126775563D01*
X137942683Y-127125924D01*
X137788160Y-127050445D01*
X137126605Y-127712000D01*
X137140748Y-127726143D01*
X136961143Y-127905748D01*
X136947000Y-127891605D01*
X136932858Y-127905748D01*
X136753253Y-127726143D01*
X136767395Y-127712000D01*
X136105840Y-127050445D01*
X135935144Y-127133824D01*
X135790909Y-127565055D01*
X135822678Y-128018657D01*
X135933414Y-128286000D01*
X132644946Y-128286000D01*
X132160766Y-128189691D01*
X131830791Y-127969209D01*
X131610309Y-127639234D01*
X131514000Y-127155054D01*
X131514000Y-126870840D01*
X136285445Y-126870840D01*
X136947000Y-127532395D01*
X137608555Y-126870840D01*
X137525176Y-126700144D01*
X137093945Y-126555909D01*
X136640343Y-126587678D01*
X136368824Y-126700144D01*
X136285445Y-126870840D01*
X131514000Y-126870840D01*
X131514000Y-126013160D01*
X136285445Y-126013160D01*
X136368824Y-126183856D01*
X136800055Y-126328091D01*
X137253657Y-126296322D01*
X137525176Y-126183856D01*
X137608555Y-126013160D01*
X136947000Y-125351605D01*
X136285445Y-126013160D01*
X131514000Y-126013160D01*
X131514000Y-125025055D01*
X135790909Y-125025055D01*
X135822678Y-125478657D01*
X135935144Y-125750176D01*
X136105840Y-125833555D01*
X136767395Y-125172000D01*
X136105840Y-124510445D01*
X135935144Y-124593824D01*
X135790909Y-125025055D01*
X131514000Y-125025055D01*
X131514000Y-124330840D01*
X136285445Y-124330840D01*
X136947000Y-124992395D01*
X137608555Y-124330840D01*
X137525176Y-124160144D01*
X137093945Y-124015909D01*
X136640343Y-124047678D01*
X136368824Y-124160144D01*
X136285445Y-124330840D01*
X131514000Y-124330840D01*
X131514000Y-115672250D01*
X136869000Y-115672250D01*
X136869000Y-115975785D01*
X136927004Y-116115819D01*
X137034180Y-116222996D01*
X137174214Y-116281000D01*
X137427750Y-116281000D01*
X137523000Y-116185750D01*
X137523000Y-115577000D01*
X136964250Y-115577000D01*
X136869000Y-115672250D01*
X131514000Y-115672250D01*
X131514000Y-114924215D01*
X136869000Y-114924215D01*
X136869000Y-115227750D01*
X136964250Y-115323000D01*
X137523000Y-115323000D01*
X137523000Y-114714250D01*
X137427750Y-114619000D01*
X137174214Y-114619000D01*
X137034180Y-114677004D01*
X136927004Y-114784181D01*
X136869000Y-114924215D01*
X131514000Y-114924215D01*
X131514000Y-100358121D01*
X131573386Y-100501846D01*
G36*
X177188129Y-126686436D02*
X177452359Y-126796154D01*
X178196600Y-127540395D01*
X178940619Y-126796376D01*
X179202440Y-126688194D01*
X179466622Y-126424472D01*
X179728129Y-126686436D01*
X179992359Y-126796154D01*
X180736600Y-127540395D01*
X181480619Y-126796376D01*
X181742440Y-126688194D01*
X182006622Y-126424472D01*
X182268129Y-126686436D01*
X182532359Y-126796154D01*
X183276600Y-127540395D01*
X184020619Y-126796376D01*
X184282440Y-126688194D01*
X184546622Y-126424472D01*
X184808129Y-126686436D01*
X185072359Y-126796154D01*
X185816600Y-127540395D01*
X185830743Y-127526253D01*
X186010348Y-127705858D01*
X185996205Y-127720000D01*
X186010348Y-127734143D01*
X185830743Y-127913748D01*
X185816600Y-127899605D01*
X185802458Y-127913748D01*
X185622853Y-127734143D01*
X185636995Y-127720000D01*
X184883297Y-126966302D01*
X184699421Y-127065303D01*
X184537699Y-127531761D01*
X184529506Y-127392977D01*
X184393779Y-127065303D01*
X184209903Y-126966302D01*
X183456205Y-127720000D01*
X183470348Y-127734143D01*
X183290743Y-127913748D01*
X183276600Y-127899605D01*
X183262458Y-127913748D01*
X183082853Y-127734143D01*
X183096995Y-127720000D01*
X182343297Y-126966302D01*
X182159421Y-127065303D01*
X181997699Y-127531761D01*
X181989506Y-127392977D01*
X181853779Y-127065303D01*
X181669903Y-126966302D01*
X180916205Y-127720000D01*
X180930348Y-127734143D01*
X180750743Y-127913748D01*
X180736600Y-127899605D01*
X180722458Y-127913748D01*
X180542853Y-127734143D01*
X180556995Y-127720000D01*
X179803297Y-126966302D01*
X179619421Y-127065303D01*
X179457699Y-127531761D01*
X179449506Y-127392977D01*
X179313779Y-127065303D01*
X179129903Y-126966302D01*
X178376205Y-127720000D01*
X178390348Y-127734143D01*
X178210743Y-127913748D01*
X178196600Y-127899605D01*
X178182458Y-127913748D01*
X178002853Y-127734143D01*
X178016995Y-127720000D01*
X177263297Y-126966302D01*
X177079421Y-127065303D01*
X176913919Y-127542664D01*
X176943694Y-128047023D01*
X177042682Y-128286000D01*
X174790644Y-128286000D01*
X176789517Y-126287127D01*
X177188129Y-126686436D01*
X177188129Y-126686436D01*
G37*
X177188129Y-126686436D02*
X177452359Y-126796154D01*
X178196600Y-127540395D01*
X178940619Y-126796376D01*
X179202440Y-126688194D01*
X179466622Y-126424472D01*
X179728129Y-126686436D01*
X179992359Y-126796154D01*
X180736600Y-127540395D01*
X181480619Y-126796376D01*
X181742440Y-126688194D01*
X182006622Y-126424472D01*
X182268129Y-126686436D01*
X182532359Y-126796154D01*
X183276600Y-127540395D01*
X184020619Y-126796376D01*
X184282440Y-126688194D01*
X184546622Y-126424472D01*
X184808129Y-126686436D01*
X185072359Y-126796154D01*
X185816600Y-127540395D01*
X185830743Y-127526253D01*
X186010348Y-127705858D01*
X185996205Y-127720000D01*
X186010348Y-127734143D01*
X185830743Y-127913748D01*
X185816600Y-127899605D01*
X185802458Y-127913748D01*
X185622853Y-127734143D01*
X185636995Y-127720000D01*
X184883297Y-126966302D01*
X184699421Y-127065303D01*
X184537699Y-127531761D01*
X184529506Y-127392977D01*
X184393779Y-127065303D01*
X184209903Y-126966302D01*
X183456205Y-127720000D01*
X183470348Y-127734143D01*
X183290743Y-127913748D01*
X183276600Y-127899605D01*
X183262458Y-127913748D01*
X183082853Y-127734143D01*
X183096995Y-127720000D01*
X182343297Y-126966302D01*
X182159421Y-127065303D01*
X181997699Y-127531761D01*
X181989506Y-127392977D01*
X181853779Y-127065303D01*
X181669903Y-126966302D01*
X180916205Y-127720000D01*
X180930348Y-127734143D01*
X180750743Y-127913748D01*
X180736600Y-127899605D01*
X180722458Y-127913748D01*
X180542853Y-127734143D01*
X180556995Y-127720000D01*
X179803297Y-126966302D01*
X179619421Y-127065303D01*
X179457699Y-127531761D01*
X179449506Y-127392977D01*
X179313779Y-127065303D01*
X179129903Y-126966302D01*
X178376205Y-127720000D01*
X178390348Y-127734143D01*
X178210743Y-127913748D01*
X178196600Y-127899605D01*
X178182458Y-127913748D01*
X178002853Y-127734143D01*
X178016995Y-127720000D01*
X177263297Y-126966302D01*
X177079421Y-127065303D01*
X176913919Y-127542664D01*
X176943694Y-128047023D01*
X177042682Y-128286000D01*
X174790644Y-128286000D01*
X176789517Y-126287127D01*
X177188129Y-126686436D01*
G36*
X164128190Y-95293330D02*
X163592567Y-95651222D01*
X163234675Y-96186845D01*
X163109000Y-96818655D01*
X163109000Y-96883345D01*
X163234675Y-97515155D01*
X163592567Y-98050778D01*
X164128190Y-98408670D01*
X164596670Y-98501857D01*
X164407886Y-98501692D01*
X163754160Y-98771806D01*
X163489978Y-99035528D01*
X163228471Y-98773564D01*
X162575218Y-98502309D01*
X161867886Y-98501692D01*
X161214160Y-98771806D01*
X160949978Y-99035528D01*
X160688471Y-98773564D01*
X160035218Y-98502309D01*
X159327886Y-98501692D01*
X158674160Y-98771806D01*
X158409978Y-99035528D01*
X158148471Y-98773564D01*
X157495218Y-98502309D01*
X156787886Y-98501692D01*
X156134160Y-98771806D01*
X155633564Y-99271529D01*
X155523846Y-99535759D01*
X154779605Y-100280000D01*
X155523624Y-101024019D01*
X155631806Y-101285840D01*
X156131529Y-101786436D01*
X156784782Y-102057691D01*
X157492114Y-102058308D01*
X157902000Y-101888947D01*
X157902000Y-103383528D01*
X157792044Y-103493484D01*
X156849590Y-103493484D01*
X156520146Y-103555473D01*
X156217573Y-103750174D01*
X156014587Y-104047253D01*
X155943174Y-104399900D01*
X155943174Y-106000100D01*
X156005163Y-106329544D01*
X156199864Y-106632117D01*
X156496943Y-106835103D01*
X156849590Y-106906516D01*
X158289805Y-106906516D01*
X158649180Y-106978000D01*
X159008555Y-106906516D01*
X160448770Y-106906516D01*
X160778214Y-106844527D01*
X161080787Y-106649826D01*
X161283773Y-106352747D01*
X161355186Y-106000100D01*
X161355186Y-105069658D01*
X161444814Y-105159286D01*
X161444814Y-106000100D01*
X161506803Y-106329544D01*
X161701504Y-106632117D01*
X161998583Y-106835103D01*
X162351230Y-106906516D01*
X163640625Y-106906516D01*
X164000000Y-106978000D01*
X164150820Y-106978000D01*
X164510195Y-106906516D01*
X165950410Y-106906516D01*
X166279854Y-106844527D01*
X166582427Y-106649826D01*
X166785413Y-106352747D01*
X166856826Y-106000100D01*
X166856826Y-104399900D01*
X166794837Y-104070456D01*
X166600136Y-103767883D01*
X166303057Y-103564897D01*
X165950410Y-103493484D01*
X164807956Y-103493484D01*
X164741338Y-103426866D01*
X167407929Y-103426866D01*
X167469975Y-103603000D01*
X168383000Y-103603000D01*
X168383000Y-102689315D01*
X168637000Y-102689315D01*
X168637000Y-103603000D01*
X169550025Y-103603000D01*
X169612071Y-103426866D01*
X169947929Y-103426866D01*
X170009975Y-103603000D01*
X170923000Y-103603000D01*
X170923000Y-102689315D01*
X171177000Y-102689315D01*
X171177000Y-103603000D01*
X172090025Y-103603000D01*
X172152071Y-103426866D01*
X172487929Y-103426866D01*
X172549975Y-103603000D01*
X173463000Y-103603000D01*
X173463000Y-102689315D01*
X173717000Y-102689315D01*
X173717000Y-103603000D01*
X174630025Y-103603000D01*
X174692071Y-103426866D01*
X174583640Y-103165059D01*
X174291810Y-102827813D01*
X173893136Y-102627917D01*
X173717000Y-102689315D01*
X173463000Y-102689315D01*
X173286864Y-102627917D01*
X172888190Y-102827813D01*
X172596360Y-103165059D01*
X172487929Y-103426866D01*
X172152071Y-103426866D01*
X172043640Y-103165059D01*
X171751810Y-102827813D01*
X171353136Y-102627917D01*
X171177000Y-102689315D01*
X170923000Y-102689315D01*
X170746864Y-102627917D01*
X170348190Y-102827813D01*
X170056360Y-103165059D01*
X169947929Y-103426866D01*
X169612071Y-103426866D01*
X169503640Y-103165059D01*
X169211810Y-102827813D01*
X168813136Y-102627917D01*
X168637000Y-102689315D01*
X168383000Y-102689315D01*
X168206864Y-102627917D01*
X167808190Y-102827813D01*
X167516360Y-103165059D01*
X167407929Y-103426866D01*
X164741338Y-103426866D01*
X163998000Y-102683528D01*
X163998000Y-101888780D01*
X164404782Y-102057691D01*
X165112114Y-102058308D01*
X165765840Y-101788194D01*
X166030022Y-101524472D01*
X166291529Y-101786436D01*
X166944782Y-102057691D01*
X167652114Y-102058308D01*
X168305840Y-101788194D01*
X168570022Y-101524472D01*
X168831529Y-101786436D01*
X169484782Y-102057691D01*
X170192114Y-102058308D01*
X170845840Y-101788194D01*
X171110022Y-101524472D01*
X171371529Y-101786436D01*
X172024782Y-102057691D01*
X172732114Y-102058308D01*
X173385840Y-101788194D01*
X173886436Y-101288471D01*
X173917648Y-101213303D01*
X174166302Y-101213303D01*
X174265303Y-101397179D01*
X174742664Y-101562681D01*
X175247023Y-101532906D01*
X175574697Y-101397179D01*
X175673698Y-101213303D01*
X174920000Y-100459605D01*
X174166302Y-101213303D01*
X173917648Y-101213303D01*
X173996154Y-101024241D01*
X174740395Y-100280000D01*
X173996376Y-99535981D01*
X173918166Y-99346697D01*
X174166302Y-99346697D01*
X174920000Y-100100395D01*
X175673698Y-99346697D01*
X175574697Y-99162821D01*
X175097336Y-98997319D01*
X174592977Y-99027094D01*
X174265303Y-99162821D01*
X174166302Y-99346697D01*
X173918166Y-99346697D01*
X173888194Y-99274160D01*
X173388471Y-98773564D01*
X172735218Y-98502309D01*
X172541903Y-98502140D01*
X173011810Y-98408670D01*
X173547433Y-98050778D01*
X173905325Y-97515155D01*
X174031000Y-96883345D01*
X174031000Y-96818655D01*
X173905325Y-96186845D01*
X173547433Y-95651222D01*
X173011810Y-95293330D01*
X172612992Y-95214000D01*
X184847008Y-95214000D01*
X184448190Y-95293330D01*
X183912567Y-95651222D01*
X183554675Y-96186845D01*
X183429000Y-96818655D01*
X183429000Y-96883345D01*
X183554675Y-97515155D01*
X183912567Y-98050778D01*
X184448190Y-98408670D01*
X184916670Y-98501857D01*
X184727886Y-98501692D01*
X184074160Y-98771806D01*
X183809978Y-99035528D01*
X183548471Y-98773564D01*
X182895218Y-98502309D01*
X182187886Y-98501692D01*
X181534160Y-98771806D01*
X181269978Y-99035528D01*
X181008471Y-98773564D01*
X180355218Y-98502309D01*
X179647886Y-98501692D01*
X178994160Y-98771806D01*
X178729978Y-99035528D01*
X178468471Y-98773564D01*
X177815218Y-98502309D01*
X177107886Y-98501692D01*
X176454160Y-98771806D01*
X175953564Y-99271529D01*
X175843846Y-99535759D01*
X175099605Y-100280000D01*
X175843624Y-101024019D01*
X175951806Y-101285840D01*
X176451529Y-101786436D01*
X177104782Y-102057691D01*
X177812114Y-102058308D01*
X178222000Y-101888947D01*
X178222000Y-102863528D01*
X177641944Y-103443584D01*
X177608602Y-103493484D01*
X177099590Y-103493484D01*
X176770146Y-103555473D01*
X176467573Y-103750174D01*
X176264587Y-104047253D01*
X176193174Y-104399900D01*
X176193174Y-106000100D01*
X176255163Y-106329544D01*
X176449864Y-106632117D01*
X176746943Y-106835103D01*
X177099590Y-106906516D01*
X178539805Y-106906516D01*
X178899180Y-106978000D01*
X179258555Y-106906516D01*
X180698770Y-106906516D01*
X181028214Y-106844527D01*
X181330787Y-106649826D01*
X181533773Y-106352747D01*
X181605186Y-106000100D01*
X181605186Y-105069658D01*
X181694814Y-105159286D01*
X181694814Y-106000100D01*
X181756803Y-106329544D01*
X181951504Y-106632117D01*
X182248583Y-106835103D01*
X182601230Y-106906516D01*
X183890625Y-106906516D01*
X184250000Y-106978000D01*
X184400820Y-106978000D01*
X184760195Y-106906516D01*
X186200410Y-106906516D01*
X186529854Y-106844527D01*
X186832427Y-106649826D01*
X187035413Y-106352747D01*
X187106826Y-106000100D01*
X187106826Y-104399900D01*
X187044837Y-104070456D01*
X186850136Y-103767883D01*
X186553057Y-103564897D01*
X186200410Y-103493484D01*
X185057956Y-103493484D01*
X184991338Y-103426866D01*
X187757929Y-103426866D01*
X187819975Y-103603000D01*
X188733000Y-103603000D01*
X188733000Y-102689315D01*
X188987000Y-102689315D01*
X188987000Y-103603000D01*
X189900025Y-103603000D01*
X189962071Y-103426866D01*
X190297929Y-103426866D01*
X190359975Y-103603000D01*
X191273000Y-103603000D01*
X191273000Y-102689315D01*
X191527000Y-102689315D01*
X191527000Y-103603000D01*
X192440025Y-103603000D01*
X192502071Y-103426866D01*
X192837929Y-103426866D01*
X192899975Y-103603000D01*
X193813000Y-103603000D01*
X193813000Y-102689315D01*
X194067000Y-102689315D01*
X194067000Y-103603000D01*
X194980025Y-103603000D01*
X195042071Y-103426866D01*
X194933640Y-103165059D01*
X194641810Y-102827813D01*
X194243136Y-102627917D01*
X194067000Y-102689315D01*
X193813000Y-102689315D01*
X193636864Y-102627917D01*
X193238190Y-102827813D01*
X192946360Y-103165059D01*
X192837929Y-103426866D01*
X192502071Y-103426866D01*
X192393640Y-103165059D01*
X192101810Y-102827813D01*
X191703136Y-102627917D01*
X191527000Y-102689315D01*
X191273000Y-102689315D01*
X191096864Y-102627917D01*
X190698190Y-102827813D01*
X190406360Y-103165059D01*
X190297929Y-103426866D01*
X189962071Y-103426866D01*
X189853640Y-103165059D01*
X189561810Y-102827813D01*
X189163136Y-102627917D01*
X188987000Y-102689315D01*
X188733000Y-102689315D01*
X188556864Y-102627917D01*
X188158190Y-102827813D01*
X187866360Y-103165059D01*
X187757929Y-103426866D01*
X184991338Y-103426866D01*
X184318000Y-102753528D01*
X184318000Y-101888780D01*
X184724782Y-102057691D01*
X185432114Y-102058308D01*
X186085840Y-101788194D01*
X186350022Y-101524472D01*
X186611529Y-101786436D01*
X187264782Y-102057691D01*
X187972114Y-102058308D01*
X188625840Y-101788194D01*
X188890022Y-101524472D01*
X189151529Y-101786436D01*
X189804782Y-102057691D01*
X190512114Y-102058308D01*
X191165840Y-101788194D01*
X191430022Y-101524472D01*
X191691529Y-101786436D01*
X192344782Y-102057691D01*
X193052114Y-102058308D01*
X193705840Y-101788194D01*
X194206436Y-101288471D01*
X194237648Y-101213303D01*
X194486302Y-101213303D01*
X194585303Y-101397179D01*
X195062664Y-101562681D01*
X195567023Y-101532906D01*
X195894697Y-101397179D01*
X195993698Y-101213303D01*
X195240000Y-100459605D01*
X194486302Y-101213303D01*
X194237648Y-101213303D01*
X194316154Y-101024241D01*
X195060395Y-100280000D01*
X195419605Y-100280000D01*
X196163624Y-101024019D01*
X196271806Y-101285840D01*
X196771529Y-101786436D01*
X197424782Y-102057691D01*
X198132114Y-102058308D01*
X198785840Y-101788194D01*
X199286436Y-101288471D01*
X199557691Y-100635218D01*
X199558308Y-99927886D01*
X199288194Y-99274160D01*
X198788471Y-98773564D01*
X198135218Y-98502309D01*
X197427886Y-98501692D01*
X196774160Y-98771806D01*
X196273564Y-99271529D01*
X196163846Y-99535759D01*
X195419605Y-100280000D01*
X195060395Y-100280000D01*
X194316376Y-99535981D01*
X194238166Y-99346697D01*
X194486302Y-99346697D01*
X195240000Y-100100395D01*
X195993698Y-99346697D01*
X195894697Y-99162821D01*
X195417336Y-98997319D01*
X194912977Y-99027094D01*
X194585303Y-99162821D01*
X194486302Y-99346697D01*
X194238166Y-99346697D01*
X194208194Y-99274160D01*
X193708471Y-98773564D01*
X193055218Y-98502309D01*
X192861903Y-98502140D01*
X193331810Y-98408670D01*
X193867433Y-98050778D01*
X194225325Y-97515155D01*
X194351000Y-96883345D01*
X194351000Y-96818655D01*
X194225325Y-96186845D01*
X193867433Y-95651222D01*
X193331810Y-95293330D01*
X192932992Y-95214000D01*
X204733898Y-95214000D01*
X204348154Y-95373386D01*
X203326972Y-96392787D01*
X202773631Y-97725380D01*
X202772372Y-99168290D01*
X203323386Y-100501846D01*
X204342787Y-101523028D01*
X205675380Y-102076369D01*
X207118290Y-102077628D01*
X208451846Y-101526614D01*
X209473028Y-100507213D01*
X209586000Y-100235146D01*
X209586000Y-126455055D01*
X209436407Y-127207112D01*
X209064183Y-127764183D01*
X208507112Y-128136407D01*
X207755055Y-128286000D01*
X196320406Y-128286000D01*
X196351063Y-128240118D01*
X196555000Y-128281416D01*
X197155000Y-128281416D01*
X197484444Y-128219427D01*
X197787017Y-128024726D01*
X197990003Y-127727647D01*
X198041722Y-127472250D01*
X199469000Y-127472250D01*
X199469000Y-127925786D01*
X199527004Y-128065820D01*
X199634181Y-128172996D01*
X199774215Y-128231000D01*
X200227750Y-128231000D01*
X200323000Y-128135750D01*
X200323000Y-127377000D01*
X200577000Y-127377000D01*
X200577000Y-128135750D01*
X200672250Y-128231000D01*
X201125785Y-128231000D01*
X201265819Y-128172996D01*
X201372996Y-128065820D01*
X201431000Y-127925786D01*
X201431000Y-127472250D01*
X204319000Y-127472250D01*
X204319000Y-127925786D01*
X204377004Y-128065820D01*
X204484181Y-128172996D01*
X204624215Y-128231000D01*
X205077750Y-128231000D01*
X205173000Y-128135750D01*
X205173000Y-127377000D01*
X205427000Y-127377000D01*
X205427000Y-128135750D01*
X205522250Y-128231000D01*
X205975785Y-128231000D01*
X206115819Y-128172996D01*
X206222996Y-128065820D01*
X206281000Y-127925786D01*
X206281000Y-127472250D01*
X206185750Y-127377000D01*
X205427000Y-127377000D01*
X205173000Y-127377000D01*
X204414250Y-127377000D01*
X204319000Y-127472250D01*
X201431000Y-127472250D01*
X201335750Y-127377000D01*
X200577000Y-127377000D01*
X200323000Y-127377000D01*
X199564250Y-127377000D01*
X199469000Y-127472250D01*
X198041722Y-127472250D01*
X198044929Y-127456416D01*
X198900000Y-127456416D01*
X199229444Y-127394427D01*
X199532017Y-127199726D01*
X199584442Y-127123000D01*
X200323000Y-127123000D01*
X200323000Y-127103000D01*
X200577000Y-127103000D01*
X200577000Y-127123000D01*
X201335750Y-127123000D01*
X201431000Y-127027750D01*
X201431000Y-126574214D01*
X201394056Y-126485024D01*
X201682017Y-126299726D01*
X201885003Y-126002647D01*
X201956416Y-125650000D01*
X201956416Y-124450000D01*
X201894427Y-124120556D01*
X201699726Y-123817983D01*
X201402647Y-123614997D01*
X201050000Y-123543584D01*
X200649180Y-123543584D01*
X200855840Y-123458194D01*
X201356436Y-122958471D01*
X201627691Y-122305218D01*
X201628150Y-121779500D01*
X203772148Y-121779500D01*
X203771692Y-122302114D01*
X204041806Y-122955840D01*
X204541529Y-123456436D01*
X204735732Y-123537077D01*
X204740081Y-123543584D01*
X204700000Y-123543584D01*
X204370556Y-123605573D01*
X204067983Y-123800274D01*
X203864997Y-124097353D01*
X203793584Y-124450000D01*
X203793584Y-125650000D01*
X203855573Y-125979444D01*
X204050274Y-126282017D01*
X204347353Y-126485003D01*
X204355287Y-126486610D01*
X204319000Y-126574214D01*
X204319000Y-127027750D01*
X204414250Y-127123000D01*
X205173000Y-127123000D01*
X205173000Y-127103000D01*
X205427000Y-127103000D01*
X205427000Y-127123000D01*
X206162297Y-127123000D01*
X206200274Y-127182017D01*
X206497353Y-127385003D01*
X206850000Y-127456416D01*
X207750000Y-127456416D01*
X208079444Y-127394427D01*
X208382017Y-127199726D01*
X208585003Y-126902647D01*
X208656416Y-126550000D01*
X208656416Y-125750000D01*
X208594427Y-125420556D01*
X208583921Y-125404230D01*
X208585003Y-125402647D01*
X208656416Y-125050000D01*
X208656416Y-124250000D01*
X208594427Y-123920556D01*
X208399726Y-123617983D01*
X208102647Y-123414997D01*
X207750000Y-123343584D01*
X207570228Y-123343584D01*
X207094191Y-122867547D01*
X207327691Y-122305218D01*
X207328308Y-121597886D01*
X207058194Y-120944160D01*
X206794472Y-120679978D01*
X207056436Y-120418471D01*
X207327691Y-119765218D01*
X207328308Y-119057886D01*
X207058194Y-118404160D01*
X206820000Y-118165550D01*
X206820000Y-117200000D01*
X206723327Y-116713992D01*
X206448026Y-116301974D01*
X206448023Y-116301972D01*
X204220000Y-114073948D01*
X204220000Y-111923607D01*
X204660630Y-111923607D01*
X204985587Y-112710063D01*
X205586772Y-113312298D01*
X206372660Y-113638627D01*
X207223607Y-113639370D01*
X208010063Y-113314413D01*
X208612298Y-112713228D01*
X208938627Y-111927340D01*
X208939370Y-111076393D01*
X208614413Y-110289937D01*
X208013228Y-109687702D01*
X207227340Y-109361373D01*
X206376393Y-109360630D01*
X205589937Y-109685587D01*
X204987702Y-110286772D01*
X204661373Y-111072660D01*
X204660630Y-111923607D01*
X204220000Y-111923607D01*
X204220000Y-108826052D01*
X205160635Y-107885417D01*
X205586772Y-108312298D01*
X206372660Y-108638627D01*
X207223607Y-108639370D01*
X208010063Y-108314413D01*
X208612298Y-107713228D01*
X208938627Y-106927340D01*
X208939370Y-106076393D01*
X208614413Y-105289937D01*
X208013228Y-104687702D01*
X207227340Y-104361373D01*
X206376393Y-104360630D01*
X205589937Y-104685587D01*
X205044573Y-105230000D01*
X204750000Y-105230000D01*
X204263992Y-105326673D01*
X203851974Y-105601974D01*
X203851972Y-105601977D01*
X202051974Y-107401974D01*
X201776673Y-107813992D01*
X201679999Y-108300000D01*
X201680000Y-108300005D01*
X201680000Y-114599995D01*
X201679999Y-114600000D01*
X201776673Y-115086008D01*
X202051974Y-115498026D01*
X204280000Y-117726051D01*
X204280000Y-118077884D01*
X204242764Y-118102764D01*
X204217884Y-118140000D01*
X201094495Y-118140000D01*
X200858471Y-117903564D01*
X200205218Y-117632309D01*
X199497886Y-117631692D01*
X198844160Y-117901806D01*
X198478328Y-118267000D01*
X189290000Y-118267000D01*
X188852593Y-118354006D01*
X188481777Y-118601777D01*
X187876554Y-119207000D01*
X174200000Y-119207000D01*
X173762593Y-119294006D01*
X173391777Y-119541777D01*
X171945125Y-120988429D01*
X171678960Y-121098406D01*
X171178364Y-121598129D01*
X170907109Y-122251382D01*
X170906492Y-122958714D01*
X171041582Y-123285656D01*
X170834416Y-123492822D01*
X170834416Y-121871200D01*
X170772427Y-121541756D01*
X170577726Y-121239183D01*
X170280647Y-121036197D01*
X169928000Y-120964784D01*
X168228000Y-120964784D01*
X167898556Y-121026773D01*
X167595983Y-121221474D01*
X167491951Y-121373730D01*
X167266980Y-121328980D01*
X166938922Y-121328980D01*
X166912786Y-121288363D01*
X166615707Y-121085377D01*
X166263060Y-121013964D01*
X165463060Y-121013964D01*
X165133616Y-121075953D01*
X164831043Y-121270654D01*
X164647430Y-121539380D01*
X164585310Y-121539380D01*
X164490060Y-121634630D01*
X164490060Y-122243380D01*
X164510060Y-122243380D01*
X164510060Y-122497380D01*
X164490060Y-122497380D01*
X164490060Y-123106130D01*
X164585310Y-123201380D01*
X164651808Y-123201380D01*
X164733957Y-123329041D01*
X164529784Y-123533214D01*
X163953005Y-123771534D01*
X163616821Y-124107132D01*
X163388400Y-123878312D01*
X163388400Y-122592630D01*
X163582060Y-122592630D01*
X163582060Y-122896165D01*
X163640064Y-123036199D01*
X163747240Y-123143376D01*
X163887274Y-123201380D01*
X164140810Y-123201380D01*
X164236060Y-123106130D01*
X164236060Y-122497380D01*
X163677310Y-122497380D01*
X163582060Y-122592630D01*
X163388400Y-122592630D01*
X163388400Y-121844595D01*
X163582060Y-121844595D01*
X163582060Y-122148130D01*
X163677310Y-122243380D01*
X164236060Y-122243380D01*
X164236060Y-121634630D01*
X164140810Y-121539380D01*
X163887274Y-121539380D01*
X163747240Y-121597384D01*
X163640064Y-121704561D01*
X163582060Y-121844595D01*
X163388400Y-121844595D01*
X163388400Y-121488562D01*
X165824702Y-119052260D01*
X180181700Y-119052260D01*
X180580227Y-118972988D01*
X180918081Y-118747241D01*
X182339382Y-117325940D01*
X194475460Y-117325940D01*
X194873987Y-117246668D01*
X195211841Y-117020921D01*
X197475027Y-114757735D01*
X198132114Y-114758308D01*
X198785840Y-114488194D01*
X199286436Y-113988471D01*
X199557691Y-113335218D01*
X199558308Y-112627886D01*
X199288194Y-111974160D01*
X198788471Y-111473564D01*
X198135218Y-111202309D01*
X197427886Y-111201692D01*
X196774160Y-111471806D01*
X196509978Y-111735528D01*
X196248471Y-111473564D01*
X195595218Y-111202309D01*
X194887886Y-111201692D01*
X194234160Y-111471806D01*
X193969978Y-111735528D01*
X193708471Y-111473564D01*
X193055218Y-111202309D01*
X192347886Y-111201692D01*
X191694160Y-111471806D01*
X191429978Y-111735528D01*
X191168471Y-111473564D01*
X190515218Y-111202309D01*
X190480483Y-111202279D01*
X193785967Y-107896795D01*
X193907655Y-107921000D01*
X193972345Y-107921000D01*
X194604155Y-107795325D01*
X195139778Y-107437433D01*
X195497670Y-106901810D01*
X195623345Y-106270000D01*
X195497670Y-105638190D01*
X195139778Y-105102567D01*
X194604155Y-104744675D01*
X194470490Y-104718087D01*
X194641810Y-104632187D01*
X194933640Y-104294941D01*
X195042071Y-104033134D01*
X194980025Y-103857000D01*
X194067000Y-103857000D01*
X194067000Y-103877000D01*
X193813000Y-103877000D01*
X193813000Y-103857000D01*
X192899975Y-103857000D01*
X192837929Y-104033134D01*
X192946360Y-104294941D01*
X193238190Y-104632187D01*
X193409510Y-104718087D01*
X193275845Y-104744675D01*
X192740222Y-105102567D01*
X192670000Y-105207662D01*
X192599778Y-105102567D01*
X192064155Y-104744675D01*
X191930490Y-104718087D01*
X192101810Y-104632187D01*
X192393640Y-104294941D01*
X192502071Y-104033134D01*
X192440025Y-103857000D01*
X191527000Y-103857000D01*
X191527000Y-103877000D01*
X191273000Y-103877000D01*
X191273000Y-103857000D01*
X190359975Y-103857000D01*
X190297929Y-104033134D01*
X190406360Y-104294941D01*
X190698190Y-104632187D01*
X190869510Y-104718087D01*
X190735845Y-104744675D01*
X190200222Y-105102567D01*
X190130000Y-105207662D01*
X190059778Y-105102567D01*
X189524155Y-104744675D01*
X189390490Y-104718087D01*
X189561810Y-104632187D01*
X189853640Y-104294941D01*
X189962071Y-104033134D01*
X189900025Y-103857000D01*
X188987000Y-103857000D01*
X188987000Y-103877000D01*
X188733000Y-103877000D01*
X188733000Y-103857000D01*
X187819975Y-103857000D01*
X187757929Y-104033134D01*
X187866360Y-104294941D01*
X188158190Y-104632187D01*
X188329510Y-104718087D01*
X188195845Y-104744675D01*
X187660222Y-105102567D01*
X187302330Y-105638190D01*
X187176655Y-106270000D01*
X187211593Y-106445645D01*
X184248638Y-109408600D01*
X183725862Y-109408600D01*
X183699726Y-109367983D01*
X183402647Y-109164997D01*
X183050000Y-109093584D01*
X182250000Y-109093584D01*
X181920556Y-109155573D01*
X181904230Y-109166079D01*
X181902647Y-109164997D01*
X181550000Y-109093584D01*
X180750000Y-109093584D01*
X180420556Y-109155573D01*
X180117983Y-109350274D01*
X179914997Y-109647353D01*
X179843584Y-110000000D01*
X179843584Y-110900000D01*
X179900393Y-111201912D01*
X179647886Y-111201692D01*
X178994160Y-111471806D01*
X178729978Y-111735528D01*
X178468471Y-111473564D01*
X177815218Y-111202309D01*
X177107886Y-111201692D01*
X176454160Y-111471806D01*
X176189978Y-111735528D01*
X175928471Y-111473564D01*
X175275218Y-111202309D01*
X174567886Y-111201692D01*
X173914160Y-111471806D01*
X173649978Y-111735528D01*
X173388471Y-111473564D01*
X172735218Y-111202309D01*
X172027886Y-111201692D01*
X171374160Y-111471806D01*
X171109978Y-111735528D01*
X170848471Y-111473564D01*
X170195218Y-111202309D01*
X170058730Y-111202190D01*
X173376045Y-107884875D01*
X173557655Y-107921000D01*
X173622345Y-107921000D01*
X174254155Y-107795325D01*
X174789778Y-107437433D01*
X175147670Y-106901810D01*
X175273345Y-106270000D01*
X175147670Y-105638190D01*
X174789778Y-105102567D01*
X174254155Y-104744675D01*
X174120490Y-104718087D01*
X174291810Y-104632187D01*
X174583640Y-104294941D01*
X174692071Y-104033134D01*
X174630025Y-103857000D01*
X173717000Y-103857000D01*
X173717000Y-103877000D01*
X173463000Y-103877000D01*
X173463000Y-103857000D01*
X172549975Y-103857000D01*
X172487929Y-104033134D01*
X172596360Y-104294941D01*
X172888190Y-104632187D01*
X173059510Y-104718087D01*
X172925845Y-104744675D01*
X172390222Y-105102567D01*
X172320000Y-105207662D01*
X172249778Y-105102567D01*
X171714155Y-104744675D01*
X171580490Y-104718087D01*
X171751810Y-104632187D01*
X172043640Y-104294941D01*
X172152071Y-104033134D01*
X172090025Y-103857000D01*
X171177000Y-103857000D01*
X171177000Y-103877000D01*
X170923000Y-103877000D01*
X170923000Y-103857000D01*
X170009975Y-103857000D01*
X169947929Y-104033134D01*
X170056360Y-104294941D01*
X170348190Y-104632187D01*
X170519510Y-104718087D01*
X170385845Y-104744675D01*
X169850222Y-105102567D01*
X169780000Y-105207662D01*
X169709778Y-105102567D01*
X169174155Y-104744675D01*
X169040490Y-104718087D01*
X169211810Y-104632187D01*
X169503640Y-104294941D01*
X169612071Y-104033134D01*
X169550025Y-103857000D01*
X168637000Y-103857000D01*
X168637000Y-103877000D01*
X168383000Y-103877000D01*
X168383000Y-103857000D01*
X167469975Y-103857000D01*
X167407929Y-104033134D01*
X167516360Y-104294941D01*
X167808190Y-104632187D01*
X167979510Y-104718087D01*
X167845845Y-104744675D01*
X167310222Y-105102567D01*
X166952330Y-105638190D01*
X166826655Y-106270000D01*
X166861593Y-106445645D01*
X163898638Y-109408600D01*
X163225862Y-109408600D01*
X163199726Y-109367983D01*
X162902647Y-109164997D01*
X162550000Y-109093584D01*
X161750000Y-109093584D01*
X161420556Y-109155573D01*
X161404230Y-109166079D01*
X161402647Y-109164997D01*
X161050000Y-109093584D01*
X160250000Y-109093584D01*
X159920556Y-109155573D01*
X159617983Y-109350274D01*
X159414997Y-109647353D01*
X159343584Y-110000000D01*
X159343584Y-110900000D01*
X159400363Y-111201755D01*
X159327886Y-111201692D01*
X158674160Y-111471806D01*
X158409978Y-111735528D01*
X158148471Y-111473564D01*
X157495218Y-111202309D01*
X156787886Y-111201692D01*
X156134160Y-111471806D01*
X155869978Y-111735528D01*
X155608471Y-111473564D01*
X154955218Y-111202309D01*
X154247886Y-111201692D01*
X153594160Y-111471806D01*
X153329978Y-111735528D01*
X153068471Y-111473564D01*
X152415218Y-111202309D01*
X151707886Y-111201692D01*
X151054160Y-111471806D01*
X150789978Y-111735528D01*
X150528471Y-111473564D01*
X149875218Y-111202309D01*
X149730579Y-111202183D01*
X153035967Y-107896795D01*
X153157655Y-107921000D01*
X153222345Y-107921000D01*
X153854155Y-107795325D01*
X154389778Y-107437433D01*
X154747670Y-106901810D01*
X154873345Y-106270000D01*
X154747670Y-105638190D01*
X154389778Y-105102567D01*
X153854155Y-104744675D01*
X153720490Y-104718087D01*
X153891810Y-104632187D01*
X154183640Y-104294941D01*
X154292071Y-104033134D01*
X154230025Y-103857000D01*
X153317000Y-103857000D01*
X153317000Y-103877000D01*
X153063000Y-103877000D01*
X153063000Y-103857000D01*
X152149975Y-103857000D01*
X152087929Y-104033134D01*
X152196360Y-104294941D01*
X152488190Y-104632187D01*
X152659510Y-104718087D01*
X152525845Y-104744675D01*
X151990222Y-105102567D01*
X151920000Y-105207662D01*
X151849778Y-105102567D01*
X151314155Y-104744675D01*
X151180490Y-104718087D01*
X151351810Y-104632187D01*
X151643640Y-104294941D01*
X151752071Y-104033134D01*
X151690025Y-103857000D01*
X150777000Y-103857000D01*
X150777000Y-103877000D01*
X150523000Y-103877000D01*
X150523000Y-103857000D01*
X149609975Y-103857000D01*
X149547929Y-104033134D01*
X149656360Y-104294941D01*
X149948190Y-104632187D01*
X150119510Y-104718087D01*
X149985845Y-104744675D01*
X149450222Y-105102567D01*
X149380000Y-105207662D01*
X149309778Y-105102567D01*
X148774155Y-104744675D01*
X148640490Y-104718087D01*
X148811810Y-104632187D01*
X149103640Y-104294941D01*
X149212071Y-104033134D01*
X149150025Y-103857000D01*
X148237000Y-103857000D01*
X148237000Y-103877000D01*
X147983000Y-103877000D01*
X147983000Y-103857000D01*
X147069975Y-103857000D01*
X147007929Y-104033134D01*
X147116360Y-104294941D01*
X147408190Y-104632187D01*
X147579510Y-104718087D01*
X147445845Y-104744675D01*
X146910222Y-105102567D01*
X146606826Y-105556631D01*
X146606826Y-104399900D01*
X146544837Y-104070456D01*
X146350136Y-103767883D01*
X146053057Y-103564897D01*
X145700410Y-103493484D01*
X144757956Y-103493484D01*
X144691338Y-103426866D01*
X147007929Y-103426866D01*
X147069975Y-103603000D01*
X147983000Y-103603000D01*
X147983000Y-102689315D01*
X148237000Y-102689315D01*
X148237000Y-103603000D01*
X149150025Y-103603000D01*
X149212071Y-103426866D01*
X149547929Y-103426866D01*
X149609975Y-103603000D01*
X150523000Y-103603000D01*
X150523000Y-102689315D01*
X150777000Y-102689315D01*
X150777000Y-103603000D01*
X151690025Y-103603000D01*
X151752071Y-103426866D01*
X152087929Y-103426866D01*
X152149975Y-103603000D01*
X153063000Y-103603000D01*
X153063000Y-102689315D01*
X153317000Y-102689315D01*
X153317000Y-103603000D01*
X154230025Y-103603000D01*
X154292071Y-103426866D01*
X154183640Y-103165059D01*
X153891810Y-102827813D01*
X153493136Y-102627917D01*
X153317000Y-102689315D01*
X153063000Y-102689315D01*
X152886864Y-102627917D01*
X152488190Y-102827813D01*
X152196360Y-103165059D01*
X152087929Y-103426866D01*
X151752071Y-103426866D01*
X151643640Y-103165059D01*
X151351810Y-102827813D01*
X150953136Y-102627917D01*
X150777000Y-102689315D01*
X150523000Y-102689315D01*
X150346864Y-102627917D01*
X149948190Y-102827813D01*
X149656360Y-103165059D01*
X149547929Y-103426866D01*
X149212071Y-103426866D01*
X149103640Y-103165059D01*
X148811810Y-102827813D01*
X148413136Y-102627917D01*
X148237000Y-102689315D01*
X147983000Y-102689315D01*
X147806864Y-102627917D01*
X147408190Y-102827813D01*
X147116360Y-103165059D01*
X147007929Y-103426866D01*
X144691338Y-103426866D01*
X143678000Y-102413528D01*
X143678000Y-101888780D01*
X144084782Y-102057691D01*
X144792114Y-102058308D01*
X145445840Y-101788194D01*
X145710022Y-101524472D01*
X145971529Y-101786436D01*
X146624782Y-102057691D01*
X147332114Y-102058308D01*
X147985840Y-101788194D01*
X148250022Y-101524472D01*
X148511529Y-101786436D01*
X149164782Y-102057691D01*
X149872114Y-102058308D01*
X150525840Y-101788194D01*
X150790022Y-101524472D01*
X151051529Y-101786436D01*
X151704782Y-102057691D01*
X152412114Y-102058308D01*
X153065840Y-101788194D01*
X153566436Y-101288471D01*
X153597648Y-101213303D01*
X153846302Y-101213303D01*
X153945303Y-101397179D01*
X154422664Y-101562681D01*
X154927023Y-101532906D01*
X155254697Y-101397179D01*
X155353698Y-101213303D01*
X154600000Y-100459605D01*
X153846302Y-101213303D01*
X153597648Y-101213303D01*
X153676154Y-101024241D01*
X154420395Y-100280000D01*
X153676376Y-99535981D01*
X153598166Y-99346697D01*
X153846302Y-99346697D01*
X154600000Y-100100395D01*
X155353698Y-99346697D01*
X155254697Y-99162821D01*
X154777336Y-98997319D01*
X154272977Y-99027094D01*
X153945303Y-99162821D01*
X153846302Y-99346697D01*
X153598166Y-99346697D01*
X153568194Y-99274160D01*
X153068471Y-98773564D01*
X152415218Y-98502309D01*
X152221903Y-98502140D01*
X152691810Y-98408670D01*
X153227433Y-98050778D01*
X153585325Y-97515155D01*
X153711000Y-96883345D01*
X153711000Y-96818655D01*
X153585325Y-96186845D01*
X153227433Y-95651222D01*
X152691810Y-95293330D01*
X152292992Y-95214000D01*
X164527008Y-95214000D01*
X164128190Y-95293330D01*
X164128190Y-95293330D01*
G37*
X164128190Y-95293330D02*
X163592567Y-95651222D01*
X163234675Y-96186845D01*
X163109000Y-96818655D01*
X163109000Y-96883345D01*
X163234675Y-97515155D01*
X163592567Y-98050778D01*
X164128190Y-98408670D01*
X164596670Y-98501857D01*
X164407886Y-98501692D01*
X163754160Y-98771806D01*
X163489978Y-99035528D01*
X163228471Y-98773564D01*
X162575218Y-98502309D01*
X161867886Y-98501692D01*
X161214160Y-98771806D01*
X160949978Y-99035528D01*
X160688471Y-98773564D01*
X160035218Y-98502309D01*
X159327886Y-98501692D01*
X158674160Y-98771806D01*
X158409978Y-99035528D01*
X158148471Y-98773564D01*
X157495218Y-98502309D01*
X156787886Y-98501692D01*
X156134160Y-98771806D01*
X155633564Y-99271529D01*
X155523846Y-99535759D01*
X154779605Y-100280000D01*
X155523624Y-101024019D01*
X155631806Y-101285840D01*
X156131529Y-101786436D01*
X156784782Y-102057691D01*
X157492114Y-102058308D01*
X157902000Y-101888947D01*
X157902000Y-103383528D01*
X157792044Y-103493484D01*
X156849590Y-103493484D01*
X156520146Y-103555473D01*
X156217573Y-103750174D01*
X156014587Y-104047253D01*
X155943174Y-104399900D01*
X155943174Y-106000100D01*
X156005163Y-106329544D01*
X156199864Y-106632117D01*
X156496943Y-106835103D01*
X156849590Y-106906516D01*
X158289805Y-106906516D01*
X158649180Y-106978000D01*
X159008555Y-106906516D01*
X160448770Y-106906516D01*
X160778214Y-106844527D01*
X161080787Y-106649826D01*
X161283773Y-106352747D01*
X161355186Y-106000100D01*
X161355186Y-105069658D01*
X161444814Y-105159286D01*
X161444814Y-106000100D01*
X161506803Y-106329544D01*
X161701504Y-106632117D01*
X161998583Y-106835103D01*
X162351230Y-106906516D01*
X163640625Y-106906516D01*
X164000000Y-106978000D01*
X164150820Y-106978000D01*
X164510195Y-106906516D01*
X165950410Y-106906516D01*
X166279854Y-106844527D01*
X166582427Y-106649826D01*
X166785413Y-106352747D01*
X166856826Y-106000100D01*
X166856826Y-104399900D01*
X166794837Y-104070456D01*
X166600136Y-103767883D01*
X166303057Y-103564897D01*
X165950410Y-103493484D01*
X164807956Y-103493484D01*
X164741338Y-103426866D01*
X167407929Y-103426866D01*
X167469975Y-103603000D01*
X168383000Y-103603000D01*
X168383000Y-102689315D01*
X168637000Y-102689315D01*
X168637000Y-103603000D01*
X169550025Y-103603000D01*
X169612071Y-103426866D01*
X169947929Y-103426866D01*
X170009975Y-103603000D01*
X170923000Y-103603000D01*
X170923000Y-102689315D01*
X171177000Y-102689315D01*
X171177000Y-103603000D01*
X172090025Y-103603000D01*
X172152071Y-103426866D01*
X172487929Y-103426866D01*
X172549975Y-103603000D01*
X173463000Y-103603000D01*
X173463000Y-102689315D01*
X173717000Y-102689315D01*
X173717000Y-103603000D01*
X174630025Y-103603000D01*
X174692071Y-103426866D01*
X174583640Y-103165059D01*
X174291810Y-102827813D01*
X173893136Y-102627917D01*
X173717000Y-102689315D01*
X173463000Y-102689315D01*
X173286864Y-102627917D01*
X172888190Y-102827813D01*
X172596360Y-103165059D01*
X172487929Y-103426866D01*
X172152071Y-103426866D01*
X172043640Y-103165059D01*
X171751810Y-102827813D01*
X171353136Y-102627917D01*
X171177000Y-102689315D01*
X170923000Y-102689315D01*
X170746864Y-102627917D01*
X170348190Y-102827813D01*
X170056360Y-103165059D01*
X169947929Y-103426866D01*
X169612071Y-103426866D01*
X169503640Y-103165059D01*
X169211810Y-102827813D01*
X168813136Y-102627917D01*
X168637000Y-102689315D01*
X168383000Y-102689315D01*
X168206864Y-102627917D01*
X167808190Y-102827813D01*
X167516360Y-103165059D01*
X167407929Y-103426866D01*
X164741338Y-103426866D01*
X163998000Y-102683528D01*
X163998000Y-101888780D01*
X164404782Y-102057691D01*
X165112114Y-102058308D01*
X165765840Y-101788194D01*
X166030022Y-101524472D01*
X166291529Y-101786436D01*
X166944782Y-102057691D01*
X167652114Y-102058308D01*
X168305840Y-101788194D01*
X168570022Y-101524472D01*
X168831529Y-101786436D01*
X169484782Y-102057691D01*
X170192114Y-102058308D01*
X170845840Y-101788194D01*
X171110022Y-101524472D01*
X171371529Y-101786436D01*
X172024782Y-102057691D01*
X172732114Y-102058308D01*
X173385840Y-101788194D01*
X173886436Y-101288471D01*
X173917648Y-101213303D01*
X174166302Y-101213303D01*
X174265303Y-101397179D01*
X174742664Y-101562681D01*
X175247023Y-101532906D01*
X175574697Y-101397179D01*
X175673698Y-101213303D01*
X174920000Y-100459605D01*
X174166302Y-101213303D01*
X173917648Y-101213303D01*
X173996154Y-101024241D01*
X174740395Y-100280000D01*
X173996376Y-99535981D01*
X173918166Y-99346697D01*
X174166302Y-99346697D01*
X174920000Y-100100395D01*
X175673698Y-99346697D01*
X175574697Y-99162821D01*
X175097336Y-98997319D01*
X174592977Y-99027094D01*
X174265303Y-99162821D01*
X174166302Y-99346697D01*
X173918166Y-99346697D01*
X173888194Y-99274160D01*
X173388471Y-98773564D01*
X172735218Y-98502309D01*
X172541903Y-98502140D01*
X173011810Y-98408670D01*
X173547433Y-98050778D01*
X173905325Y-97515155D01*
X174031000Y-96883345D01*
X174031000Y-96818655D01*
X173905325Y-96186845D01*
X173547433Y-95651222D01*
X173011810Y-95293330D01*
X172612992Y-95214000D01*
X184847008Y-95214000D01*
X184448190Y-95293330D01*
X183912567Y-95651222D01*
X183554675Y-96186845D01*
X183429000Y-96818655D01*
X183429000Y-96883345D01*
X183554675Y-97515155D01*
X183912567Y-98050778D01*
X184448190Y-98408670D01*
X184916670Y-98501857D01*
X184727886Y-98501692D01*
X184074160Y-98771806D01*
X183809978Y-99035528D01*
X183548471Y-98773564D01*
X182895218Y-98502309D01*
X182187886Y-98501692D01*
X181534160Y-98771806D01*
X181269978Y-99035528D01*
X181008471Y-98773564D01*
X180355218Y-98502309D01*
X179647886Y-98501692D01*
X178994160Y-98771806D01*
X178729978Y-99035528D01*
X178468471Y-98773564D01*
X177815218Y-98502309D01*
X177107886Y-98501692D01*
X176454160Y-98771806D01*
X175953564Y-99271529D01*
X175843846Y-99535759D01*
X175099605Y-100280000D01*
X175843624Y-101024019D01*
X175951806Y-101285840D01*
X176451529Y-101786436D01*
X177104782Y-102057691D01*
X177812114Y-102058308D01*
X178222000Y-101888947D01*
X178222000Y-102863528D01*
X177641944Y-103443584D01*
X177608602Y-103493484D01*
X177099590Y-103493484D01*
X176770146Y-103555473D01*
X176467573Y-103750174D01*
X176264587Y-104047253D01*
X176193174Y-104399900D01*
X176193174Y-106000100D01*
X176255163Y-106329544D01*
X176449864Y-106632117D01*
X176746943Y-106835103D01*
X177099590Y-106906516D01*
X178539805Y-106906516D01*
X178899180Y-106978000D01*
X179258555Y-106906516D01*
X180698770Y-106906516D01*
X181028214Y-106844527D01*
X181330787Y-106649826D01*
X181533773Y-106352747D01*
X181605186Y-106000100D01*
X181605186Y-105069658D01*
X181694814Y-105159286D01*
X181694814Y-106000100D01*
X181756803Y-106329544D01*
X181951504Y-106632117D01*
X182248583Y-106835103D01*
X182601230Y-106906516D01*
X183890625Y-106906516D01*
X184250000Y-106978000D01*
X184400820Y-106978000D01*
X184760195Y-106906516D01*
X186200410Y-106906516D01*
X186529854Y-106844527D01*
X186832427Y-106649826D01*
X187035413Y-106352747D01*
X187106826Y-106000100D01*
X187106826Y-104399900D01*
X187044837Y-104070456D01*
X186850136Y-103767883D01*
X186553057Y-103564897D01*
X186200410Y-103493484D01*
X185057956Y-103493484D01*
X184991338Y-103426866D01*
X187757929Y-103426866D01*
X187819975Y-103603000D01*
X188733000Y-103603000D01*
X188733000Y-102689315D01*
X188987000Y-102689315D01*
X188987000Y-103603000D01*
X189900025Y-103603000D01*
X189962071Y-103426866D01*
X190297929Y-103426866D01*
X190359975Y-103603000D01*
X191273000Y-103603000D01*
X191273000Y-102689315D01*
X191527000Y-102689315D01*
X191527000Y-103603000D01*
X192440025Y-103603000D01*
X192502071Y-103426866D01*
X192837929Y-103426866D01*
X192899975Y-103603000D01*
X193813000Y-103603000D01*
X193813000Y-102689315D01*
X194067000Y-102689315D01*
X194067000Y-103603000D01*
X194980025Y-103603000D01*
X195042071Y-103426866D01*
X194933640Y-103165059D01*
X194641810Y-102827813D01*
X194243136Y-102627917D01*
X194067000Y-102689315D01*
X193813000Y-102689315D01*
X193636864Y-102627917D01*
X193238190Y-102827813D01*
X192946360Y-103165059D01*
X192837929Y-103426866D01*
X192502071Y-103426866D01*
X192393640Y-103165059D01*
X192101810Y-102827813D01*
X191703136Y-102627917D01*
X191527000Y-102689315D01*
X191273000Y-102689315D01*
X191096864Y-102627917D01*
X190698190Y-102827813D01*
X190406360Y-103165059D01*
X190297929Y-103426866D01*
X189962071Y-103426866D01*
X189853640Y-103165059D01*
X189561810Y-102827813D01*
X189163136Y-102627917D01*
X188987000Y-102689315D01*
X188733000Y-102689315D01*
X188556864Y-102627917D01*
X188158190Y-102827813D01*
X187866360Y-103165059D01*
X187757929Y-103426866D01*
X184991338Y-103426866D01*
X184318000Y-102753528D01*
X184318000Y-101888780D01*
X184724782Y-102057691D01*
X185432114Y-102058308D01*
X186085840Y-101788194D01*
X186350022Y-101524472D01*
X186611529Y-101786436D01*
X187264782Y-102057691D01*
X187972114Y-102058308D01*
X188625840Y-101788194D01*
X188890022Y-101524472D01*
X189151529Y-101786436D01*
X189804782Y-102057691D01*
X190512114Y-102058308D01*
X191165840Y-101788194D01*
X191430022Y-101524472D01*
X191691529Y-101786436D01*
X192344782Y-102057691D01*
X193052114Y-102058308D01*
X193705840Y-101788194D01*
X194206436Y-101288471D01*
X194237648Y-101213303D01*
X194486302Y-101213303D01*
X194585303Y-101397179D01*
X195062664Y-101562681D01*
X195567023Y-101532906D01*
X195894697Y-101397179D01*
X195993698Y-101213303D01*
X195240000Y-100459605D01*
X194486302Y-101213303D01*
X194237648Y-101213303D01*
X194316154Y-101024241D01*
X195060395Y-100280000D01*
X195419605Y-100280000D01*
X196163624Y-101024019D01*
X196271806Y-101285840D01*
X196771529Y-101786436D01*
X197424782Y-102057691D01*
X198132114Y-102058308D01*
X198785840Y-101788194D01*
X199286436Y-101288471D01*
X199557691Y-100635218D01*
X199558308Y-99927886D01*
X199288194Y-99274160D01*
X198788471Y-98773564D01*
X198135218Y-98502309D01*
X197427886Y-98501692D01*
X196774160Y-98771806D01*
X196273564Y-99271529D01*
X196163846Y-99535759D01*
X195419605Y-100280000D01*
X195060395Y-100280000D01*
X194316376Y-99535981D01*
X194238166Y-99346697D01*
X194486302Y-99346697D01*
X195240000Y-100100395D01*
X195993698Y-99346697D01*
X195894697Y-99162821D01*
X195417336Y-98997319D01*
X194912977Y-99027094D01*
X194585303Y-99162821D01*
X194486302Y-99346697D01*
X194238166Y-99346697D01*
X194208194Y-99274160D01*
X193708471Y-98773564D01*
X193055218Y-98502309D01*
X192861903Y-98502140D01*
X193331810Y-98408670D01*
X193867433Y-98050778D01*
X194225325Y-97515155D01*
X194351000Y-96883345D01*
X194351000Y-96818655D01*
X194225325Y-96186845D01*
X193867433Y-95651222D01*
X193331810Y-95293330D01*
X192932992Y-95214000D01*
X204733898Y-95214000D01*
X204348154Y-95373386D01*
X203326972Y-96392787D01*
X202773631Y-97725380D01*
X202772372Y-99168290D01*
X203323386Y-100501846D01*
X204342787Y-101523028D01*
X205675380Y-102076369D01*
X207118290Y-102077628D01*
X208451846Y-101526614D01*
X209473028Y-100507213D01*
X209586000Y-100235146D01*
X209586000Y-126455055D01*
X209436407Y-127207112D01*
X209064183Y-127764183D01*
X208507112Y-128136407D01*
X207755055Y-128286000D01*
X196320406Y-128286000D01*
X196351063Y-128240118D01*
X196555000Y-128281416D01*
X197155000Y-128281416D01*
X197484444Y-128219427D01*
X197787017Y-128024726D01*
X197990003Y-127727647D01*
X198041722Y-127472250D01*
X199469000Y-127472250D01*
X199469000Y-127925786D01*
X199527004Y-128065820D01*
X199634181Y-128172996D01*
X199774215Y-128231000D01*
X200227750Y-128231000D01*
X200323000Y-128135750D01*
X200323000Y-127377000D01*
X200577000Y-127377000D01*
X200577000Y-128135750D01*
X200672250Y-128231000D01*
X201125785Y-128231000D01*
X201265819Y-128172996D01*
X201372996Y-128065820D01*
X201431000Y-127925786D01*
X201431000Y-127472250D01*
X204319000Y-127472250D01*
X204319000Y-127925786D01*
X204377004Y-128065820D01*
X204484181Y-128172996D01*
X204624215Y-128231000D01*
X205077750Y-128231000D01*
X205173000Y-128135750D01*
X205173000Y-127377000D01*
X205427000Y-127377000D01*
X205427000Y-128135750D01*
X205522250Y-128231000D01*
X205975785Y-128231000D01*
X206115819Y-128172996D01*
X206222996Y-128065820D01*
X206281000Y-127925786D01*
X206281000Y-127472250D01*
X206185750Y-127377000D01*
X205427000Y-127377000D01*
X205173000Y-127377000D01*
X204414250Y-127377000D01*
X204319000Y-127472250D01*
X201431000Y-127472250D01*
X201335750Y-127377000D01*
X200577000Y-127377000D01*
X200323000Y-127377000D01*
X199564250Y-127377000D01*
X199469000Y-127472250D01*
X198041722Y-127472250D01*
X198044929Y-127456416D01*
X198900000Y-127456416D01*
X199229444Y-127394427D01*
X199532017Y-127199726D01*
X199584442Y-127123000D01*
X200323000Y-127123000D01*
X200323000Y-127103000D01*
X200577000Y-127103000D01*
X200577000Y-127123000D01*
X201335750Y-127123000D01*
X201431000Y-127027750D01*
X201431000Y-126574214D01*
X201394056Y-126485024D01*
X201682017Y-126299726D01*
X201885003Y-126002647D01*
X201956416Y-125650000D01*
X201956416Y-124450000D01*
X201894427Y-124120556D01*
X201699726Y-123817983D01*
X201402647Y-123614997D01*
X201050000Y-123543584D01*
X200649180Y-123543584D01*
X200855840Y-123458194D01*
X201356436Y-122958471D01*
X201627691Y-122305218D01*
X201628150Y-121779500D01*
X203772148Y-121779500D01*
X203771692Y-122302114D01*
X204041806Y-122955840D01*
X204541529Y-123456436D01*
X204735732Y-123537077D01*
X204740081Y-123543584D01*
X204700000Y-123543584D01*
X204370556Y-123605573D01*
X204067983Y-123800274D01*
X203864997Y-124097353D01*
X203793584Y-124450000D01*
X203793584Y-125650000D01*
X203855573Y-125979444D01*
X204050274Y-126282017D01*
X204347353Y-126485003D01*
X204355287Y-126486610D01*
X204319000Y-126574214D01*
X204319000Y-127027750D01*
X204414250Y-127123000D01*
X205173000Y-127123000D01*
X205173000Y-127103000D01*
X205427000Y-127103000D01*
X205427000Y-127123000D01*
X206162297Y-127123000D01*
X206200274Y-127182017D01*
X206497353Y-127385003D01*
X206850000Y-127456416D01*
X207750000Y-127456416D01*
X208079444Y-127394427D01*
X208382017Y-127199726D01*
X208585003Y-126902647D01*
X208656416Y-126550000D01*
X208656416Y-125750000D01*
X208594427Y-125420556D01*
X208583921Y-125404230D01*
X208585003Y-125402647D01*
X208656416Y-125050000D01*
X208656416Y-124250000D01*
X208594427Y-123920556D01*
X208399726Y-123617983D01*
X208102647Y-123414997D01*
X207750000Y-123343584D01*
X207570228Y-123343584D01*
X207094191Y-122867547D01*
X207327691Y-122305218D01*
X207328308Y-121597886D01*
X207058194Y-120944160D01*
X206794472Y-120679978D01*
X207056436Y-120418471D01*
X207327691Y-119765218D01*
X207328308Y-119057886D01*
X207058194Y-118404160D01*
X206820000Y-118165550D01*
X206820000Y-117200000D01*
X206723327Y-116713992D01*
X206448026Y-116301974D01*
X206448023Y-116301972D01*
X204220000Y-114073948D01*
X204220000Y-111923607D01*
X204660630Y-111923607D01*
X204985587Y-112710063D01*
X205586772Y-113312298D01*
X206372660Y-113638627D01*
X207223607Y-113639370D01*
X208010063Y-113314413D01*
X208612298Y-112713228D01*
X208938627Y-111927340D01*
X208939370Y-111076393D01*
X208614413Y-110289937D01*
X208013228Y-109687702D01*
X207227340Y-109361373D01*
X206376393Y-109360630D01*
X205589937Y-109685587D01*
X204987702Y-110286772D01*
X204661373Y-111072660D01*
X204660630Y-111923607D01*
X204220000Y-111923607D01*
X204220000Y-108826052D01*
X205160635Y-107885417D01*
X205586772Y-108312298D01*
X206372660Y-108638627D01*
X207223607Y-108639370D01*
X208010063Y-108314413D01*
X208612298Y-107713228D01*
X208938627Y-106927340D01*
X208939370Y-106076393D01*
X208614413Y-105289937D01*
X208013228Y-104687702D01*
X207227340Y-104361373D01*
X206376393Y-104360630D01*
X205589937Y-104685587D01*
X205044573Y-105230000D01*
X204750000Y-105230000D01*
X204263992Y-105326673D01*
X203851974Y-105601974D01*
X203851972Y-105601977D01*
X202051974Y-107401974D01*
X201776673Y-107813992D01*
X201679999Y-108300000D01*
X201680000Y-108300005D01*
X201680000Y-114599995D01*
X201679999Y-114600000D01*
X201776673Y-115086008D01*
X202051974Y-115498026D01*
X204280000Y-117726051D01*
X204280000Y-118077884D01*
X204242764Y-118102764D01*
X204217884Y-118140000D01*
X201094495Y-118140000D01*
X200858471Y-117903564D01*
X200205218Y-117632309D01*
X199497886Y-117631692D01*
X198844160Y-117901806D01*
X198478328Y-118267000D01*
X189290000Y-118267000D01*
X188852593Y-118354006D01*
X188481777Y-118601777D01*
X187876554Y-119207000D01*
X174200000Y-119207000D01*
X173762593Y-119294006D01*
X173391777Y-119541777D01*
X171945125Y-120988429D01*
X171678960Y-121098406D01*
X171178364Y-121598129D01*
X170907109Y-122251382D01*
X170906492Y-122958714D01*
X171041582Y-123285656D01*
X170834416Y-123492822D01*
X170834416Y-121871200D01*
X170772427Y-121541756D01*
X170577726Y-121239183D01*
X170280647Y-121036197D01*
X169928000Y-120964784D01*
X168228000Y-120964784D01*
X167898556Y-121026773D01*
X167595983Y-121221474D01*
X167491951Y-121373730D01*
X167266980Y-121328980D01*
X166938922Y-121328980D01*
X166912786Y-121288363D01*
X166615707Y-121085377D01*
X166263060Y-121013964D01*
X165463060Y-121013964D01*
X165133616Y-121075953D01*
X164831043Y-121270654D01*
X164647430Y-121539380D01*
X164585310Y-121539380D01*
X164490060Y-121634630D01*
X164490060Y-122243380D01*
X164510060Y-122243380D01*
X164510060Y-122497380D01*
X164490060Y-122497380D01*
X164490060Y-123106130D01*
X164585310Y-123201380D01*
X164651808Y-123201380D01*
X164733957Y-123329041D01*
X164529784Y-123533214D01*
X163953005Y-123771534D01*
X163616821Y-124107132D01*
X163388400Y-123878312D01*
X163388400Y-122592630D01*
X163582060Y-122592630D01*
X163582060Y-122896165D01*
X163640064Y-123036199D01*
X163747240Y-123143376D01*
X163887274Y-123201380D01*
X164140810Y-123201380D01*
X164236060Y-123106130D01*
X164236060Y-122497380D01*
X163677310Y-122497380D01*
X163582060Y-122592630D01*
X163388400Y-122592630D01*
X163388400Y-121844595D01*
X163582060Y-121844595D01*
X163582060Y-122148130D01*
X163677310Y-122243380D01*
X164236060Y-122243380D01*
X164236060Y-121634630D01*
X164140810Y-121539380D01*
X163887274Y-121539380D01*
X163747240Y-121597384D01*
X163640064Y-121704561D01*
X163582060Y-121844595D01*
X163388400Y-121844595D01*
X163388400Y-121488562D01*
X165824702Y-119052260D01*
X180181700Y-119052260D01*
X180580227Y-118972988D01*
X180918081Y-118747241D01*
X182339382Y-117325940D01*
X194475460Y-117325940D01*
X194873987Y-117246668D01*
X195211841Y-117020921D01*
X197475027Y-114757735D01*
X198132114Y-114758308D01*
X198785840Y-114488194D01*
X199286436Y-113988471D01*
X199557691Y-113335218D01*
X199558308Y-112627886D01*
X199288194Y-111974160D01*
X198788471Y-111473564D01*
X198135218Y-111202309D01*
X197427886Y-111201692D01*
X196774160Y-111471806D01*
X196509978Y-111735528D01*
X196248471Y-111473564D01*
X195595218Y-111202309D01*
X194887886Y-111201692D01*
X194234160Y-111471806D01*
X193969978Y-111735528D01*
X193708471Y-111473564D01*
X193055218Y-111202309D01*
X192347886Y-111201692D01*
X191694160Y-111471806D01*
X191429978Y-111735528D01*
X191168471Y-111473564D01*
X190515218Y-111202309D01*
X190480483Y-111202279D01*
X193785967Y-107896795D01*
X193907655Y-107921000D01*
X193972345Y-107921000D01*
X194604155Y-107795325D01*
X195139778Y-107437433D01*
X195497670Y-106901810D01*
X195623345Y-106270000D01*
X195497670Y-105638190D01*
X195139778Y-105102567D01*
X194604155Y-104744675D01*
X194470490Y-104718087D01*
X194641810Y-104632187D01*
X194933640Y-104294941D01*
X195042071Y-104033134D01*
X194980025Y-103857000D01*
X194067000Y-103857000D01*
X194067000Y-103877000D01*
X193813000Y-103877000D01*
X193813000Y-103857000D01*
X192899975Y-103857000D01*
X192837929Y-104033134D01*
X192946360Y-104294941D01*
X193238190Y-104632187D01*
X193409510Y-104718087D01*
X193275845Y-104744675D01*
X192740222Y-105102567D01*
X192670000Y-105207662D01*
X192599778Y-105102567D01*
X192064155Y-104744675D01*
X191930490Y-104718087D01*
X192101810Y-104632187D01*
X192393640Y-104294941D01*
X192502071Y-104033134D01*
X192440025Y-103857000D01*
X191527000Y-103857000D01*
X191527000Y-103877000D01*
X191273000Y-103877000D01*
X191273000Y-103857000D01*
X190359975Y-103857000D01*
X190297929Y-104033134D01*
X190406360Y-104294941D01*
X190698190Y-104632187D01*
X190869510Y-104718087D01*
X190735845Y-104744675D01*
X190200222Y-105102567D01*
X190130000Y-105207662D01*
X190059778Y-105102567D01*
X189524155Y-104744675D01*
X189390490Y-104718087D01*
X189561810Y-104632187D01*
X189853640Y-104294941D01*
X189962071Y-104033134D01*
X189900025Y-103857000D01*
X188987000Y-103857000D01*
X188987000Y-103877000D01*
X188733000Y-103877000D01*
X188733000Y-103857000D01*
X187819975Y-103857000D01*
X187757929Y-104033134D01*
X187866360Y-104294941D01*
X188158190Y-104632187D01*
X188329510Y-104718087D01*
X188195845Y-104744675D01*
X187660222Y-105102567D01*
X187302330Y-105638190D01*
X187176655Y-106270000D01*
X187211593Y-106445645D01*
X184248638Y-109408600D01*
X183725862Y-109408600D01*
X183699726Y-109367983D01*
X183402647Y-109164997D01*
X183050000Y-109093584D01*
X182250000Y-109093584D01*
X181920556Y-109155573D01*
X181904230Y-109166079D01*
X181902647Y-109164997D01*
X181550000Y-109093584D01*
X180750000Y-109093584D01*
X180420556Y-109155573D01*
X180117983Y-109350274D01*
X179914997Y-109647353D01*
X179843584Y-110000000D01*
X179843584Y-110900000D01*
X179900393Y-111201912D01*
X179647886Y-111201692D01*
X178994160Y-111471806D01*
X178729978Y-111735528D01*
X178468471Y-111473564D01*
X177815218Y-111202309D01*
X177107886Y-111201692D01*
X176454160Y-111471806D01*
X176189978Y-111735528D01*
X175928471Y-111473564D01*
X175275218Y-111202309D01*
X174567886Y-111201692D01*
X173914160Y-111471806D01*
X173649978Y-111735528D01*
X173388471Y-111473564D01*
X172735218Y-111202309D01*
X172027886Y-111201692D01*
X171374160Y-111471806D01*
X171109978Y-111735528D01*
X170848471Y-111473564D01*
X170195218Y-111202309D01*
X170058730Y-111202190D01*
X173376045Y-107884875D01*
X173557655Y-107921000D01*
X173622345Y-107921000D01*
X174254155Y-107795325D01*
X174789778Y-107437433D01*
X175147670Y-106901810D01*
X175273345Y-106270000D01*
X175147670Y-105638190D01*
X174789778Y-105102567D01*
X174254155Y-104744675D01*
X174120490Y-104718087D01*
X174291810Y-104632187D01*
X174583640Y-104294941D01*
X174692071Y-104033134D01*
X174630025Y-103857000D01*
X173717000Y-103857000D01*
X173717000Y-103877000D01*
X173463000Y-103877000D01*
X173463000Y-103857000D01*
X172549975Y-103857000D01*
X172487929Y-104033134D01*
X172596360Y-104294941D01*
X172888190Y-104632187D01*
X173059510Y-104718087D01*
X172925845Y-104744675D01*
X172390222Y-105102567D01*
X172320000Y-105207662D01*
X172249778Y-105102567D01*
X171714155Y-104744675D01*
X171580490Y-104718087D01*
X171751810Y-104632187D01*
X172043640Y-104294941D01*
X172152071Y-104033134D01*
X172090025Y-103857000D01*
X171177000Y-103857000D01*
X171177000Y-103877000D01*
X170923000Y-103877000D01*
X170923000Y-103857000D01*
X170009975Y-103857000D01*
X169947929Y-104033134D01*
X170056360Y-104294941D01*
X170348190Y-104632187D01*
X170519510Y-104718087D01*
X170385845Y-104744675D01*
X169850222Y-105102567D01*
X169780000Y-105207662D01*
X169709778Y-105102567D01*
X169174155Y-104744675D01*
X169040490Y-104718087D01*
X169211810Y-104632187D01*
X169503640Y-104294941D01*
X169612071Y-104033134D01*
X169550025Y-103857000D01*
X168637000Y-103857000D01*
X168637000Y-103877000D01*
X168383000Y-103877000D01*
X168383000Y-103857000D01*
X167469975Y-103857000D01*
X167407929Y-104033134D01*
X167516360Y-104294941D01*
X167808190Y-104632187D01*
X167979510Y-104718087D01*
X167845845Y-104744675D01*
X167310222Y-105102567D01*
X166952330Y-105638190D01*
X166826655Y-106270000D01*
X166861593Y-106445645D01*
X163898638Y-109408600D01*
X163225862Y-109408600D01*
X163199726Y-109367983D01*
X162902647Y-109164997D01*
X162550000Y-109093584D01*
X161750000Y-109093584D01*
X161420556Y-109155573D01*
X161404230Y-109166079D01*
X161402647Y-109164997D01*
X161050000Y-109093584D01*
X160250000Y-109093584D01*
X159920556Y-109155573D01*
X159617983Y-109350274D01*
X159414997Y-109647353D01*
X159343584Y-110000000D01*
X159343584Y-110900000D01*
X159400363Y-111201755D01*
X159327886Y-111201692D01*
X158674160Y-111471806D01*
X158409978Y-111735528D01*
X158148471Y-111473564D01*
X157495218Y-111202309D01*
X156787886Y-111201692D01*
X156134160Y-111471806D01*
X155869978Y-111735528D01*
X155608471Y-111473564D01*
X154955218Y-111202309D01*
X154247886Y-111201692D01*
X153594160Y-111471806D01*
X153329978Y-111735528D01*
X153068471Y-111473564D01*
X152415218Y-111202309D01*
X151707886Y-111201692D01*
X151054160Y-111471806D01*
X150789978Y-111735528D01*
X150528471Y-111473564D01*
X149875218Y-111202309D01*
X149730579Y-111202183D01*
X153035967Y-107896795D01*
X153157655Y-107921000D01*
X153222345Y-107921000D01*
X153854155Y-107795325D01*
X154389778Y-107437433D01*
X154747670Y-106901810D01*
X154873345Y-106270000D01*
X154747670Y-105638190D01*
X154389778Y-105102567D01*
X153854155Y-104744675D01*
X153720490Y-104718087D01*
X153891810Y-104632187D01*
X154183640Y-104294941D01*
X154292071Y-104033134D01*
X154230025Y-103857000D01*
X153317000Y-103857000D01*
X153317000Y-103877000D01*
X153063000Y-103877000D01*
X153063000Y-103857000D01*
X152149975Y-103857000D01*
X152087929Y-104033134D01*
X152196360Y-104294941D01*
X152488190Y-104632187D01*
X152659510Y-104718087D01*
X152525845Y-104744675D01*
X151990222Y-105102567D01*
X151920000Y-105207662D01*
X151849778Y-105102567D01*
X151314155Y-104744675D01*
X151180490Y-104718087D01*
X151351810Y-104632187D01*
X151643640Y-104294941D01*
X151752071Y-104033134D01*
X151690025Y-103857000D01*
X150777000Y-103857000D01*
X150777000Y-103877000D01*
X150523000Y-103877000D01*
X150523000Y-103857000D01*
X149609975Y-103857000D01*
X149547929Y-104033134D01*
X149656360Y-104294941D01*
X149948190Y-104632187D01*
X150119510Y-104718087D01*
X149985845Y-104744675D01*
X149450222Y-105102567D01*
X149380000Y-105207662D01*
X149309778Y-105102567D01*
X148774155Y-104744675D01*
X148640490Y-104718087D01*
X148811810Y-104632187D01*
X149103640Y-104294941D01*
X149212071Y-104033134D01*
X149150025Y-103857000D01*
X148237000Y-103857000D01*
X148237000Y-103877000D01*
X147983000Y-103877000D01*
X147983000Y-103857000D01*
X147069975Y-103857000D01*
X147007929Y-104033134D01*
X147116360Y-104294941D01*
X147408190Y-104632187D01*
X147579510Y-104718087D01*
X147445845Y-104744675D01*
X146910222Y-105102567D01*
X146606826Y-105556631D01*
X146606826Y-104399900D01*
X146544837Y-104070456D01*
X146350136Y-103767883D01*
X146053057Y-103564897D01*
X145700410Y-103493484D01*
X144757956Y-103493484D01*
X144691338Y-103426866D01*
X147007929Y-103426866D01*
X147069975Y-103603000D01*
X147983000Y-103603000D01*
X147983000Y-102689315D01*
X148237000Y-102689315D01*
X148237000Y-103603000D01*
X149150025Y-103603000D01*
X149212071Y-103426866D01*
X149547929Y-103426866D01*
X149609975Y-103603000D01*
X150523000Y-103603000D01*
X150523000Y-102689315D01*
X150777000Y-102689315D01*
X150777000Y-103603000D01*
X151690025Y-103603000D01*
X151752071Y-103426866D01*
X152087929Y-103426866D01*
X152149975Y-103603000D01*
X153063000Y-103603000D01*
X153063000Y-102689315D01*
X153317000Y-102689315D01*
X153317000Y-103603000D01*
X154230025Y-103603000D01*
X154292071Y-103426866D01*
X154183640Y-103165059D01*
X153891810Y-102827813D01*
X153493136Y-102627917D01*
X153317000Y-102689315D01*
X153063000Y-102689315D01*
X152886864Y-102627917D01*
X152488190Y-102827813D01*
X152196360Y-103165059D01*
X152087929Y-103426866D01*
X151752071Y-103426866D01*
X151643640Y-103165059D01*
X151351810Y-102827813D01*
X150953136Y-102627917D01*
X150777000Y-102689315D01*
X150523000Y-102689315D01*
X150346864Y-102627917D01*
X149948190Y-102827813D01*
X149656360Y-103165059D01*
X149547929Y-103426866D01*
X149212071Y-103426866D01*
X149103640Y-103165059D01*
X148811810Y-102827813D01*
X148413136Y-102627917D01*
X148237000Y-102689315D01*
X147983000Y-102689315D01*
X147806864Y-102627917D01*
X147408190Y-102827813D01*
X147116360Y-103165059D01*
X147007929Y-103426866D01*
X144691338Y-103426866D01*
X143678000Y-102413528D01*
X143678000Y-101888780D01*
X144084782Y-102057691D01*
X144792114Y-102058308D01*
X145445840Y-101788194D01*
X145710022Y-101524472D01*
X145971529Y-101786436D01*
X146624782Y-102057691D01*
X147332114Y-102058308D01*
X147985840Y-101788194D01*
X148250022Y-101524472D01*
X148511529Y-101786436D01*
X149164782Y-102057691D01*
X149872114Y-102058308D01*
X150525840Y-101788194D01*
X150790022Y-101524472D01*
X151051529Y-101786436D01*
X151704782Y-102057691D01*
X152412114Y-102058308D01*
X153065840Y-101788194D01*
X153566436Y-101288471D01*
X153597648Y-101213303D01*
X153846302Y-101213303D01*
X153945303Y-101397179D01*
X154422664Y-101562681D01*
X154927023Y-101532906D01*
X155254697Y-101397179D01*
X155353698Y-101213303D01*
X154600000Y-100459605D01*
X153846302Y-101213303D01*
X153597648Y-101213303D01*
X153676154Y-101024241D01*
X154420395Y-100280000D01*
X153676376Y-99535981D01*
X153598166Y-99346697D01*
X153846302Y-99346697D01*
X154600000Y-100100395D01*
X155353698Y-99346697D01*
X155254697Y-99162821D01*
X154777336Y-98997319D01*
X154272977Y-99027094D01*
X153945303Y-99162821D01*
X153846302Y-99346697D01*
X153598166Y-99346697D01*
X153568194Y-99274160D01*
X153068471Y-98773564D01*
X152415218Y-98502309D01*
X152221903Y-98502140D01*
X152691810Y-98408670D01*
X153227433Y-98050778D01*
X153585325Y-97515155D01*
X153711000Y-96883345D01*
X153711000Y-96818655D01*
X153585325Y-96186845D01*
X153227433Y-95651222D01*
X152691810Y-95293330D01*
X152292992Y-95214000D01*
X164527008Y-95214000D01*
X164128190Y-95293330D01*
G36*
X158358600Y-114364006D02*
X158184370Y-114619000D01*
X158122250Y-114619000D01*
X158027000Y-114714250D01*
X158027000Y-115323000D01*
X158047000Y-115323000D01*
X158047000Y-115577000D01*
X158027000Y-115577000D01*
X158027000Y-116185750D01*
X158122250Y-116281000D01*
X158188748Y-116281000D01*
X158203341Y-116303677D01*
X157750038Y-116756980D01*
X154912420Y-116756980D01*
X154816753Y-116776009D01*
X155920512Y-115672250D01*
X157119000Y-115672250D01*
X157119000Y-115975785D01*
X157177004Y-116115819D01*
X157284180Y-116222996D01*
X157424214Y-116281000D01*
X157677750Y-116281000D01*
X157773000Y-116185750D01*
X157773000Y-115577000D01*
X157214250Y-115577000D01*
X157119000Y-115672250D01*
X155920512Y-115672250D01*
X156835027Y-114757735D01*
X157203129Y-114758056D01*
X157177004Y-114784181D01*
X157119000Y-114924215D01*
X157119000Y-115227750D01*
X157214250Y-115323000D01*
X157773000Y-115323000D01*
X157773000Y-114714250D01*
X157722050Y-114663300D01*
X158145840Y-114488194D01*
X158358600Y-114275805D01*
X158358600Y-114364006D01*
X158358600Y-114364006D01*
G37*
X158358600Y-114364006D02*
X158184370Y-114619000D01*
X158122250Y-114619000D01*
X158027000Y-114714250D01*
X158027000Y-115323000D01*
X158047000Y-115323000D01*
X158047000Y-115577000D01*
X158027000Y-115577000D01*
X158027000Y-116185750D01*
X158122250Y-116281000D01*
X158188748Y-116281000D01*
X158203341Y-116303677D01*
X157750038Y-116756980D01*
X154912420Y-116756980D01*
X154816753Y-116776009D01*
X155920512Y-115672250D01*
X157119000Y-115672250D01*
X157119000Y-115975785D01*
X157177004Y-116115819D01*
X157284180Y-116222996D01*
X157424214Y-116281000D01*
X157677750Y-116281000D01*
X157773000Y-116185750D01*
X157773000Y-115577000D01*
X157214250Y-115577000D01*
X157119000Y-115672250D01*
X155920512Y-115672250D01*
X156835027Y-114757735D01*
X157203129Y-114758056D01*
X157177004Y-114784181D01*
X157119000Y-114924215D01*
X157119000Y-115227750D01*
X157214250Y-115323000D01*
X157773000Y-115323000D01*
X157773000Y-114714250D01*
X157722050Y-114663300D01*
X158145840Y-114488194D01*
X158358600Y-114275805D01*
X158358600Y-114364006D01*
M02*
