0
SECTION
2
HEADER
9
$INSUNITS
70
4
9
$ACADVER
1
AC1014
9
$HANDSEED
5
FFFF
0
ENDSEC
0
SECTION
2
TABLES
0
TABLE
2
VPORT
5
8
100
AcDbSymbolTable
0
ENDTAB
0
TABLE
2
LTYPE
5
5
100
AcDbSymbolTable
0
LTYPE
5
14
100
AcDbSymbolTableRecord
100
AcDbLinetypeTableRecord
2
BYBLOCK
70
0
0
LTYPE
5
15
100
AcDbSymbolTableRecord
100
AcDbLinetypeTableRecord
2
BYLAYER
70
0
0
ENDTAB
0
TABLE
2
LAYER
5
2
100
AcDbSymbolTable
70
2
0
LAYER
5
50
100
AcDbSymbolTableRecord
100
AcDbLayerTableRecord
2
0
70
0
6
CONTINUOUS
0
ENDTAB
0
TABLE
2
STYLE
5
3
100
AcDbSymbolTable
70
1
0
STYLE
5
11
100
AcDbSymbolTableRecord
100
AcDbTextStyleTableRecord
2
STANDARD
70
0
0
ENDTAB
0
TABLE
2
VIEW
5
6
100
AcDbSymbolTable
70
0
0
ENDTAB
0
TABLE
2
UCS
5
7
100
AcDbSymbolTable
70
0
0
ENDTAB
0
TABLE
2
APPID
5
9
100
AcDbSymbolTable
70
2
0
APPID
5
12
100
AcDbSymbolTableRecord
100
AcDbRegAppTableRecord
2
ACAD
70
0
0
ENDTAB
0
TABLE
2
DIMSTYLE
5
A
100
AcDbSymbolTable
70
1
0
ENDTAB
0
TABLE
2
BLOCK_RECORD
5
1
100
AcDbSymbolTable
70
1
0
BLOCK_RECORD
5
1F
100
AcDbSymbolTableRecord
100
AcDbBlockTableRecord
2
*MODEL_SPACE
0
BLOCK_RECORD
5
1B
100
AcDbSymbolTableRecord
100
AcDbBlockTableRecord
2
*PAPER_SPACE
0
ENDTAB
0
ENDSEC
0
SECTION
2
BLOCKS
0
BLOCK
5
20
100
AcDbEntity
100
AcDbBlockBegin
2
*MODEL_SPACE
0
ENDBLK
5
21
100
AcDbEntity
100
AcDbBlockEnd
0
BLOCK
5
1C
100
AcDbEntity
100
AcDbBlockBegin
2
*PAPER_SPACE
0
ENDBLK
5
1D
100
AcDbEntity
100
AcDbBlockEnd
0
ENDSEC
0
SECTION
2
ENTITIES
0
LWPOLYLINE
5
100
100
AcDbEntity
8
0
100
AcDbPolyline
90
32
70
1
43
0.0
10
-289.00002019107069
20
-351.50008392335292
42
-0.41421356237309503
10
-292.00002019107069
20
-348.50008392335292
10
-292.0000201910704
20
-319.99972729594253
42
0.41421356237309159
10
-295.0000201910704
20
-316.99972729594253
10
-308.50000762938345
20
-316.99972729594242
42
-0.41421356237309503
10
-311.5000076293835
20
-313.99972729594242
10
-311.5000076293835
20
-20.000439003171468
42
-0.41421356237309853
10
-308.50000762938345
20
-17.000439003171465
10
-295.00002019106796
20
-17.00043900317144
42
0.41421356237309531
10
-292.00002019106796
20
-14.000439003171438
10
-292.00002019106802
20
14.499916076647191
42
-0.4142135623730957
10
-289.00002019106802
20
17.499916076647189
10
35.000004932296143
20
17.49991607664726
42
-0.41421356237309465
10
38.000004932296122
20
14.499916076647271
10
38.000004932296136
20
-14.000440550762551
42
0.41421356237309681
10
41.00000493229615
20
-17.000440550762551
10
54.499992370608496
20
-17.000440550762541
42
-0.41421356237309503
10
57.499992370608496
20
-20.000440550762519
10
57.499992370608553
20
-313.99973043136811
42
-0.41421356237309681
10
54.499992370608567
20
-316.99973043136811
10
41.000004932296257
20
-316.99973043136816
42
0.41421356237309503
10
38.000004932296264
20
-319.99973043136822
10
38.00000493229625
20
-348.5000839233528
42
-0.41421356237309809
10
35.000004932296243
20
-351.5000839233528
10
-114.00000762938666
20
-351.50008392335292
42
-0.41421356237309503
10
-117.00000762938669
20
-348.50008392335292
10
-117.00000762938659
20
-335.0000839233528
42
0.41421356237309331
10
-120.00000762938657
20
-332.00008392335286
10
-134.0000076293866
20
-332.0000839233528
42
0.41421356237309681
10
-137.00000762938663
20
-335.00008392335275
10
-137.00000762938677
20
-348.50008392335292
42
-0.41421356237309503
10
-140.00000762938674
20
-351.50008392335286
0
LWPOLYLINE
5
101
100
AcDbEntity
8
0
100
AcDbPolyline
90
8
70
1
43
0.0
10
-197.00000762938586
20
-113.00008392335278
10
-197.00000762938586
20
-101.00008392335275
42
0.41421356237309503
10
-199.00000762938589
20
-99.000083923352747
10
-205.00000762938586
20
-99.000083923352747
42
0.41421356237309503
10
-207.00000762938586
20
-101.00008392335275
10
-207.00000762938583
20
-113.00008392335278
42
0.41421356237309503
10
-205.00000762938583
20
-115.00008392335276
10
-199.00000762938586
20
-115.00008392335276
42
0.41421356237309503
0
LWPOLYLINE
5
102
100
AcDbEntity
8
0
100
AcDbPolyline
90
8
70
1
43
0.0
10
-47.000007629385863
20
-113.0000839233527
10
-47.000007629385863
20
-101.00008392335268
42
0.41421356237309503
10
-49.000007629385877
20
-99.000083923352676
10
-55.00000762938587
20
-99.000083923352676
42
0.41421356237309503
10
-57.000007629385863
20
-101.00008392335268
10
-57.000007629385863
20
-113.0000839233527
42
0.41421356237309503
10
-55.00000762938587
20
-115.00008392335269
10
-49.000007629385877
20
-115.00008392335269
42
0.41421356237309503
0
LWPOLYLINE
5
103
100
AcDbEntity
8
0
100
AcDbPolyline
90
8
70
1
43
0.0
10
-205.00000762938583
20
-235.00008392335275
10
-199.00000762938583
20
-235.00008392335275
42
0.41421356237309503
10
-197.00000762938583
20
-233.0000839233528
10
-197.00000762938583
20
-221.00008392335275
42
0.41421356237309503
10
-199.00000762938583
20
-219.0000839233528
10
-205.00000762938583
20
-219.00008392335278
42
0.41421356237309503
10
-207.00000762938583
20
-221.00008392335275
10
-207.00000762938583
20
-233.0000839233528
42
0.41421356237309503
0
LWPOLYLINE
5
104
100
AcDbEntity
8
0
100
AcDbPolyline
90
8
70
1
43
0.0
10
-47.000007629385827
20
-233.0000839233528
10
-47.000007629385827
20
-221.00008392335275
42
0.41421356237309503
10
-49.000007629385834
20
-219.0000839233528
10
-55.000007629385834
20
-219.00008392335278
42
0.41421356237309503
10
-57.000007629385827
20
-221.00008392335275
10
-57.000007629385827
20
-233.0000839233528
42
0.41421356237309503
10
-55.000007629385834
20
-235.00008392335275
10
-49.000007629385834
20
-235.00008392335278
42
0.41421356237309503
0
CIRCLE
5
105
100
AcDbEntity
8
0
100
AcDbCircle
10
-127.00000762938583
20
-262.00008392335172
30
-8.8817841970012523e-15
40
5.9999999999999964
210
1.0651452443576031e-16
220
0
230
1
0
ENDSEC
0
SECTION
2
OBJECTS
0
DICTIONARY
5
C
100
AcDbDictionary
3
ACAD_GROUP
350
D
3
ACAD_MLINESTYLE
350
17
0
DICTIONARY
5
D
100
AcDbDictionary
0
DICTIONARY
5
1A
330
C
100
AcDbDictionary
0
DICTIONARY
5
17
100
AcDbDictionary
0
ENDSEC
0
EOF
