0
SECTION
2
HEADER
9
$INSUNITS
70
4
9
$ACADVER
1
AC1014
9
$HANDSEED
5
FFFF
0
ENDSEC
0
SECTION
2
TABLES
0
TABLE
2
VPORT
5
8
100
AcDbSymbolTable
0
ENDTAB
0
TABLE
2
LTYPE
5
5
100
AcDbSymbolTable
0
LTYPE
5
14
100
AcDbSymbolTableRecord
100
AcDbLinetypeTableRecord
2
BYBLOCK
70
0
0
LTYPE
5
15
100
AcDbSymbolTableRecord
100
AcDbLinetypeTableRecord
2
BYLAYER
70
0
0
ENDTAB
0
TABLE
2
LAYER
5
2
100
AcDbSymbolTable
70
2
0
LAYER
5
50
100
AcDbSymbolTableRecord
100
AcDbLayerTableRecord
2
0
70
0
6
CONTINUOUS
0
ENDTAB
0
TABLE
2
STYLE
5
3
100
AcDbSymbolTable
70
1
0
STYLE
5
11
100
AcDbSymbolTableRecord
100
AcDbTextStyleTableRecord
2
STANDARD
70
0
0
ENDTAB
0
TABLE
2
VIEW
5
6
100
AcDbSymbolTable
70
0
0
ENDTAB
0
TABLE
2
UCS
5
7
100
AcDbSymbolTable
70
0
0
ENDTAB
0
TABLE
2
APPID
5
9
100
AcDbSymbolTable
70
2
0
APPID
5
12
100
AcDbSymbolTableRecord
100
AcDbRegAppTableRecord
2
ACAD
70
0
0
ENDTAB
0
TABLE
2
DIMSTYLE
5
A
100
AcDbSymbolTable
70
1
0
ENDTAB
0
TABLE
2
BLOCK_RECORD
5
1
100
AcDbSymbolTable
70
1
0
BLOCK_RECORD
5
1F
100
AcDbSymbolTableRecord
100
AcDbBlockTableRecord
2
*MODEL_SPACE
0
BLOCK_RECORD
5
1B
100
AcDbSymbolTableRecord
100
AcDbBlockTableRecord
2
*PAPER_SPACE
0
ENDTAB
0
ENDSEC
0
SECTION
2
BLOCKS
0
BLOCK
5
20
100
AcDbEntity
100
AcDbBlockBegin
2
*MODEL_SPACE
0
ENDBLK
5
21
100
AcDbEntity
100
AcDbBlockEnd
0
BLOCK
5
1C
100
AcDbEntity
100
AcDbBlockBegin
2
*PAPER_SPACE
0
ENDBLK
5
1D
100
AcDbEntity
100
AcDbBlockEnd
0
ENDSEC
0
SECTION
2
ENTITIES
0
LWPOLYLINE
5
100
100
AcDbEntity
8
0
100
AcDbPolyline
90
8
70
1
43
0.0
10
-46.761580550184824
20
-233.76157616299139
10
-46.761580550184824
20
-221.76157616299136
42
0.41421356237309503
10
-48.761580550184831
20
-219.76157616299139
10
-54.761580550184831
20
-219.76157616299136
42
0.41421356237309503
10
-56.761580550184824
20
-221.76157616299136
10
-56.761580550184831
20
-233.76157616299139
42
0.41421356237309503
10
-54.761580550184831
20
-235.76157616299133
10
-48.761580550184831
20
-235.76157616299139
42
0.41421356237309503
0
LWPOLYLINE
5
101
100
AcDbEntity
8
0
100
AcDbPolyline
90
8
70
1
43
0.0
10
-204.76158055018482
20
-235.76157616299133
10
-198.76158055018479
20
-235.76157616299133
42
0.41421356237309503
10
-196.76158055018479
20
-233.76157616299139
10
-196.76158055018479
20
-221.76157616299136
42
0.41421356237309503
10
-198.76158055018479
20
-219.76157616299139
10
-204.76158055018482
20
-219.76157616299136
42
0.41421356237309503
10
-206.76158055018479
20
-221.76157616299136
10
-206.76158055018479
20
-233.76157616299139
42
0.41421356237309503
0
LWPOLYLINE
5
102
100
AcDbEntity
8
0
100
AcDbPolyline
90
8
70
1
43
0.0
10
-46.76158055018486
20
-113.76157616299132
10
-46.76158055018486
20
-101.76157616299129
42
0.41421356237309503
10
-48.761580550184867
20
-99.761576162991304
10
-54.761580550184867
20
-99.761576162991304
42
0.41421356237309503
10
-56.76158055018486
20
-101.76157616299129
10
-56.761580550184867
20
-113.76157616299132
42
0.41421356237309503
10
-54.761580550184867
20
-115.7615761629913
10
-48.761580550184867
20
-115.7615761629913
42
0.41421356237309503
0
LWPOLYLINE
5
103
100
AcDbEntity
8
0
100
AcDbPolyline
90
8
70
1
43
0.0
10
-196.76158055018482
20
-113.76157616299139
10
-196.76158055018482
20
-101.76157616299136
42
0.41421356237309503
10
-198.76158055018487
20
-99.761576162991361
10
-204.76158055018485
20
-99.761576162991361
42
0.41421356237309503
10
-206.76158055018482
20
-101.76157616299136
10
-206.76158055018479
20
-113.76157616299139
42
0.41421356237309503
10
-204.76158055018482
20
-115.76157616299139
10
-198.76158055018482
20
-115.76157616299139
42
0.41421356237309503
0
LWPOLYLINE
5
104
100
AcDbEntity
8
0
100
AcDbPolyline
90
32
70
1
43
0.0
10
82.738419449809498
20
4.2380672095988814
10
82.738419449809555
20
-339.76122267100669
42
-0.41421356237309592
10
79.738419449809555
20
-342.76122267100669
10
66.238432011497252
20
-342.76122267100681
42
0.41421356237309503
10
63.238432011497252
20
-345.76122267100681
10
63.238432011497238
20
-374.26157616299145
42
-0.41421356237309681
10
60.238432011497238
20
-377.26157616299139
10
-113.76158055018564
20
-377.26157616299156
42
-0.41421356237309503
10
-116.76158055018567
20
-374.2615761629915
10
-116.76158055018558
20
-360.76157616299145
42
0.41421356237309331
10
-119.76158055018557
20
-357.76157616299145
10
-133.76158055018556
20
-357.76157616299139
42
0.41421356237309681
10
-136.76158055018558
20
-360.76157616299133
10
-136.76158055018573
20
-374.2615761629915
42
-0.41421356237309503
10
-139.76158055018573
20
-377.26157616299145
10
-313.76159311186962
20
-377.26157616299145
42
-0.41421356237309503
10
-316.76159311186962
20
-374.2615761629915
10
-316.76159311186939
20
-345.76121953558118
42
0.41421356237309159
10
-319.76159311186933
20
-342.76121953558112
10
-333.26158055018243
20
-342.76121953558095
42
-0.41421356237309503
10
-336.26158055018237
20
-339.76121953558101
10
-336.26158055018237
20
4.2380687571899172
42
-0.41421356237309503
10
-333.26158055018243
20
7.2380687571899216
10
-319.76159311186689
20
7.2380687571899465
42
0.41421356237309531
10
-316.76159311186689
20
10.238068757189946
10
-316.76159311186689
20
38.738423837008582
42
-0.41421356237309548
10
-313.76159311186694
20
41.738423837008575
10
60.238432011497125
20
41.738423837008654
42
-0.41421356237309503
10
63.23843201149711
20
38.738423837008654
10
63.238432011497132
20
10.238067209598835
42
0.41421356237309681
10
66.238432011497139
20
7.2380672095988352
10
79.738419449809484
20
7.2380672095988547
42
-0.4142135623730942
0
CIRCLE
5
105
100
AcDbEntity
8
0
100
AcDbCircle
10
-126.76158055018479
20
-287.76157616299031
30
1.4725998198628076e-11
40
7.5
210
1.0651452443576034e-16
220
0
230
1
0
ENDSEC
0
SECTION
2
OBJECTS
0
DICTIONARY
5
C
100
AcDbDictionary
3
ACAD_GROUP
350
D
3
ACAD_MLINESTYLE
350
17
0
DICTIONARY
5
D
100
AcDbDictionary
0
DICTIONARY
5
1A
330
C
100
AcDbDictionary
0
DICTIONARY
5
17
100
AcDbDictionary
0
ENDSEC
0
EOF
