0
SECTION
2
HEADER
9
$INSUNITS
70
4
9
$ACADVER
1
AC1014
9
$HANDSEED
5
FFFF
0
ENDSEC
0
SECTION
2
TABLES
0
TABLE
2
VPORT
5
8
100
AcDbSymbolTable
0
ENDTAB
0
TABLE
2
LTYPE
5
5
100
AcDbSymbolTable
0
LTYPE
5
14
100
AcDbSymbolTableRecord
100
AcDbLinetypeTableRecord
2
BYBLOCK
70
0
0
LTYPE
5
15
100
AcDbSymbolTableRecord
100
AcDbLinetypeTableRecord
2
BYLAYER
70
0
0
ENDTAB
0
TABLE
2
LAYER
5
2
100
AcDbSymbolTable
70
2
0
LAYER
5
50
100
AcDbSymbolTableRecord
100
AcDbLayerTableRecord
2
0
70
0
6
CONTINUOUS
0
ENDTAB
0
TABLE
2
STYLE
5
3
100
AcDbSymbolTable
70
1
0
STYLE
5
11
100
AcDbSymbolTableRecord
100
AcDbTextStyleTableRecord
2
STANDARD
70
0
0
ENDTAB
0
TABLE
2
VIEW
5
6
100
AcDbSymbolTable
70
0
0
ENDTAB
0
TABLE
2
UCS
5
7
100
AcDbSymbolTable
70
0
0
ENDTAB
0
TABLE
2
APPID
5
9
100
AcDbSymbolTable
70
2
0
APPID
5
12
100
AcDbSymbolTableRecord
100
AcDbRegAppTableRecord
2
ACAD
70
0
0
ENDTAB
0
TABLE
2
DIMSTYLE
5
A
100
AcDbSymbolTable
70
1
0
ENDTAB
0
TABLE
2
BLOCK_RECORD
5
1
100
AcDbSymbolTable
70
1
0
BLOCK_RECORD
5
1F
100
AcDbSymbolTableRecord
100
AcDbBlockTableRecord
2
*MODEL_SPACE
0
BLOCK_RECORD
5
1B
100
AcDbSymbolTableRecord
100
AcDbBlockTableRecord
2
*PAPER_SPACE
0
ENDTAB
0
ENDSEC
0
SECTION
2
BLOCKS
0
BLOCK
5
20
100
AcDbEntity
100
AcDbBlockBegin
2
*MODEL_SPACE
0
ENDBLK
5
21
100
AcDbEntity
100
AcDbBlockEnd
0
BLOCK
5
1C
100
AcDbEntity
100
AcDbBlockBegin
2
*PAPER_SPACE
0
ENDBLK
5
1D
100
AcDbEntity
100
AcDbBlockEnd
0
ENDSEC
0
SECTION
2
ENTITIES
0
LWPOLYLINE
5
100
100
AcDbEntity
8
0
100
AcDbPolyline
90
32
70
1
43
0.0
10
404.60000000001787
20
-13.999568444640929
10
404.60000000004425
20
-376.00043155534888
42
-0.4142135623730846
10
402.60000000004453
20
-378.000431555349
10
401.50026538433156
20
-378.00043155534917
42
0.41421356237309503
10
380.00026538433337
20
-399.50043155535099
10
380.00026538433394
20
-402.60000000000059
42
-0.41421356237314705
10
378.00026538433406
20
-404.60000000000099
10
12.000859969347317
20
-404.60000000001696
42
-0.41421275673341534
10
10.000859969354789
20
-402.60000550127046
10
10.00085144479435
20
-399.50087165485797
42
0.41421356237309503
10
-11.499207693602003
20
-378.00093079341696
10
-12.599879174701325
20
-378.00093382095349
42
-0.41421436801328537
10
-14.599884675955083
20
-376.00093382096105
10
-14.599884675970783
20
-13.99906617906101
42
-0.41421436801327233
10
-12.599879174717206
20
-11.999066179068496
10
-11.499207693615789
20
-11.999069206604872
42
0.41421356237309509
10
10.000851444778611
20
9.5008716548379262
10
10.000859969338835
20
12.600005501250529
42
-0.41421275673340985
10
12.000859969331188
20
14.599999999997168
10
133.00054204742213
20
14.600000000000659
42
-0.41421356237309598
10
135.00054204742219
20
12.60000000000073
10
135.00054204742261
20
-0.40000000000377522
42
0.41421356237310608
10
137.00054204742275
20
-2.4000000000037103
10
253.00054204742275
20
-2.3999999999951198
42
0.41421356237308399
10
255.00054204742258
20
-0.3999999999950532
10
255.00054204742216
20
12.600000000005114
42
-0.41421356237309437
10
257.00054204742207
20
14.60000000000518
10
378.00026538431803
20
14.600000000008706
42
-0.41421356237313828
10
380.00026538431814
20
12.600000000008453
10
380.00026538431774
20
9.5004315553589063
42
0.41421356237309503
10
401.50026538431774
20
-11.999568444641104
10
402.60000000001781
20
-11.999568444641078
42
-0.414213562373069
0
ENDSEC
0
SECTION
2
OBJECTS
0
DICTIONARY
5
C
100
AcDbDictionary
3
ACAD_GROUP
350
D
3
ACAD_MLINESTYLE
350
17
0
DICTIONARY
5
D
100
AcDbDictionary
0
DICTIONARY
5
1A
330
C
100
AcDbDictionary
0
DICTIONARY
5
17
100
AcDbDictionary
0
ENDSEC
0
EOF
