0
SECTION
2
HEADER
9
$INSUNITS
70
4
9
$ACADVER
1
AC1014
9
$HANDSEED
5
FFFF
0
ENDSEC
0
SECTION
2
TABLES
0
TABLE
2
VPORT
5
8
100
AcDbSymbolTable
0
ENDTAB
0
TABLE
2
LTYPE
5
5
100
AcDbSymbolTable
0
LTYPE
5
14
100
AcDbSymbolTableRecord
100
AcDbLinetypeTableRecord
2
BYBLOCK
70
0
0
LTYPE
5
15
100
AcDbSymbolTableRecord
100
AcDbLinetypeTableRecord
2
BYLAYER
70
0
0
ENDTAB
0
TABLE
2
LAYER
5
2
100
AcDbSymbolTable
70
2
0
LAYER
5
50
100
AcDbSymbolTableRecord
100
AcDbLayerTableRecord
2
0
70
0
6
CONTINUOUS
0
ENDTAB
0
TABLE
2
STYLE
5
3
100
AcDbSymbolTable
70
1
0
STYLE
5
11
100
AcDbSymbolTableRecord
100
AcDbTextStyleTableRecord
2
STANDARD
70
0
0
ENDTAB
0
TABLE
2
VIEW
5
6
100
AcDbSymbolTable
70
0
0
ENDTAB
0
TABLE
2
UCS
5
7
100
AcDbSymbolTable
70
0
0
ENDTAB
0
TABLE
2
APPID
5
9
100
AcDbSymbolTable
70
2
0
APPID
5
12
100
AcDbSymbolTableRecord
100
AcDbRegAppTableRecord
2
ACAD
70
0
0
ENDTAB
0
TABLE
2
DIMSTYLE
5
A
100
AcDbSymbolTable
70
1
0
ENDTAB
0
TABLE
2
BLOCK_RECORD
5
1
100
AcDbSymbolTable
70
1
0
BLOCK_RECORD
5
1F
100
AcDbSymbolTableRecord
100
AcDbBlockTableRecord
2
*MODEL_SPACE
0
BLOCK_RECORD
5
1B
100
AcDbSymbolTableRecord
100
AcDbBlockTableRecord
2
*PAPER_SPACE
0
ENDTAB
0
ENDSEC
0
SECTION
2
BLOCKS
0
BLOCK
5
20
100
AcDbEntity
100
AcDbBlockBegin
2
*MODEL_SPACE
0
ENDBLK
5
21
100
AcDbEntity
100
AcDbBlockEnd
0
BLOCK
5
1C
100
AcDbEntity
100
AcDbBlockBegin
2
*PAPER_SPACE
0
ENDBLK
5
1D
100
AcDbEntity
100
AcDbBlockEnd
0
ENDSEC
0
SECTION
2
ENTITIES
0
LWPOLYLINE
5
100
100
AcDbEntity
8
0
100
AcDbPolyline
90
32
70
1
43
0.0
10
403.00026538433406
20
-429.60000000000099
10
-12.999140030652683
20
-429.60000000001696
42
-0.41421275673341534
10
-14.999140030645211
20
-427.60000550127046
10
-14.99914855520565
20
-424.50087165485797
42
0.41421356237309503
10
-36.499207693602003
20
-403.00093079341696
10
-37.599879174701329
20
-403.00093382095349
42
-0.41421436801328565
10
-39.599884675955082
20
-401.00093382096105
10
-39.599884675970777
20
11.00093382093899
42
-0.41421436801327266
10
-37.599879174717202
20
13.000933820931504
10
-36.499207693615794
20
13.000930793395128
42
0.41421356237309515
10
-14.999148555221389
20
34.50087165483793
10
-14.999140030661165
20
37.600005501250529
42
-0.41421275673340952
10
-12.999140030668812
20
39.599999999997166
10
133.00054204742213
20
39.600000000000655
42
-0.4142135623730957
10
135.00054204742219
20
37.600000000000733
10
135.00054204742261
20
24.599999999996225
42
0.41421356237310608
10
137.00054204742275
20
22.599999999996289
10
253.00054204742275
20
22.600000000004879
42
0.41421356237308399
10
255.00054204742258
20
24.600000000004947
10
255.00054204742216
20
37.60000000000511
42
-0.41421356237309437
10
257.00054204742207
20
39.600000000005181
10
403.00026538431803
20
39.600000000008706
42
-0.41421356237313794
10
405.00026538431814
20
37.60000000000845
10
405.00026538431774
20
34.500431555358908
42
0.41421356237309503
10
426.50026538431774
20
13.000431555358896
10
427.60000000001781
20
13.000431555358922
42
-0.414213562373069
10
429.60000000001787
20
11.000431555359071
10
429.60000000004425
20
-401.00043155534888
42
-0.4142135623730846
10
427.60000000004453
20
-403.000431555349
10
426.50026538433156
20
-403.00043155534917
42
0.41421356237309503
10
405.00026538433337
20
-424.50043155535099
10
405.00026538433394
20
-427.60000000000059
42
-0.41421356237314705
0
ENDSEC
0
SECTION
2
OBJECTS
0
DICTIONARY
5
C
100
AcDbDictionary
3
ACAD_GROUP
350
D
3
ACAD_MLINESTYLE
350
17
0
DICTIONARY
5
D
100
AcDbDictionary
0
DICTIONARY
5
1A
330
C
100
AcDbDictionary
0
DICTIONARY
5
17
100
AcDbDictionary
0
ENDSEC
0
EOF
