G04 #@! TF.FileFunction,Copper,L1,Top,Signal*
%FSLAX46Y46*%
G04 Gerber Fmt 4.6, Leading zero omitted, Abs format (unit mm)*
G04 Created by KiCad (PCBNEW 4.0.2-stable) date 1/4/2018 10:10:38 PM*
%MOMM*%
G01*
G04 APERTURE LIST*
%ADD10C,0.100000*%
%ADD11C,1.524000*%
%ADD12R,0.800000X0.750000*%
%ADD13C,2.032000*%
%ADD14R,0.500000X0.900000*%
%ADD15R,0.750000X0.800000*%
%ADD16R,0.900000X0.500000*%
%ADD17C,0.900000*%
%ADD18R,0.600000X1.550000*%
%ADD19R,0.900000X0.800000*%
%ADD20R,1.000000X1.250000*%
%ADD21R,1.200000X1.200000*%
%ADD22C,0.600000*%
%ADD23C,0.508000*%
%ADD24C,0.254000*%
%ADD25C,0.250000*%
G04 APERTURE END LIST*
D10*
D11*
X155400000Y-108850000D03*
X152900000Y-106350000D03*
X157900000Y-106350000D03*
D12*
X129322200Y-105905800D03*
X127822200Y-105905800D03*
D13*
X146410000Y-107900000D03*
X143870000Y-107900000D03*
X141330000Y-107900000D03*
X138790000Y-107900000D03*
D14*
X127758000Y-108090200D03*
X129258000Y-108090200D03*
D15*
X149200000Y-108250000D03*
X149200000Y-106750000D03*
X149100000Y-101250000D03*
X149100000Y-99750000D03*
D12*
X134550000Y-106300000D03*
X136050000Y-106300000D03*
X134550000Y-98400000D03*
X136050000Y-98400000D03*
D16*
X149200000Y-105550000D03*
X149200000Y-104050000D03*
X150700000Y-106750000D03*
X150700000Y-108250000D03*
X149100000Y-98450000D03*
X149100000Y-96950000D03*
X150700000Y-99750000D03*
X150700000Y-101250000D03*
X173618400Y-98272400D03*
X173618400Y-99772400D03*
D17*
X123500000Y-106980000D03*
X123500000Y-105710000D03*
X123500000Y-108250000D03*
X174500000Y-94500000D03*
X175770000Y-94500000D03*
X173230000Y-94500000D03*
D18*
X140895000Y-103900000D03*
X142165000Y-103900000D03*
X143435000Y-103900000D03*
X144705000Y-103900000D03*
X144705000Y-98500000D03*
X143435000Y-98500000D03*
X142165000Y-98500000D03*
X140895000Y-98500000D03*
D19*
X134500000Y-100250000D03*
X134500000Y-102150000D03*
X136500000Y-101200000D03*
D15*
X175650400Y-99874000D03*
X175650400Y-98374000D03*
X139100000Y-99650000D03*
X139100000Y-98150000D03*
D20*
X136400000Y-104200000D03*
X134400000Y-104200000D03*
D21*
X125750000Y-105900000D03*
X125750000Y-108100000D03*
X175658200Y-96431600D03*
X173458200Y-96431600D03*
D11*
X155400000Y-100750000D03*
X152900000Y-98250000D03*
X157900000Y-98250000D03*
D22*
X132050000Y-104200000D03*
X139100000Y-96700000D03*
X132900000Y-106300000D03*
X133100000Y-98300000D03*
X133100000Y-100300000D03*
X152300000Y-108300000D03*
X146000000Y-103900000D03*
X152200000Y-101200000D03*
X175641000Y-101219000D03*
X130462000Y-105892000D03*
X142200000Y-96200000D03*
X173600000Y-101200000D03*
X130600000Y-108100000D03*
X142200000Y-102200000D03*
D23*
X134400000Y-104200000D02*
X132050000Y-104200000D01*
X139100000Y-98150000D02*
X139100000Y-96700000D01*
X134550000Y-106300000D02*
X132900000Y-106300000D01*
X134550000Y-98400000D02*
X133200000Y-98400000D01*
X133200000Y-98400000D02*
X133100000Y-98300000D01*
X134500000Y-100250000D02*
X133150000Y-100250000D01*
X133150000Y-100250000D02*
X133100000Y-100300000D01*
X149200000Y-108250000D02*
X150700000Y-108250000D01*
X150700000Y-108250000D02*
X150750000Y-108300000D01*
X150750000Y-108300000D02*
X152300000Y-108300000D01*
X144705000Y-103900000D02*
X146000000Y-103900000D01*
X150700000Y-101250000D02*
X152150000Y-101250000D01*
X152150000Y-101250000D02*
X152200000Y-101200000D01*
X149100000Y-101250000D02*
X150700000Y-101250000D01*
X175650400Y-99874000D02*
X175650400Y-101209600D01*
X175650400Y-101209600D02*
X175641000Y-101219000D01*
X129322200Y-105905800D02*
X130448200Y-105905800D01*
X130448200Y-105905800D02*
X130462000Y-105892000D01*
D24*
X149200000Y-105550000D02*
X149200000Y-106750000D01*
X149200000Y-106750000D02*
X150700000Y-106750000D01*
X149200000Y-105550000D02*
X143950000Y-105550000D01*
X143435000Y-105035000D02*
X143435000Y-103900000D01*
X143950000Y-105550000D02*
X143435000Y-105035000D01*
X149100000Y-99750000D02*
X150700000Y-99750000D01*
X149100000Y-99750000D02*
X149100000Y-98450000D01*
X144705000Y-98500000D02*
X144705000Y-99405000D01*
X145050000Y-99750000D02*
X149100000Y-99750000D01*
X144705000Y-99405000D02*
X145050000Y-99750000D01*
D23*
X138790000Y-107900000D02*
X136400000Y-107900000D01*
X136050000Y-107550000D02*
X136050000Y-106300000D01*
X136400000Y-107900000D02*
X136050000Y-107550000D01*
X136050000Y-106300000D02*
X136400000Y-105950000D01*
X136400000Y-105950000D02*
X136400000Y-104200000D01*
X136400000Y-104200000D02*
X136500000Y-104100000D01*
X136500000Y-104100000D02*
X136500000Y-101200000D01*
X123500000Y-105710000D02*
X125560000Y-105710000D01*
X125750000Y-105900000D02*
X127816400Y-105900000D01*
X125560000Y-105710000D02*
X125750000Y-105900000D01*
X125560000Y-105710000D02*
X125750000Y-105900000D01*
X127816400Y-105900000D02*
X127822200Y-105905800D01*
X175658200Y-96431600D02*
X175658200Y-94611800D01*
X175658200Y-94611800D02*
X175770000Y-94500000D01*
X175658200Y-96431600D02*
X175658200Y-98366200D01*
X175658200Y-98366200D02*
X175650400Y-98374000D01*
D24*
X142165000Y-98500000D02*
X142165000Y-99535000D01*
X139900000Y-106470000D02*
X141330000Y-107900000D01*
X139900000Y-101800000D02*
X139900000Y-106470000D01*
X142165000Y-99535000D02*
X139900000Y-101800000D01*
X173618400Y-99772400D02*
X173618400Y-101181600D01*
X142165000Y-96235000D02*
X142165000Y-98500000D01*
X142200000Y-96200000D02*
X142165000Y-96235000D01*
X173618400Y-101181600D02*
X173600000Y-101200000D01*
X129258000Y-108090200D02*
X130590200Y-108090200D01*
X130590200Y-108090200D02*
X130600000Y-108100000D01*
X140895000Y-103900000D02*
X140895000Y-104995000D01*
X143870000Y-106770000D02*
X143870000Y-107900000D01*
X142500000Y-105400000D02*
X143870000Y-106770000D01*
X141300000Y-105400000D02*
X142500000Y-105400000D01*
X140895000Y-104995000D02*
X141300000Y-105400000D01*
X142165000Y-102235000D02*
X142165000Y-103900000D01*
X142200000Y-102200000D02*
X142165000Y-102235000D01*
X173230000Y-94500000D02*
X172900000Y-94500000D01*
X172900000Y-94500000D02*
X172300000Y-93900000D01*
X143435000Y-96665000D02*
X143435000Y-98500000D01*
X146200000Y-93900000D02*
X143435000Y-96665000D01*
X172300000Y-93900000D02*
X146200000Y-93900000D01*
X125750000Y-108100000D02*
X127748200Y-108100000D01*
D25*
X126225000Y-107900000D02*
X126350000Y-107900000D01*
D24*
X127650000Y-108100000D02*
X127750000Y-108000000D01*
X127748200Y-108100000D02*
X127758000Y-108090200D01*
X173458200Y-96431600D02*
X173458200Y-97033400D01*
X173618400Y-97193600D02*
X173618400Y-98272400D01*
X173458200Y-97033400D02*
X173618400Y-97193600D01*
X152900000Y-106350000D02*
X152900000Y-105900000D01*
X152900000Y-105900000D02*
X151050000Y-104050000D01*
X151050000Y-104050000D02*
X149200000Y-104050000D01*
X155300000Y-108850000D02*
X152800000Y-106350000D01*
X152800000Y-106350000D02*
X152800000Y-106000000D01*
X155400000Y-100750000D02*
X152900000Y-98250000D01*
X152900000Y-98250000D02*
X152750000Y-98250000D01*
X152750000Y-98250000D02*
X151450000Y-96950000D01*
X151450000Y-96950000D02*
X149100000Y-96950000D01*
G36*
X143097847Y-95924523D02*
X142993117Y-95671057D01*
X142730327Y-95407808D01*
X142386799Y-95265162D01*
X142014833Y-95264838D01*
X141671057Y-95406883D01*
X141407808Y-95669673D01*
X141265162Y-96013201D01*
X141264838Y-96385167D01*
X141403000Y-96719545D01*
X141403000Y-97123837D01*
X141321310Y-97090000D01*
X141180750Y-97090000D01*
X141022000Y-97248750D01*
X141022000Y-98373000D01*
X141042000Y-98373000D01*
X141042000Y-98627000D01*
X141022000Y-98627000D01*
X141022000Y-98647000D01*
X140768000Y-98647000D01*
X140768000Y-98627000D01*
X140748000Y-98627000D01*
X140748000Y-98373000D01*
X140768000Y-98373000D01*
X140768000Y-97248750D01*
X140609250Y-97090000D01*
X140468690Y-97090000D01*
X140235301Y-97186673D01*
X140056673Y-97365302D01*
X140027444Y-97435866D01*
X139989000Y-97376121D01*
X139989000Y-96997189D01*
X140034838Y-96886799D01*
X140035162Y-96514833D01*
X139893117Y-96171057D01*
X139630327Y-95907808D01*
X139286799Y-95765162D01*
X138914833Y-95764838D01*
X138571057Y-95906883D01*
X138307808Y-96169673D01*
X138165162Y-96513201D01*
X138164838Y-96885167D01*
X138211000Y-96996888D01*
X138211000Y-97377468D01*
X138128569Y-97498110D01*
X138077560Y-97750000D01*
X138077560Y-98550000D01*
X138121838Y-98785317D01*
X138188329Y-98888646D01*
X138186673Y-98890302D01*
X138090000Y-99123691D01*
X138090000Y-99364250D01*
X138248750Y-99523000D01*
X138973000Y-99523000D01*
X138973000Y-99503000D01*
X139227000Y-99503000D01*
X139227000Y-99523000D01*
X139247000Y-99523000D01*
X139247000Y-99777000D01*
X139227000Y-99777000D01*
X139227000Y-100526250D01*
X139385750Y-100685000D01*
X139601310Y-100685000D01*
X139834699Y-100588327D01*
X140013327Y-100409698D01*
X140110000Y-100176309D01*
X140110000Y-99935750D01*
X139951252Y-99777002D01*
X140110000Y-99777002D01*
X140110000Y-99688025D01*
X140235301Y-99813327D01*
X140468690Y-99910000D01*
X140609250Y-99910000D01*
X140767998Y-99751252D01*
X140767998Y-99854371D01*
X139361185Y-101261185D01*
X139196004Y-101508395D01*
X139138000Y-101800000D01*
X139138000Y-106256826D01*
X139119845Y-106249287D01*
X138463037Y-106248714D01*
X137856005Y-106499534D01*
X137391166Y-106963563D01*
X137371468Y-107011000D01*
X136988961Y-107011000D01*
X137046431Y-106926890D01*
X137097440Y-106675000D01*
X137097440Y-106475619D01*
X137221329Y-106290206D01*
X137289000Y-105950000D01*
X137289000Y-105329270D01*
X137351441Y-105289090D01*
X137496431Y-105076890D01*
X137547440Y-104825000D01*
X137547440Y-103575000D01*
X137503162Y-103339683D01*
X137389000Y-103162270D01*
X137389000Y-102072096D01*
X137401441Y-102064090D01*
X137546431Y-101851890D01*
X137597440Y-101600000D01*
X137597440Y-100800000D01*
X137553162Y-100564683D01*
X137414090Y-100348559D01*
X137201890Y-100203569D01*
X136950000Y-100152560D01*
X136050000Y-100152560D01*
X135814683Y-100196838D01*
X135598559Y-100335910D01*
X135597440Y-100337548D01*
X135597440Y-99935750D01*
X138090000Y-99935750D01*
X138090000Y-100176309D01*
X138186673Y-100409698D01*
X138365301Y-100588327D01*
X138598690Y-100685000D01*
X138814250Y-100685000D01*
X138973000Y-100526250D01*
X138973000Y-99777000D01*
X138248750Y-99777000D01*
X138090000Y-99935750D01*
X135597440Y-99935750D01*
X135597440Y-99850000D01*
X135553162Y-99614683D01*
X135414090Y-99398559D01*
X135287760Y-99312242D01*
X135288646Y-99311671D01*
X135290302Y-99313327D01*
X135523691Y-99410000D01*
X135764250Y-99410000D01*
X135923000Y-99251250D01*
X135923000Y-98527000D01*
X136177000Y-98527000D01*
X136177000Y-99251250D01*
X136335750Y-99410000D01*
X136576309Y-99410000D01*
X136809698Y-99313327D01*
X136988327Y-99134699D01*
X137085000Y-98901310D01*
X137085000Y-98685750D01*
X136926250Y-98527000D01*
X136177000Y-98527000D01*
X135923000Y-98527000D01*
X135903000Y-98527000D01*
X135903000Y-98273000D01*
X135923000Y-98273000D01*
X135923000Y-97548750D01*
X136177000Y-97548750D01*
X136177000Y-98273000D01*
X136926250Y-98273000D01*
X137085000Y-98114250D01*
X137085000Y-97898690D01*
X136988327Y-97665301D01*
X136809698Y-97486673D01*
X136576309Y-97390000D01*
X136335750Y-97390000D01*
X136177000Y-97548750D01*
X135923000Y-97548750D01*
X135764250Y-97390000D01*
X135523691Y-97390000D01*
X135290302Y-97486673D01*
X135288932Y-97488043D01*
X135201890Y-97428569D01*
X134950000Y-97377560D01*
X134150000Y-97377560D01*
X133914683Y-97421838D01*
X133776121Y-97511000D01*
X133633513Y-97511000D01*
X133630327Y-97507808D01*
X133286799Y-97365162D01*
X132914833Y-97364838D01*
X132571057Y-97506883D01*
X132307808Y-97769673D01*
X132165162Y-98113201D01*
X132164838Y-98485167D01*
X132306883Y-98828943D01*
X132569673Y-99092192D01*
X132825527Y-99198432D01*
X132859794Y-99221329D01*
X132899861Y-99229299D01*
X132913201Y-99234838D01*
X132927772Y-99234851D01*
X133200000Y-99289000D01*
X133749161Y-99289000D01*
X133637270Y-99361000D01*
X133150000Y-99361000D01*
X133129764Y-99365025D01*
X132914833Y-99364838D01*
X132571057Y-99506883D01*
X132307808Y-99769673D01*
X132165162Y-100113201D01*
X132164838Y-100485167D01*
X132306883Y-100828943D01*
X132569673Y-101092192D01*
X132913201Y-101234838D01*
X133285167Y-101235162D01*
X133517897Y-101139000D01*
X133640879Y-101139000D01*
X133725750Y-101196990D01*
X133690302Y-101211673D01*
X133511673Y-101390301D01*
X133415000Y-101623690D01*
X133415000Y-101864250D01*
X133573750Y-102023000D01*
X134373000Y-102023000D01*
X134373000Y-102003000D01*
X134627000Y-102003000D01*
X134627000Y-102023000D01*
X135426250Y-102023000D01*
X135512262Y-101936988D01*
X135585910Y-102051441D01*
X135611000Y-102068584D01*
X135611000Y-103006382D01*
X135448559Y-103110910D01*
X135400866Y-103180711D01*
X135364090Y-103123559D01*
X135310846Y-103087179D01*
X135488327Y-102909699D01*
X135585000Y-102676310D01*
X135585000Y-102435750D01*
X135426250Y-102277000D01*
X134627000Y-102277000D01*
X134627000Y-102297000D01*
X134373000Y-102297000D01*
X134373000Y-102277000D01*
X133573750Y-102277000D01*
X133415000Y-102435750D01*
X133415000Y-102676310D01*
X133511673Y-102909699D01*
X133609392Y-103007417D01*
X133448559Y-103110910D01*
X133311843Y-103311000D01*
X132347189Y-103311000D01*
X132236799Y-103265162D01*
X131864833Y-103264838D01*
X131521057Y-103406883D01*
X131257808Y-103669673D01*
X131115162Y-104013201D01*
X131114838Y-104385167D01*
X131256883Y-104728943D01*
X131519673Y-104992192D01*
X131863201Y-105134838D01*
X132235167Y-105135162D01*
X132346888Y-105089000D01*
X133315295Y-105089000D01*
X133435910Y-105276441D01*
X133632844Y-105411000D01*
X133197189Y-105411000D01*
X133086799Y-105365162D01*
X132714833Y-105364838D01*
X132371057Y-105506883D01*
X132107808Y-105769673D01*
X131965162Y-106113201D01*
X131964838Y-106485167D01*
X132106883Y-106828943D01*
X132369673Y-107092192D01*
X132713201Y-107234838D01*
X133085167Y-107235162D01*
X133196888Y-107189000D01*
X133777468Y-107189000D01*
X133898110Y-107271431D01*
X134150000Y-107322440D01*
X134950000Y-107322440D01*
X135161000Y-107282738D01*
X135161000Y-107550000D01*
X135228671Y-107890206D01*
X135362303Y-108090200D01*
X135421382Y-108178618D01*
X135771382Y-108528618D01*
X136059794Y-108721329D01*
X136400000Y-108789000D01*
X137370942Y-108789000D01*
X137389534Y-108833995D01*
X137853563Y-109298834D01*
X138460155Y-109550713D01*
X139116963Y-109551286D01*
X139723995Y-109300466D01*
X140060179Y-108964868D01*
X140393563Y-109298834D01*
X141000155Y-109550713D01*
X141656963Y-109551286D01*
X142263995Y-109300466D01*
X142600179Y-108964868D01*
X142933563Y-109298834D01*
X143540155Y-109550713D01*
X144196963Y-109551286D01*
X144803995Y-109300466D01*
X145140179Y-108964868D01*
X145473563Y-109298834D01*
X146080155Y-109550713D01*
X146736963Y-109551286D01*
X147343995Y-109300466D01*
X147808834Y-108836437D01*
X148060713Y-108229845D01*
X148061286Y-107573037D01*
X147810466Y-106966005D01*
X147346437Y-106501166D01*
X146890875Y-106312000D01*
X148185255Y-106312000D01*
X148177560Y-106350000D01*
X148177560Y-107150000D01*
X148221838Y-107385317D01*
X148295620Y-107499978D01*
X148228569Y-107598110D01*
X148177560Y-107850000D01*
X148177560Y-108650000D01*
X148221838Y-108885317D01*
X148360910Y-109101441D01*
X148573110Y-109246431D01*
X148825000Y-109297440D01*
X149575000Y-109297440D01*
X149810317Y-109253162D01*
X149987730Y-109139000D01*
X150208322Y-109139000D01*
X150250000Y-109147440D01*
X150541061Y-109147440D01*
X150750000Y-109189000D01*
X152002811Y-109189000D01*
X152113201Y-109234838D01*
X152485167Y-109235162D01*
X152828943Y-109093117D01*
X153092192Y-108830327D01*
X153234838Y-108486799D01*
X153235162Y-108114833D01*
X153093117Y-107771057D01*
X153069250Y-107747148D01*
X153119562Y-107747192D01*
X154003191Y-108630821D01*
X154002758Y-109126661D01*
X154214990Y-109640303D01*
X154607630Y-110033629D01*
X155120900Y-110246757D01*
X155676661Y-110247242D01*
X156190303Y-110035010D01*
X156583629Y-109642370D01*
X156796757Y-109129100D01*
X156797242Y-108573339D01*
X156585010Y-108059697D01*
X156192370Y-107666371D01*
X155679100Y-107453243D01*
X155123339Y-107452758D01*
X155022184Y-107494554D01*
X154857843Y-107330213D01*
X157099392Y-107330213D01*
X157168857Y-107572397D01*
X157692302Y-107759144D01*
X158247368Y-107731362D01*
X158631143Y-107572397D01*
X158700608Y-107330213D01*
X157900000Y-106529605D01*
X157099392Y-107330213D01*
X154857843Y-107330213D01*
X154255673Y-106728043D01*
X154296757Y-106629100D01*
X154297181Y-106142302D01*
X156490856Y-106142302D01*
X156518638Y-106697368D01*
X156677603Y-107081143D01*
X156919787Y-107150608D01*
X157720395Y-106350000D01*
X158079605Y-106350000D01*
X158880213Y-107150608D01*
X159122397Y-107081143D01*
X159309144Y-106557698D01*
X159281362Y-106002632D01*
X159122397Y-105618857D01*
X158880213Y-105549392D01*
X158079605Y-106350000D01*
X157720395Y-106350000D01*
X156919787Y-105549392D01*
X156677603Y-105618857D01*
X156490856Y-106142302D01*
X154297181Y-106142302D01*
X154297242Y-106073339D01*
X154085010Y-105559697D01*
X153895432Y-105369787D01*
X157099392Y-105369787D01*
X157900000Y-106170395D01*
X158700608Y-105369787D01*
X158631143Y-105127603D01*
X158107698Y-104940856D01*
X157552632Y-104968638D01*
X157168857Y-105127603D01*
X157099392Y-105369787D01*
X153895432Y-105369787D01*
X153692370Y-105166371D01*
X153179100Y-104953243D01*
X153030744Y-104953114D01*
X151588815Y-103511185D01*
X151481474Y-103439462D01*
X151341605Y-103346004D01*
X151050000Y-103288000D01*
X150025459Y-103288000D01*
X149901890Y-103203569D01*
X149650000Y-103152560D01*
X148750000Y-103152560D01*
X148514683Y-103196838D01*
X148298559Y-103335910D01*
X148153569Y-103548110D01*
X148102560Y-103800000D01*
X148102560Y-104300000D01*
X148146838Y-104535317D01*
X148285910Y-104751441D01*
X148339416Y-104788000D01*
X146299308Y-104788000D01*
X146528943Y-104693117D01*
X146792192Y-104430327D01*
X146934838Y-104086799D01*
X146935162Y-103714833D01*
X146793117Y-103371057D01*
X146530327Y-103107808D01*
X146186799Y-102965162D01*
X145814833Y-102964838D01*
X145703112Y-103011000D01*
X145630989Y-103011000D01*
X145608162Y-102889683D01*
X145469090Y-102673559D01*
X145256890Y-102528569D01*
X145005000Y-102477560D01*
X144405000Y-102477560D01*
X144169683Y-102521838D01*
X144070472Y-102585678D01*
X143986890Y-102528569D01*
X143735000Y-102477560D01*
X143135000Y-102477560D01*
X143093943Y-102485285D01*
X143134838Y-102386799D01*
X143135162Y-102014833D01*
X142993117Y-101671057D01*
X142730327Y-101407808D01*
X142386799Y-101265162D01*
X142014833Y-101264838D01*
X141671057Y-101406883D01*
X141407808Y-101669673D01*
X141265162Y-102013201D01*
X141264838Y-102385167D01*
X141312877Y-102501431D01*
X141195000Y-102477560D01*
X140662000Y-102477560D01*
X140662000Y-102115630D01*
X142703816Y-100073815D01*
X142813411Y-99909794D01*
X142852856Y-99850760D01*
X142883110Y-99871431D01*
X143135000Y-99922440D01*
X143735000Y-99922440D01*
X143970317Y-99878162D01*
X144069528Y-99814322D01*
X144088172Y-99827061D01*
X144151903Y-99922440D01*
X144166185Y-99943815D01*
X144511185Y-100288816D01*
X144655610Y-100385317D01*
X144758395Y-100453996D01*
X145050000Y-100512000D01*
X148187405Y-100512000D01*
X148128569Y-100598110D01*
X148077560Y-100850000D01*
X148077560Y-101650000D01*
X148121838Y-101885317D01*
X148260910Y-102101441D01*
X148473110Y-102246431D01*
X148725000Y-102297440D01*
X149475000Y-102297440D01*
X149710317Y-102253162D01*
X149887730Y-102139000D01*
X150208322Y-102139000D01*
X150250000Y-102147440D01*
X151150000Y-102147440D01*
X151194855Y-102139000D01*
X152150000Y-102139000D01*
X152170236Y-102134975D01*
X152385167Y-102135162D01*
X152728943Y-101993117D01*
X152992192Y-101730327D01*
X153134838Y-101386799D01*
X153135162Y-101014833D01*
X152993117Y-100671057D01*
X152730327Y-100407808D01*
X152386799Y-100265162D01*
X152014833Y-100264838D01*
X151782103Y-100361000D01*
X151671879Y-100361000D01*
X151746431Y-100251890D01*
X151797440Y-100000000D01*
X151797440Y-99500000D01*
X151753162Y-99264683D01*
X151614090Y-99048559D01*
X151401890Y-98903569D01*
X151150000Y-98852560D01*
X150250000Y-98852560D01*
X150163240Y-98868885D01*
X150197440Y-98700000D01*
X150197440Y-98200000D01*
X150153162Y-97964683D01*
X150014090Y-97748559D01*
X149960584Y-97712000D01*
X151134370Y-97712000D01*
X151503147Y-98080778D01*
X151502758Y-98526661D01*
X151714990Y-99040303D01*
X152107630Y-99433629D01*
X152620900Y-99646757D01*
X153176661Y-99647242D01*
X153207054Y-99634684D01*
X154014987Y-100442617D01*
X154003243Y-100470900D01*
X154002758Y-101026661D01*
X154214990Y-101540303D01*
X154607630Y-101933629D01*
X155120900Y-102146757D01*
X155676661Y-102147242D01*
X156190303Y-101935010D01*
X156583629Y-101542370D01*
X156796757Y-101029100D01*
X156797242Y-100473339D01*
X156585010Y-99959697D01*
X156192370Y-99566371D01*
X155679100Y-99353243D01*
X155123339Y-99352758D01*
X155092946Y-99365316D01*
X154957843Y-99230213D01*
X157099392Y-99230213D01*
X157168857Y-99472397D01*
X157692302Y-99659144D01*
X158247368Y-99631362D01*
X158631143Y-99472397D01*
X158700608Y-99230213D01*
X157900000Y-98429605D01*
X157099392Y-99230213D01*
X154957843Y-99230213D01*
X154285013Y-98557383D01*
X154296757Y-98529100D01*
X154297181Y-98042302D01*
X156490856Y-98042302D01*
X156518638Y-98597368D01*
X156677603Y-98981143D01*
X156919787Y-99050608D01*
X157720395Y-98250000D01*
X158079605Y-98250000D01*
X158880213Y-99050608D01*
X159122397Y-98981143D01*
X159309144Y-98457698D01*
X159284243Y-97960180D01*
X162923220Y-97960180D01*
X162923220Y-99532440D01*
X162932820Y-99580878D01*
X163532260Y-101033758D01*
X163559755Y-101075020D01*
X164669735Y-102187540D01*
X164711027Y-102215168D01*
X166163907Y-102817148D01*
X166212520Y-102826820D01*
X167784780Y-102826820D01*
X167833290Y-102817190D01*
X169283630Y-102217750D01*
X169324820Y-102190285D01*
X170437340Y-101080305D01*
X170464938Y-101039086D01*
X171066918Y-99588746D01*
X171076620Y-99540060D01*
X171076620Y-97967800D01*
X171067020Y-97919362D01*
X170467580Y-96466482D01*
X170440085Y-96425220D01*
X169330105Y-95312700D01*
X169288886Y-95285102D01*
X167838546Y-94683122D01*
X167789860Y-94673420D01*
X166217600Y-94673420D01*
X166169162Y-94683020D01*
X164716282Y-95282460D01*
X164675020Y-95309955D01*
X163562500Y-96419935D01*
X163534902Y-96461154D01*
X162932922Y-97911494D01*
X162923220Y-97960180D01*
X159284243Y-97960180D01*
X159281362Y-97902632D01*
X159122397Y-97518857D01*
X158880213Y-97449392D01*
X158079605Y-98250000D01*
X157720395Y-98250000D01*
X156919787Y-97449392D01*
X156677603Y-97518857D01*
X156490856Y-98042302D01*
X154297181Y-98042302D01*
X154297242Y-97973339D01*
X154085010Y-97459697D01*
X153895432Y-97269787D01*
X157099392Y-97269787D01*
X157900000Y-98070395D01*
X158700608Y-97269787D01*
X158631143Y-97027603D01*
X158107698Y-96840856D01*
X157552632Y-96868638D01*
X157168857Y-97027603D01*
X157099392Y-97269787D01*
X153895432Y-97269787D01*
X153692370Y-97066371D01*
X153179100Y-96853243D01*
X152623339Y-96852758D01*
X152486804Y-96909173D01*
X151988815Y-96411185D01*
X151957662Y-96390369D01*
X151741605Y-96246004D01*
X151450000Y-96188000D01*
X149925459Y-96188000D01*
X149801890Y-96103569D01*
X149550000Y-96052560D01*
X148650000Y-96052560D01*
X148414683Y-96096838D01*
X148198559Y-96235910D01*
X148053569Y-96448110D01*
X148002560Y-96700000D01*
X148002560Y-97200000D01*
X148046838Y-97435317D01*
X148185910Y-97651441D01*
X148255711Y-97699134D01*
X148198559Y-97735910D01*
X148053569Y-97948110D01*
X148002560Y-98200000D01*
X148002560Y-98700000D01*
X148046838Y-98935317D01*
X148080739Y-98988000D01*
X145652440Y-98988000D01*
X145652440Y-97725000D01*
X145608162Y-97489683D01*
X145469090Y-97273559D01*
X145256890Y-97128569D01*
X145005000Y-97077560D01*
X144405000Y-97077560D01*
X144197000Y-97116698D01*
X144197000Y-96980630D01*
X146515631Y-94662000D01*
X171984370Y-94662000D01*
X172220556Y-94898186D01*
X172309646Y-95113800D01*
X172501838Y-95306328D01*
X172406759Y-95367510D01*
X172261769Y-95579710D01*
X172210760Y-95831600D01*
X172210760Y-97031600D01*
X172255038Y-97266917D01*
X172394110Y-97483041D01*
X172606310Y-97628031D01*
X172661662Y-97639240D01*
X172571969Y-97770510D01*
X172520960Y-98022400D01*
X172520960Y-98522400D01*
X172565238Y-98757717D01*
X172704310Y-98973841D01*
X172774111Y-99021534D01*
X172716959Y-99058310D01*
X172571969Y-99270510D01*
X172520960Y-99522400D01*
X172520960Y-100022400D01*
X172565238Y-100257717D01*
X172704310Y-100473841D01*
X172856400Y-100577760D01*
X172856400Y-100621166D01*
X172807808Y-100669673D01*
X172665162Y-101013201D01*
X172664838Y-101385167D01*
X172806883Y-101728943D01*
X173069673Y-101992192D01*
X173413201Y-102134838D01*
X173785167Y-102135162D01*
X174128943Y-101993117D01*
X174392192Y-101730327D01*
X174534838Y-101386799D01*
X174535162Y-101014833D01*
X174393117Y-100671057D01*
X174380400Y-100658318D01*
X174380400Y-100576218D01*
X174519841Y-100486490D01*
X174635964Y-100316538D01*
X174672238Y-100509317D01*
X174761400Y-100647879D01*
X174761400Y-100899174D01*
X174706162Y-101032201D01*
X174705838Y-101404167D01*
X174847883Y-101747943D01*
X175110673Y-102011192D01*
X175454201Y-102153838D01*
X175826167Y-102154162D01*
X176169943Y-102012117D01*
X176433192Y-101749327D01*
X176575838Y-101405799D01*
X176576162Y-101033833D01*
X176539400Y-100944862D01*
X176539400Y-100646532D01*
X176621831Y-100525890D01*
X176672840Y-100274000D01*
X176672840Y-99474000D01*
X176628562Y-99238683D01*
X176562071Y-99135354D01*
X176563727Y-99133698D01*
X176660400Y-98900309D01*
X176660400Y-98659750D01*
X176501650Y-98501000D01*
X175777400Y-98501000D01*
X175777400Y-98521000D01*
X175523400Y-98521000D01*
X175523400Y-98501000D01*
X175503400Y-98501000D01*
X175503400Y-98247000D01*
X175523400Y-98247000D01*
X175523400Y-97515650D01*
X175531200Y-97507850D01*
X175531200Y-97497750D01*
X175777400Y-97497750D01*
X175777400Y-98247000D01*
X176501650Y-98247000D01*
X176660400Y-98088250D01*
X176660400Y-97847691D01*
X176563727Y-97614302D01*
X176548216Y-97598790D01*
X176617898Y-97569927D01*
X176796527Y-97391299D01*
X176893200Y-97157910D01*
X176893200Y-96717350D01*
X176734450Y-96558600D01*
X175785200Y-96558600D01*
X175785200Y-97489950D01*
X175777400Y-97497750D01*
X175531200Y-97497750D01*
X175531200Y-96558600D01*
X175511200Y-96558600D01*
X175511200Y-96304600D01*
X175531200Y-96304600D01*
X175531200Y-96284600D01*
X175785200Y-96284600D01*
X175785200Y-96304600D01*
X176734450Y-96304600D01*
X176893200Y-96145850D01*
X176893200Y-95705290D01*
X176796527Y-95471901D01*
X176617898Y-95293273D01*
X176561183Y-95269781D01*
X176640286Y-95190678D01*
X176523748Y-95074140D01*
X176733712Y-95043197D01*
X176868226Y-94633052D01*
X176835546Y-94202651D01*
X176733712Y-93956803D01*
X176523748Y-93925860D01*
X176640286Y-93809322D01*
X176568499Y-93737535D01*
X176796996Y-93782986D01*
X177048780Y-93951223D01*
X177217014Y-94203003D01*
X177290000Y-94569927D01*
X177290000Y-102680073D01*
X177217014Y-103046997D01*
X177048780Y-103298777D01*
X176796996Y-103467014D01*
X176430073Y-103540000D01*
X162150000Y-103540000D01*
X162081413Y-103553643D01*
X162011486Y-103553643D01*
X161437460Y-103667824D01*
X161362498Y-103698875D01*
X161181520Y-103773837D01*
X160694885Y-104098997D01*
X160498997Y-104294885D01*
X160173838Y-104781520D01*
X160067824Y-105037460D01*
X159953643Y-105611485D01*
X159953643Y-105681413D01*
X159940000Y-105750000D01*
X159940000Y-109430073D01*
X159867014Y-109796997D01*
X159698780Y-110048777D01*
X159446996Y-110217014D01*
X159080073Y-110290000D01*
X123569927Y-110290000D01*
X123203003Y-110217014D01*
X122951223Y-110048780D01*
X122782986Y-109796996D01*
X122710000Y-109430073D01*
X122710000Y-108994382D01*
X122884595Y-109169282D01*
X123283233Y-109334811D01*
X123714873Y-109335188D01*
X124113800Y-109170354D01*
X124419282Y-108865405D01*
X124502560Y-108664849D01*
X124502560Y-108700000D01*
X124546838Y-108935317D01*
X124685910Y-109151441D01*
X124898110Y-109296431D01*
X125150000Y-109347440D01*
X126350000Y-109347440D01*
X126585317Y-109303162D01*
X126801441Y-109164090D01*
X126946431Y-108951890D01*
X126963642Y-108866901D01*
X127043910Y-108991641D01*
X127256110Y-109136631D01*
X127508000Y-109187640D01*
X128008000Y-109187640D01*
X128243317Y-109143362D01*
X128459441Y-109004290D01*
X128507134Y-108934489D01*
X128543910Y-108991641D01*
X128756110Y-109136631D01*
X129008000Y-109187640D01*
X129508000Y-109187640D01*
X129743317Y-109143362D01*
X129959441Y-109004290D01*
X130049703Y-108872187D01*
X130069673Y-108892192D01*
X130413201Y-109034838D01*
X130785167Y-109035162D01*
X131128943Y-108893117D01*
X131392192Y-108630327D01*
X131534838Y-108286799D01*
X131535162Y-107914833D01*
X131393117Y-107571057D01*
X131130327Y-107307808D01*
X130786799Y-107165162D01*
X130414833Y-107164838D01*
X130071057Y-107306883D01*
X130057079Y-107320836D01*
X129972090Y-107188759D01*
X129759890Y-107043769D01*
X129508000Y-106992760D01*
X129008000Y-106992760D01*
X128772683Y-107037038D01*
X128556559Y-107176110D01*
X128508866Y-107245911D01*
X128472090Y-107188759D01*
X128259890Y-107043769D01*
X128008000Y-106992760D01*
X127508000Y-106992760D01*
X127272683Y-107037038D01*
X127056559Y-107176110D01*
X126962420Y-107313887D01*
X126953162Y-107264683D01*
X126814090Y-107048559D01*
X126745994Y-107002031D01*
X126888327Y-106859698D01*
X126951225Y-106707850D01*
X127062502Y-106819127D01*
X127295891Y-106915800D01*
X127536450Y-106915800D01*
X127695200Y-106757050D01*
X127695200Y-106032800D01*
X126945950Y-106032800D01*
X126889000Y-106089750D01*
X126826250Y-106027000D01*
X125877000Y-106027000D01*
X125877000Y-106047000D01*
X125623000Y-106047000D01*
X125623000Y-106027000D01*
X125603000Y-106027000D01*
X125603000Y-105773000D01*
X125623000Y-105773000D01*
X125623000Y-104823750D01*
X125877000Y-104823750D01*
X125877000Y-105773000D01*
X126826250Y-105773000D01*
X126883200Y-105716050D01*
X126945950Y-105778800D01*
X127695200Y-105778800D01*
X127695200Y-105054550D01*
X127949200Y-105054550D01*
X127949200Y-105778800D01*
X127969200Y-105778800D01*
X127969200Y-106032800D01*
X127949200Y-106032800D01*
X127949200Y-106757050D01*
X128107950Y-106915800D01*
X128348509Y-106915800D01*
X128581898Y-106819127D01*
X128583268Y-106817757D01*
X128670310Y-106877231D01*
X128922200Y-106928240D01*
X129722200Y-106928240D01*
X129957517Y-106883962D01*
X130096079Y-106794800D01*
X130198045Y-106794800D01*
X130275201Y-106826838D01*
X130647167Y-106827162D01*
X130990943Y-106685117D01*
X131254192Y-106422327D01*
X131396838Y-106078799D01*
X131397162Y-105706833D01*
X131255117Y-105363057D01*
X130992327Y-105099808D01*
X130648799Y-104957162D01*
X130276833Y-104956838D01*
X130131714Y-105016800D01*
X130094732Y-105016800D01*
X129974090Y-104934369D01*
X129722200Y-104883360D01*
X128922200Y-104883360D01*
X128686883Y-104927638D01*
X128583554Y-104994129D01*
X128581898Y-104992473D01*
X128348509Y-104895800D01*
X128107950Y-104895800D01*
X127949200Y-105054550D01*
X127695200Y-105054550D01*
X127536450Y-104895800D01*
X127295891Y-104895800D01*
X127062502Y-104992473D01*
X126954622Y-105100352D01*
X126888327Y-104940302D01*
X126709699Y-104761673D01*
X126476310Y-104665000D01*
X126035750Y-104665000D01*
X125877000Y-104823750D01*
X125623000Y-104823750D01*
X125464250Y-104665000D01*
X125023690Y-104665000D01*
X124790301Y-104761673D01*
X124611673Y-104940302D01*
X124515000Y-105173691D01*
X124515000Y-105290623D01*
X124463712Y-105166803D01*
X124253745Y-105135860D01*
X123679605Y-105710000D01*
X123693748Y-105724143D01*
X123522871Y-105895019D01*
X123505399Y-105895004D01*
X123500000Y-105889605D01*
X123494610Y-105894995D01*
X123477090Y-105894980D01*
X123306253Y-105724143D01*
X123320395Y-105710000D01*
X122746255Y-105135860D01*
X122710000Y-105141203D01*
X122710000Y-104956255D01*
X122925860Y-104956255D01*
X123500000Y-105530395D01*
X124074140Y-104956255D01*
X124043197Y-104746288D01*
X123633052Y-104611774D01*
X123202651Y-104644454D01*
X122956803Y-104746288D01*
X122925860Y-104956255D01*
X122710000Y-104956255D01*
X122710000Y-97960180D01*
X123673220Y-97960180D01*
X123673220Y-99532440D01*
X123682820Y-99580878D01*
X124282260Y-101033758D01*
X124309755Y-101075020D01*
X125419735Y-102187540D01*
X125461027Y-102215168D01*
X126913907Y-102817148D01*
X126962520Y-102826820D01*
X128534780Y-102826820D01*
X128583290Y-102817190D01*
X130033630Y-102217750D01*
X130074820Y-102190285D01*
X131187340Y-101080305D01*
X131214938Y-101039086D01*
X131816918Y-99588746D01*
X131826620Y-99540060D01*
X131826620Y-97967800D01*
X131817020Y-97919362D01*
X131217580Y-96466482D01*
X131190085Y-96425220D01*
X130080105Y-95312700D01*
X130038886Y-95285102D01*
X128588546Y-94683122D01*
X128539860Y-94673420D01*
X126967600Y-94673420D01*
X126919162Y-94683020D01*
X125466282Y-95282460D01*
X125425020Y-95309955D01*
X124312500Y-96419935D01*
X124284902Y-96461154D01*
X123682922Y-97911494D01*
X123673220Y-97960180D01*
X122710000Y-97960180D01*
X122710000Y-94569927D01*
X122782986Y-94203004D01*
X122951223Y-93951220D01*
X123203003Y-93782986D01*
X123569927Y-93710000D01*
X145312369Y-93710000D01*
X143097847Y-95924523D01*
X143097847Y-95924523D01*
G37*
X143097847Y-95924523D02*
X142993117Y-95671057D01*
X142730327Y-95407808D01*
X142386799Y-95265162D01*
X142014833Y-95264838D01*
X141671057Y-95406883D01*
X141407808Y-95669673D01*
X141265162Y-96013201D01*
X141264838Y-96385167D01*
X141403000Y-96719545D01*
X141403000Y-97123837D01*
X141321310Y-97090000D01*
X141180750Y-97090000D01*
X141022000Y-97248750D01*
X141022000Y-98373000D01*
X141042000Y-98373000D01*
X141042000Y-98627000D01*
X141022000Y-98627000D01*
X141022000Y-98647000D01*
X140768000Y-98647000D01*
X140768000Y-98627000D01*
X140748000Y-98627000D01*
X140748000Y-98373000D01*
X140768000Y-98373000D01*
X140768000Y-97248750D01*
X140609250Y-97090000D01*
X140468690Y-97090000D01*
X140235301Y-97186673D01*
X140056673Y-97365302D01*
X140027444Y-97435866D01*
X139989000Y-97376121D01*
X139989000Y-96997189D01*
X140034838Y-96886799D01*
X140035162Y-96514833D01*
X139893117Y-96171057D01*
X139630327Y-95907808D01*
X139286799Y-95765162D01*
X138914833Y-95764838D01*
X138571057Y-95906883D01*
X138307808Y-96169673D01*
X138165162Y-96513201D01*
X138164838Y-96885167D01*
X138211000Y-96996888D01*
X138211000Y-97377468D01*
X138128569Y-97498110D01*
X138077560Y-97750000D01*
X138077560Y-98550000D01*
X138121838Y-98785317D01*
X138188329Y-98888646D01*
X138186673Y-98890302D01*
X138090000Y-99123691D01*
X138090000Y-99364250D01*
X138248750Y-99523000D01*
X138973000Y-99523000D01*
X138973000Y-99503000D01*
X139227000Y-99503000D01*
X139227000Y-99523000D01*
X139247000Y-99523000D01*
X139247000Y-99777000D01*
X139227000Y-99777000D01*
X139227000Y-100526250D01*
X139385750Y-100685000D01*
X139601310Y-100685000D01*
X139834699Y-100588327D01*
X140013327Y-100409698D01*
X140110000Y-100176309D01*
X140110000Y-99935750D01*
X139951252Y-99777002D01*
X140110000Y-99777002D01*
X140110000Y-99688025D01*
X140235301Y-99813327D01*
X140468690Y-99910000D01*
X140609250Y-99910000D01*
X140767998Y-99751252D01*
X140767998Y-99854371D01*
X139361185Y-101261185D01*
X139196004Y-101508395D01*
X139138000Y-101800000D01*
X139138000Y-106256826D01*
X139119845Y-106249287D01*
X138463037Y-106248714D01*
X137856005Y-106499534D01*
X137391166Y-106963563D01*
X137371468Y-107011000D01*
X136988961Y-107011000D01*
X137046431Y-106926890D01*
X137097440Y-106675000D01*
X137097440Y-106475619D01*
X137221329Y-106290206D01*
X137289000Y-105950000D01*
X137289000Y-105329270D01*
X137351441Y-105289090D01*
X137496431Y-105076890D01*
X137547440Y-104825000D01*
X137547440Y-103575000D01*
X137503162Y-103339683D01*
X137389000Y-103162270D01*
X137389000Y-102072096D01*
X137401441Y-102064090D01*
X137546431Y-101851890D01*
X137597440Y-101600000D01*
X137597440Y-100800000D01*
X137553162Y-100564683D01*
X137414090Y-100348559D01*
X137201890Y-100203569D01*
X136950000Y-100152560D01*
X136050000Y-100152560D01*
X135814683Y-100196838D01*
X135598559Y-100335910D01*
X135597440Y-100337548D01*
X135597440Y-99935750D01*
X138090000Y-99935750D01*
X138090000Y-100176309D01*
X138186673Y-100409698D01*
X138365301Y-100588327D01*
X138598690Y-100685000D01*
X138814250Y-100685000D01*
X138973000Y-100526250D01*
X138973000Y-99777000D01*
X138248750Y-99777000D01*
X138090000Y-99935750D01*
X135597440Y-99935750D01*
X135597440Y-99850000D01*
X135553162Y-99614683D01*
X135414090Y-99398559D01*
X135287760Y-99312242D01*
X135288646Y-99311671D01*
X135290302Y-99313327D01*
X135523691Y-99410000D01*
X135764250Y-99410000D01*
X135923000Y-99251250D01*
X135923000Y-98527000D01*
X136177000Y-98527000D01*
X136177000Y-99251250D01*
X136335750Y-99410000D01*
X136576309Y-99410000D01*
X136809698Y-99313327D01*
X136988327Y-99134699D01*
X137085000Y-98901310D01*
X137085000Y-98685750D01*
X136926250Y-98527000D01*
X136177000Y-98527000D01*
X135923000Y-98527000D01*
X135903000Y-98527000D01*
X135903000Y-98273000D01*
X135923000Y-98273000D01*
X135923000Y-97548750D01*
X136177000Y-97548750D01*
X136177000Y-98273000D01*
X136926250Y-98273000D01*
X137085000Y-98114250D01*
X137085000Y-97898690D01*
X136988327Y-97665301D01*
X136809698Y-97486673D01*
X136576309Y-97390000D01*
X136335750Y-97390000D01*
X136177000Y-97548750D01*
X135923000Y-97548750D01*
X135764250Y-97390000D01*
X135523691Y-97390000D01*
X135290302Y-97486673D01*
X135288932Y-97488043D01*
X135201890Y-97428569D01*
X134950000Y-97377560D01*
X134150000Y-97377560D01*
X133914683Y-97421838D01*
X133776121Y-97511000D01*
X133633513Y-97511000D01*
X133630327Y-97507808D01*
X133286799Y-97365162D01*
X132914833Y-97364838D01*
X132571057Y-97506883D01*
X132307808Y-97769673D01*
X132165162Y-98113201D01*
X132164838Y-98485167D01*
X132306883Y-98828943D01*
X132569673Y-99092192D01*
X132825527Y-99198432D01*
X132859794Y-99221329D01*
X132899861Y-99229299D01*
X132913201Y-99234838D01*
X132927772Y-99234851D01*
X133200000Y-99289000D01*
X133749161Y-99289000D01*
X133637270Y-99361000D01*
X133150000Y-99361000D01*
X133129764Y-99365025D01*
X132914833Y-99364838D01*
X132571057Y-99506883D01*
X132307808Y-99769673D01*
X132165162Y-100113201D01*
X132164838Y-100485167D01*
X132306883Y-100828943D01*
X132569673Y-101092192D01*
X132913201Y-101234838D01*
X133285167Y-101235162D01*
X133517897Y-101139000D01*
X133640879Y-101139000D01*
X133725750Y-101196990D01*
X133690302Y-101211673D01*
X133511673Y-101390301D01*
X133415000Y-101623690D01*
X133415000Y-101864250D01*
X133573750Y-102023000D01*
X134373000Y-102023000D01*
X134373000Y-102003000D01*
X134627000Y-102003000D01*
X134627000Y-102023000D01*
X135426250Y-102023000D01*
X135512262Y-101936988D01*
X135585910Y-102051441D01*
X135611000Y-102068584D01*
X135611000Y-103006382D01*
X135448559Y-103110910D01*
X135400866Y-103180711D01*
X135364090Y-103123559D01*
X135310846Y-103087179D01*
X135488327Y-102909699D01*
X135585000Y-102676310D01*
X135585000Y-102435750D01*
X135426250Y-102277000D01*
X134627000Y-102277000D01*
X134627000Y-102297000D01*
X134373000Y-102297000D01*
X134373000Y-102277000D01*
X133573750Y-102277000D01*
X133415000Y-102435750D01*
X133415000Y-102676310D01*
X133511673Y-102909699D01*
X133609392Y-103007417D01*
X133448559Y-103110910D01*
X133311843Y-103311000D01*
X132347189Y-103311000D01*
X132236799Y-103265162D01*
X131864833Y-103264838D01*
X131521057Y-103406883D01*
X131257808Y-103669673D01*
X131115162Y-104013201D01*
X131114838Y-104385167D01*
X131256883Y-104728943D01*
X131519673Y-104992192D01*
X131863201Y-105134838D01*
X132235167Y-105135162D01*
X132346888Y-105089000D01*
X133315295Y-105089000D01*
X133435910Y-105276441D01*
X133632844Y-105411000D01*
X133197189Y-105411000D01*
X133086799Y-105365162D01*
X132714833Y-105364838D01*
X132371057Y-105506883D01*
X132107808Y-105769673D01*
X131965162Y-106113201D01*
X131964838Y-106485167D01*
X132106883Y-106828943D01*
X132369673Y-107092192D01*
X132713201Y-107234838D01*
X133085167Y-107235162D01*
X133196888Y-107189000D01*
X133777468Y-107189000D01*
X133898110Y-107271431D01*
X134150000Y-107322440D01*
X134950000Y-107322440D01*
X135161000Y-107282738D01*
X135161000Y-107550000D01*
X135228671Y-107890206D01*
X135362303Y-108090200D01*
X135421382Y-108178618D01*
X135771382Y-108528618D01*
X136059794Y-108721329D01*
X136400000Y-108789000D01*
X137370942Y-108789000D01*
X137389534Y-108833995D01*
X137853563Y-109298834D01*
X138460155Y-109550713D01*
X139116963Y-109551286D01*
X139723995Y-109300466D01*
X140060179Y-108964868D01*
X140393563Y-109298834D01*
X141000155Y-109550713D01*
X141656963Y-109551286D01*
X142263995Y-109300466D01*
X142600179Y-108964868D01*
X142933563Y-109298834D01*
X143540155Y-109550713D01*
X144196963Y-109551286D01*
X144803995Y-109300466D01*
X145140179Y-108964868D01*
X145473563Y-109298834D01*
X146080155Y-109550713D01*
X146736963Y-109551286D01*
X147343995Y-109300466D01*
X147808834Y-108836437D01*
X148060713Y-108229845D01*
X148061286Y-107573037D01*
X147810466Y-106966005D01*
X147346437Y-106501166D01*
X146890875Y-106312000D01*
X148185255Y-106312000D01*
X148177560Y-106350000D01*
X148177560Y-107150000D01*
X148221838Y-107385317D01*
X148295620Y-107499978D01*
X148228569Y-107598110D01*
X148177560Y-107850000D01*
X148177560Y-108650000D01*
X148221838Y-108885317D01*
X148360910Y-109101441D01*
X148573110Y-109246431D01*
X148825000Y-109297440D01*
X149575000Y-109297440D01*
X149810317Y-109253162D01*
X149987730Y-109139000D01*
X150208322Y-109139000D01*
X150250000Y-109147440D01*
X150541061Y-109147440D01*
X150750000Y-109189000D01*
X152002811Y-109189000D01*
X152113201Y-109234838D01*
X152485167Y-109235162D01*
X152828943Y-109093117D01*
X153092192Y-108830327D01*
X153234838Y-108486799D01*
X153235162Y-108114833D01*
X153093117Y-107771057D01*
X153069250Y-107747148D01*
X153119562Y-107747192D01*
X154003191Y-108630821D01*
X154002758Y-109126661D01*
X154214990Y-109640303D01*
X154607630Y-110033629D01*
X155120900Y-110246757D01*
X155676661Y-110247242D01*
X156190303Y-110035010D01*
X156583629Y-109642370D01*
X156796757Y-109129100D01*
X156797242Y-108573339D01*
X156585010Y-108059697D01*
X156192370Y-107666371D01*
X155679100Y-107453243D01*
X155123339Y-107452758D01*
X155022184Y-107494554D01*
X154857843Y-107330213D01*
X157099392Y-107330213D01*
X157168857Y-107572397D01*
X157692302Y-107759144D01*
X158247368Y-107731362D01*
X158631143Y-107572397D01*
X158700608Y-107330213D01*
X157900000Y-106529605D01*
X157099392Y-107330213D01*
X154857843Y-107330213D01*
X154255673Y-106728043D01*
X154296757Y-106629100D01*
X154297181Y-106142302D01*
X156490856Y-106142302D01*
X156518638Y-106697368D01*
X156677603Y-107081143D01*
X156919787Y-107150608D01*
X157720395Y-106350000D01*
X158079605Y-106350000D01*
X158880213Y-107150608D01*
X159122397Y-107081143D01*
X159309144Y-106557698D01*
X159281362Y-106002632D01*
X159122397Y-105618857D01*
X158880213Y-105549392D01*
X158079605Y-106350000D01*
X157720395Y-106350000D01*
X156919787Y-105549392D01*
X156677603Y-105618857D01*
X156490856Y-106142302D01*
X154297181Y-106142302D01*
X154297242Y-106073339D01*
X154085010Y-105559697D01*
X153895432Y-105369787D01*
X157099392Y-105369787D01*
X157900000Y-106170395D01*
X158700608Y-105369787D01*
X158631143Y-105127603D01*
X158107698Y-104940856D01*
X157552632Y-104968638D01*
X157168857Y-105127603D01*
X157099392Y-105369787D01*
X153895432Y-105369787D01*
X153692370Y-105166371D01*
X153179100Y-104953243D01*
X153030744Y-104953114D01*
X151588815Y-103511185D01*
X151481474Y-103439462D01*
X151341605Y-103346004D01*
X151050000Y-103288000D01*
X150025459Y-103288000D01*
X149901890Y-103203569D01*
X149650000Y-103152560D01*
X148750000Y-103152560D01*
X148514683Y-103196838D01*
X148298559Y-103335910D01*
X148153569Y-103548110D01*
X148102560Y-103800000D01*
X148102560Y-104300000D01*
X148146838Y-104535317D01*
X148285910Y-104751441D01*
X148339416Y-104788000D01*
X146299308Y-104788000D01*
X146528943Y-104693117D01*
X146792192Y-104430327D01*
X146934838Y-104086799D01*
X146935162Y-103714833D01*
X146793117Y-103371057D01*
X146530327Y-103107808D01*
X146186799Y-102965162D01*
X145814833Y-102964838D01*
X145703112Y-103011000D01*
X145630989Y-103011000D01*
X145608162Y-102889683D01*
X145469090Y-102673559D01*
X145256890Y-102528569D01*
X145005000Y-102477560D01*
X144405000Y-102477560D01*
X144169683Y-102521838D01*
X144070472Y-102585678D01*
X143986890Y-102528569D01*
X143735000Y-102477560D01*
X143135000Y-102477560D01*
X143093943Y-102485285D01*
X143134838Y-102386799D01*
X143135162Y-102014833D01*
X142993117Y-101671057D01*
X142730327Y-101407808D01*
X142386799Y-101265162D01*
X142014833Y-101264838D01*
X141671057Y-101406883D01*
X141407808Y-101669673D01*
X141265162Y-102013201D01*
X141264838Y-102385167D01*
X141312877Y-102501431D01*
X141195000Y-102477560D01*
X140662000Y-102477560D01*
X140662000Y-102115630D01*
X142703816Y-100073815D01*
X142813411Y-99909794D01*
X142852856Y-99850760D01*
X142883110Y-99871431D01*
X143135000Y-99922440D01*
X143735000Y-99922440D01*
X143970317Y-99878162D01*
X144069528Y-99814322D01*
X144088172Y-99827061D01*
X144151903Y-99922440D01*
X144166185Y-99943815D01*
X144511185Y-100288816D01*
X144655610Y-100385317D01*
X144758395Y-100453996D01*
X145050000Y-100512000D01*
X148187405Y-100512000D01*
X148128569Y-100598110D01*
X148077560Y-100850000D01*
X148077560Y-101650000D01*
X148121838Y-101885317D01*
X148260910Y-102101441D01*
X148473110Y-102246431D01*
X148725000Y-102297440D01*
X149475000Y-102297440D01*
X149710317Y-102253162D01*
X149887730Y-102139000D01*
X150208322Y-102139000D01*
X150250000Y-102147440D01*
X151150000Y-102147440D01*
X151194855Y-102139000D01*
X152150000Y-102139000D01*
X152170236Y-102134975D01*
X152385167Y-102135162D01*
X152728943Y-101993117D01*
X152992192Y-101730327D01*
X153134838Y-101386799D01*
X153135162Y-101014833D01*
X152993117Y-100671057D01*
X152730327Y-100407808D01*
X152386799Y-100265162D01*
X152014833Y-100264838D01*
X151782103Y-100361000D01*
X151671879Y-100361000D01*
X151746431Y-100251890D01*
X151797440Y-100000000D01*
X151797440Y-99500000D01*
X151753162Y-99264683D01*
X151614090Y-99048559D01*
X151401890Y-98903569D01*
X151150000Y-98852560D01*
X150250000Y-98852560D01*
X150163240Y-98868885D01*
X150197440Y-98700000D01*
X150197440Y-98200000D01*
X150153162Y-97964683D01*
X150014090Y-97748559D01*
X149960584Y-97712000D01*
X151134370Y-97712000D01*
X151503147Y-98080778D01*
X151502758Y-98526661D01*
X151714990Y-99040303D01*
X152107630Y-99433629D01*
X152620900Y-99646757D01*
X153176661Y-99647242D01*
X153207054Y-99634684D01*
X154014987Y-100442617D01*
X154003243Y-100470900D01*
X154002758Y-101026661D01*
X154214990Y-101540303D01*
X154607630Y-101933629D01*
X155120900Y-102146757D01*
X155676661Y-102147242D01*
X156190303Y-101935010D01*
X156583629Y-101542370D01*
X156796757Y-101029100D01*
X156797242Y-100473339D01*
X156585010Y-99959697D01*
X156192370Y-99566371D01*
X155679100Y-99353243D01*
X155123339Y-99352758D01*
X155092946Y-99365316D01*
X154957843Y-99230213D01*
X157099392Y-99230213D01*
X157168857Y-99472397D01*
X157692302Y-99659144D01*
X158247368Y-99631362D01*
X158631143Y-99472397D01*
X158700608Y-99230213D01*
X157900000Y-98429605D01*
X157099392Y-99230213D01*
X154957843Y-99230213D01*
X154285013Y-98557383D01*
X154296757Y-98529100D01*
X154297181Y-98042302D01*
X156490856Y-98042302D01*
X156518638Y-98597368D01*
X156677603Y-98981143D01*
X156919787Y-99050608D01*
X157720395Y-98250000D01*
X158079605Y-98250000D01*
X158880213Y-99050608D01*
X159122397Y-98981143D01*
X159309144Y-98457698D01*
X159284243Y-97960180D01*
X162923220Y-97960180D01*
X162923220Y-99532440D01*
X162932820Y-99580878D01*
X163532260Y-101033758D01*
X163559755Y-101075020D01*
X164669735Y-102187540D01*
X164711027Y-102215168D01*
X166163907Y-102817148D01*
X166212520Y-102826820D01*
X167784780Y-102826820D01*
X167833290Y-102817190D01*
X169283630Y-102217750D01*
X169324820Y-102190285D01*
X170437340Y-101080305D01*
X170464938Y-101039086D01*
X171066918Y-99588746D01*
X171076620Y-99540060D01*
X171076620Y-97967800D01*
X171067020Y-97919362D01*
X170467580Y-96466482D01*
X170440085Y-96425220D01*
X169330105Y-95312700D01*
X169288886Y-95285102D01*
X167838546Y-94683122D01*
X167789860Y-94673420D01*
X166217600Y-94673420D01*
X166169162Y-94683020D01*
X164716282Y-95282460D01*
X164675020Y-95309955D01*
X163562500Y-96419935D01*
X163534902Y-96461154D01*
X162932922Y-97911494D01*
X162923220Y-97960180D01*
X159284243Y-97960180D01*
X159281362Y-97902632D01*
X159122397Y-97518857D01*
X158880213Y-97449392D01*
X158079605Y-98250000D01*
X157720395Y-98250000D01*
X156919787Y-97449392D01*
X156677603Y-97518857D01*
X156490856Y-98042302D01*
X154297181Y-98042302D01*
X154297242Y-97973339D01*
X154085010Y-97459697D01*
X153895432Y-97269787D01*
X157099392Y-97269787D01*
X157900000Y-98070395D01*
X158700608Y-97269787D01*
X158631143Y-97027603D01*
X158107698Y-96840856D01*
X157552632Y-96868638D01*
X157168857Y-97027603D01*
X157099392Y-97269787D01*
X153895432Y-97269787D01*
X153692370Y-97066371D01*
X153179100Y-96853243D01*
X152623339Y-96852758D01*
X152486804Y-96909173D01*
X151988815Y-96411185D01*
X151957662Y-96390369D01*
X151741605Y-96246004D01*
X151450000Y-96188000D01*
X149925459Y-96188000D01*
X149801890Y-96103569D01*
X149550000Y-96052560D01*
X148650000Y-96052560D01*
X148414683Y-96096838D01*
X148198559Y-96235910D01*
X148053569Y-96448110D01*
X148002560Y-96700000D01*
X148002560Y-97200000D01*
X148046838Y-97435317D01*
X148185910Y-97651441D01*
X148255711Y-97699134D01*
X148198559Y-97735910D01*
X148053569Y-97948110D01*
X148002560Y-98200000D01*
X148002560Y-98700000D01*
X148046838Y-98935317D01*
X148080739Y-98988000D01*
X145652440Y-98988000D01*
X145652440Y-97725000D01*
X145608162Y-97489683D01*
X145469090Y-97273559D01*
X145256890Y-97128569D01*
X145005000Y-97077560D01*
X144405000Y-97077560D01*
X144197000Y-97116698D01*
X144197000Y-96980630D01*
X146515631Y-94662000D01*
X171984370Y-94662000D01*
X172220556Y-94898186D01*
X172309646Y-95113800D01*
X172501838Y-95306328D01*
X172406759Y-95367510D01*
X172261769Y-95579710D01*
X172210760Y-95831600D01*
X172210760Y-97031600D01*
X172255038Y-97266917D01*
X172394110Y-97483041D01*
X172606310Y-97628031D01*
X172661662Y-97639240D01*
X172571969Y-97770510D01*
X172520960Y-98022400D01*
X172520960Y-98522400D01*
X172565238Y-98757717D01*
X172704310Y-98973841D01*
X172774111Y-99021534D01*
X172716959Y-99058310D01*
X172571969Y-99270510D01*
X172520960Y-99522400D01*
X172520960Y-100022400D01*
X172565238Y-100257717D01*
X172704310Y-100473841D01*
X172856400Y-100577760D01*
X172856400Y-100621166D01*
X172807808Y-100669673D01*
X172665162Y-101013201D01*
X172664838Y-101385167D01*
X172806883Y-101728943D01*
X173069673Y-101992192D01*
X173413201Y-102134838D01*
X173785167Y-102135162D01*
X174128943Y-101993117D01*
X174392192Y-101730327D01*
X174534838Y-101386799D01*
X174535162Y-101014833D01*
X174393117Y-100671057D01*
X174380400Y-100658318D01*
X174380400Y-100576218D01*
X174519841Y-100486490D01*
X174635964Y-100316538D01*
X174672238Y-100509317D01*
X174761400Y-100647879D01*
X174761400Y-100899174D01*
X174706162Y-101032201D01*
X174705838Y-101404167D01*
X174847883Y-101747943D01*
X175110673Y-102011192D01*
X175454201Y-102153838D01*
X175826167Y-102154162D01*
X176169943Y-102012117D01*
X176433192Y-101749327D01*
X176575838Y-101405799D01*
X176576162Y-101033833D01*
X176539400Y-100944862D01*
X176539400Y-100646532D01*
X176621831Y-100525890D01*
X176672840Y-100274000D01*
X176672840Y-99474000D01*
X176628562Y-99238683D01*
X176562071Y-99135354D01*
X176563727Y-99133698D01*
X176660400Y-98900309D01*
X176660400Y-98659750D01*
X176501650Y-98501000D01*
X175777400Y-98501000D01*
X175777400Y-98521000D01*
X175523400Y-98521000D01*
X175523400Y-98501000D01*
X175503400Y-98501000D01*
X175503400Y-98247000D01*
X175523400Y-98247000D01*
X175523400Y-97515650D01*
X175531200Y-97507850D01*
X175531200Y-97497750D01*
X175777400Y-97497750D01*
X175777400Y-98247000D01*
X176501650Y-98247000D01*
X176660400Y-98088250D01*
X176660400Y-97847691D01*
X176563727Y-97614302D01*
X176548216Y-97598790D01*
X176617898Y-97569927D01*
X176796527Y-97391299D01*
X176893200Y-97157910D01*
X176893200Y-96717350D01*
X176734450Y-96558600D01*
X175785200Y-96558600D01*
X175785200Y-97489950D01*
X175777400Y-97497750D01*
X175531200Y-97497750D01*
X175531200Y-96558600D01*
X175511200Y-96558600D01*
X175511200Y-96304600D01*
X175531200Y-96304600D01*
X175531200Y-96284600D01*
X175785200Y-96284600D01*
X175785200Y-96304600D01*
X176734450Y-96304600D01*
X176893200Y-96145850D01*
X176893200Y-95705290D01*
X176796527Y-95471901D01*
X176617898Y-95293273D01*
X176561183Y-95269781D01*
X176640286Y-95190678D01*
X176523748Y-95074140D01*
X176733712Y-95043197D01*
X176868226Y-94633052D01*
X176835546Y-94202651D01*
X176733712Y-93956803D01*
X176523748Y-93925860D01*
X176640286Y-93809322D01*
X176568499Y-93737535D01*
X176796996Y-93782986D01*
X177048780Y-93951223D01*
X177217014Y-94203003D01*
X177290000Y-94569927D01*
X177290000Y-102680073D01*
X177217014Y-103046997D01*
X177048780Y-103298777D01*
X176796996Y-103467014D01*
X176430073Y-103540000D01*
X162150000Y-103540000D01*
X162081413Y-103553643D01*
X162011486Y-103553643D01*
X161437460Y-103667824D01*
X161362498Y-103698875D01*
X161181520Y-103773837D01*
X160694885Y-104098997D01*
X160498997Y-104294885D01*
X160173838Y-104781520D01*
X160067824Y-105037460D01*
X159953643Y-105611485D01*
X159953643Y-105681413D01*
X159940000Y-105750000D01*
X159940000Y-109430073D01*
X159867014Y-109796997D01*
X159698780Y-110048777D01*
X159446996Y-110217014D01*
X159080073Y-110290000D01*
X123569927Y-110290000D01*
X123203003Y-110217014D01*
X122951223Y-110048780D01*
X122782986Y-109796996D01*
X122710000Y-109430073D01*
X122710000Y-108994382D01*
X122884595Y-109169282D01*
X123283233Y-109334811D01*
X123714873Y-109335188D01*
X124113800Y-109170354D01*
X124419282Y-108865405D01*
X124502560Y-108664849D01*
X124502560Y-108700000D01*
X124546838Y-108935317D01*
X124685910Y-109151441D01*
X124898110Y-109296431D01*
X125150000Y-109347440D01*
X126350000Y-109347440D01*
X126585317Y-109303162D01*
X126801441Y-109164090D01*
X126946431Y-108951890D01*
X126963642Y-108866901D01*
X127043910Y-108991641D01*
X127256110Y-109136631D01*
X127508000Y-109187640D01*
X128008000Y-109187640D01*
X128243317Y-109143362D01*
X128459441Y-109004290D01*
X128507134Y-108934489D01*
X128543910Y-108991641D01*
X128756110Y-109136631D01*
X129008000Y-109187640D01*
X129508000Y-109187640D01*
X129743317Y-109143362D01*
X129959441Y-109004290D01*
X130049703Y-108872187D01*
X130069673Y-108892192D01*
X130413201Y-109034838D01*
X130785167Y-109035162D01*
X131128943Y-108893117D01*
X131392192Y-108630327D01*
X131534838Y-108286799D01*
X131535162Y-107914833D01*
X131393117Y-107571057D01*
X131130327Y-107307808D01*
X130786799Y-107165162D01*
X130414833Y-107164838D01*
X130071057Y-107306883D01*
X130057079Y-107320836D01*
X129972090Y-107188759D01*
X129759890Y-107043769D01*
X129508000Y-106992760D01*
X129008000Y-106992760D01*
X128772683Y-107037038D01*
X128556559Y-107176110D01*
X128508866Y-107245911D01*
X128472090Y-107188759D01*
X128259890Y-107043769D01*
X128008000Y-106992760D01*
X127508000Y-106992760D01*
X127272683Y-107037038D01*
X127056559Y-107176110D01*
X126962420Y-107313887D01*
X126953162Y-107264683D01*
X126814090Y-107048559D01*
X126745994Y-107002031D01*
X126888327Y-106859698D01*
X126951225Y-106707850D01*
X127062502Y-106819127D01*
X127295891Y-106915800D01*
X127536450Y-106915800D01*
X127695200Y-106757050D01*
X127695200Y-106032800D01*
X126945950Y-106032800D01*
X126889000Y-106089750D01*
X126826250Y-106027000D01*
X125877000Y-106027000D01*
X125877000Y-106047000D01*
X125623000Y-106047000D01*
X125623000Y-106027000D01*
X125603000Y-106027000D01*
X125603000Y-105773000D01*
X125623000Y-105773000D01*
X125623000Y-104823750D01*
X125877000Y-104823750D01*
X125877000Y-105773000D01*
X126826250Y-105773000D01*
X126883200Y-105716050D01*
X126945950Y-105778800D01*
X127695200Y-105778800D01*
X127695200Y-105054550D01*
X127949200Y-105054550D01*
X127949200Y-105778800D01*
X127969200Y-105778800D01*
X127969200Y-106032800D01*
X127949200Y-106032800D01*
X127949200Y-106757050D01*
X128107950Y-106915800D01*
X128348509Y-106915800D01*
X128581898Y-106819127D01*
X128583268Y-106817757D01*
X128670310Y-106877231D01*
X128922200Y-106928240D01*
X129722200Y-106928240D01*
X129957517Y-106883962D01*
X130096079Y-106794800D01*
X130198045Y-106794800D01*
X130275201Y-106826838D01*
X130647167Y-106827162D01*
X130990943Y-106685117D01*
X131254192Y-106422327D01*
X131396838Y-106078799D01*
X131397162Y-105706833D01*
X131255117Y-105363057D01*
X130992327Y-105099808D01*
X130648799Y-104957162D01*
X130276833Y-104956838D01*
X130131714Y-105016800D01*
X130094732Y-105016800D01*
X129974090Y-104934369D01*
X129722200Y-104883360D01*
X128922200Y-104883360D01*
X128686883Y-104927638D01*
X128583554Y-104994129D01*
X128581898Y-104992473D01*
X128348509Y-104895800D01*
X128107950Y-104895800D01*
X127949200Y-105054550D01*
X127695200Y-105054550D01*
X127536450Y-104895800D01*
X127295891Y-104895800D01*
X127062502Y-104992473D01*
X126954622Y-105100352D01*
X126888327Y-104940302D01*
X126709699Y-104761673D01*
X126476310Y-104665000D01*
X126035750Y-104665000D01*
X125877000Y-104823750D01*
X125623000Y-104823750D01*
X125464250Y-104665000D01*
X125023690Y-104665000D01*
X124790301Y-104761673D01*
X124611673Y-104940302D01*
X124515000Y-105173691D01*
X124515000Y-105290623D01*
X124463712Y-105166803D01*
X124253745Y-105135860D01*
X123679605Y-105710000D01*
X123693748Y-105724143D01*
X123522871Y-105895019D01*
X123505399Y-105895004D01*
X123500000Y-105889605D01*
X123494610Y-105894995D01*
X123477090Y-105894980D01*
X123306253Y-105724143D01*
X123320395Y-105710000D01*
X122746255Y-105135860D01*
X122710000Y-105141203D01*
X122710000Y-104956255D01*
X122925860Y-104956255D01*
X123500000Y-105530395D01*
X124074140Y-104956255D01*
X124043197Y-104746288D01*
X123633052Y-104611774D01*
X123202651Y-104644454D01*
X122956803Y-104746288D01*
X122925860Y-104956255D01*
X122710000Y-104956255D01*
X122710000Y-97960180D01*
X123673220Y-97960180D01*
X123673220Y-99532440D01*
X123682820Y-99580878D01*
X124282260Y-101033758D01*
X124309755Y-101075020D01*
X125419735Y-102187540D01*
X125461027Y-102215168D01*
X126913907Y-102817148D01*
X126962520Y-102826820D01*
X128534780Y-102826820D01*
X128583290Y-102817190D01*
X130033630Y-102217750D01*
X130074820Y-102190285D01*
X131187340Y-101080305D01*
X131214938Y-101039086D01*
X131816918Y-99588746D01*
X131826620Y-99540060D01*
X131826620Y-97967800D01*
X131817020Y-97919362D01*
X131217580Y-96466482D01*
X131190085Y-96425220D01*
X130080105Y-95312700D01*
X130038886Y-95285102D01*
X128588546Y-94683122D01*
X128539860Y-94673420D01*
X126967600Y-94673420D01*
X126919162Y-94683020D01*
X125466282Y-95282460D01*
X125425020Y-95309955D01*
X124312500Y-96419935D01*
X124284902Y-96461154D01*
X123682922Y-97911494D01*
X123673220Y-97960180D01*
X122710000Y-97960180D01*
X122710000Y-94569927D01*
X122782986Y-94203004D01*
X122951223Y-93951220D01*
X123203003Y-93782986D01*
X123569927Y-93710000D01*
X145312369Y-93710000D01*
X143097847Y-95924523D01*
G36*
X175963748Y-94485858D02*
X175949605Y-94500000D01*
X175963748Y-94514143D01*
X175784143Y-94693748D01*
X175770000Y-94679605D01*
X175755858Y-94693748D01*
X175584981Y-94522871D01*
X175584996Y-94505399D01*
X175590395Y-94500000D01*
X175585005Y-94494610D01*
X175585020Y-94477090D01*
X175755858Y-94306253D01*
X175770000Y-94320395D01*
X175784143Y-94306253D01*
X175963748Y-94485858D01*
X175963748Y-94485858D01*
G37*
X175963748Y-94485858D02*
X175949605Y-94500000D01*
X175963748Y-94514143D01*
X175784143Y-94693748D01*
X175770000Y-94679605D01*
X175755858Y-94693748D01*
X175584981Y-94522871D01*
X175584996Y-94505399D01*
X175590395Y-94500000D01*
X175585005Y-94494610D01*
X175585020Y-94477090D01*
X175755858Y-94306253D01*
X175770000Y-94320395D01*
X175784143Y-94306253D01*
X175963748Y-94485858D01*
M02*
