M48
INCH,TZ
T1C0.016
T2C0.020
T3C0.030
T4C0.046
T5C0.169
%
G90
G05
T1
X51363Y-41690
X51417Y-42559
X51988Y-41024
X52323Y-41850
X52402Y-38701
X52402Y-39488
X54764Y-38071
X55984Y-37874
X55984Y-40236
X57480Y-40906
X59921Y-39843
X59961Y-42638
X68346Y-39843
X69150Y-39850
T2
X48622Y-41618
X48622Y-42118
X48622Y-42618
X68201Y-37205
X68701Y-37205
X69201Y-37205
T3
X60197Y-38681
X60197Y-41870
X61181Y-39665
X61181Y-42854
X62165Y-38681
X62165Y-41870
T4
X54642Y-42480
X55642Y-42480
X56642Y-42480
X57642Y-42480
T5
X50295Y-38878
X65748Y-38878
T0
M30
