G04 #@! TF.FileFunction,Soldermask,Top*
%FSLAX46Y46*%
G04 Gerber Fmt 4.6, Leading zero omitted, Abs format (unit mm)*
G04 Created by KiCad (PCBNEW 4.0.2-stable) date 1/4/2018 10:10:38 PM*
%MOMM*%
G01*
G04 APERTURE LIST*
%ADD10C,0.100000*%
%ADD11C,0.200000*%
%ADD12C,1.924000*%
%ADD13C,4.700000*%
%ADD14R,1.200000X1.150000*%
%ADD15C,2.432000*%
%ADD16R,0.900000X1.300000*%
%ADD17R,1.150000X1.200000*%
%ADD18R,1.300000X0.900000*%
%ADD19C,1.300000*%
%ADD20R,1.000000X1.950000*%
%ADD21R,1.300000X1.200000*%
%ADD22R,1.400000X1.650000*%
%ADD23R,1.600000X1.600000*%
G04 APERTURE END LIST*
D10*
D11*
X128000000Y-98750000D02*
G75*
G03X128000000Y-98750000I-250000J0D01*
G01*
X167250000Y-98750000D02*
G75*
G03X167250000Y-98750000I-250000J0D01*
G01*
D12*
X155400000Y-108850000D03*
X152900000Y-106350000D03*
X157900000Y-106350000D03*
D13*
X167000000Y-98750000D03*
X127750000Y-98750000D03*
D14*
X129322200Y-105905800D03*
X127822200Y-105905800D03*
D15*
X146410000Y-107900000D03*
X143870000Y-107900000D03*
X141330000Y-107900000D03*
X138790000Y-107900000D03*
D16*
X127758000Y-108090200D03*
X129258000Y-108090200D03*
D17*
X149200000Y-108250000D03*
X149200000Y-106750000D03*
X149100000Y-101250000D03*
X149100000Y-99750000D03*
D14*
X134550000Y-106300000D03*
X136050000Y-106300000D03*
X134550000Y-98400000D03*
X136050000Y-98400000D03*
D18*
X149200000Y-105550000D03*
X149200000Y-104050000D03*
X150700000Y-106750000D03*
X150700000Y-108250000D03*
X149100000Y-98450000D03*
X149100000Y-96950000D03*
X150700000Y-99750000D03*
X150700000Y-101250000D03*
X173618400Y-98272400D03*
X173618400Y-99772400D03*
D19*
X123500000Y-106980000D03*
X123500000Y-105710000D03*
X123500000Y-108250000D03*
X174500000Y-94500000D03*
X175770000Y-94500000D03*
X173230000Y-94500000D03*
D20*
X140895000Y-103900000D03*
X142165000Y-103900000D03*
X143435000Y-103900000D03*
X144705000Y-103900000D03*
X144705000Y-98500000D03*
X143435000Y-98500000D03*
X142165000Y-98500000D03*
X140895000Y-98500000D03*
D21*
X134500000Y-100250000D03*
X134500000Y-102150000D03*
X136500000Y-101200000D03*
D17*
X175650400Y-99874000D03*
X175650400Y-98374000D03*
X139100000Y-99650000D03*
X139100000Y-98150000D03*
D22*
X136400000Y-104200000D03*
X134400000Y-104200000D03*
D23*
X125750000Y-105900000D03*
X125750000Y-108100000D03*
X175658200Y-96431600D03*
X173458200Y-96431600D03*
D12*
X155400000Y-100750000D03*
X152900000Y-98250000D03*
X157900000Y-98250000D03*
M02*
