G04 #@! TF.FileFunction,Copper,L2,Bot,Signal*
%FSLAX46Y46*%
G04 Gerber Fmt 4.6, Leading zero omitted, Abs format (unit mm)*
G04 Created by KiCad (PCBNEW 4.0.2-stable) date 1/4/2018 10:10:38 PM*
%MOMM*%
G01*
G04 APERTURE LIST*
%ADD10C,0.100000*%
%ADD11C,1.524000*%
%ADD12C,2.032000*%
%ADD13C,0.900000*%
%ADD14C,0.600000*%
%ADD15C,0.508000*%
%ADD16C,0.254000*%
G04 APERTURE END LIST*
D10*
D11*
X155400000Y-108850000D03*
X152900000Y-106350000D03*
X157900000Y-106350000D03*
D12*
X146410000Y-107900000D03*
X143870000Y-107900000D03*
X141330000Y-107900000D03*
X138790000Y-107900000D03*
D13*
X123500000Y-106980000D03*
X123500000Y-105710000D03*
X123500000Y-108250000D03*
X174500000Y-94500000D03*
X175770000Y-94500000D03*
X173230000Y-94500000D03*
D11*
X155400000Y-100750000D03*
X152900000Y-98250000D03*
X157900000Y-98250000D03*
D14*
X132050000Y-104200000D03*
X139100000Y-96700000D03*
X132900000Y-106300000D03*
X133100000Y-98300000D03*
X133100000Y-100300000D03*
X152300000Y-108300000D03*
X146000000Y-103900000D03*
X152200000Y-101200000D03*
X175641000Y-101219000D03*
X130462000Y-105892000D03*
X142200000Y-96200000D03*
X173600000Y-101200000D03*
X130600000Y-108100000D03*
X142200000Y-102200000D03*
D15*
X146000000Y-103900000D02*
X146100000Y-103900000D01*
X123500000Y-106980000D02*
X124633000Y-106980000D01*
X124633000Y-106980000D02*
X124714000Y-107061000D01*
X174500000Y-94500000D02*
X174500000Y-95883000D01*
X174500000Y-95883000D02*
X174498000Y-95885000D01*
X130462000Y-105892000D02*
X130462000Y-105765000D01*
D16*
X144500000Y-93900000D02*
X142200000Y-96200000D01*
X170200000Y-93900000D02*
X144500000Y-93900000D01*
X173600000Y-97300000D02*
X170200000Y-93900000D01*
X173600000Y-101200000D02*
X173600000Y-97300000D01*
X143870000Y-106770000D02*
X143870000Y-107900000D01*
X143000000Y-105900000D02*
X143870000Y-106770000D01*
X137200000Y-105900000D02*
X143000000Y-105900000D01*
X135000000Y-108100000D02*
X137200000Y-105900000D01*
X130600000Y-108100000D02*
X135000000Y-108100000D01*
X123500000Y-108250000D02*
X128550000Y-108250000D01*
X142200000Y-104400000D02*
X142200000Y-102200000D01*
X141500000Y-105100000D02*
X142200000Y-104400000D01*
X136700000Y-105100000D02*
X141500000Y-105100000D01*
X134700000Y-107100000D02*
X136700000Y-105100000D01*
X131200000Y-107100000D02*
X134700000Y-107100000D01*
X131200000Y-107100000D02*
X131200000Y-107100000D01*
X129700000Y-107100000D02*
X131200000Y-107100000D01*
X128550000Y-108250000D02*
X129700000Y-107100000D01*
X173230000Y-94500000D02*
X172986000Y-94500000D01*
G36*
X142057495Y-95264875D02*
X142014833Y-95264838D01*
X141671057Y-95406883D01*
X141407808Y-95669673D01*
X141265162Y-96013201D01*
X141264838Y-96385167D01*
X141406883Y-96728943D01*
X141669673Y-96992192D01*
X142013201Y-97134838D01*
X142385167Y-97135162D01*
X142728943Y-96993117D01*
X142992192Y-96730327D01*
X143134838Y-96386799D01*
X143134876Y-96342754D01*
X144815631Y-94662000D01*
X169884370Y-94662000D01*
X172838000Y-97615630D01*
X172838000Y-100639534D01*
X172807808Y-100669673D01*
X172665162Y-101013201D01*
X172664838Y-101385167D01*
X172806883Y-101728943D01*
X173069673Y-101992192D01*
X173413201Y-102134838D01*
X173785167Y-102135162D01*
X174128943Y-101993117D01*
X174392192Y-101730327D01*
X174534838Y-101386799D01*
X174535162Y-101014833D01*
X174393117Y-100671057D01*
X174362000Y-100639886D01*
X174362000Y-97300000D01*
X174303996Y-97008395D01*
X174138815Y-96761185D01*
X172926374Y-95548744D01*
X173013233Y-95584811D01*
X173444873Y-95585188D01*
X173843800Y-95420354D01*
X173936740Y-95327576D01*
X173956803Y-95463712D01*
X174366948Y-95598226D01*
X174797349Y-95565546D01*
X175043197Y-95463712D01*
X175063232Y-95327760D01*
X175154595Y-95419282D01*
X175553233Y-95584811D01*
X175984873Y-95585188D01*
X176383800Y-95420354D01*
X176689282Y-95115405D01*
X176854811Y-94716767D01*
X176855188Y-94285127D01*
X176690354Y-93886200D01*
X176535370Y-93730945D01*
X176796996Y-93782986D01*
X177048780Y-93951223D01*
X177217014Y-94203003D01*
X177290000Y-94569927D01*
X177290000Y-102680073D01*
X177217014Y-103046997D01*
X177048780Y-103298777D01*
X176796996Y-103467014D01*
X176430073Y-103540000D01*
X162150000Y-103540000D01*
X162081413Y-103553643D01*
X162011486Y-103553643D01*
X161437460Y-103667824D01*
X161369428Y-103696004D01*
X161181520Y-103773837D01*
X160694885Y-104098997D01*
X160498997Y-104294885D01*
X160173838Y-104781520D01*
X160067824Y-105037460D01*
X159953643Y-105611485D01*
X159953643Y-105681413D01*
X159940000Y-105750000D01*
X159940000Y-109430073D01*
X159867014Y-109796997D01*
X159698780Y-110048777D01*
X159446996Y-110217014D01*
X159080073Y-110290000D01*
X123569927Y-110290000D01*
X123203003Y-110217014D01*
X122951223Y-110048780D01*
X122782986Y-109796996D01*
X122710000Y-109430073D01*
X122710000Y-108994382D01*
X122884595Y-109169282D01*
X123283233Y-109334811D01*
X123714873Y-109335188D01*
X124113800Y-109170354D01*
X124272431Y-109012000D01*
X128550000Y-109012000D01*
X128841605Y-108953996D01*
X129088815Y-108788815D01*
X129664901Y-108212729D01*
X129664838Y-108285167D01*
X129806883Y-108628943D01*
X130069673Y-108892192D01*
X130413201Y-109034838D01*
X130785167Y-109035162D01*
X131128943Y-108893117D01*
X131160114Y-108862000D01*
X135000000Y-108862000D01*
X135291605Y-108803996D01*
X135538815Y-108638815D01*
X137515630Y-106662000D01*
X137693255Y-106662000D01*
X137391166Y-106963563D01*
X137139287Y-107570155D01*
X137138714Y-108226963D01*
X137389534Y-108833995D01*
X137853563Y-109298834D01*
X138460155Y-109550713D01*
X139116963Y-109551286D01*
X139723995Y-109300466D01*
X140060179Y-108964868D01*
X140393563Y-109298834D01*
X141000155Y-109550713D01*
X141656963Y-109551286D01*
X142263995Y-109300466D01*
X142600179Y-108964868D01*
X142933563Y-109298834D01*
X143540155Y-109550713D01*
X144196963Y-109551286D01*
X144803995Y-109300466D01*
X145040766Y-109064107D01*
X145425498Y-109064107D01*
X145526120Y-109332622D01*
X146141642Y-109561816D01*
X146798019Y-109538014D01*
X147293880Y-109332622D01*
X147371060Y-109126661D01*
X154002758Y-109126661D01*
X154214990Y-109640303D01*
X154607630Y-110033629D01*
X155120900Y-110246757D01*
X155676661Y-110247242D01*
X156190303Y-110035010D01*
X156583629Y-109642370D01*
X156796757Y-109129100D01*
X156797242Y-108573339D01*
X156585010Y-108059697D01*
X156192370Y-107666371D01*
X155679100Y-107453243D01*
X155123339Y-107452758D01*
X154609697Y-107664990D01*
X154216371Y-108057630D01*
X154003243Y-108570900D01*
X154002758Y-109126661D01*
X147371060Y-109126661D01*
X147394502Y-109064107D01*
X146410000Y-108079605D01*
X145425498Y-109064107D01*
X145040766Y-109064107D01*
X145227565Y-108877634D01*
X145245893Y-108884502D01*
X146230395Y-107900000D01*
X146589605Y-107900000D01*
X147574107Y-108884502D01*
X147842622Y-108783880D01*
X148071816Y-108168358D01*
X148048014Y-107511981D01*
X147842622Y-107016120D01*
X147574107Y-106915498D01*
X146589605Y-107900000D01*
X146230395Y-107900000D01*
X145245893Y-106915498D01*
X145227083Y-106922547D01*
X145040755Y-106735893D01*
X145425498Y-106735893D01*
X146410000Y-107720395D01*
X147394502Y-106735893D01*
X147353569Y-106626661D01*
X151502758Y-106626661D01*
X151714990Y-107140303D01*
X152107630Y-107533629D01*
X152620900Y-107746757D01*
X153176661Y-107747242D01*
X153690303Y-107535010D01*
X154083629Y-107142370D01*
X154296757Y-106629100D01*
X154296759Y-106626661D01*
X156502758Y-106626661D01*
X156714990Y-107140303D01*
X157107630Y-107533629D01*
X157620900Y-107746757D01*
X158176661Y-107747242D01*
X158690303Y-107535010D01*
X159083629Y-107142370D01*
X159296757Y-106629100D01*
X159297242Y-106073339D01*
X159085010Y-105559697D01*
X158692370Y-105166371D01*
X158179100Y-104953243D01*
X157623339Y-104952758D01*
X157109697Y-105164990D01*
X156716371Y-105557630D01*
X156503243Y-106070900D01*
X156502758Y-106626661D01*
X154296759Y-106626661D01*
X154297242Y-106073339D01*
X154085010Y-105559697D01*
X153692370Y-105166371D01*
X153179100Y-104953243D01*
X152623339Y-104952758D01*
X152109697Y-105164990D01*
X151716371Y-105557630D01*
X151503243Y-106070900D01*
X151502758Y-106626661D01*
X147353569Y-106626661D01*
X147293880Y-106467378D01*
X146678358Y-106238184D01*
X146021981Y-106261986D01*
X145526120Y-106467378D01*
X145425498Y-106735893D01*
X145040755Y-106735893D01*
X144806437Y-106501166D01*
X144505798Y-106376330D01*
X144481753Y-106340344D01*
X144408816Y-106231185D01*
X143538815Y-105361185D01*
X143291605Y-105196004D01*
X143000000Y-105138000D01*
X142539631Y-105138000D01*
X142738815Y-104938816D01*
X142903996Y-104691605D01*
X142925075Y-104585632D01*
X142962000Y-104400000D01*
X142962000Y-102760466D01*
X142992192Y-102730327D01*
X143134838Y-102386799D01*
X143135162Y-102014833D01*
X142993117Y-101671057D01*
X142730327Y-101407808D01*
X142386799Y-101265162D01*
X142014833Y-101264838D01*
X141671057Y-101406883D01*
X141407808Y-101669673D01*
X141265162Y-102013201D01*
X141264838Y-102385167D01*
X141406883Y-102728943D01*
X141438000Y-102760114D01*
X141438000Y-104084369D01*
X141184370Y-104338000D01*
X136700000Y-104338000D01*
X136446050Y-104388514D01*
X136408395Y-104396004D01*
X136161185Y-104561185D01*
X134384370Y-106338000D01*
X129700000Y-106338000D01*
X129408396Y-106396003D01*
X129161185Y-106561184D01*
X128234370Y-107488000D01*
X124475255Y-107488000D01*
X124598226Y-107113052D01*
X124565546Y-106682651D01*
X124463712Y-106436803D01*
X124327760Y-106416768D01*
X124419282Y-106325405D01*
X124584811Y-105926767D01*
X124585188Y-105495127D01*
X124420354Y-105096200D01*
X124115405Y-104790718D01*
X123716767Y-104625189D01*
X123285127Y-104624812D01*
X122886200Y-104789646D01*
X122710000Y-104965539D01*
X122710000Y-99301540D01*
X124964518Y-99301540D01*
X125387616Y-100325515D01*
X126170365Y-101109631D01*
X127193599Y-101534515D01*
X128301540Y-101535482D01*
X129325515Y-101112384D01*
X129411387Y-101026661D01*
X154002758Y-101026661D01*
X154214990Y-101540303D01*
X154607630Y-101933629D01*
X155120900Y-102146757D01*
X155676661Y-102147242D01*
X156190303Y-101935010D01*
X156583629Y-101542370D01*
X156796757Y-101029100D01*
X156797242Y-100473339D01*
X156585010Y-99959697D01*
X156192370Y-99566371D01*
X155679100Y-99353243D01*
X155123339Y-99352758D01*
X154609697Y-99564990D01*
X154216371Y-99957630D01*
X154003243Y-100470900D01*
X154002758Y-101026661D01*
X129411387Y-101026661D01*
X130109631Y-100329635D01*
X130534515Y-99306401D01*
X130535195Y-98526661D01*
X151502758Y-98526661D01*
X151714990Y-99040303D01*
X152107630Y-99433629D01*
X152620900Y-99646757D01*
X153176661Y-99647242D01*
X153690303Y-99435010D01*
X154083629Y-99042370D01*
X154296757Y-98529100D01*
X154296759Y-98526661D01*
X156502758Y-98526661D01*
X156714990Y-99040303D01*
X157107630Y-99433629D01*
X157620900Y-99646757D01*
X158176661Y-99647242D01*
X158690303Y-99435010D01*
X158824006Y-99301540D01*
X164214518Y-99301540D01*
X164637616Y-100325515D01*
X165420365Y-101109631D01*
X166443599Y-101534515D01*
X167551540Y-101535482D01*
X168575515Y-101112384D01*
X169359631Y-100329635D01*
X169784515Y-99306401D01*
X169785482Y-98198460D01*
X169362384Y-97174485D01*
X168579635Y-96390369D01*
X167556401Y-95965485D01*
X166448460Y-95964518D01*
X165424485Y-96387616D01*
X164640369Y-97170365D01*
X164215485Y-98193599D01*
X164214518Y-99301540D01*
X158824006Y-99301540D01*
X159083629Y-99042370D01*
X159296757Y-98529100D01*
X159297242Y-97973339D01*
X159085010Y-97459697D01*
X158692370Y-97066371D01*
X158179100Y-96853243D01*
X157623339Y-96852758D01*
X157109697Y-97064990D01*
X156716371Y-97457630D01*
X156503243Y-97970900D01*
X156502758Y-98526661D01*
X154296759Y-98526661D01*
X154297242Y-97973339D01*
X154085010Y-97459697D01*
X153692370Y-97066371D01*
X153179100Y-96853243D01*
X152623339Y-96852758D01*
X152109697Y-97064990D01*
X151716371Y-97457630D01*
X151503243Y-97970900D01*
X151502758Y-98526661D01*
X130535195Y-98526661D01*
X130535482Y-98198460D01*
X130112384Y-97174485D01*
X129329635Y-96390369D01*
X128306401Y-95965485D01*
X127198460Y-95964518D01*
X126174485Y-96387616D01*
X125390369Y-97170365D01*
X124965485Y-98193599D01*
X124964518Y-99301540D01*
X122710000Y-99301540D01*
X122710000Y-94569927D01*
X122782986Y-94203004D01*
X122951223Y-93951220D01*
X123203003Y-93782986D01*
X123569927Y-93710000D01*
X143612369Y-93710000D01*
X142057495Y-95264875D01*
X142057495Y-95264875D01*
G37*
X142057495Y-95264875D02*
X142014833Y-95264838D01*
X141671057Y-95406883D01*
X141407808Y-95669673D01*
X141265162Y-96013201D01*
X141264838Y-96385167D01*
X141406883Y-96728943D01*
X141669673Y-96992192D01*
X142013201Y-97134838D01*
X142385167Y-97135162D01*
X142728943Y-96993117D01*
X142992192Y-96730327D01*
X143134838Y-96386799D01*
X143134876Y-96342754D01*
X144815631Y-94662000D01*
X169884370Y-94662000D01*
X172838000Y-97615630D01*
X172838000Y-100639534D01*
X172807808Y-100669673D01*
X172665162Y-101013201D01*
X172664838Y-101385167D01*
X172806883Y-101728943D01*
X173069673Y-101992192D01*
X173413201Y-102134838D01*
X173785167Y-102135162D01*
X174128943Y-101993117D01*
X174392192Y-101730327D01*
X174534838Y-101386799D01*
X174535162Y-101014833D01*
X174393117Y-100671057D01*
X174362000Y-100639886D01*
X174362000Y-97300000D01*
X174303996Y-97008395D01*
X174138815Y-96761185D01*
X172926374Y-95548744D01*
X173013233Y-95584811D01*
X173444873Y-95585188D01*
X173843800Y-95420354D01*
X173936740Y-95327576D01*
X173956803Y-95463712D01*
X174366948Y-95598226D01*
X174797349Y-95565546D01*
X175043197Y-95463712D01*
X175063232Y-95327760D01*
X175154595Y-95419282D01*
X175553233Y-95584811D01*
X175984873Y-95585188D01*
X176383800Y-95420354D01*
X176689282Y-95115405D01*
X176854811Y-94716767D01*
X176855188Y-94285127D01*
X176690354Y-93886200D01*
X176535370Y-93730945D01*
X176796996Y-93782986D01*
X177048780Y-93951223D01*
X177217014Y-94203003D01*
X177290000Y-94569927D01*
X177290000Y-102680073D01*
X177217014Y-103046997D01*
X177048780Y-103298777D01*
X176796996Y-103467014D01*
X176430073Y-103540000D01*
X162150000Y-103540000D01*
X162081413Y-103553643D01*
X162011486Y-103553643D01*
X161437460Y-103667824D01*
X161369428Y-103696004D01*
X161181520Y-103773837D01*
X160694885Y-104098997D01*
X160498997Y-104294885D01*
X160173838Y-104781520D01*
X160067824Y-105037460D01*
X159953643Y-105611485D01*
X159953643Y-105681413D01*
X159940000Y-105750000D01*
X159940000Y-109430073D01*
X159867014Y-109796997D01*
X159698780Y-110048777D01*
X159446996Y-110217014D01*
X159080073Y-110290000D01*
X123569927Y-110290000D01*
X123203003Y-110217014D01*
X122951223Y-110048780D01*
X122782986Y-109796996D01*
X122710000Y-109430073D01*
X122710000Y-108994382D01*
X122884595Y-109169282D01*
X123283233Y-109334811D01*
X123714873Y-109335188D01*
X124113800Y-109170354D01*
X124272431Y-109012000D01*
X128550000Y-109012000D01*
X128841605Y-108953996D01*
X129088815Y-108788815D01*
X129664901Y-108212729D01*
X129664838Y-108285167D01*
X129806883Y-108628943D01*
X130069673Y-108892192D01*
X130413201Y-109034838D01*
X130785167Y-109035162D01*
X131128943Y-108893117D01*
X131160114Y-108862000D01*
X135000000Y-108862000D01*
X135291605Y-108803996D01*
X135538815Y-108638815D01*
X137515630Y-106662000D01*
X137693255Y-106662000D01*
X137391166Y-106963563D01*
X137139287Y-107570155D01*
X137138714Y-108226963D01*
X137389534Y-108833995D01*
X137853563Y-109298834D01*
X138460155Y-109550713D01*
X139116963Y-109551286D01*
X139723995Y-109300466D01*
X140060179Y-108964868D01*
X140393563Y-109298834D01*
X141000155Y-109550713D01*
X141656963Y-109551286D01*
X142263995Y-109300466D01*
X142600179Y-108964868D01*
X142933563Y-109298834D01*
X143540155Y-109550713D01*
X144196963Y-109551286D01*
X144803995Y-109300466D01*
X145040766Y-109064107D01*
X145425498Y-109064107D01*
X145526120Y-109332622D01*
X146141642Y-109561816D01*
X146798019Y-109538014D01*
X147293880Y-109332622D01*
X147371060Y-109126661D01*
X154002758Y-109126661D01*
X154214990Y-109640303D01*
X154607630Y-110033629D01*
X155120900Y-110246757D01*
X155676661Y-110247242D01*
X156190303Y-110035010D01*
X156583629Y-109642370D01*
X156796757Y-109129100D01*
X156797242Y-108573339D01*
X156585010Y-108059697D01*
X156192370Y-107666371D01*
X155679100Y-107453243D01*
X155123339Y-107452758D01*
X154609697Y-107664990D01*
X154216371Y-108057630D01*
X154003243Y-108570900D01*
X154002758Y-109126661D01*
X147371060Y-109126661D01*
X147394502Y-109064107D01*
X146410000Y-108079605D01*
X145425498Y-109064107D01*
X145040766Y-109064107D01*
X145227565Y-108877634D01*
X145245893Y-108884502D01*
X146230395Y-107900000D01*
X146589605Y-107900000D01*
X147574107Y-108884502D01*
X147842622Y-108783880D01*
X148071816Y-108168358D01*
X148048014Y-107511981D01*
X147842622Y-107016120D01*
X147574107Y-106915498D01*
X146589605Y-107900000D01*
X146230395Y-107900000D01*
X145245893Y-106915498D01*
X145227083Y-106922547D01*
X145040755Y-106735893D01*
X145425498Y-106735893D01*
X146410000Y-107720395D01*
X147394502Y-106735893D01*
X147353569Y-106626661D01*
X151502758Y-106626661D01*
X151714990Y-107140303D01*
X152107630Y-107533629D01*
X152620900Y-107746757D01*
X153176661Y-107747242D01*
X153690303Y-107535010D01*
X154083629Y-107142370D01*
X154296757Y-106629100D01*
X154296759Y-106626661D01*
X156502758Y-106626661D01*
X156714990Y-107140303D01*
X157107630Y-107533629D01*
X157620900Y-107746757D01*
X158176661Y-107747242D01*
X158690303Y-107535010D01*
X159083629Y-107142370D01*
X159296757Y-106629100D01*
X159297242Y-106073339D01*
X159085010Y-105559697D01*
X158692370Y-105166371D01*
X158179100Y-104953243D01*
X157623339Y-104952758D01*
X157109697Y-105164990D01*
X156716371Y-105557630D01*
X156503243Y-106070900D01*
X156502758Y-106626661D01*
X154296759Y-106626661D01*
X154297242Y-106073339D01*
X154085010Y-105559697D01*
X153692370Y-105166371D01*
X153179100Y-104953243D01*
X152623339Y-104952758D01*
X152109697Y-105164990D01*
X151716371Y-105557630D01*
X151503243Y-106070900D01*
X151502758Y-106626661D01*
X147353569Y-106626661D01*
X147293880Y-106467378D01*
X146678358Y-106238184D01*
X146021981Y-106261986D01*
X145526120Y-106467378D01*
X145425498Y-106735893D01*
X145040755Y-106735893D01*
X144806437Y-106501166D01*
X144505798Y-106376330D01*
X144481753Y-106340344D01*
X144408816Y-106231185D01*
X143538815Y-105361185D01*
X143291605Y-105196004D01*
X143000000Y-105138000D01*
X142539631Y-105138000D01*
X142738815Y-104938816D01*
X142903996Y-104691605D01*
X142925075Y-104585632D01*
X142962000Y-104400000D01*
X142962000Y-102760466D01*
X142992192Y-102730327D01*
X143134838Y-102386799D01*
X143135162Y-102014833D01*
X142993117Y-101671057D01*
X142730327Y-101407808D01*
X142386799Y-101265162D01*
X142014833Y-101264838D01*
X141671057Y-101406883D01*
X141407808Y-101669673D01*
X141265162Y-102013201D01*
X141264838Y-102385167D01*
X141406883Y-102728943D01*
X141438000Y-102760114D01*
X141438000Y-104084369D01*
X141184370Y-104338000D01*
X136700000Y-104338000D01*
X136446050Y-104388514D01*
X136408395Y-104396004D01*
X136161185Y-104561185D01*
X134384370Y-106338000D01*
X129700000Y-106338000D01*
X129408396Y-106396003D01*
X129161185Y-106561184D01*
X128234370Y-107488000D01*
X124475255Y-107488000D01*
X124598226Y-107113052D01*
X124565546Y-106682651D01*
X124463712Y-106436803D01*
X124327760Y-106416768D01*
X124419282Y-106325405D01*
X124584811Y-105926767D01*
X124585188Y-105495127D01*
X124420354Y-105096200D01*
X124115405Y-104790718D01*
X123716767Y-104625189D01*
X123285127Y-104624812D01*
X122886200Y-104789646D01*
X122710000Y-104965539D01*
X122710000Y-99301540D01*
X124964518Y-99301540D01*
X125387616Y-100325515D01*
X126170365Y-101109631D01*
X127193599Y-101534515D01*
X128301540Y-101535482D01*
X129325515Y-101112384D01*
X129411387Y-101026661D01*
X154002758Y-101026661D01*
X154214990Y-101540303D01*
X154607630Y-101933629D01*
X155120900Y-102146757D01*
X155676661Y-102147242D01*
X156190303Y-101935010D01*
X156583629Y-101542370D01*
X156796757Y-101029100D01*
X156797242Y-100473339D01*
X156585010Y-99959697D01*
X156192370Y-99566371D01*
X155679100Y-99353243D01*
X155123339Y-99352758D01*
X154609697Y-99564990D01*
X154216371Y-99957630D01*
X154003243Y-100470900D01*
X154002758Y-101026661D01*
X129411387Y-101026661D01*
X130109631Y-100329635D01*
X130534515Y-99306401D01*
X130535195Y-98526661D01*
X151502758Y-98526661D01*
X151714990Y-99040303D01*
X152107630Y-99433629D01*
X152620900Y-99646757D01*
X153176661Y-99647242D01*
X153690303Y-99435010D01*
X154083629Y-99042370D01*
X154296757Y-98529100D01*
X154296759Y-98526661D01*
X156502758Y-98526661D01*
X156714990Y-99040303D01*
X157107630Y-99433629D01*
X157620900Y-99646757D01*
X158176661Y-99647242D01*
X158690303Y-99435010D01*
X158824006Y-99301540D01*
X164214518Y-99301540D01*
X164637616Y-100325515D01*
X165420365Y-101109631D01*
X166443599Y-101534515D01*
X167551540Y-101535482D01*
X168575515Y-101112384D01*
X169359631Y-100329635D01*
X169784515Y-99306401D01*
X169785482Y-98198460D01*
X169362384Y-97174485D01*
X168579635Y-96390369D01*
X167556401Y-95965485D01*
X166448460Y-95964518D01*
X165424485Y-96387616D01*
X164640369Y-97170365D01*
X164215485Y-98193599D01*
X164214518Y-99301540D01*
X158824006Y-99301540D01*
X159083629Y-99042370D01*
X159296757Y-98529100D01*
X159297242Y-97973339D01*
X159085010Y-97459697D01*
X158692370Y-97066371D01*
X158179100Y-96853243D01*
X157623339Y-96852758D01*
X157109697Y-97064990D01*
X156716371Y-97457630D01*
X156503243Y-97970900D01*
X156502758Y-98526661D01*
X154296759Y-98526661D01*
X154297242Y-97973339D01*
X154085010Y-97459697D01*
X153692370Y-97066371D01*
X153179100Y-96853243D01*
X152623339Y-96852758D01*
X152109697Y-97064990D01*
X151716371Y-97457630D01*
X151503243Y-97970900D01*
X151502758Y-98526661D01*
X130535195Y-98526661D01*
X130535482Y-98198460D01*
X130112384Y-97174485D01*
X129329635Y-96390369D01*
X128306401Y-95965485D01*
X127198460Y-95964518D01*
X126174485Y-96387616D01*
X125390369Y-97170365D01*
X124965485Y-98193599D01*
X124964518Y-99301540D01*
X122710000Y-99301540D01*
X122710000Y-94569927D01*
X122782986Y-94203004D01*
X122951223Y-93951220D01*
X123203003Y-93782986D01*
X123569927Y-93710000D01*
X143612369Y-93710000D01*
X142057495Y-95264875D01*
G36*
X123494601Y-106794996D02*
X123500000Y-106800395D01*
X123505390Y-106795005D01*
X123522910Y-106795020D01*
X123693748Y-106965858D01*
X123679605Y-106980000D01*
X123693748Y-106994143D01*
X123522871Y-107165019D01*
X123505399Y-107165004D01*
X123500000Y-107159605D01*
X123494610Y-107164995D01*
X123477090Y-107164980D01*
X123306253Y-106994143D01*
X123320395Y-106980000D01*
X123306253Y-106965858D01*
X123477129Y-106794981D01*
X123494601Y-106794996D01*
X123494601Y-106794996D01*
G37*
X123494601Y-106794996D02*
X123500000Y-106800395D01*
X123505390Y-106795005D01*
X123522910Y-106795020D01*
X123693748Y-106965858D01*
X123679605Y-106980000D01*
X123693748Y-106994143D01*
X123522871Y-107165019D01*
X123505399Y-107165004D01*
X123500000Y-107159605D01*
X123494610Y-107164995D01*
X123477090Y-107164980D01*
X123306253Y-106994143D01*
X123320395Y-106980000D01*
X123306253Y-106965858D01*
X123477129Y-106794981D01*
X123494601Y-106794996D01*
G36*
X174685019Y-94477129D02*
X174685004Y-94494601D01*
X174679605Y-94500000D01*
X174684995Y-94505390D01*
X174684980Y-94522910D01*
X174514143Y-94693748D01*
X174500000Y-94679605D01*
X174485858Y-94693748D01*
X174314981Y-94522871D01*
X174314996Y-94505399D01*
X174320395Y-94500000D01*
X174315005Y-94494610D01*
X174315020Y-94477090D01*
X174485858Y-94306253D01*
X174500000Y-94320395D01*
X174514143Y-94306253D01*
X174685019Y-94477129D01*
X174685019Y-94477129D01*
G37*
X174685019Y-94477129D02*
X174685004Y-94494601D01*
X174679605Y-94500000D01*
X174684995Y-94505390D01*
X174684980Y-94522910D01*
X174514143Y-94693748D01*
X174500000Y-94679605D01*
X174485858Y-94693748D01*
X174314981Y-94522871D01*
X174314996Y-94505399D01*
X174320395Y-94500000D01*
X174315005Y-94494610D01*
X174315020Y-94477090D01*
X174485858Y-94306253D01*
X174500000Y-94320395D01*
X174514143Y-94306253D01*
X174685019Y-94477129D01*
M02*
