G04 #@! TF.GenerationSoftware,KiCad,Pcbnew,(5.0.0-3-g5ebb6b6)*
G04 #@! TF.CreationDate,2018-08-08T21:58:00-07:00*
G04 #@! TF.ProjectId,MZBOT_XY-Endstop,4D5A424F545F58592D456E6473746F70,A*
G04 #@! TF.SameCoordinates,Original*
G04 #@! TF.FileFunction,Copper,L1,Top,Signal*
G04 #@! TF.FilePolarity,Positive*
%FSLAX46Y46*%
G04 Gerber Fmt 4.6, Leading zero omitted, Abs format (unit mm)*
G04 Created by KiCad (PCBNEW (5.0.0-3-g5ebb6b6)) date Wednesday, August 08, 2018 at 09:58:00 PM*
%MOMM*%
%LPD*%
G01*
G04 APERTURE LIST*
G04 #@! TA.AperFunction,ComponentPad*
%ADD10C,0.900000*%
G04 #@! TD*
G04 #@! TA.AperFunction,ComponentPad*
%ADD11C,1.524000*%
G04 #@! TD*
G04 #@! TA.AperFunction,SMDPad,CuDef*
%ADD12R,0.800000X0.750000*%
G04 #@! TD*
G04 #@! TA.AperFunction,ComponentPad*
%ADD13C,2.032000*%
G04 #@! TD*
G04 #@! TA.AperFunction,SMDPad,CuDef*
%ADD14R,0.500000X0.900000*%
G04 #@! TD*
G04 #@! TA.AperFunction,SMDPad,CuDef*
%ADD15R,0.750000X0.800000*%
G04 #@! TD*
G04 #@! TA.AperFunction,SMDPad,CuDef*
%ADD16R,0.900000X0.500000*%
G04 #@! TD*
G04 #@! TA.AperFunction,SMDPad,CuDef*
%ADD17R,0.600000X1.550000*%
G04 #@! TD*
G04 #@! TA.AperFunction,SMDPad,CuDef*
%ADD18R,0.900000X0.800000*%
G04 #@! TD*
G04 #@! TA.AperFunction,SMDPad,CuDef*
%ADD19R,1.000000X1.250000*%
G04 #@! TD*
G04 #@! TA.AperFunction,SMDPad,CuDef*
%ADD20R,1.200000X1.200000*%
G04 #@! TD*
G04 #@! TA.AperFunction,ViaPad*
%ADD21C,0.600000*%
G04 #@! TD*
G04 #@! TA.AperFunction,Conductor*
%ADD22C,0.508000*%
G04 #@! TD*
G04 #@! TA.AperFunction,Conductor*
%ADD23C,0.254000*%
G04 #@! TD*
G04 #@! TA.AperFunction,Conductor*
%ADD24C,0.250000*%
G04 #@! TD*
G04 APERTURE END LIST*
D10*
G04 #@! TO.P,U1,2*
G04 #@! TO.N,GND*
X123500000Y-106980000D03*
G04 #@! TO.P,U1,1*
G04 #@! TO.N,+3V3*
X123500000Y-105710000D03*
G04 #@! TO.P,U1,3*
G04 #@! TO.N,Net-(U1-Pad3)*
X123500000Y-108250000D03*
G04 #@! TD*
D11*
G04 #@! TO.P,VR1,1*
G04 #@! TO.N,Net-(R1-Pad2)*
X155400000Y-108850000D03*
G04 #@! TO.P,VR1,2*
X152900000Y-106350000D03*
G04 #@! TO.P,VR1,3*
G04 #@! TO.N,+3V3*
X157900000Y-106350000D03*
G04 #@! TD*
D12*
G04 #@! TO.P,C5,2*
G04 #@! TO.N,GND*
X129322200Y-105905800D03*
G04 #@! TO.P,C5,1*
G04 #@! TO.N,+3V3*
X127822200Y-105905800D03*
G04 #@! TD*
D13*
G04 #@! TO.P,J1,1*
G04 #@! TO.N,GND*
X146410000Y-107900000D03*
G04 #@! TO.P,J1,2*
G04 #@! TO.N,X_SIG*
X143870000Y-107900000D03*
G04 #@! TO.P,J1,3*
G04 #@! TO.N,Y_SIG*
X141330000Y-107900000D03*
G04 #@! TO.P,J1,4*
G04 #@! TO.N,+5V*
X138790000Y-107900000D03*
G04 #@! TD*
D14*
G04 #@! TO.P,R9,1*
G04 #@! TO.N,Net-(D1-Pad1)*
X127758000Y-108090200D03*
G04 #@! TO.P,R9,2*
G04 #@! TO.N,X_SIG*
X129258000Y-108090200D03*
G04 #@! TD*
D15*
G04 #@! TO.P,C1,2*
G04 #@! TO.N,GND*
X149200000Y-108250000D03*
G04 #@! TO.P,C1,1*
G04 #@! TO.N,Net-(C1-Pad1)*
X149200000Y-106750000D03*
G04 #@! TD*
G04 #@! TO.P,C2,2*
G04 #@! TO.N,GND*
X149100000Y-101250000D03*
G04 #@! TO.P,C2,1*
G04 #@! TO.N,Net-(C2-Pad1)*
X149100000Y-99750000D03*
G04 #@! TD*
D12*
G04 #@! TO.P,C3,2*
G04 #@! TO.N,GND*
X134550000Y-106300000D03*
G04 #@! TO.P,C3,1*
G04 #@! TO.N,+5V*
X136050000Y-106300000D03*
G04 #@! TD*
G04 #@! TO.P,C4,2*
G04 #@! TO.N,GND*
X134550000Y-98400000D03*
G04 #@! TO.P,C4,1*
G04 #@! TO.N,+3V3*
X136050000Y-98400000D03*
G04 #@! TD*
D16*
G04 #@! TO.P,R1,1*
G04 #@! TO.N,Net-(C1-Pad1)*
X149200000Y-105550000D03*
G04 #@! TO.P,R1,2*
G04 #@! TO.N,Net-(R1-Pad2)*
X149200000Y-104050000D03*
G04 #@! TD*
G04 #@! TO.P,R2,1*
G04 #@! TO.N,Net-(C1-Pad1)*
X150700000Y-106750000D03*
G04 #@! TO.P,R2,2*
G04 #@! TO.N,GND*
X150700000Y-108250000D03*
G04 #@! TD*
G04 #@! TO.P,R3,1*
G04 #@! TO.N,Net-(C2-Pad1)*
X149100000Y-98450000D03*
G04 #@! TO.P,R3,2*
G04 #@! TO.N,Net-(R3-Pad2)*
X149100000Y-96950000D03*
G04 #@! TD*
G04 #@! TO.P,R4,1*
G04 #@! TO.N,Net-(C2-Pad1)*
X150700000Y-99750000D03*
G04 #@! TO.P,R4,2*
G04 #@! TO.N,GND*
X150700000Y-101250000D03*
G04 #@! TD*
G04 #@! TO.P,R10,1*
G04 #@! TO.N,Net-(D2-Pad1)*
X173618400Y-98272400D03*
G04 #@! TO.P,R10,2*
G04 #@! TO.N,Y_SIG*
X173618400Y-99772400D03*
G04 #@! TD*
D10*
G04 #@! TO.P,U2,2*
G04 #@! TO.N,GND*
X174500000Y-94500000D03*
G04 #@! TO.P,U2,1*
G04 #@! TO.N,+3V3*
X175770000Y-94500000D03*
G04 #@! TO.P,U2,3*
G04 #@! TO.N,Net-(U2-Pad3)*
X173230000Y-94500000D03*
G04 #@! TD*
D17*
G04 #@! TO.P,U3,1*
G04 #@! TO.N,X_SIG*
X140895000Y-103900000D03*
G04 #@! TO.P,U3,2*
G04 #@! TO.N,Net-(U1-Pad3)*
X142165000Y-103900000D03*
G04 #@! TO.P,U3,3*
G04 #@! TO.N,Net-(C1-Pad1)*
X143435000Y-103900000D03*
G04 #@! TO.P,U3,4*
G04 #@! TO.N,GND*
X144705000Y-103900000D03*
G04 #@! TO.P,U3,5*
G04 #@! TO.N,Net-(C2-Pad1)*
X144705000Y-98500000D03*
G04 #@! TO.P,U3,6*
G04 #@! TO.N,Net-(U2-Pad3)*
X143435000Y-98500000D03*
G04 #@! TO.P,U3,7*
G04 #@! TO.N,Y_SIG*
X142165000Y-98500000D03*
G04 #@! TO.P,U3,8*
G04 #@! TO.N,+3V3*
X140895000Y-98500000D03*
G04 #@! TD*
D18*
G04 #@! TO.P,U4,1*
G04 #@! TO.N,GND*
X134500000Y-100250000D03*
G04 #@! TO.P,U4,2*
G04 #@! TO.N,+3V3*
X134500000Y-102150000D03*
G04 #@! TO.P,U4,3*
G04 #@! TO.N,+5V*
X136500000Y-101200000D03*
G04 #@! TD*
D15*
G04 #@! TO.P,C6,2*
G04 #@! TO.N,GND*
X175650400Y-99874000D03*
G04 #@! TO.P,C6,1*
G04 #@! TO.N,+3V3*
X175650400Y-98374000D03*
G04 #@! TD*
G04 #@! TO.P,C7,2*
G04 #@! TO.N,+3V3*
X139100000Y-99650000D03*
G04 #@! TO.P,C7,1*
G04 #@! TO.N,GND*
X139100000Y-98150000D03*
G04 #@! TD*
D19*
G04 #@! TO.P,C8,1*
G04 #@! TO.N,+5V*
X136400000Y-104200000D03*
G04 #@! TO.P,C8,2*
G04 #@! TO.N,GND*
X134400000Y-104200000D03*
G04 #@! TD*
D20*
G04 #@! TO.P,D1,2*
G04 #@! TO.N,+3V3*
X125750000Y-105900000D03*
G04 #@! TO.P,D1,1*
G04 #@! TO.N,Net-(D1-Pad1)*
X125750000Y-108100000D03*
G04 #@! TD*
G04 #@! TO.P,D2,2*
G04 #@! TO.N,+3V3*
X175658200Y-96431600D03*
G04 #@! TO.P,D2,1*
G04 #@! TO.N,Net-(D2-Pad1)*
X173458200Y-96431600D03*
G04 #@! TD*
D11*
G04 #@! TO.P,VR2,1*
G04 #@! TO.N,Net-(R3-Pad2)*
X155400000Y-100750000D03*
G04 #@! TO.P,VR2,2*
X152900000Y-98250000D03*
G04 #@! TO.P,VR2,3*
G04 #@! TO.N,+3V3*
X157900000Y-98250000D03*
G04 #@! TD*
D21*
G04 #@! TO.N,GND*
X132050000Y-104200000D03*
X139100000Y-96700000D03*
X132900000Y-106300000D03*
X133100000Y-98300000D03*
X133100000Y-100300000D03*
X152300000Y-108300000D03*
X146000000Y-103900000D03*
X152200000Y-101200000D03*
X175641000Y-101219000D03*
X130462000Y-105892000D03*
G04 #@! TO.N,Y_SIG*
X142200000Y-96200000D03*
X173600000Y-101200000D03*
G04 #@! TO.N,X_SIG*
X130600000Y-108100000D03*
G04 #@! TO.N,Net-(U1-Pad3)*
X142200000Y-102200000D03*
G04 #@! TD*
D22*
G04 #@! TO.N,GND*
X134400000Y-104200000D02*
X132050000Y-104200000D01*
X139100000Y-98150000D02*
X139100000Y-96700000D01*
X134550000Y-106300000D02*
X132900000Y-106300000D01*
X134550000Y-98400000D02*
X133200000Y-98400000D01*
X133200000Y-98400000D02*
X133100000Y-98300000D01*
X134500000Y-100250000D02*
X133150000Y-100250000D01*
X133150000Y-100250000D02*
X133100000Y-100300000D01*
X149200000Y-108250000D02*
X150700000Y-108250000D01*
X150700000Y-108250000D02*
X150750000Y-108300000D01*
X150750000Y-108300000D02*
X152300000Y-108300000D01*
X144705000Y-103900000D02*
X146000000Y-103900000D01*
X150700000Y-101250000D02*
X152150000Y-101250000D01*
X152150000Y-101250000D02*
X152200000Y-101200000D01*
X149100000Y-101250000D02*
X150700000Y-101250000D01*
X175650400Y-99874000D02*
X175650400Y-101209600D01*
X175650400Y-101209600D02*
X175641000Y-101219000D01*
X129322200Y-105905800D02*
X130448200Y-105905800D01*
X130448200Y-105905800D02*
X130462000Y-105892000D01*
D23*
G04 #@! TO.N,Net-(C1-Pad1)*
X149200000Y-105550000D02*
X149200000Y-106750000D01*
X149200000Y-106750000D02*
X150700000Y-106750000D01*
X149200000Y-105550000D02*
X143950000Y-105550000D01*
X143435000Y-105035000D02*
X143435000Y-103900000D01*
X143950000Y-105550000D02*
X143435000Y-105035000D01*
G04 #@! TO.N,Net-(C2-Pad1)*
X149100000Y-99750000D02*
X150700000Y-99750000D01*
X149100000Y-99750000D02*
X149100000Y-98450000D01*
X144705000Y-98500000D02*
X144705000Y-99405000D01*
X145050000Y-99750000D02*
X149100000Y-99750000D01*
X144705000Y-99405000D02*
X145050000Y-99750000D01*
D22*
G04 #@! TO.N,+5V*
X138790000Y-107900000D02*
X136400000Y-107900000D01*
X136050000Y-107550000D02*
X136050000Y-106300000D01*
X136400000Y-107900000D02*
X136050000Y-107550000D01*
X136050000Y-106300000D02*
X136400000Y-105950000D01*
X136400000Y-105950000D02*
X136400000Y-104200000D01*
X136400000Y-104200000D02*
X136500000Y-104100000D01*
X136500000Y-104100000D02*
X136500000Y-101200000D01*
G04 #@! TO.N,+3V3*
X123500000Y-105710000D02*
X125560000Y-105710000D01*
X125750000Y-105900000D02*
X127816400Y-105900000D01*
X125560000Y-105710000D02*
X125750000Y-105900000D01*
X125560000Y-105710000D02*
X125750000Y-105900000D01*
X127816400Y-105900000D02*
X127822200Y-105905800D01*
X175658200Y-96431600D02*
X175658200Y-94611800D01*
X175658200Y-94611800D02*
X175770000Y-94500000D01*
X175658200Y-96431600D02*
X175658200Y-98366200D01*
X175658200Y-98366200D02*
X175650400Y-98374000D01*
D23*
G04 #@! TO.N,Y_SIG*
X142165000Y-98500000D02*
X142165000Y-99535000D01*
X139900000Y-106470000D02*
X141330000Y-107900000D01*
X139900000Y-101800000D02*
X139900000Y-106470000D01*
X142165000Y-99535000D02*
X139900000Y-101800000D01*
X173618400Y-99772400D02*
X173618400Y-101181600D01*
X142165000Y-96235000D02*
X142165000Y-98500000D01*
X142200000Y-96200000D02*
X142165000Y-96235000D01*
X173618400Y-101181600D02*
X173600000Y-101200000D01*
G04 #@! TO.N,X_SIG*
X129258000Y-108090200D02*
X130590200Y-108090200D01*
X130590200Y-108090200D02*
X130600000Y-108100000D01*
X140895000Y-103900000D02*
X140895000Y-104995000D01*
X143870000Y-106770000D02*
X143870000Y-107900000D01*
X142500000Y-105400000D02*
X143870000Y-106770000D01*
X141300000Y-105400000D02*
X142500000Y-105400000D01*
X140895000Y-104995000D02*
X141300000Y-105400000D01*
G04 #@! TO.N,Net-(U1-Pad3)*
X142165000Y-102235000D02*
X142165000Y-103900000D01*
X142200000Y-102200000D02*
X142165000Y-102235000D01*
G04 #@! TO.N,Net-(U2-Pad3)*
X173230000Y-94500000D02*
X172900000Y-94500000D01*
X172900000Y-94500000D02*
X172300000Y-93900000D01*
X143435000Y-96665000D02*
X143435000Y-98500000D01*
X146200000Y-93900000D02*
X143435000Y-96665000D01*
X172300000Y-93900000D02*
X146200000Y-93900000D01*
G04 #@! TO.N,Net-(D1-Pad1)*
X125750000Y-108100000D02*
X127748200Y-108100000D01*
D24*
X126225000Y-107900000D02*
X126350000Y-107900000D01*
D23*
X127650000Y-108100000D02*
X127750000Y-108000000D01*
X127748200Y-108100000D02*
X127758000Y-108090200D01*
G04 #@! TO.N,Net-(D2-Pad1)*
X173458200Y-96431600D02*
X173458200Y-97033400D01*
X173618400Y-97193600D02*
X173618400Y-98272400D01*
X173458200Y-97033400D02*
X173618400Y-97193600D01*
G04 #@! TO.N,Net-(R1-Pad2)*
X152900000Y-106350000D02*
X152900000Y-105900000D01*
X152900000Y-105900000D02*
X151050000Y-104050000D01*
X151050000Y-104050000D02*
X149200000Y-104050000D01*
X155300000Y-108850000D02*
X152800000Y-106350000D01*
X152800000Y-106350000D02*
X152800000Y-106000000D01*
G04 #@! TO.N,Net-(R3-Pad2)*
X155400000Y-100750000D02*
X152900000Y-98250000D01*
X152900000Y-98250000D02*
X152750000Y-98250000D01*
X152750000Y-98250000D02*
X151450000Y-96950000D01*
X151450000Y-96950000D02*
X149100000Y-96950000D01*
G04 #@! TD*
G04 #@! TO.N,+3V3*
G36*
X143097906Y-95924464D02*
X142992655Y-95670365D01*
X142729635Y-95407345D01*
X142385983Y-95265000D01*
X142014017Y-95265000D01*
X141670365Y-95407345D01*
X141407345Y-95670365D01*
X141265000Y-96014017D01*
X141265000Y-96385983D01*
X141403000Y-96719146D01*
X141403000Y-97123837D01*
X141321310Y-97090000D01*
X141180750Y-97090000D01*
X141022000Y-97248750D01*
X141022000Y-98373000D01*
X141042000Y-98373000D01*
X141042000Y-98627000D01*
X141022000Y-98627000D01*
X141022000Y-98647000D01*
X140768000Y-98647000D01*
X140768000Y-98627000D01*
X140748000Y-98627000D01*
X140748000Y-98373000D01*
X140768000Y-98373000D01*
X140768000Y-97248750D01*
X140609250Y-97090000D01*
X140468690Y-97090000D01*
X140235301Y-97186673D01*
X140056673Y-97365302D01*
X140027967Y-97434604D01*
X139989000Y-97376286D01*
X139989000Y-96997037D01*
X140035000Y-96885983D01*
X140035000Y-96514017D01*
X139892655Y-96170365D01*
X139629635Y-95907345D01*
X139285983Y-95765000D01*
X138914017Y-95765000D01*
X138570365Y-95907345D01*
X138307345Y-96170365D01*
X138165000Y-96514017D01*
X138165000Y-96885983D01*
X138211001Y-96997039D01*
X138211001Y-97376285D01*
X138126843Y-97502235D01*
X138077560Y-97750000D01*
X138077560Y-98550000D01*
X138126843Y-98797765D01*
X138187873Y-98889102D01*
X138186673Y-98890302D01*
X138090000Y-99123691D01*
X138090000Y-99364250D01*
X138248750Y-99523000D01*
X138973000Y-99523000D01*
X138973000Y-99503000D01*
X139227000Y-99503000D01*
X139227000Y-99523000D01*
X139247000Y-99523000D01*
X139247000Y-99777000D01*
X139227000Y-99777000D01*
X139227000Y-100526250D01*
X139385750Y-100685000D01*
X139601310Y-100685000D01*
X139834699Y-100588327D01*
X140013327Y-100409698D01*
X140110000Y-100176309D01*
X140110000Y-99935750D01*
X139951252Y-99777002D01*
X140110000Y-99777002D01*
X140110000Y-99688025D01*
X140235301Y-99813327D01*
X140468690Y-99910000D01*
X140609250Y-99910000D01*
X140767998Y-99751252D01*
X140767998Y-99854371D01*
X139414253Y-101208117D01*
X139350629Y-101250629D01*
X139182212Y-101502684D01*
X139138000Y-101724953D01*
X139138000Y-101724957D01*
X139123073Y-101800000D01*
X139138000Y-101875043D01*
X139138001Y-106257117D01*
X139118404Y-106249000D01*
X138461596Y-106249000D01*
X137854784Y-106500350D01*
X137390350Y-106964784D01*
X137371207Y-107011000D01*
X136989200Y-107011000D01*
X137048157Y-106922765D01*
X137097440Y-106675000D01*
X137097440Y-106506364D01*
X137237419Y-106296870D01*
X137289000Y-106037556D01*
X137289000Y-106037555D01*
X137306416Y-105950000D01*
X137289000Y-105862445D01*
X137289000Y-105328786D01*
X137357809Y-105282809D01*
X137498157Y-105072765D01*
X137547440Y-104825000D01*
X137547440Y-103575000D01*
X137498157Y-103327235D01*
X137389000Y-103163871D01*
X137389000Y-102070377D01*
X137407809Y-102057809D01*
X137548157Y-101847765D01*
X137597440Y-101600000D01*
X137597440Y-100800000D01*
X137548157Y-100552235D01*
X137407809Y-100342191D01*
X137197765Y-100201843D01*
X136950000Y-100152560D01*
X136050000Y-100152560D01*
X135802235Y-100201843D01*
X135597440Y-100338684D01*
X135597440Y-99935750D01*
X138090000Y-99935750D01*
X138090000Y-100176309D01*
X138186673Y-100409698D01*
X138365301Y-100588327D01*
X138598690Y-100685000D01*
X138814250Y-100685000D01*
X138973000Y-100526250D01*
X138973000Y-99777000D01*
X138248750Y-99777000D01*
X138090000Y-99935750D01*
X135597440Y-99935750D01*
X135597440Y-99850000D01*
X135548157Y-99602235D01*
X135407809Y-99392191D01*
X135288544Y-99312500D01*
X135289102Y-99312127D01*
X135290302Y-99313327D01*
X135523691Y-99410000D01*
X135764250Y-99410000D01*
X135923000Y-99251250D01*
X135923000Y-98527000D01*
X136177000Y-98527000D01*
X136177000Y-99251250D01*
X136335750Y-99410000D01*
X136576309Y-99410000D01*
X136809698Y-99313327D01*
X136988327Y-99134699D01*
X137085000Y-98901310D01*
X137085000Y-98685750D01*
X136926250Y-98527000D01*
X136177000Y-98527000D01*
X135923000Y-98527000D01*
X135903000Y-98527000D01*
X135903000Y-98273000D01*
X135923000Y-98273000D01*
X135923000Y-97548750D01*
X136177000Y-97548750D01*
X136177000Y-98273000D01*
X136926250Y-98273000D01*
X137085000Y-98114250D01*
X137085000Y-97898690D01*
X136988327Y-97665301D01*
X136809698Y-97486673D01*
X136576309Y-97390000D01*
X136335750Y-97390000D01*
X136177000Y-97548750D01*
X135923000Y-97548750D01*
X135764250Y-97390000D01*
X135523691Y-97390000D01*
X135290302Y-97486673D01*
X135289102Y-97487873D01*
X135197765Y-97426843D01*
X134950000Y-97377560D01*
X134150000Y-97377560D01*
X133902235Y-97426843D01*
X133776286Y-97511000D01*
X133633290Y-97511000D01*
X133629635Y-97507345D01*
X133285983Y-97365000D01*
X132914017Y-97365000D01*
X132570365Y-97507345D01*
X132307345Y-97770365D01*
X132165000Y-98114017D01*
X132165000Y-98485983D01*
X132307345Y-98829635D01*
X132570365Y-99092655D01*
X132744299Y-99164701D01*
X132853130Y-99237419D01*
X133112444Y-99289000D01*
X133112448Y-99289000D01*
X133199999Y-99306415D01*
X133287550Y-99289000D01*
X133746626Y-99289000D01*
X133638871Y-99361000D01*
X133237556Y-99361000D01*
X133150000Y-99343584D01*
X133062444Y-99361000D01*
X133042335Y-99365000D01*
X132914017Y-99365000D01*
X132570365Y-99507345D01*
X132307345Y-99770365D01*
X132165000Y-100114017D01*
X132165000Y-100485983D01*
X132307345Y-100829635D01*
X132570365Y-101092655D01*
X132914017Y-101235000D01*
X133285983Y-101235000D01*
X133517748Y-101139000D01*
X133638871Y-101139000D01*
X133725694Y-101197013D01*
X133690302Y-101211673D01*
X133511673Y-101390301D01*
X133415000Y-101623690D01*
X133415000Y-101864250D01*
X133573750Y-102023000D01*
X134373000Y-102023000D01*
X134373000Y-102003000D01*
X134627000Y-102003000D01*
X134627000Y-102023000D01*
X135426250Y-102023000D01*
X135511781Y-101937469D01*
X135592191Y-102057809D01*
X135611001Y-102070377D01*
X135611000Y-103004395D01*
X135442191Y-103117191D01*
X135400000Y-103180334D01*
X135357809Y-103117191D01*
X135311666Y-103086359D01*
X135488327Y-102909699D01*
X135585000Y-102676310D01*
X135585000Y-102435750D01*
X135426250Y-102277000D01*
X134627000Y-102277000D01*
X134627000Y-102297000D01*
X134373000Y-102297000D01*
X134373000Y-102277000D01*
X133573750Y-102277000D01*
X133415000Y-102435750D01*
X133415000Y-102676310D01*
X133511673Y-102909699D01*
X133608225Y-103006250D01*
X133442191Y-103117191D01*
X133312691Y-103311000D01*
X132347037Y-103311000D01*
X132235983Y-103265000D01*
X131864017Y-103265000D01*
X131520365Y-103407345D01*
X131257345Y-103670365D01*
X131115000Y-104014017D01*
X131115000Y-104385983D01*
X131257345Y-104729635D01*
X131520365Y-104992655D01*
X131864017Y-105135000D01*
X132235983Y-105135000D01*
X132347037Y-105089000D01*
X133312691Y-105089000D01*
X133442191Y-105282809D01*
X133634041Y-105411000D01*
X133197037Y-105411000D01*
X133085983Y-105365000D01*
X132714017Y-105365000D01*
X132370365Y-105507345D01*
X132107345Y-105770365D01*
X131965000Y-106114017D01*
X131965000Y-106485983D01*
X132107345Y-106829635D01*
X132370365Y-107092655D01*
X132714017Y-107235000D01*
X133085983Y-107235000D01*
X133197037Y-107189000D01*
X133776286Y-107189000D01*
X133902235Y-107273157D01*
X134150000Y-107322440D01*
X134950000Y-107322440D01*
X135161000Y-107280470D01*
X135161000Y-107462445D01*
X135143584Y-107550000D01*
X135161000Y-107637555D01*
X135212581Y-107896869D01*
X135409067Y-108190933D01*
X135483296Y-108240531D01*
X135709469Y-108466704D01*
X135759067Y-108540933D01*
X136053130Y-108737419D01*
X136312444Y-108789000D01*
X136312445Y-108789000D01*
X136400000Y-108806416D01*
X136487555Y-108789000D01*
X137371207Y-108789000D01*
X137390350Y-108835216D01*
X137854784Y-109299650D01*
X138461596Y-109551000D01*
X139118404Y-109551000D01*
X139725216Y-109299650D01*
X140060000Y-108964866D01*
X140394784Y-109299650D01*
X141001596Y-109551000D01*
X141658404Y-109551000D01*
X142265216Y-109299650D01*
X142600000Y-108964866D01*
X142934784Y-109299650D01*
X143541596Y-109551000D01*
X144198404Y-109551000D01*
X144805216Y-109299650D01*
X145140000Y-108964866D01*
X145474784Y-109299650D01*
X146081596Y-109551000D01*
X146738404Y-109551000D01*
X147345216Y-109299650D01*
X147809650Y-108835216D01*
X148061000Y-108228404D01*
X148061000Y-107571596D01*
X147809650Y-106964784D01*
X147345216Y-106500350D01*
X146890499Y-106312000D01*
X148185119Y-106312000D01*
X148177560Y-106350000D01*
X148177560Y-107150000D01*
X148226843Y-107397765D01*
X148295155Y-107500000D01*
X148226843Y-107602235D01*
X148177560Y-107850000D01*
X148177560Y-108650000D01*
X148226843Y-108897765D01*
X148367191Y-109107809D01*
X148577235Y-109248157D01*
X148825000Y-109297440D01*
X149575000Y-109297440D01*
X149822765Y-109248157D01*
X149986129Y-109139000D01*
X150207569Y-109139000D01*
X150250000Y-109147440D01*
X150453509Y-109147440D01*
X150750000Y-109206416D01*
X150837556Y-109189000D01*
X152002963Y-109189000D01*
X152114017Y-109235000D01*
X152485983Y-109235000D01*
X152829635Y-109092655D01*
X153092655Y-108829635D01*
X153235000Y-108485983D01*
X153235000Y-108114017D01*
X153092655Y-107770365D01*
X153069290Y-107747000D01*
X153119370Y-107747000D01*
X154003000Y-108630631D01*
X154003000Y-109127881D01*
X154215680Y-109641337D01*
X154608663Y-110034320D01*
X155122119Y-110247000D01*
X155677881Y-110247000D01*
X156191337Y-110034320D01*
X156584320Y-109641337D01*
X156797000Y-109127881D01*
X156797000Y-108572119D01*
X156584320Y-108058663D01*
X156191337Y-107665680D01*
X155677881Y-107453000D01*
X155122119Y-107453000D01*
X155022072Y-107494441D01*
X154857844Y-107330213D01*
X157099392Y-107330213D01*
X157168857Y-107572397D01*
X157692302Y-107759144D01*
X158247368Y-107731362D01*
X158631143Y-107572397D01*
X158700608Y-107330213D01*
X157900000Y-106529605D01*
X157099392Y-107330213D01*
X154857844Y-107330213D01*
X154255559Y-106727929D01*
X154297000Y-106627881D01*
X154297000Y-106142302D01*
X156490856Y-106142302D01*
X156518638Y-106697368D01*
X156677603Y-107081143D01*
X156919787Y-107150608D01*
X157720395Y-106350000D01*
X158079605Y-106350000D01*
X158880213Y-107150608D01*
X159122397Y-107081143D01*
X159309144Y-106557698D01*
X159281362Y-106002632D01*
X159122397Y-105618857D01*
X158880213Y-105549392D01*
X158079605Y-106350000D01*
X157720395Y-106350000D01*
X156919787Y-105549392D01*
X156677603Y-105618857D01*
X156490856Y-106142302D01*
X154297000Y-106142302D01*
X154297000Y-106072119D01*
X154084320Y-105558663D01*
X153895444Y-105369787D01*
X157099392Y-105369787D01*
X157900000Y-106170395D01*
X158700608Y-105369787D01*
X158631143Y-105127603D01*
X158107698Y-104940856D01*
X157552632Y-104968638D01*
X157168857Y-105127603D01*
X157099392Y-105369787D01*
X153895444Y-105369787D01*
X153691337Y-105165680D01*
X153177881Y-104953000D01*
X153030631Y-104953000D01*
X151641883Y-103564253D01*
X151599371Y-103500629D01*
X151347317Y-103332212D01*
X151125048Y-103288000D01*
X151125043Y-103288000D01*
X151050000Y-103273073D01*
X150974957Y-103288000D01*
X150026707Y-103288000D01*
X149897765Y-103201843D01*
X149650000Y-103152560D01*
X148750000Y-103152560D01*
X148502235Y-103201843D01*
X148292191Y-103342191D01*
X148151843Y-103552235D01*
X148102560Y-103800000D01*
X148102560Y-104300000D01*
X148151843Y-104547765D01*
X148292191Y-104757809D01*
X148337375Y-104788000D01*
X146299451Y-104788000D01*
X146529635Y-104692655D01*
X146792655Y-104429635D01*
X146935000Y-104085983D01*
X146935000Y-103714017D01*
X146792655Y-103370365D01*
X146529635Y-103107345D01*
X146185983Y-102965000D01*
X145814017Y-102965000D01*
X145702963Y-103011000D01*
X145629764Y-103011000D01*
X145603157Y-102877235D01*
X145462809Y-102667191D01*
X145252765Y-102526843D01*
X145005000Y-102477560D01*
X144405000Y-102477560D01*
X144157235Y-102526843D01*
X144070000Y-102585132D01*
X143982765Y-102526843D01*
X143735000Y-102477560D01*
X143135000Y-102477560D01*
X143093662Y-102485783D01*
X143135000Y-102385983D01*
X143135000Y-102014017D01*
X142992655Y-101670365D01*
X142729635Y-101407345D01*
X142385983Y-101265000D01*
X142014017Y-101265000D01*
X141670365Y-101407345D01*
X141407345Y-101670365D01*
X141265000Y-102014017D01*
X141265000Y-102385983D01*
X141312623Y-102500957D01*
X141195000Y-102477560D01*
X140662000Y-102477560D01*
X140662000Y-102115630D01*
X142650749Y-100126882D01*
X142714371Y-100084371D01*
X142865295Y-99858497D01*
X142887235Y-99873157D01*
X143135000Y-99922440D01*
X143735000Y-99922440D01*
X143982765Y-99873157D01*
X144064757Y-99818371D01*
X144101365Y-99873157D01*
X144155630Y-99954371D01*
X144219252Y-99996882D01*
X144458116Y-100235746D01*
X144500629Y-100299371D01*
X144752683Y-100467788D01*
X144974952Y-100512000D01*
X144974953Y-100512000D01*
X145050000Y-100526928D01*
X145125047Y-100512000D01*
X148187137Y-100512000D01*
X148126843Y-100602235D01*
X148077560Y-100850000D01*
X148077560Y-101650000D01*
X148126843Y-101897765D01*
X148267191Y-102107809D01*
X148477235Y-102248157D01*
X148725000Y-102297440D01*
X149475000Y-102297440D01*
X149722765Y-102248157D01*
X149886129Y-102139000D01*
X150207569Y-102139000D01*
X150250000Y-102147440D01*
X151150000Y-102147440D01*
X151192431Y-102139000D01*
X152062445Y-102139000D01*
X152150000Y-102156416D01*
X152237555Y-102139000D01*
X152237556Y-102139000D01*
X152257665Y-102135000D01*
X152385983Y-102135000D01*
X152729635Y-101992655D01*
X152992655Y-101729635D01*
X153135000Y-101385983D01*
X153135000Y-101014017D01*
X152992655Y-100670365D01*
X152729635Y-100407345D01*
X152385983Y-100265000D01*
X152014017Y-100265000D01*
X151782252Y-100361000D01*
X151672495Y-100361000D01*
X151748157Y-100247765D01*
X151797440Y-100000000D01*
X151797440Y-99500000D01*
X151748157Y-99252235D01*
X151607809Y-99042191D01*
X151397765Y-98901843D01*
X151150000Y-98852560D01*
X150250000Y-98852560D01*
X150163679Y-98869730D01*
X150197440Y-98700000D01*
X150197440Y-98200000D01*
X150148157Y-97952235D01*
X150007809Y-97742191D01*
X149962625Y-97712000D01*
X151134370Y-97712000D01*
X151503000Y-98080630D01*
X151503000Y-98527881D01*
X151715680Y-99041337D01*
X152108663Y-99434320D01*
X152622119Y-99647000D01*
X153177881Y-99647000D01*
X153207218Y-99634848D01*
X154015152Y-100442782D01*
X154003000Y-100472119D01*
X154003000Y-101027881D01*
X154215680Y-101541337D01*
X154608663Y-101934320D01*
X155122119Y-102147000D01*
X155677881Y-102147000D01*
X156191337Y-101934320D01*
X156584320Y-101541337D01*
X156797000Y-101027881D01*
X156797000Y-100472119D01*
X156584320Y-99958663D01*
X156191337Y-99565680D01*
X155677881Y-99353000D01*
X155122119Y-99353000D01*
X155092782Y-99365152D01*
X154957843Y-99230213D01*
X157099392Y-99230213D01*
X157168857Y-99472397D01*
X157692302Y-99659144D01*
X158247368Y-99631362D01*
X158631143Y-99472397D01*
X158700608Y-99230213D01*
X157900000Y-98429605D01*
X157099392Y-99230213D01*
X154957843Y-99230213D01*
X154284848Y-98557218D01*
X154297000Y-98527881D01*
X154297000Y-98042302D01*
X156490856Y-98042302D01*
X156518638Y-98597368D01*
X156677603Y-98981143D01*
X156919787Y-99050608D01*
X157720395Y-98250000D01*
X158079605Y-98250000D01*
X158880213Y-99050608D01*
X159122397Y-98981143D01*
X159309144Y-98457698D01*
X159284243Y-97960180D01*
X162923220Y-97960180D01*
X162923220Y-99532440D01*
X162932820Y-99580878D01*
X163532260Y-101033758D01*
X163559755Y-101075020D01*
X164669735Y-102187540D01*
X164711027Y-102215168D01*
X166163907Y-102817148D01*
X166212520Y-102826820D01*
X167784780Y-102826820D01*
X167833290Y-102817190D01*
X169283630Y-102217750D01*
X169324820Y-102190285D01*
X170437340Y-101080305D01*
X170464938Y-101039086D01*
X171066918Y-99588746D01*
X171076620Y-99540060D01*
X171076620Y-97967800D01*
X171067020Y-97919362D01*
X170467580Y-96466482D01*
X170440085Y-96425220D01*
X169330105Y-95312700D01*
X169288886Y-95285102D01*
X167838546Y-94683122D01*
X167789860Y-94673420D01*
X166217600Y-94673420D01*
X166169162Y-94683020D01*
X164716282Y-95282460D01*
X164675020Y-95309955D01*
X163562500Y-96419935D01*
X163534902Y-96461154D01*
X162932922Y-97911494D01*
X162923220Y-97960180D01*
X159284243Y-97960180D01*
X159281362Y-97902632D01*
X159122397Y-97518857D01*
X158880213Y-97449392D01*
X158079605Y-98250000D01*
X157720395Y-98250000D01*
X156919787Y-97449392D01*
X156677603Y-97518857D01*
X156490856Y-98042302D01*
X154297000Y-98042302D01*
X154297000Y-97972119D01*
X154084320Y-97458663D01*
X153895444Y-97269787D01*
X157099392Y-97269787D01*
X157900000Y-98070395D01*
X158700608Y-97269787D01*
X158631143Y-97027603D01*
X158107698Y-96840856D01*
X157552632Y-96868638D01*
X157168857Y-97027603D01*
X157099392Y-97269787D01*
X153895444Y-97269787D01*
X153691337Y-97065680D01*
X153177881Y-96853000D01*
X152622119Y-96853000D01*
X152486716Y-96909086D01*
X152041883Y-96464253D01*
X151999371Y-96400629D01*
X151747317Y-96232212D01*
X151525048Y-96188000D01*
X151525043Y-96188000D01*
X151450000Y-96173073D01*
X151374957Y-96188000D01*
X149926707Y-96188000D01*
X149797765Y-96101843D01*
X149550000Y-96052560D01*
X148650000Y-96052560D01*
X148402235Y-96101843D01*
X148192191Y-96242191D01*
X148051843Y-96452235D01*
X148002560Y-96700000D01*
X148002560Y-97200000D01*
X148051843Y-97447765D01*
X148192191Y-97657809D01*
X148255334Y-97700000D01*
X148192191Y-97742191D01*
X148051843Y-97952235D01*
X148002560Y-98200000D01*
X148002560Y-98700000D01*
X148051843Y-98947765D01*
X148078727Y-98988000D01*
X145652440Y-98988000D01*
X145652440Y-97725000D01*
X145603157Y-97477235D01*
X145462809Y-97267191D01*
X145252765Y-97126843D01*
X145005000Y-97077560D01*
X144405000Y-97077560D01*
X144197000Y-97118933D01*
X144197000Y-96980630D01*
X146515630Y-94662000D01*
X171984370Y-94662000D01*
X172220527Y-94898158D01*
X172310182Y-95114603D01*
X172501686Y-95306107D01*
X172400391Y-95373791D01*
X172260043Y-95583835D01*
X172210760Y-95831600D01*
X172210760Y-97031600D01*
X172260043Y-97279365D01*
X172400391Y-97489409D01*
X172610435Y-97629757D01*
X172660406Y-97639697D01*
X172570243Y-97774635D01*
X172520960Y-98022400D01*
X172520960Y-98522400D01*
X172570243Y-98770165D01*
X172710591Y-98980209D01*
X172773734Y-99022400D01*
X172710591Y-99064591D01*
X172570243Y-99274635D01*
X172520960Y-99522400D01*
X172520960Y-100022400D01*
X172570243Y-100270165D01*
X172710591Y-100480209D01*
X172856401Y-100577637D01*
X172856401Y-100621309D01*
X172807345Y-100670365D01*
X172665000Y-101014017D01*
X172665000Y-101385983D01*
X172807345Y-101729635D01*
X173070365Y-101992655D01*
X173414017Y-102135000D01*
X173785983Y-102135000D01*
X174129635Y-101992655D01*
X174392655Y-101729635D01*
X174535000Y-101385983D01*
X174535000Y-101014017D01*
X174392655Y-100670365D01*
X174380400Y-100658110D01*
X174380400Y-100577636D01*
X174526209Y-100480209D01*
X174636226Y-100315558D01*
X174677243Y-100521765D01*
X174761401Y-100647715D01*
X174761401Y-100899267D01*
X174706000Y-101033017D01*
X174706000Y-101404983D01*
X174848345Y-101748635D01*
X175111365Y-102011655D01*
X175455017Y-102154000D01*
X175826983Y-102154000D01*
X176170635Y-102011655D01*
X176433655Y-101748635D01*
X176576000Y-101404983D01*
X176576000Y-101033017D01*
X176539400Y-100944657D01*
X176539400Y-100647714D01*
X176623557Y-100521765D01*
X176672840Y-100274000D01*
X176672840Y-99474000D01*
X176623557Y-99226235D01*
X176562527Y-99134898D01*
X176563727Y-99133698D01*
X176660400Y-98900309D01*
X176660400Y-98659750D01*
X176501650Y-98501000D01*
X175777400Y-98501000D01*
X175777400Y-98521000D01*
X175523400Y-98521000D01*
X175523400Y-98501000D01*
X175503400Y-98501000D01*
X175503400Y-98247000D01*
X175523400Y-98247000D01*
X175523400Y-97515650D01*
X175531200Y-97507850D01*
X175531200Y-97497750D01*
X175777400Y-97497750D01*
X175777400Y-98247000D01*
X176501650Y-98247000D01*
X176660400Y-98088250D01*
X176660400Y-97847691D01*
X176563727Y-97614302D01*
X176548216Y-97598790D01*
X176617898Y-97569927D01*
X176796527Y-97391299D01*
X176893200Y-97157910D01*
X176893200Y-96717350D01*
X176734450Y-96558600D01*
X175785200Y-96558600D01*
X175785200Y-97489950D01*
X175777400Y-97497750D01*
X175531200Y-97497750D01*
X175531200Y-96558600D01*
X175511200Y-96558600D01*
X175511200Y-96304600D01*
X175531200Y-96304600D01*
X175531200Y-96284600D01*
X175785200Y-96284600D01*
X175785200Y-96304600D01*
X176734450Y-96304600D01*
X176893200Y-96145850D01*
X176893200Y-95705290D01*
X176796527Y-95471901D01*
X176617898Y-95293273D01*
X176561183Y-95269781D01*
X176640286Y-95190678D01*
X176523748Y-95074140D01*
X176733712Y-95043197D01*
X176868226Y-94633052D01*
X176835546Y-94202651D01*
X176733712Y-93956803D01*
X176523748Y-93925860D01*
X176640286Y-93809322D01*
X176560862Y-93729898D01*
X176752733Y-93761834D01*
X176978209Y-93883495D01*
X177152124Y-94071635D01*
X177261495Y-94319026D01*
X177290001Y-94544674D01*
X177290000Y-102691315D01*
X177238166Y-103002733D01*
X177116506Y-103228209D01*
X176928366Y-103402123D01*
X176680974Y-103511494D01*
X176455327Y-103540000D01*
X162080074Y-103540000D01*
X162036122Y-103548743D01*
X161687979Y-103592723D01*
X161647707Y-103604767D01*
X161605801Y-103608065D01*
X161489880Y-103647754D01*
X161039381Y-103846918D01*
X160992649Y-103877615D01*
X160941334Y-103899821D01*
X160844522Y-103974917D01*
X160844517Y-103974920D01*
X160844515Y-103974923D01*
X160482819Y-104309269D01*
X160448550Y-104353448D01*
X160407191Y-104391082D01*
X160339929Y-104493481D01*
X160339923Y-104493489D01*
X160339923Y-104493490D01*
X160339922Y-104493492D01*
X160106027Y-104926977D01*
X160087916Y-104979874D01*
X160060978Y-105028874D01*
X160030507Y-105147552D01*
X159951457Y-105622481D01*
X159940001Y-105680074D01*
X159940000Y-109441314D01*
X159888166Y-109752733D01*
X159766506Y-109978209D01*
X159578366Y-110152123D01*
X159330974Y-110261494D01*
X159105327Y-110290000D01*
X123558685Y-110290000D01*
X123247267Y-110238166D01*
X123021791Y-110116506D01*
X122847877Y-109928366D01*
X122738506Y-109680974D01*
X122710000Y-109455327D01*
X122710000Y-108994421D01*
X122885397Y-109169818D01*
X123284180Y-109335000D01*
X123715820Y-109335000D01*
X124114603Y-109169818D01*
X124419818Y-108864603D01*
X124502560Y-108664847D01*
X124502560Y-108700000D01*
X124551843Y-108947765D01*
X124692191Y-109157809D01*
X124902235Y-109298157D01*
X125150000Y-109347440D01*
X126350000Y-109347440D01*
X126597765Y-109298157D01*
X126807809Y-109157809D01*
X126948157Y-108947765D01*
X126963862Y-108868810D01*
X127050191Y-108998009D01*
X127260235Y-109138357D01*
X127508000Y-109187640D01*
X128008000Y-109187640D01*
X128255765Y-109138357D01*
X128465809Y-108998009D01*
X128508000Y-108934866D01*
X128550191Y-108998009D01*
X128760235Y-109138357D01*
X129008000Y-109187640D01*
X129508000Y-109187640D01*
X129755765Y-109138357D01*
X129965809Y-108998009D01*
X130049888Y-108872178D01*
X130070365Y-108892655D01*
X130414017Y-109035000D01*
X130785983Y-109035000D01*
X131129635Y-108892655D01*
X131392655Y-108629635D01*
X131535000Y-108285983D01*
X131535000Y-107914017D01*
X131392655Y-107570365D01*
X131129635Y-107307345D01*
X130785983Y-107165000D01*
X130414017Y-107165000D01*
X130070365Y-107307345D01*
X130057738Y-107319972D01*
X129965809Y-107182391D01*
X129755765Y-107042043D01*
X129508000Y-106992760D01*
X129008000Y-106992760D01*
X128760235Y-107042043D01*
X128550191Y-107182391D01*
X128508000Y-107245534D01*
X128465809Y-107182391D01*
X128255765Y-107042043D01*
X128008000Y-106992760D01*
X127508000Y-106992760D01*
X127260235Y-107042043D01*
X127050191Y-107182391D01*
X126960858Y-107316087D01*
X126948157Y-107252235D01*
X126807809Y-107042191D01*
X126746680Y-107001346D01*
X126888327Y-106859698D01*
X126951225Y-106707850D01*
X127062502Y-106819127D01*
X127295891Y-106915800D01*
X127536450Y-106915800D01*
X127695200Y-106757050D01*
X127695200Y-106032800D01*
X126945950Y-106032800D01*
X126889000Y-106089750D01*
X126826250Y-106027000D01*
X125877000Y-106027000D01*
X125877000Y-106047000D01*
X125623000Y-106047000D01*
X125623000Y-106027000D01*
X125603000Y-106027000D01*
X125603000Y-105773000D01*
X125623000Y-105773000D01*
X125623000Y-104823750D01*
X125877000Y-104823750D01*
X125877000Y-105773000D01*
X126826250Y-105773000D01*
X126883200Y-105716050D01*
X126945950Y-105778800D01*
X127695200Y-105778800D01*
X127695200Y-105054550D01*
X127949200Y-105054550D01*
X127949200Y-105778800D01*
X127969200Y-105778800D01*
X127969200Y-106032800D01*
X127949200Y-106032800D01*
X127949200Y-106757050D01*
X128107950Y-106915800D01*
X128348509Y-106915800D01*
X128581898Y-106819127D01*
X128583098Y-106817927D01*
X128674435Y-106878957D01*
X128922200Y-106928240D01*
X129722200Y-106928240D01*
X129969965Y-106878957D01*
X130095914Y-106794800D01*
X130198279Y-106794800D01*
X130276017Y-106827000D01*
X130647983Y-106827000D01*
X130991635Y-106684655D01*
X131254655Y-106421635D01*
X131397000Y-106077983D01*
X131397000Y-105706017D01*
X131254655Y-105362365D01*
X130991635Y-105099345D01*
X130647983Y-104957000D01*
X130276017Y-104957000D01*
X130131647Y-105016800D01*
X130095914Y-105016800D01*
X129969965Y-104932643D01*
X129722200Y-104883360D01*
X128922200Y-104883360D01*
X128674435Y-104932643D01*
X128583098Y-104993673D01*
X128581898Y-104992473D01*
X128348509Y-104895800D01*
X128107950Y-104895800D01*
X127949200Y-105054550D01*
X127695200Y-105054550D01*
X127536450Y-104895800D01*
X127295891Y-104895800D01*
X127062502Y-104992473D01*
X126954622Y-105100352D01*
X126888327Y-104940302D01*
X126709699Y-104761673D01*
X126476310Y-104665000D01*
X126035750Y-104665000D01*
X125877000Y-104823750D01*
X125623000Y-104823750D01*
X125464250Y-104665000D01*
X125023690Y-104665000D01*
X124790301Y-104761673D01*
X124611673Y-104940302D01*
X124515000Y-105173691D01*
X124515000Y-105290623D01*
X124463712Y-105166803D01*
X124253745Y-105135860D01*
X123679605Y-105710000D01*
X123693748Y-105724143D01*
X123522890Y-105895000D01*
X123505395Y-105895000D01*
X123500000Y-105889605D01*
X123494605Y-105895000D01*
X123477110Y-105895000D01*
X123306253Y-105724143D01*
X123320395Y-105710000D01*
X122746255Y-105135860D01*
X122710000Y-105141203D01*
X122710000Y-104956255D01*
X122925860Y-104956255D01*
X123500000Y-105530395D01*
X124074140Y-104956255D01*
X124043197Y-104746288D01*
X123633052Y-104611774D01*
X123202651Y-104644454D01*
X122956803Y-104746288D01*
X122925860Y-104956255D01*
X122710000Y-104956255D01*
X122710000Y-97960180D01*
X123673220Y-97960180D01*
X123673220Y-99532440D01*
X123682820Y-99580878D01*
X124282260Y-101033758D01*
X124309755Y-101075020D01*
X125419735Y-102187540D01*
X125461027Y-102215168D01*
X126913907Y-102817148D01*
X126962520Y-102826820D01*
X128534780Y-102826820D01*
X128583290Y-102817190D01*
X130033630Y-102217750D01*
X130074820Y-102190285D01*
X131187340Y-101080305D01*
X131214938Y-101039086D01*
X131816918Y-99588746D01*
X131826620Y-99540060D01*
X131826620Y-97967800D01*
X131817020Y-97919362D01*
X131217580Y-96466482D01*
X131190085Y-96425220D01*
X130080105Y-95312700D01*
X130038886Y-95285102D01*
X128588546Y-94683122D01*
X128539860Y-94673420D01*
X126967600Y-94673420D01*
X126919162Y-94683020D01*
X125466282Y-95282460D01*
X125425020Y-95309955D01*
X124312500Y-96419935D01*
X124284902Y-96461154D01*
X123682922Y-97911494D01*
X123673220Y-97960180D01*
X122710000Y-97960180D01*
X122710000Y-94558686D01*
X122761834Y-94247267D01*
X122883495Y-94021791D01*
X123071635Y-93847876D01*
X123319026Y-93738505D01*
X123544666Y-93710000D01*
X145312370Y-93710000D01*
X143097906Y-95924464D01*
X143097906Y-95924464D01*
G37*
X143097906Y-95924464D02*
X142992655Y-95670365D01*
X142729635Y-95407345D01*
X142385983Y-95265000D01*
X142014017Y-95265000D01*
X141670365Y-95407345D01*
X141407345Y-95670365D01*
X141265000Y-96014017D01*
X141265000Y-96385983D01*
X141403000Y-96719146D01*
X141403000Y-97123837D01*
X141321310Y-97090000D01*
X141180750Y-97090000D01*
X141022000Y-97248750D01*
X141022000Y-98373000D01*
X141042000Y-98373000D01*
X141042000Y-98627000D01*
X141022000Y-98627000D01*
X141022000Y-98647000D01*
X140768000Y-98647000D01*
X140768000Y-98627000D01*
X140748000Y-98627000D01*
X140748000Y-98373000D01*
X140768000Y-98373000D01*
X140768000Y-97248750D01*
X140609250Y-97090000D01*
X140468690Y-97090000D01*
X140235301Y-97186673D01*
X140056673Y-97365302D01*
X140027967Y-97434604D01*
X139989000Y-97376286D01*
X139989000Y-96997037D01*
X140035000Y-96885983D01*
X140035000Y-96514017D01*
X139892655Y-96170365D01*
X139629635Y-95907345D01*
X139285983Y-95765000D01*
X138914017Y-95765000D01*
X138570365Y-95907345D01*
X138307345Y-96170365D01*
X138165000Y-96514017D01*
X138165000Y-96885983D01*
X138211001Y-96997039D01*
X138211001Y-97376285D01*
X138126843Y-97502235D01*
X138077560Y-97750000D01*
X138077560Y-98550000D01*
X138126843Y-98797765D01*
X138187873Y-98889102D01*
X138186673Y-98890302D01*
X138090000Y-99123691D01*
X138090000Y-99364250D01*
X138248750Y-99523000D01*
X138973000Y-99523000D01*
X138973000Y-99503000D01*
X139227000Y-99503000D01*
X139227000Y-99523000D01*
X139247000Y-99523000D01*
X139247000Y-99777000D01*
X139227000Y-99777000D01*
X139227000Y-100526250D01*
X139385750Y-100685000D01*
X139601310Y-100685000D01*
X139834699Y-100588327D01*
X140013327Y-100409698D01*
X140110000Y-100176309D01*
X140110000Y-99935750D01*
X139951252Y-99777002D01*
X140110000Y-99777002D01*
X140110000Y-99688025D01*
X140235301Y-99813327D01*
X140468690Y-99910000D01*
X140609250Y-99910000D01*
X140767998Y-99751252D01*
X140767998Y-99854371D01*
X139414253Y-101208117D01*
X139350629Y-101250629D01*
X139182212Y-101502684D01*
X139138000Y-101724953D01*
X139138000Y-101724957D01*
X139123073Y-101800000D01*
X139138000Y-101875043D01*
X139138001Y-106257117D01*
X139118404Y-106249000D01*
X138461596Y-106249000D01*
X137854784Y-106500350D01*
X137390350Y-106964784D01*
X137371207Y-107011000D01*
X136989200Y-107011000D01*
X137048157Y-106922765D01*
X137097440Y-106675000D01*
X137097440Y-106506364D01*
X137237419Y-106296870D01*
X137289000Y-106037556D01*
X137289000Y-106037555D01*
X137306416Y-105950000D01*
X137289000Y-105862445D01*
X137289000Y-105328786D01*
X137357809Y-105282809D01*
X137498157Y-105072765D01*
X137547440Y-104825000D01*
X137547440Y-103575000D01*
X137498157Y-103327235D01*
X137389000Y-103163871D01*
X137389000Y-102070377D01*
X137407809Y-102057809D01*
X137548157Y-101847765D01*
X137597440Y-101600000D01*
X137597440Y-100800000D01*
X137548157Y-100552235D01*
X137407809Y-100342191D01*
X137197765Y-100201843D01*
X136950000Y-100152560D01*
X136050000Y-100152560D01*
X135802235Y-100201843D01*
X135597440Y-100338684D01*
X135597440Y-99935750D01*
X138090000Y-99935750D01*
X138090000Y-100176309D01*
X138186673Y-100409698D01*
X138365301Y-100588327D01*
X138598690Y-100685000D01*
X138814250Y-100685000D01*
X138973000Y-100526250D01*
X138973000Y-99777000D01*
X138248750Y-99777000D01*
X138090000Y-99935750D01*
X135597440Y-99935750D01*
X135597440Y-99850000D01*
X135548157Y-99602235D01*
X135407809Y-99392191D01*
X135288544Y-99312500D01*
X135289102Y-99312127D01*
X135290302Y-99313327D01*
X135523691Y-99410000D01*
X135764250Y-99410000D01*
X135923000Y-99251250D01*
X135923000Y-98527000D01*
X136177000Y-98527000D01*
X136177000Y-99251250D01*
X136335750Y-99410000D01*
X136576309Y-99410000D01*
X136809698Y-99313327D01*
X136988327Y-99134699D01*
X137085000Y-98901310D01*
X137085000Y-98685750D01*
X136926250Y-98527000D01*
X136177000Y-98527000D01*
X135923000Y-98527000D01*
X135903000Y-98527000D01*
X135903000Y-98273000D01*
X135923000Y-98273000D01*
X135923000Y-97548750D01*
X136177000Y-97548750D01*
X136177000Y-98273000D01*
X136926250Y-98273000D01*
X137085000Y-98114250D01*
X137085000Y-97898690D01*
X136988327Y-97665301D01*
X136809698Y-97486673D01*
X136576309Y-97390000D01*
X136335750Y-97390000D01*
X136177000Y-97548750D01*
X135923000Y-97548750D01*
X135764250Y-97390000D01*
X135523691Y-97390000D01*
X135290302Y-97486673D01*
X135289102Y-97487873D01*
X135197765Y-97426843D01*
X134950000Y-97377560D01*
X134150000Y-97377560D01*
X133902235Y-97426843D01*
X133776286Y-97511000D01*
X133633290Y-97511000D01*
X133629635Y-97507345D01*
X133285983Y-97365000D01*
X132914017Y-97365000D01*
X132570365Y-97507345D01*
X132307345Y-97770365D01*
X132165000Y-98114017D01*
X132165000Y-98485983D01*
X132307345Y-98829635D01*
X132570365Y-99092655D01*
X132744299Y-99164701D01*
X132853130Y-99237419D01*
X133112444Y-99289000D01*
X133112448Y-99289000D01*
X133199999Y-99306415D01*
X133287550Y-99289000D01*
X133746626Y-99289000D01*
X133638871Y-99361000D01*
X133237556Y-99361000D01*
X133150000Y-99343584D01*
X133062444Y-99361000D01*
X133042335Y-99365000D01*
X132914017Y-99365000D01*
X132570365Y-99507345D01*
X132307345Y-99770365D01*
X132165000Y-100114017D01*
X132165000Y-100485983D01*
X132307345Y-100829635D01*
X132570365Y-101092655D01*
X132914017Y-101235000D01*
X133285983Y-101235000D01*
X133517748Y-101139000D01*
X133638871Y-101139000D01*
X133725694Y-101197013D01*
X133690302Y-101211673D01*
X133511673Y-101390301D01*
X133415000Y-101623690D01*
X133415000Y-101864250D01*
X133573750Y-102023000D01*
X134373000Y-102023000D01*
X134373000Y-102003000D01*
X134627000Y-102003000D01*
X134627000Y-102023000D01*
X135426250Y-102023000D01*
X135511781Y-101937469D01*
X135592191Y-102057809D01*
X135611001Y-102070377D01*
X135611000Y-103004395D01*
X135442191Y-103117191D01*
X135400000Y-103180334D01*
X135357809Y-103117191D01*
X135311666Y-103086359D01*
X135488327Y-102909699D01*
X135585000Y-102676310D01*
X135585000Y-102435750D01*
X135426250Y-102277000D01*
X134627000Y-102277000D01*
X134627000Y-102297000D01*
X134373000Y-102297000D01*
X134373000Y-102277000D01*
X133573750Y-102277000D01*
X133415000Y-102435750D01*
X133415000Y-102676310D01*
X133511673Y-102909699D01*
X133608225Y-103006250D01*
X133442191Y-103117191D01*
X133312691Y-103311000D01*
X132347037Y-103311000D01*
X132235983Y-103265000D01*
X131864017Y-103265000D01*
X131520365Y-103407345D01*
X131257345Y-103670365D01*
X131115000Y-104014017D01*
X131115000Y-104385983D01*
X131257345Y-104729635D01*
X131520365Y-104992655D01*
X131864017Y-105135000D01*
X132235983Y-105135000D01*
X132347037Y-105089000D01*
X133312691Y-105089000D01*
X133442191Y-105282809D01*
X133634041Y-105411000D01*
X133197037Y-105411000D01*
X133085983Y-105365000D01*
X132714017Y-105365000D01*
X132370365Y-105507345D01*
X132107345Y-105770365D01*
X131965000Y-106114017D01*
X131965000Y-106485983D01*
X132107345Y-106829635D01*
X132370365Y-107092655D01*
X132714017Y-107235000D01*
X133085983Y-107235000D01*
X133197037Y-107189000D01*
X133776286Y-107189000D01*
X133902235Y-107273157D01*
X134150000Y-107322440D01*
X134950000Y-107322440D01*
X135161000Y-107280470D01*
X135161000Y-107462445D01*
X135143584Y-107550000D01*
X135161000Y-107637555D01*
X135212581Y-107896869D01*
X135409067Y-108190933D01*
X135483296Y-108240531D01*
X135709469Y-108466704D01*
X135759067Y-108540933D01*
X136053130Y-108737419D01*
X136312444Y-108789000D01*
X136312445Y-108789000D01*
X136400000Y-108806416D01*
X136487555Y-108789000D01*
X137371207Y-108789000D01*
X137390350Y-108835216D01*
X137854784Y-109299650D01*
X138461596Y-109551000D01*
X139118404Y-109551000D01*
X139725216Y-109299650D01*
X140060000Y-108964866D01*
X140394784Y-109299650D01*
X141001596Y-109551000D01*
X141658404Y-109551000D01*
X142265216Y-109299650D01*
X142600000Y-108964866D01*
X142934784Y-109299650D01*
X143541596Y-109551000D01*
X144198404Y-109551000D01*
X144805216Y-109299650D01*
X145140000Y-108964866D01*
X145474784Y-109299650D01*
X146081596Y-109551000D01*
X146738404Y-109551000D01*
X147345216Y-109299650D01*
X147809650Y-108835216D01*
X148061000Y-108228404D01*
X148061000Y-107571596D01*
X147809650Y-106964784D01*
X147345216Y-106500350D01*
X146890499Y-106312000D01*
X148185119Y-106312000D01*
X148177560Y-106350000D01*
X148177560Y-107150000D01*
X148226843Y-107397765D01*
X148295155Y-107500000D01*
X148226843Y-107602235D01*
X148177560Y-107850000D01*
X148177560Y-108650000D01*
X148226843Y-108897765D01*
X148367191Y-109107809D01*
X148577235Y-109248157D01*
X148825000Y-109297440D01*
X149575000Y-109297440D01*
X149822765Y-109248157D01*
X149986129Y-109139000D01*
X150207569Y-109139000D01*
X150250000Y-109147440D01*
X150453509Y-109147440D01*
X150750000Y-109206416D01*
X150837556Y-109189000D01*
X152002963Y-109189000D01*
X152114017Y-109235000D01*
X152485983Y-109235000D01*
X152829635Y-109092655D01*
X153092655Y-108829635D01*
X153235000Y-108485983D01*
X153235000Y-108114017D01*
X153092655Y-107770365D01*
X153069290Y-107747000D01*
X153119370Y-107747000D01*
X154003000Y-108630631D01*
X154003000Y-109127881D01*
X154215680Y-109641337D01*
X154608663Y-110034320D01*
X155122119Y-110247000D01*
X155677881Y-110247000D01*
X156191337Y-110034320D01*
X156584320Y-109641337D01*
X156797000Y-109127881D01*
X156797000Y-108572119D01*
X156584320Y-108058663D01*
X156191337Y-107665680D01*
X155677881Y-107453000D01*
X155122119Y-107453000D01*
X155022072Y-107494441D01*
X154857844Y-107330213D01*
X157099392Y-107330213D01*
X157168857Y-107572397D01*
X157692302Y-107759144D01*
X158247368Y-107731362D01*
X158631143Y-107572397D01*
X158700608Y-107330213D01*
X157900000Y-106529605D01*
X157099392Y-107330213D01*
X154857844Y-107330213D01*
X154255559Y-106727929D01*
X154297000Y-106627881D01*
X154297000Y-106142302D01*
X156490856Y-106142302D01*
X156518638Y-106697368D01*
X156677603Y-107081143D01*
X156919787Y-107150608D01*
X157720395Y-106350000D01*
X158079605Y-106350000D01*
X158880213Y-107150608D01*
X159122397Y-107081143D01*
X159309144Y-106557698D01*
X159281362Y-106002632D01*
X159122397Y-105618857D01*
X158880213Y-105549392D01*
X158079605Y-106350000D01*
X157720395Y-106350000D01*
X156919787Y-105549392D01*
X156677603Y-105618857D01*
X156490856Y-106142302D01*
X154297000Y-106142302D01*
X154297000Y-106072119D01*
X154084320Y-105558663D01*
X153895444Y-105369787D01*
X157099392Y-105369787D01*
X157900000Y-106170395D01*
X158700608Y-105369787D01*
X158631143Y-105127603D01*
X158107698Y-104940856D01*
X157552632Y-104968638D01*
X157168857Y-105127603D01*
X157099392Y-105369787D01*
X153895444Y-105369787D01*
X153691337Y-105165680D01*
X153177881Y-104953000D01*
X153030631Y-104953000D01*
X151641883Y-103564253D01*
X151599371Y-103500629D01*
X151347317Y-103332212D01*
X151125048Y-103288000D01*
X151125043Y-103288000D01*
X151050000Y-103273073D01*
X150974957Y-103288000D01*
X150026707Y-103288000D01*
X149897765Y-103201843D01*
X149650000Y-103152560D01*
X148750000Y-103152560D01*
X148502235Y-103201843D01*
X148292191Y-103342191D01*
X148151843Y-103552235D01*
X148102560Y-103800000D01*
X148102560Y-104300000D01*
X148151843Y-104547765D01*
X148292191Y-104757809D01*
X148337375Y-104788000D01*
X146299451Y-104788000D01*
X146529635Y-104692655D01*
X146792655Y-104429635D01*
X146935000Y-104085983D01*
X146935000Y-103714017D01*
X146792655Y-103370365D01*
X146529635Y-103107345D01*
X146185983Y-102965000D01*
X145814017Y-102965000D01*
X145702963Y-103011000D01*
X145629764Y-103011000D01*
X145603157Y-102877235D01*
X145462809Y-102667191D01*
X145252765Y-102526843D01*
X145005000Y-102477560D01*
X144405000Y-102477560D01*
X144157235Y-102526843D01*
X144070000Y-102585132D01*
X143982765Y-102526843D01*
X143735000Y-102477560D01*
X143135000Y-102477560D01*
X143093662Y-102485783D01*
X143135000Y-102385983D01*
X143135000Y-102014017D01*
X142992655Y-101670365D01*
X142729635Y-101407345D01*
X142385983Y-101265000D01*
X142014017Y-101265000D01*
X141670365Y-101407345D01*
X141407345Y-101670365D01*
X141265000Y-102014017D01*
X141265000Y-102385983D01*
X141312623Y-102500957D01*
X141195000Y-102477560D01*
X140662000Y-102477560D01*
X140662000Y-102115630D01*
X142650749Y-100126882D01*
X142714371Y-100084371D01*
X142865295Y-99858497D01*
X142887235Y-99873157D01*
X143135000Y-99922440D01*
X143735000Y-99922440D01*
X143982765Y-99873157D01*
X144064757Y-99818371D01*
X144101365Y-99873157D01*
X144155630Y-99954371D01*
X144219252Y-99996882D01*
X144458116Y-100235746D01*
X144500629Y-100299371D01*
X144752683Y-100467788D01*
X144974952Y-100512000D01*
X144974953Y-100512000D01*
X145050000Y-100526928D01*
X145125047Y-100512000D01*
X148187137Y-100512000D01*
X148126843Y-100602235D01*
X148077560Y-100850000D01*
X148077560Y-101650000D01*
X148126843Y-101897765D01*
X148267191Y-102107809D01*
X148477235Y-102248157D01*
X148725000Y-102297440D01*
X149475000Y-102297440D01*
X149722765Y-102248157D01*
X149886129Y-102139000D01*
X150207569Y-102139000D01*
X150250000Y-102147440D01*
X151150000Y-102147440D01*
X151192431Y-102139000D01*
X152062445Y-102139000D01*
X152150000Y-102156416D01*
X152237555Y-102139000D01*
X152237556Y-102139000D01*
X152257665Y-102135000D01*
X152385983Y-102135000D01*
X152729635Y-101992655D01*
X152992655Y-101729635D01*
X153135000Y-101385983D01*
X153135000Y-101014017D01*
X152992655Y-100670365D01*
X152729635Y-100407345D01*
X152385983Y-100265000D01*
X152014017Y-100265000D01*
X151782252Y-100361000D01*
X151672495Y-100361000D01*
X151748157Y-100247765D01*
X151797440Y-100000000D01*
X151797440Y-99500000D01*
X151748157Y-99252235D01*
X151607809Y-99042191D01*
X151397765Y-98901843D01*
X151150000Y-98852560D01*
X150250000Y-98852560D01*
X150163679Y-98869730D01*
X150197440Y-98700000D01*
X150197440Y-98200000D01*
X150148157Y-97952235D01*
X150007809Y-97742191D01*
X149962625Y-97712000D01*
X151134370Y-97712000D01*
X151503000Y-98080630D01*
X151503000Y-98527881D01*
X151715680Y-99041337D01*
X152108663Y-99434320D01*
X152622119Y-99647000D01*
X153177881Y-99647000D01*
X153207218Y-99634848D01*
X154015152Y-100442782D01*
X154003000Y-100472119D01*
X154003000Y-101027881D01*
X154215680Y-101541337D01*
X154608663Y-101934320D01*
X155122119Y-102147000D01*
X155677881Y-102147000D01*
X156191337Y-101934320D01*
X156584320Y-101541337D01*
X156797000Y-101027881D01*
X156797000Y-100472119D01*
X156584320Y-99958663D01*
X156191337Y-99565680D01*
X155677881Y-99353000D01*
X155122119Y-99353000D01*
X155092782Y-99365152D01*
X154957843Y-99230213D01*
X157099392Y-99230213D01*
X157168857Y-99472397D01*
X157692302Y-99659144D01*
X158247368Y-99631362D01*
X158631143Y-99472397D01*
X158700608Y-99230213D01*
X157900000Y-98429605D01*
X157099392Y-99230213D01*
X154957843Y-99230213D01*
X154284848Y-98557218D01*
X154297000Y-98527881D01*
X154297000Y-98042302D01*
X156490856Y-98042302D01*
X156518638Y-98597368D01*
X156677603Y-98981143D01*
X156919787Y-99050608D01*
X157720395Y-98250000D01*
X158079605Y-98250000D01*
X158880213Y-99050608D01*
X159122397Y-98981143D01*
X159309144Y-98457698D01*
X159284243Y-97960180D01*
X162923220Y-97960180D01*
X162923220Y-99532440D01*
X162932820Y-99580878D01*
X163532260Y-101033758D01*
X163559755Y-101075020D01*
X164669735Y-102187540D01*
X164711027Y-102215168D01*
X166163907Y-102817148D01*
X166212520Y-102826820D01*
X167784780Y-102826820D01*
X167833290Y-102817190D01*
X169283630Y-102217750D01*
X169324820Y-102190285D01*
X170437340Y-101080305D01*
X170464938Y-101039086D01*
X171066918Y-99588746D01*
X171076620Y-99540060D01*
X171076620Y-97967800D01*
X171067020Y-97919362D01*
X170467580Y-96466482D01*
X170440085Y-96425220D01*
X169330105Y-95312700D01*
X169288886Y-95285102D01*
X167838546Y-94683122D01*
X167789860Y-94673420D01*
X166217600Y-94673420D01*
X166169162Y-94683020D01*
X164716282Y-95282460D01*
X164675020Y-95309955D01*
X163562500Y-96419935D01*
X163534902Y-96461154D01*
X162932922Y-97911494D01*
X162923220Y-97960180D01*
X159284243Y-97960180D01*
X159281362Y-97902632D01*
X159122397Y-97518857D01*
X158880213Y-97449392D01*
X158079605Y-98250000D01*
X157720395Y-98250000D01*
X156919787Y-97449392D01*
X156677603Y-97518857D01*
X156490856Y-98042302D01*
X154297000Y-98042302D01*
X154297000Y-97972119D01*
X154084320Y-97458663D01*
X153895444Y-97269787D01*
X157099392Y-97269787D01*
X157900000Y-98070395D01*
X158700608Y-97269787D01*
X158631143Y-97027603D01*
X158107698Y-96840856D01*
X157552632Y-96868638D01*
X157168857Y-97027603D01*
X157099392Y-97269787D01*
X153895444Y-97269787D01*
X153691337Y-97065680D01*
X153177881Y-96853000D01*
X152622119Y-96853000D01*
X152486716Y-96909086D01*
X152041883Y-96464253D01*
X151999371Y-96400629D01*
X151747317Y-96232212D01*
X151525048Y-96188000D01*
X151525043Y-96188000D01*
X151450000Y-96173073D01*
X151374957Y-96188000D01*
X149926707Y-96188000D01*
X149797765Y-96101843D01*
X149550000Y-96052560D01*
X148650000Y-96052560D01*
X148402235Y-96101843D01*
X148192191Y-96242191D01*
X148051843Y-96452235D01*
X148002560Y-96700000D01*
X148002560Y-97200000D01*
X148051843Y-97447765D01*
X148192191Y-97657809D01*
X148255334Y-97700000D01*
X148192191Y-97742191D01*
X148051843Y-97952235D01*
X148002560Y-98200000D01*
X148002560Y-98700000D01*
X148051843Y-98947765D01*
X148078727Y-98988000D01*
X145652440Y-98988000D01*
X145652440Y-97725000D01*
X145603157Y-97477235D01*
X145462809Y-97267191D01*
X145252765Y-97126843D01*
X145005000Y-97077560D01*
X144405000Y-97077560D01*
X144197000Y-97118933D01*
X144197000Y-96980630D01*
X146515630Y-94662000D01*
X171984370Y-94662000D01*
X172220527Y-94898158D01*
X172310182Y-95114603D01*
X172501686Y-95306107D01*
X172400391Y-95373791D01*
X172260043Y-95583835D01*
X172210760Y-95831600D01*
X172210760Y-97031600D01*
X172260043Y-97279365D01*
X172400391Y-97489409D01*
X172610435Y-97629757D01*
X172660406Y-97639697D01*
X172570243Y-97774635D01*
X172520960Y-98022400D01*
X172520960Y-98522400D01*
X172570243Y-98770165D01*
X172710591Y-98980209D01*
X172773734Y-99022400D01*
X172710591Y-99064591D01*
X172570243Y-99274635D01*
X172520960Y-99522400D01*
X172520960Y-100022400D01*
X172570243Y-100270165D01*
X172710591Y-100480209D01*
X172856401Y-100577637D01*
X172856401Y-100621309D01*
X172807345Y-100670365D01*
X172665000Y-101014017D01*
X172665000Y-101385983D01*
X172807345Y-101729635D01*
X173070365Y-101992655D01*
X173414017Y-102135000D01*
X173785983Y-102135000D01*
X174129635Y-101992655D01*
X174392655Y-101729635D01*
X174535000Y-101385983D01*
X174535000Y-101014017D01*
X174392655Y-100670365D01*
X174380400Y-100658110D01*
X174380400Y-100577636D01*
X174526209Y-100480209D01*
X174636226Y-100315558D01*
X174677243Y-100521765D01*
X174761401Y-100647715D01*
X174761401Y-100899267D01*
X174706000Y-101033017D01*
X174706000Y-101404983D01*
X174848345Y-101748635D01*
X175111365Y-102011655D01*
X175455017Y-102154000D01*
X175826983Y-102154000D01*
X176170635Y-102011655D01*
X176433655Y-101748635D01*
X176576000Y-101404983D01*
X176576000Y-101033017D01*
X176539400Y-100944657D01*
X176539400Y-100647714D01*
X176623557Y-100521765D01*
X176672840Y-100274000D01*
X176672840Y-99474000D01*
X176623557Y-99226235D01*
X176562527Y-99134898D01*
X176563727Y-99133698D01*
X176660400Y-98900309D01*
X176660400Y-98659750D01*
X176501650Y-98501000D01*
X175777400Y-98501000D01*
X175777400Y-98521000D01*
X175523400Y-98521000D01*
X175523400Y-98501000D01*
X175503400Y-98501000D01*
X175503400Y-98247000D01*
X175523400Y-98247000D01*
X175523400Y-97515650D01*
X175531200Y-97507850D01*
X175531200Y-97497750D01*
X175777400Y-97497750D01*
X175777400Y-98247000D01*
X176501650Y-98247000D01*
X176660400Y-98088250D01*
X176660400Y-97847691D01*
X176563727Y-97614302D01*
X176548216Y-97598790D01*
X176617898Y-97569927D01*
X176796527Y-97391299D01*
X176893200Y-97157910D01*
X176893200Y-96717350D01*
X176734450Y-96558600D01*
X175785200Y-96558600D01*
X175785200Y-97489950D01*
X175777400Y-97497750D01*
X175531200Y-97497750D01*
X175531200Y-96558600D01*
X175511200Y-96558600D01*
X175511200Y-96304600D01*
X175531200Y-96304600D01*
X175531200Y-96284600D01*
X175785200Y-96284600D01*
X175785200Y-96304600D01*
X176734450Y-96304600D01*
X176893200Y-96145850D01*
X176893200Y-95705290D01*
X176796527Y-95471901D01*
X176617898Y-95293273D01*
X176561183Y-95269781D01*
X176640286Y-95190678D01*
X176523748Y-95074140D01*
X176733712Y-95043197D01*
X176868226Y-94633052D01*
X176835546Y-94202651D01*
X176733712Y-93956803D01*
X176523748Y-93925860D01*
X176640286Y-93809322D01*
X176560862Y-93729898D01*
X176752733Y-93761834D01*
X176978209Y-93883495D01*
X177152124Y-94071635D01*
X177261495Y-94319026D01*
X177290001Y-94544674D01*
X177290000Y-102691315D01*
X177238166Y-103002733D01*
X177116506Y-103228209D01*
X176928366Y-103402123D01*
X176680974Y-103511494D01*
X176455327Y-103540000D01*
X162080074Y-103540000D01*
X162036122Y-103548743D01*
X161687979Y-103592723D01*
X161647707Y-103604767D01*
X161605801Y-103608065D01*
X161489880Y-103647754D01*
X161039381Y-103846918D01*
X160992649Y-103877615D01*
X160941334Y-103899821D01*
X160844522Y-103974917D01*
X160844517Y-103974920D01*
X160844515Y-103974923D01*
X160482819Y-104309269D01*
X160448550Y-104353448D01*
X160407191Y-104391082D01*
X160339929Y-104493481D01*
X160339923Y-104493489D01*
X160339923Y-104493490D01*
X160339922Y-104493492D01*
X160106027Y-104926977D01*
X160087916Y-104979874D01*
X160060978Y-105028874D01*
X160030507Y-105147552D01*
X159951457Y-105622481D01*
X159940001Y-105680074D01*
X159940000Y-109441314D01*
X159888166Y-109752733D01*
X159766506Y-109978209D01*
X159578366Y-110152123D01*
X159330974Y-110261494D01*
X159105327Y-110290000D01*
X123558685Y-110290000D01*
X123247267Y-110238166D01*
X123021791Y-110116506D01*
X122847877Y-109928366D01*
X122738506Y-109680974D01*
X122710000Y-109455327D01*
X122710000Y-108994421D01*
X122885397Y-109169818D01*
X123284180Y-109335000D01*
X123715820Y-109335000D01*
X124114603Y-109169818D01*
X124419818Y-108864603D01*
X124502560Y-108664847D01*
X124502560Y-108700000D01*
X124551843Y-108947765D01*
X124692191Y-109157809D01*
X124902235Y-109298157D01*
X125150000Y-109347440D01*
X126350000Y-109347440D01*
X126597765Y-109298157D01*
X126807809Y-109157809D01*
X126948157Y-108947765D01*
X126963862Y-108868810D01*
X127050191Y-108998009D01*
X127260235Y-109138357D01*
X127508000Y-109187640D01*
X128008000Y-109187640D01*
X128255765Y-109138357D01*
X128465809Y-108998009D01*
X128508000Y-108934866D01*
X128550191Y-108998009D01*
X128760235Y-109138357D01*
X129008000Y-109187640D01*
X129508000Y-109187640D01*
X129755765Y-109138357D01*
X129965809Y-108998009D01*
X130049888Y-108872178D01*
X130070365Y-108892655D01*
X130414017Y-109035000D01*
X130785983Y-109035000D01*
X131129635Y-108892655D01*
X131392655Y-108629635D01*
X131535000Y-108285983D01*
X131535000Y-107914017D01*
X131392655Y-107570365D01*
X131129635Y-107307345D01*
X130785983Y-107165000D01*
X130414017Y-107165000D01*
X130070365Y-107307345D01*
X130057738Y-107319972D01*
X129965809Y-107182391D01*
X129755765Y-107042043D01*
X129508000Y-106992760D01*
X129008000Y-106992760D01*
X128760235Y-107042043D01*
X128550191Y-107182391D01*
X128508000Y-107245534D01*
X128465809Y-107182391D01*
X128255765Y-107042043D01*
X128008000Y-106992760D01*
X127508000Y-106992760D01*
X127260235Y-107042043D01*
X127050191Y-107182391D01*
X126960858Y-107316087D01*
X126948157Y-107252235D01*
X126807809Y-107042191D01*
X126746680Y-107001346D01*
X126888327Y-106859698D01*
X126951225Y-106707850D01*
X127062502Y-106819127D01*
X127295891Y-106915800D01*
X127536450Y-106915800D01*
X127695200Y-106757050D01*
X127695200Y-106032800D01*
X126945950Y-106032800D01*
X126889000Y-106089750D01*
X126826250Y-106027000D01*
X125877000Y-106027000D01*
X125877000Y-106047000D01*
X125623000Y-106047000D01*
X125623000Y-106027000D01*
X125603000Y-106027000D01*
X125603000Y-105773000D01*
X125623000Y-105773000D01*
X125623000Y-104823750D01*
X125877000Y-104823750D01*
X125877000Y-105773000D01*
X126826250Y-105773000D01*
X126883200Y-105716050D01*
X126945950Y-105778800D01*
X127695200Y-105778800D01*
X127695200Y-105054550D01*
X127949200Y-105054550D01*
X127949200Y-105778800D01*
X127969200Y-105778800D01*
X127969200Y-106032800D01*
X127949200Y-106032800D01*
X127949200Y-106757050D01*
X128107950Y-106915800D01*
X128348509Y-106915800D01*
X128581898Y-106819127D01*
X128583098Y-106817927D01*
X128674435Y-106878957D01*
X128922200Y-106928240D01*
X129722200Y-106928240D01*
X129969965Y-106878957D01*
X130095914Y-106794800D01*
X130198279Y-106794800D01*
X130276017Y-106827000D01*
X130647983Y-106827000D01*
X130991635Y-106684655D01*
X131254655Y-106421635D01*
X131397000Y-106077983D01*
X131397000Y-105706017D01*
X131254655Y-105362365D01*
X130991635Y-105099345D01*
X130647983Y-104957000D01*
X130276017Y-104957000D01*
X130131647Y-105016800D01*
X130095914Y-105016800D01*
X129969965Y-104932643D01*
X129722200Y-104883360D01*
X128922200Y-104883360D01*
X128674435Y-104932643D01*
X128583098Y-104993673D01*
X128581898Y-104992473D01*
X128348509Y-104895800D01*
X128107950Y-104895800D01*
X127949200Y-105054550D01*
X127695200Y-105054550D01*
X127536450Y-104895800D01*
X127295891Y-104895800D01*
X127062502Y-104992473D01*
X126954622Y-105100352D01*
X126888327Y-104940302D01*
X126709699Y-104761673D01*
X126476310Y-104665000D01*
X126035750Y-104665000D01*
X125877000Y-104823750D01*
X125623000Y-104823750D01*
X125464250Y-104665000D01*
X125023690Y-104665000D01*
X124790301Y-104761673D01*
X124611673Y-104940302D01*
X124515000Y-105173691D01*
X124515000Y-105290623D01*
X124463712Y-105166803D01*
X124253745Y-105135860D01*
X123679605Y-105710000D01*
X123693748Y-105724143D01*
X123522890Y-105895000D01*
X123505395Y-105895000D01*
X123500000Y-105889605D01*
X123494605Y-105895000D01*
X123477110Y-105895000D01*
X123306253Y-105724143D01*
X123320395Y-105710000D01*
X122746255Y-105135860D01*
X122710000Y-105141203D01*
X122710000Y-104956255D01*
X122925860Y-104956255D01*
X123500000Y-105530395D01*
X124074140Y-104956255D01*
X124043197Y-104746288D01*
X123633052Y-104611774D01*
X123202651Y-104644454D01*
X122956803Y-104746288D01*
X122925860Y-104956255D01*
X122710000Y-104956255D01*
X122710000Y-97960180D01*
X123673220Y-97960180D01*
X123673220Y-99532440D01*
X123682820Y-99580878D01*
X124282260Y-101033758D01*
X124309755Y-101075020D01*
X125419735Y-102187540D01*
X125461027Y-102215168D01*
X126913907Y-102817148D01*
X126962520Y-102826820D01*
X128534780Y-102826820D01*
X128583290Y-102817190D01*
X130033630Y-102217750D01*
X130074820Y-102190285D01*
X131187340Y-101080305D01*
X131214938Y-101039086D01*
X131816918Y-99588746D01*
X131826620Y-99540060D01*
X131826620Y-97967800D01*
X131817020Y-97919362D01*
X131217580Y-96466482D01*
X131190085Y-96425220D01*
X130080105Y-95312700D01*
X130038886Y-95285102D01*
X128588546Y-94683122D01*
X128539860Y-94673420D01*
X126967600Y-94673420D01*
X126919162Y-94683020D01*
X125466282Y-95282460D01*
X125425020Y-95309955D01*
X124312500Y-96419935D01*
X124284902Y-96461154D01*
X123682922Y-97911494D01*
X123673220Y-97960180D01*
X122710000Y-97960180D01*
X122710000Y-94558686D01*
X122761834Y-94247267D01*
X122883495Y-94021791D01*
X123071635Y-93847876D01*
X123319026Y-93738505D01*
X123544666Y-93710000D01*
X145312370Y-93710000D01*
X143097906Y-95924464D01*
G36*
X175963748Y-94485858D02*
X175949605Y-94500000D01*
X175963748Y-94514143D01*
X175784143Y-94693748D01*
X175770000Y-94679605D01*
X175755858Y-94693748D01*
X175585000Y-94522890D01*
X175585000Y-94505395D01*
X175590395Y-94500000D01*
X175585000Y-94494605D01*
X175585000Y-94477110D01*
X175755858Y-94306253D01*
X175770000Y-94320395D01*
X175784143Y-94306253D01*
X175963748Y-94485858D01*
X175963748Y-94485858D01*
G37*
X175963748Y-94485858D02*
X175949605Y-94500000D01*
X175963748Y-94514143D01*
X175784143Y-94693748D01*
X175770000Y-94679605D01*
X175755858Y-94693748D01*
X175585000Y-94522890D01*
X175585000Y-94505395D01*
X175590395Y-94500000D01*
X175585000Y-94494605D01*
X175585000Y-94477110D01*
X175755858Y-94306253D01*
X175770000Y-94320395D01*
X175784143Y-94306253D01*
X175963748Y-94485858D01*
G04 #@! TD*
M02*
