G04 #@! TF.GenerationSoftware,KiCad,Pcbnew,(5.0.0-3-g5ebb6b6)*
G04 #@! TF.CreationDate,2018-08-08T21:58:00-07:00*
G04 #@! TF.ProjectId,MZBOT_XY-Endstop,4D5A424F545F58592D456E6473746F70,A*
G04 #@! TF.SameCoordinates,Original*
G04 #@! TF.FileFunction,Soldermask,Top*
G04 #@! TF.FilePolarity,Negative*
%FSLAX46Y46*%
G04 Gerber Fmt 4.6, Leading zero omitted, Abs format (unit mm)*
G04 Created by KiCad (PCBNEW (5.0.0-3-g5ebb6b6)) date Wednesday, August 08, 2018 at 09:58:00 PM*
%MOMM*%
%LPD*%
G01*
G04 APERTURE LIST*
%ADD10C,0.200000*%
%ADD11C,1.300000*%
%ADD12C,1.924000*%
%ADD13C,4.700000*%
%ADD14R,1.200000X1.150000*%
%ADD15C,2.432000*%
%ADD16R,0.900000X1.300000*%
%ADD17R,1.150000X1.200000*%
%ADD18R,1.300000X0.900000*%
%ADD19R,1.000000X1.950000*%
%ADD20R,1.300000X1.200000*%
%ADD21R,1.400000X1.650000*%
%ADD22R,1.600000X1.600000*%
G04 APERTURE END LIST*
D10*
X128000000Y-98750000D02*
G75*
G03X128000000Y-98750000I-250000J0D01*
G01*
X167250000Y-98750000D02*
G75*
G03X167250000Y-98750000I-250000J0D01*
G01*
D11*
G04 #@! TO.C,U1*
X123500000Y-106980000D03*
X123500000Y-105710000D03*
X123500000Y-108250000D03*
G04 #@! TD*
D12*
G04 #@! TO.C,VR1*
X155400000Y-108850000D03*
X152900000Y-106350000D03*
X157900000Y-106350000D03*
G04 #@! TD*
D13*
G04 #@! TO.C,REF\002A\002A*
X167000000Y-98750000D03*
G04 #@! TD*
G04 #@! TO.C,REF\002A\002A*
X127750000Y-98750000D03*
G04 #@! TD*
D14*
G04 #@! TO.C,C5*
X129322200Y-105905800D03*
X127822200Y-105905800D03*
G04 #@! TD*
D15*
G04 #@! TO.C,J1*
X146410000Y-107900000D03*
X143870000Y-107900000D03*
X141330000Y-107900000D03*
X138790000Y-107900000D03*
G04 #@! TD*
D16*
G04 #@! TO.C,R9*
X127758000Y-108090200D03*
X129258000Y-108090200D03*
G04 #@! TD*
D17*
G04 #@! TO.C,C1*
X149200000Y-108250000D03*
X149200000Y-106750000D03*
G04 #@! TD*
G04 #@! TO.C,C2*
X149100000Y-101250000D03*
X149100000Y-99750000D03*
G04 #@! TD*
D14*
G04 #@! TO.C,C3*
X134550000Y-106300000D03*
X136050000Y-106300000D03*
G04 #@! TD*
G04 #@! TO.C,C4*
X134550000Y-98400000D03*
X136050000Y-98400000D03*
G04 #@! TD*
D18*
G04 #@! TO.C,R1*
X149200000Y-105550000D03*
X149200000Y-104050000D03*
G04 #@! TD*
G04 #@! TO.C,R2*
X150700000Y-106750000D03*
X150700000Y-108250000D03*
G04 #@! TD*
G04 #@! TO.C,R3*
X149100000Y-98450000D03*
X149100000Y-96950000D03*
G04 #@! TD*
G04 #@! TO.C,R4*
X150700000Y-99750000D03*
X150700000Y-101250000D03*
G04 #@! TD*
G04 #@! TO.C,R10*
X173618400Y-98272400D03*
X173618400Y-99772400D03*
G04 #@! TD*
D11*
G04 #@! TO.C,U2*
X174500000Y-94500000D03*
X175770000Y-94500000D03*
X173230000Y-94500000D03*
G04 #@! TD*
D19*
G04 #@! TO.C,U3*
X140895000Y-103900000D03*
X142165000Y-103900000D03*
X143435000Y-103900000D03*
X144705000Y-103900000D03*
X144705000Y-98500000D03*
X143435000Y-98500000D03*
X142165000Y-98500000D03*
X140895000Y-98500000D03*
G04 #@! TD*
D20*
G04 #@! TO.C,U4*
X134500000Y-100250000D03*
X134500000Y-102150000D03*
X136500000Y-101200000D03*
G04 #@! TD*
D17*
G04 #@! TO.C,C6*
X175650400Y-99874000D03*
X175650400Y-98374000D03*
G04 #@! TD*
G04 #@! TO.C,C7*
X139100000Y-99650000D03*
X139100000Y-98150000D03*
G04 #@! TD*
D21*
G04 #@! TO.C,C8*
X136400000Y-104200000D03*
X134400000Y-104200000D03*
G04 #@! TD*
D22*
G04 #@! TO.C,D1*
X125750000Y-105900000D03*
X125750000Y-108100000D03*
G04 #@! TD*
G04 #@! TO.C,D2*
X175658200Y-96431600D03*
X173458200Y-96431600D03*
G04 #@! TD*
D12*
G04 #@! TO.C,VR2*
X155400000Y-100750000D03*
X152900000Y-98250000D03*
X157900000Y-98250000D03*
G04 #@! TD*
M02*
