G04 #@! TF.FileFunction,Legend,Top*
%FSLAX46Y46*%
G04 Gerber Fmt 4.6, Leading zero omitted, Abs format (unit mm)*
G04 Created by KiCad (PCBNEW 4.0.2-stable) date 1/4/2018 10:10:38 PM*
%MOMM*%
G01*
G04 APERTURE LIST*
%ADD10C,0.100000*%
%ADD11C,0.300000*%
%ADD12C,0.120000*%
%ADD13C,0.150000*%
G04 APERTURE END LIST*
D10*
D11*
X162357143Y-101778571D02*
X163357143Y-103278571D01*
X163357143Y-101778571D02*
X162357143Y-103278571D01*
X164214285Y-102564286D02*
X164214285Y-103278571D01*
X163714285Y-101778571D02*
X164214285Y-102564286D01*
X164714285Y-101778571D01*
X166357142Y-102492857D02*
X166857142Y-102492857D01*
X167071428Y-103278571D02*
X166357142Y-103278571D01*
X166357142Y-101778571D01*
X167071428Y-101778571D01*
X167714285Y-102278571D02*
X167714285Y-103278571D01*
X167714285Y-102421429D02*
X167785713Y-102350000D01*
X167928571Y-102278571D01*
X168142856Y-102278571D01*
X168285713Y-102350000D01*
X168357142Y-102492857D01*
X168357142Y-103278571D01*
X169714285Y-103278571D02*
X169714285Y-101778571D01*
X169714285Y-103207143D02*
X169571428Y-103278571D01*
X169285714Y-103278571D01*
X169142856Y-103207143D01*
X169071428Y-103135714D01*
X168999999Y-102992857D01*
X168999999Y-102564286D01*
X169071428Y-102421429D01*
X169142856Y-102350000D01*
X169285714Y-102278571D01*
X169571428Y-102278571D01*
X169714285Y-102350000D01*
X170357142Y-103207143D02*
X170499999Y-103278571D01*
X170785714Y-103278571D01*
X170928571Y-103207143D01*
X170999999Y-103064286D01*
X170999999Y-102992857D01*
X170928571Y-102850000D01*
X170785714Y-102778571D01*
X170571428Y-102778571D01*
X170428571Y-102707143D01*
X170357142Y-102564286D01*
X170357142Y-102492857D01*
X170428571Y-102350000D01*
X170571428Y-102278571D01*
X170785714Y-102278571D01*
X170928571Y-102350000D01*
X171428571Y-102278571D02*
X172000000Y-102278571D01*
X171642857Y-101778571D02*
X171642857Y-103064286D01*
X171714285Y-103207143D01*
X171857143Y-103278571D01*
X172000000Y-103278571D01*
X172714286Y-103278571D02*
X172571428Y-103207143D01*
X172500000Y-103135714D01*
X172428571Y-102992857D01*
X172428571Y-102564286D01*
X172500000Y-102421429D01*
X172571428Y-102350000D01*
X172714286Y-102278571D01*
X172928571Y-102278571D01*
X173071428Y-102350000D01*
X173142857Y-102421429D01*
X173214286Y-102564286D01*
X173214286Y-102992857D01*
X173142857Y-103135714D01*
X173071428Y-103207143D01*
X172928571Y-103278571D01*
X172714286Y-103278571D01*
X173857143Y-102278571D02*
X173857143Y-103778571D01*
X173857143Y-102350000D02*
X174000000Y-102278571D01*
X174285714Y-102278571D01*
X174428571Y-102350000D01*
X174500000Y-102421429D01*
X174571429Y-102564286D01*
X174571429Y-102992857D01*
X174500000Y-103135714D01*
X174428571Y-103207143D01*
X174285714Y-103278571D01*
X174000000Y-103278571D01*
X173857143Y-103207143D01*
D12*
X128922200Y-106505800D02*
X128222200Y-106505800D01*
X128222200Y-105305800D02*
X128922200Y-105305800D01*
X129008000Y-108770200D02*
X128008000Y-108770200D01*
X128008000Y-107410200D02*
X129008000Y-107410200D01*
X148600000Y-107850000D02*
X148600000Y-107150000D01*
X149800000Y-107150000D02*
X149800000Y-107850000D01*
X148500000Y-100850000D02*
X148500000Y-100150000D01*
X149700000Y-100150000D02*
X149700000Y-100850000D01*
X134950000Y-105700000D02*
X135650000Y-105700000D01*
X135650000Y-106900000D02*
X134950000Y-106900000D01*
X134950000Y-97800000D02*
X135650000Y-97800000D01*
X135650000Y-99000000D02*
X134950000Y-99000000D01*
X149880000Y-104300000D02*
X149880000Y-105300000D01*
X148520000Y-105300000D02*
X148520000Y-104300000D01*
X150020000Y-108000000D02*
X150020000Y-107000000D01*
X151380000Y-107000000D02*
X151380000Y-108000000D01*
X149780000Y-97200000D02*
X149780000Y-98200000D01*
X148420000Y-98200000D02*
X148420000Y-97200000D01*
X150020000Y-101000000D02*
X150020000Y-100000000D01*
X151380000Y-100000000D02*
X151380000Y-101000000D01*
X172938400Y-99522400D02*
X172938400Y-98522400D01*
X174298400Y-98522400D02*
X174298400Y-99522400D01*
D13*
X122500000Y-105680000D02*
X122500000Y-108280000D01*
X124300000Y-108980000D02*
X123200000Y-108980000D01*
X122500000Y-108280000D02*
X123200000Y-108980000D01*
X124300000Y-104980000D02*
X123200000Y-104980000D01*
X123200000Y-104980000D02*
X122500000Y-105680000D01*
X124300000Y-106980000D02*
X124300000Y-108980000D01*
X124300000Y-106980000D02*
X124300000Y-104980000D01*
X175800000Y-93500000D02*
X173200000Y-93500000D01*
X172500000Y-95300000D02*
X172500000Y-94200000D01*
X173200000Y-93500000D02*
X172500000Y-94200000D01*
X176500000Y-95300000D02*
X176500000Y-94200000D01*
X176500000Y-94200000D02*
X175800000Y-93500000D01*
X174500000Y-95300000D02*
X172500000Y-95300000D01*
X174500000Y-95300000D02*
X176500000Y-95300000D01*
X140225000Y-103275000D02*
X140275000Y-103275000D01*
X140225000Y-99125000D02*
X140370000Y-99125000D01*
X145375000Y-99125000D02*
X145230000Y-99125000D01*
X145375000Y-103275000D02*
X145230000Y-103275000D01*
X140225000Y-103275000D02*
X140225000Y-99125000D01*
X145375000Y-103275000D02*
X145375000Y-99125000D01*
X140275000Y-103275000D02*
X140275000Y-104675000D01*
D12*
X136260000Y-102780000D02*
X136260000Y-101850000D01*
X136260000Y-99620000D02*
X136260000Y-100550000D01*
X136260000Y-99620000D02*
X134100000Y-99620000D01*
X136260000Y-102780000D02*
X134800000Y-102780000D01*
X175050400Y-99474000D02*
X175050400Y-98774000D01*
X176250400Y-98774000D02*
X176250400Y-99474000D01*
X138500000Y-99250000D02*
X138500000Y-98550000D01*
X139700000Y-98550000D02*
X139700000Y-99250000D01*
X134900000Y-105050000D02*
X135900000Y-105050000D01*
X135900000Y-103350000D02*
X134900000Y-103350000D01*
X125050000Y-108800000D02*
X126450000Y-108800000D01*
X126450000Y-108800000D02*
X126450000Y-106000000D01*
X125050000Y-108800000D02*
X125050000Y-106000000D01*
X172758200Y-95731600D02*
X172758200Y-97131600D01*
X172758200Y-97131600D02*
X175558200Y-97131600D01*
X172758200Y-95731600D02*
X175558200Y-95731600D01*
X128400000Y-104914286D02*
X128371429Y-104942857D01*
X128285715Y-104971429D01*
X128228572Y-104971429D01*
X128142857Y-104942857D01*
X128085715Y-104885714D01*
X128057143Y-104828571D01*
X128028572Y-104714286D01*
X128028572Y-104628571D01*
X128057143Y-104514286D01*
X128085715Y-104457143D01*
X128142857Y-104400000D01*
X128228572Y-104371429D01*
X128285715Y-104371429D01*
X128371429Y-104400000D01*
X128400000Y-104428571D01*
X128942857Y-104371429D02*
X128657143Y-104371429D01*
X128628572Y-104657143D01*
X128657143Y-104628571D01*
X128714286Y-104600000D01*
X128857143Y-104600000D01*
X128914286Y-104628571D01*
X128942857Y-104657143D01*
X128971429Y-104714286D01*
X128971429Y-104857143D01*
X128942857Y-104914286D01*
X128914286Y-104942857D01*
X128857143Y-104971429D01*
X128714286Y-104971429D01*
X128657143Y-104942857D01*
X128628572Y-104914286D01*
X128400000Y-109671429D02*
X128200000Y-109385714D01*
X128057143Y-109671429D02*
X128057143Y-109071429D01*
X128285715Y-109071429D01*
X128342857Y-109100000D01*
X128371429Y-109128571D01*
X128400000Y-109185714D01*
X128400000Y-109271429D01*
X128371429Y-109328571D01*
X128342857Y-109357143D01*
X128285715Y-109385714D01*
X128057143Y-109385714D01*
X128685715Y-109671429D02*
X128800000Y-109671429D01*
X128857143Y-109642857D01*
X128885715Y-109614286D01*
X128942857Y-109528571D01*
X128971429Y-109414286D01*
X128971429Y-109185714D01*
X128942857Y-109128571D01*
X128914286Y-109100000D01*
X128857143Y-109071429D01*
X128742857Y-109071429D01*
X128685715Y-109100000D01*
X128657143Y-109128571D01*
X128628572Y-109185714D01*
X128628572Y-109328571D01*
X128657143Y-109385714D01*
X128685715Y-109414286D01*
X128742857Y-109442857D01*
X128857143Y-109442857D01*
X128914286Y-109414286D01*
X128942857Y-109385714D01*
X128971429Y-109328571D01*
X149364286Y-109600000D02*
X149392857Y-109628571D01*
X149421429Y-109714285D01*
X149421429Y-109771428D01*
X149392857Y-109857143D01*
X149335714Y-109914285D01*
X149278571Y-109942857D01*
X149164286Y-109971428D01*
X149078571Y-109971428D01*
X148964286Y-109942857D01*
X148907143Y-109914285D01*
X148850000Y-109857143D01*
X148821429Y-109771428D01*
X148821429Y-109714285D01*
X148850000Y-109628571D01*
X148878571Y-109600000D01*
X149421429Y-109028571D02*
X149421429Y-109371428D01*
X149421429Y-109200000D02*
X148821429Y-109200000D01*
X148907143Y-109257143D01*
X148964286Y-109314285D01*
X148992857Y-109371428D01*
X148114286Y-100600000D02*
X148142857Y-100628571D01*
X148171429Y-100714285D01*
X148171429Y-100771428D01*
X148142857Y-100857143D01*
X148085714Y-100914285D01*
X148028571Y-100942857D01*
X147914286Y-100971428D01*
X147828571Y-100971428D01*
X147714286Y-100942857D01*
X147657143Y-100914285D01*
X147600000Y-100857143D01*
X147571429Y-100771428D01*
X147571429Y-100714285D01*
X147600000Y-100628571D01*
X147628571Y-100600000D01*
X147628571Y-100371428D02*
X147600000Y-100342857D01*
X147571429Y-100285714D01*
X147571429Y-100142857D01*
X147600000Y-100085714D01*
X147628571Y-100057143D01*
X147685714Y-100028571D01*
X147742857Y-100028571D01*
X147828571Y-100057143D01*
X148171429Y-100400000D01*
X148171429Y-100028571D01*
X133050000Y-106564286D02*
X133021429Y-106592857D01*
X132935715Y-106621429D01*
X132878572Y-106621429D01*
X132792857Y-106592857D01*
X132735715Y-106535714D01*
X132707143Y-106478571D01*
X132678572Y-106364286D01*
X132678572Y-106278571D01*
X132707143Y-106164286D01*
X132735715Y-106107143D01*
X132792857Y-106050000D01*
X132878572Y-106021429D01*
X132935715Y-106021429D01*
X133021429Y-106050000D01*
X133050000Y-106078571D01*
X133250000Y-106021429D02*
X133621429Y-106021429D01*
X133421429Y-106250000D01*
X133507143Y-106250000D01*
X133564286Y-106278571D01*
X133592857Y-106307143D01*
X133621429Y-106364286D01*
X133621429Y-106507143D01*
X133592857Y-106564286D01*
X133564286Y-106592857D01*
X133507143Y-106621429D01*
X133335715Y-106621429D01*
X133278572Y-106592857D01*
X133250000Y-106564286D01*
X133100000Y-98614286D02*
X133071429Y-98642857D01*
X132985715Y-98671429D01*
X132928572Y-98671429D01*
X132842857Y-98642857D01*
X132785715Y-98585714D01*
X132757143Y-98528571D01*
X132728572Y-98414286D01*
X132728572Y-98328571D01*
X132757143Y-98214286D01*
X132785715Y-98157143D01*
X132842857Y-98100000D01*
X132928572Y-98071429D01*
X132985715Y-98071429D01*
X133071429Y-98100000D01*
X133100000Y-98128571D01*
X133614286Y-98271429D02*
X133614286Y-98671429D01*
X133471429Y-98042857D02*
X133328572Y-98471429D01*
X133700000Y-98471429D01*
X148221429Y-104900000D02*
X147935714Y-105100000D01*
X148221429Y-105242857D02*
X147621429Y-105242857D01*
X147621429Y-105014285D01*
X147650000Y-104957143D01*
X147678571Y-104928571D01*
X147735714Y-104900000D01*
X147821429Y-104900000D01*
X147878571Y-104928571D01*
X147907143Y-104957143D01*
X147935714Y-105014285D01*
X147935714Y-105242857D01*
X148221429Y-104328571D02*
X148221429Y-104671428D01*
X148221429Y-104500000D02*
X147621429Y-104500000D01*
X147707143Y-104557143D01*
X147764286Y-104614285D01*
X147792857Y-104671428D01*
X150971429Y-109650000D02*
X150685714Y-109850000D01*
X150971429Y-109992857D02*
X150371429Y-109992857D01*
X150371429Y-109764285D01*
X150400000Y-109707143D01*
X150428571Y-109678571D01*
X150485714Y-109650000D01*
X150571429Y-109650000D01*
X150628571Y-109678571D01*
X150657143Y-109707143D01*
X150685714Y-109764285D01*
X150685714Y-109992857D01*
X150428571Y-109421428D02*
X150400000Y-109392857D01*
X150371429Y-109335714D01*
X150371429Y-109192857D01*
X150400000Y-109135714D01*
X150428571Y-109107143D01*
X150485714Y-109078571D01*
X150542857Y-109078571D01*
X150628571Y-109107143D01*
X150971429Y-109450000D01*
X150971429Y-109078571D01*
X148201429Y-97770000D02*
X147915714Y-97970000D01*
X148201429Y-98112857D02*
X147601429Y-98112857D01*
X147601429Y-97884285D01*
X147630000Y-97827143D01*
X147658571Y-97798571D01*
X147715714Y-97770000D01*
X147801429Y-97770000D01*
X147858571Y-97798571D01*
X147887143Y-97827143D01*
X147915714Y-97884285D01*
X147915714Y-98112857D01*
X147601429Y-97570000D02*
X147601429Y-97198571D01*
X147830000Y-97398571D01*
X147830000Y-97312857D01*
X147858571Y-97255714D01*
X147887143Y-97227143D01*
X147944286Y-97198571D01*
X148087143Y-97198571D01*
X148144286Y-97227143D01*
X148172857Y-97255714D01*
X148201429Y-97312857D01*
X148201429Y-97484285D01*
X148172857Y-97541428D01*
X148144286Y-97570000D01*
X150971429Y-98750000D02*
X150685714Y-98950000D01*
X150971429Y-99092857D02*
X150371429Y-99092857D01*
X150371429Y-98864285D01*
X150400000Y-98807143D01*
X150428571Y-98778571D01*
X150485714Y-98750000D01*
X150571429Y-98750000D01*
X150628571Y-98778571D01*
X150657143Y-98807143D01*
X150685714Y-98864285D01*
X150685714Y-99092857D01*
X150571429Y-98235714D02*
X150971429Y-98235714D01*
X150342857Y-98378571D02*
X150771429Y-98521428D01*
X150771429Y-98150000D01*
X172521429Y-99385715D02*
X172235714Y-99585715D01*
X172521429Y-99728572D02*
X171921429Y-99728572D01*
X171921429Y-99500000D01*
X171950000Y-99442858D01*
X171978571Y-99414286D01*
X172035714Y-99385715D01*
X172121429Y-99385715D01*
X172178571Y-99414286D01*
X172207143Y-99442858D01*
X172235714Y-99500000D01*
X172235714Y-99728572D01*
X172521429Y-98814286D02*
X172521429Y-99157143D01*
X172521429Y-98985715D02*
X171921429Y-98985715D01*
X172007143Y-99042858D01*
X172064286Y-99100000D01*
X172092857Y-99157143D01*
X171921429Y-98442857D02*
X171921429Y-98385714D01*
X171950000Y-98328571D01*
X171978571Y-98300000D01*
X172035714Y-98271429D01*
X172150000Y-98242857D01*
X172292857Y-98242857D01*
X172407143Y-98271429D01*
X172464286Y-98300000D01*
X172492857Y-98328571D01*
X172521429Y-98385714D01*
X172521429Y-98442857D01*
X172492857Y-98500000D01*
X172464286Y-98528571D01*
X172407143Y-98557143D01*
X172292857Y-98585714D01*
X172150000Y-98585714D01*
X172035714Y-98557143D01*
X171978571Y-98528571D01*
X171950000Y-98500000D01*
X171921429Y-98442857D01*
X123471429Y-104557143D02*
X123957143Y-104557143D01*
X124014286Y-104528571D01*
X124042857Y-104500000D01*
X124071429Y-104442857D01*
X124071429Y-104328571D01*
X124042857Y-104271429D01*
X124014286Y-104242857D01*
X123957143Y-104214286D01*
X123471429Y-104214286D01*
X124071429Y-103614286D02*
X124071429Y-103957143D01*
X124071429Y-103785715D02*
X123471429Y-103785715D01*
X123557143Y-103842858D01*
X123614286Y-103900000D01*
X123642857Y-103957143D01*
X171142857Y-94471429D02*
X171142857Y-94957143D01*
X171171429Y-95014286D01*
X171200000Y-95042857D01*
X171257143Y-95071429D01*
X171371429Y-95071429D01*
X171428571Y-95042857D01*
X171457143Y-95014286D01*
X171485714Y-94957143D01*
X171485714Y-94471429D01*
X171742857Y-94528571D02*
X171771428Y-94500000D01*
X171828571Y-94471429D01*
X171971428Y-94471429D01*
X172028571Y-94500000D01*
X172057142Y-94528571D01*
X172085714Y-94585714D01*
X172085714Y-94642857D01*
X172057142Y-94728571D01*
X171714285Y-95071429D01*
X172085714Y-95071429D01*
X146092857Y-98821429D02*
X146092857Y-99307143D01*
X146121429Y-99364286D01*
X146150000Y-99392857D01*
X146207143Y-99421429D01*
X146321429Y-99421429D01*
X146378571Y-99392857D01*
X146407143Y-99364286D01*
X146435714Y-99307143D01*
X146435714Y-98821429D01*
X146664285Y-98821429D02*
X147035714Y-98821429D01*
X146835714Y-99050000D01*
X146921428Y-99050000D01*
X146978571Y-99078571D01*
X147007142Y-99107143D01*
X147035714Y-99164286D01*
X147035714Y-99307143D01*
X147007142Y-99364286D01*
X146978571Y-99392857D01*
X146921428Y-99421429D01*
X146750000Y-99421429D01*
X146692857Y-99392857D01*
X146664285Y-99364286D01*
X132642857Y-100871429D02*
X132642857Y-101357143D01*
X132671429Y-101414286D01*
X132700000Y-101442857D01*
X132757143Y-101471429D01*
X132871429Y-101471429D01*
X132928571Y-101442857D01*
X132957143Y-101414286D01*
X132985714Y-101357143D01*
X132985714Y-100871429D01*
X133528571Y-101071429D02*
X133528571Y-101471429D01*
X133385714Y-100842857D02*
X133242857Y-101271429D01*
X133614285Y-101271429D01*
X177114286Y-99200000D02*
X177142857Y-99228571D01*
X177171429Y-99314285D01*
X177171429Y-99371428D01*
X177142857Y-99457143D01*
X177085714Y-99514285D01*
X177028571Y-99542857D01*
X176914286Y-99571428D01*
X176828571Y-99571428D01*
X176714286Y-99542857D01*
X176657143Y-99514285D01*
X176600000Y-99457143D01*
X176571429Y-99371428D01*
X176571429Y-99314285D01*
X176600000Y-99228571D01*
X176628571Y-99200000D01*
X176571429Y-98685714D02*
X176571429Y-98800000D01*
X176600000Y-98857143D01*
X176628571Y-98885714D01*
X176714286Y-98942857D01*
X176828571Y-98971428D01*
X177057143Y-98971428D01*
X177114286Y-98942857D01*
X177142857Y-98914285D01*
X177171429Y-98857143D01*
X177171429Y-98742857D01*
X177142857Y-98685714D01*
X177114286Y-98657143D01*
X177057143Y-98628571D01*
X176914286Y-98628571D01*
X176857143Y-98657143D01*
X176828571Y-98685714D01*
X176800000Y-98742857D01*
X176800000Y-98857143D01*
X176828571Y-98914285D01*
X176857143Y-98942857D01*
X176914286Y-98971428D01*
X138064286Y-99000000D02*
X138092857Y-99028571D01*
X138121429Y-99114285D01*
X138121429Y-99171428D01*
X138092857Y-99257143D01*
X138035714Y-99314285D01*
X137978571Y-99342857D01*
X137864286Y-99371428D01*
X137778571Y-99371428D01*
X137664286Y-99342857D01*
X137607143Y-99314285D01*
X137550000Y-99257143D01*
X137521429Y-99171428D01*
X137521429Y-99114285D01*
X137550000Y-99028571D01*
X137578571Y-99000000D01*
X137521429Y-98800000D02*
X137521429Y-98400000D01*
X138121429Y-98657143D01*
X132900000Y-104414286D02*
X132871429Y-104442857D01*
X132785715Y-104471429D01*
X132728572Y-104471429D01*
X132642857Y-104442857D01*
X132585715Y-104385714D01*
X132557143Y-104328571D01*
X132528572Y-104214286D01*
X132528572Y-104128571D01*
X132557143Y-104014286D01*
X132585715Y-103957143D01*
X132642857Y-103900000D01*
X132728572Y-103871429D01*
X132785715Y-103871429D01*
X132871429Y-103900000D01*
X132900000Y-103928571D01*
X133242857Y-104128571D02*
X133185715Y-104100000D01*
X133157143Y-104071429D01*
X133128572Y-104014286D01*
X133128572Y-103985714D01*
X133157143Y-103928571D01*
X133185715Y-103900000D01*
X133242857Y-103871429D01*
X133357143Y-103871429D01*
X133414286Y-103900000D01*
X133442857Y-103928571D01*
X133471429Y-103985714D01*
X133471429Y-104014286D01*
X133442857Y-104071429D01*
X133414286Y-104100000D01*
X133357143Y-104128571D01*
X133242857Y-104128571D01*
X133185715Y-104157143D01*
X133157143Y-104185714D01*
X133128572Y-104242857D01*
X133128572Y-104357143D01*
X133157143Y-104414286D01*
X133185715Y-104442857D01*
X133242857Y-104471429D01*
X133357143Y-104471429D01*
X133414286Y-104442857D01*
X133442857Y-104414286D01*
X133471429Y-104357143D01*
X133471429Y-104242857D01*
X133442857Y-104185714D01*
X133414286Y-104157143D01*
X133357143Y-104128571D01*
X126071429Y-104742857D02*
X125471429Y-104742857D01*
X125471429Y-104600000D01*
X125500000Y-104514285D01*
X125557143Y-104457143D01*
X125614286Y-104428571D01*
X125728571Y-104400000D01*
X125814286Y-104400000D01*
X125928571Y-104428571D01*
X125985714Y-104457143D01*
X126042857Y-104514285D01*
X126071429Y-104600000D01*
X126071429Y-104742857D01*
X126071429Y-103828571D02*
X126071429Y-104171428D01*
X126071429Y-104000000D02*
X125471429Y-104000000D01*
X125557143Y-104057143D01*
X125614286Y-104114285D01*
X125642857Y-104171428D01*
X171257143Y-96771429D02*
X171257143Y-96171429D01*
X171400000Y-96171429D01*
X171485715Y-96200000D01*
X171542857Y-96257143D01*
X171571429Y-96314286D01*
X171600000Y-96428571D01*
X171600000Y-96514286D01*
X171571429Y-96628571D01*
X171542857Y-96685714D01*
X171485715Y-96742857D01*
X171400000Y-96771429D01*
X171257143Y-96771429D01*
X171828572Y-96228571D02*
X171857143Y-96200000D01*
X171914286Y-96171429D01*
X172057143Y-96171429D01*
X172114286Y-96200000D01*
X172142857Y-96228571D01*
X172171429Y-96285714D01*
X172171429Y-96342857D01*
X172142857Y-96428571D01*
X171800000Y-96771429D01*
X172171429Y-96771429D01*
M02*
