G04 #@! TF.FileFunction,Soldermask,Bot*
%FSLAX46Y46*%
G04 Gerber Fmt 4.6, Leading zero omitted, Abs format (unit mm)*
G04 Created by KiCad (PCBNEW 4.0.7) date 04/07/18 14:14:12*
%MOMM*%
%LPD*%
G01*
G04 APERTURE LIST*
%ADD10C,0.100000*%
%ADD11R,2.100000X2.100000*%
%ADD12O,2.100000X2.100000*%
G04 APERTURE END LIST*
D10*
D11*
X3302000Y2413000D03*
D12*
X3302000Y4953000D03*
X5842000Y2413000D03*
X5842000Y4953000D03*
X8382000Y2413000D03*
X8382000Y4953000D03*
X10922000Y2413000D03*
X10922000Y4953000D03*
X13462000Y2413000D03*
X13462000Y4953000D03*
X16002000Y2413000D03*
X16002000Y4953000D03*
X18542000Y2413000D03*
X18542000Y4953000D03*
X21082000Y2413000D03*
X21082000Y4953000D03*
X23622000Y2413000D03*
X23622000Y4953000D03*
X26162000Y2413000D03*
X26162000Y4953000D03*
X28702000Y2413000D03*
X28702000Y4953000D03*
X31242000Y2413000D03*
X31242000Y4953000D03*
D11*
X3302000Y13208000D03*
D12*
X3302000Y15748000D03*
X5842000Y13208000D03*
X5842000Y15748000D03*
X8382000Y13208000D03*
X8382000Y15748000D03*
X10922000Y13208000D03*
X10922000Y15748000D03*
X13462000Y13208000D03*
X13462000Y15748000D03*
X16002000Y13208000D03*
X16002000Y15748000D03*
X18542000Y13208000D03*
X18542000Y15748000D03*
X21082000Y13208000D03*
X21082000Y15748000D03*
X23622000Y13208000D03*
X23622000Y15748000D03*
X26162000Y13208000D03*
X26162000Y15748000D03*
X28702000Y13208000D03*
X28702000Y15748000D03*
X31242000Y13208000D03*
X31242000Y15748000D03*
M02*
