G04 #@! TF.FileFunction,Copper,L1,Top,Signal*
%FSLAX46Y46*%
G04 Gerber Fmt 4.6, Leading zero omitted, Abs format (unit mm)*
G04 Created by KiCad (PCBNEW 4.0.7) date 04/07/18 14:14:11*
%MOMM*%
%LPD*%
G01*
G04 APERTURE LIST*
%ADD10C,0.100000*%
%ADD11R,1.700000X1.700000*%
%ADD12O,1.700000X1.700000*%
%ADD13C,0.304800*%
G04 APERTURE END LIST*
D10*
D11*
X3302000Y2413000D03*
D12*
X3302000Y4953000D03*
X5842000Y2413000D03*
X5842000Y4953000D03*
X8382000Y2413000D03*
X8382000Y4953000D03*
X10922000Y2413000D03*
X10922000Y4953000D03*
X13462000Y2413000D03*
X13462000Y4953000D03*
X16002000Y2413000D03*
X16002000Y4953000D03*
X18542000Y2413000D03*
X18542000Y4953000D03*
X21082000Y2413000D03*
X21082000Y4953000D03*
X23622000Y2413000D03*
X23622000Y4953000D03*
X26162000Y2413000D03*
X26162000Y4953000D03*
X28702000Y2413000D03*
X28702000Y4953000D03*
X31242000Y2413000D03*
X31242000Y4953000D03*
D11*
X3302000Y13208000D03*
D12*
X3302000Y15748000D03*
X5842000Y13208000D03*
X5842000Y15748000D03*
X8382000Y13208000D03*
X8382000Y15748000D03*
X10922000Y13208000D03*
X10922000Y15748000D03*
X13462000Y13208000D03*
X13462000Y15748000D03*
X16002000Y13208000D03*
X16002000Y15748000D03*
X18542000Y13208000D03*
X18542000Y15748000D03*
X21082000Y13208000D03*
X21082000Y15748000D03*
X23622000Y13208000D03*
X23622000Y15748000D03*
X26162000Y13208000D03*
X26162000Y15748000D03*
X28702000Y13208000D03*
X28702000Y15748000D03*
X31242000Y13208000D03*
X31242000Y15748000D03*
D13*
X8382000Y2413000D02*
X7112000Y3683000D01*
X9652000Y14478000D02*
X10922000Y15748000D01*
X9652000Y9398000D02*
X9652000Y14478000D01*
X7112000Y6858000D02*
X9652000Y9398000D01*
X7112000Y3683000D02*
X7112000Y6858000D01*
X8382000Y4953000D02*
X8382000Y6223000D01*
X12192000Y14478000D02*
X13462000Y15748000D01*
X12192000Y10033000D02*
X12192000Y14478000D01*
X8382000Y6223000D02*
X12192000Y10033000D01*
X16002000Y2413000D02*
X17272000Y3683000D01*
X19812000Y14478000D02*
X21082000Y15748000D01*
X19812000Y9398000D02*
X19812000Y14478000D01*
X17272000Y6858000D02*
X19812000Y9398000D01*
X17272000Y3683000D02*
X17272000Y6858000D01*
X16002000Y4953000D02*
X16002000Y6223000D01*
X14732000Y14478000D02*
X16002000Y15748000D01*
X14732000Y7493000D02*
X14732000Y14478000D01*
X16002000Y6223000D02*
X14732000Y7493000D01*
X21082000Y4953000D02*
X21082000Y5588000D01*
X21082000Y5588000D02*
X27432000Y11938000D01*
X27432000Y14478000D02*
X28702000Y15748000D01*
X27432000Y11938000D02*
X27432000Y14478000D01*
X22352000Y14478000D02*
X23622000Y15748000D01*
X22352000Y9398000D02*
X22352000Y14478000D01*
X19812000Y6858000D02*
X22352000Y9398000D01*
X19812000Y4318000D02*
X19812000Y6858000D01*
X20447000Y3683000D02*
X19812000Y4318000D01*
X22352000Y3683000D02*
X20447000Y3683000D01*
X23622000Y2413000D02*
X22352000Y3683000D01*
X23622000Y6223000D02*
X28702000Y11303000D01*
X23622000Y4953000D02*
X23622000Y6223000D01*
X28702000Y11303000D02*
X28702000Y13208000D01*
X23622000Y4953000D02*
X23622000Y5588000D01*
X31242000Y2413000D02*
X29972000Y3683000D01*
X29972000Y11938000D02*
X31242000Y13208000D01*
X29972000Y3683000D02*
X29972000Y11938000D01*
M02*
